<svg id="Layer_1" data-name="Layer 1" xmlns="http://www.w3.org/2000/svg" viewBox="0 0 31.76 29.92"><defs><style>.cls-1{fill:#232862;}</style></defs><title>Step5</title><g id="bill-payment-invoice"><path id="Path_2306" data-name="Path 2306" class="cls-1" d="M31.08,11a.53.53,0,0,0,.53-.53h0V3.06A2.64,2.64,0,0,0,29,.42H9A2.64,2.64,0,0,0,6.32,3.06V4.11H5.06A4,4,0,0,0,1.88,5.69H0v1H1.3a4,4,0,0,0-.24,1.38v3.57a4.09,4.09,0,0,0,.24,1.38H0v1H1.88A4,4,0,0,0,5.06,15.7H6.32v4.74H3.69a.53.53,0,0,0-.53.53h0v6.84a2.1,2.1,0,0,0,2.11,2.11H24.76a2.63,2.63,0,0,0,2.63-2.63V24.65H29.5a2.11,2.11,0,1,0,0-4.21H27.39V11Zm-.52-7.9V9.9H27.4V3.06a1.58,1.58,0,1,1,3.16,0ZM5.06,14.65a3,3,0,0,1-2.95-3V8.12a3,3,0,0,1,2.95-3h5a1.06,1.06,0,0,1,0,2.11H5.79V8.32h.53v6.32ZM4.21,27.81V21.49H6.32v6.32a1.06,1.06,0,0,1-2.11,0Zm10.54-4.53-1.46-.73,1.46-.73Zm1.05-1.79h9.49V23.6H15.8Zm11.59,0V23.6H26.34V21.49Zm3.16,1.06A1,1,0,0,1,29.5,23.6H28.45V21.49H29.5a1.06,1.06,0,0,1,1.06,1.05h0ZM15.28,20.44a.69.69,0,0,0-.24,0l-3.16,1.58a.53.53,0,0,0-.24.71.62.62,0,0,0,.24.24L15,24.6a.64.64,0,0,0,.24,0H26.34v2.64a1.58,1.58,0,0,1-1.58,1.58H7.08a2.06,2.06,0,0,0,.29-1.06V8.32H10a2.11,2.11,0,1,0,0-4.21H7.37V3.06A1.58,1.58,0,0,1,9,1.48H26.88a2.56,2.56,0,0,0-.54,1.58V20.44Z"/><path id="Path_2307" data-name="Path 2307" class="cls-1" d="M15.8,7.8H14.75a1.58,1.58,0,0,0,1.58,1.58h0V9.9h1.05V9.38a1.58,1.58,0,1,0,0-3.16V5.16a.53.53,0,0,1,.53.53H19a1.58,1.58,0,0,0-1.58-1.58h0V3.58H16.33v.53a1.58,1.58,0,0,0,0,3.16h0V8.32a.52.52,0,0,1-.53-.52Zm0-2.11a.53.53,0,0,1,.53-.53h0V6.22a.53.53,0,0,1-.53-.53Zm1.58,1.58a.53.53,0,0,1,.53.53.52.52,0,0,1-.53.52Z"/><path id="Path_2308" data-name="Path 2308" class="cls-1" d="M10,12.54h13.7v1.05H10Z"/><path id="Path_2309" data-name="Path 2309" class="cls-1" d="M10,15.7h4.74v1.05H10Z"/><path id="Path_2310" data-name="Path 2310" class="cls-1" d="M16.86,15.7h6.85v1.05H16.86Z"/></g></svg>