<svg id="Layer_1" data-name="Layer 1" xmlns="http://www.w3.org/2000/svg" viewBox="0 0 31.76 32.15"><defs><style>.cls-1{fill:#232862;}</style></defs><title>Step2</title><path id="Path_2155" data-name="Path 2155" class="cls-1" d="M31.23,26.38H29.11V11a.53.53,0,0,0-.53-.53H25.39a.53.53,0,0,0-.53.53.53.53,0,0,0,.53.53H28V26.38H20.61a.52.52,0,0,0-.52.53.52.52,0,0,0,.52.53H30.7V29a1.59,1.59,0,0,1-1.59,1.59H2.57A1.59,1.59,0,0,1,1,29H1V27.44H11.59V28.5a.53.53,0,0,0,.53.53h7.43a.53.53,0,0,0,.53-.53.53.53,0,0,0-.53-.53h-6.9V26.91a.53.53,0,0,0-.53-.53H3.63V11.52H6.28A.53.53,0,0,0,6.81,11a.52.52,0,0,0-.53-.52H3.1a.53.53,0,0,0-.53.53V26.38H.45a.54.54,0,0,0-.54.53V29a2.66,2.66,0,0,0,2.66,2.66H29.11A2.66,2.66,0,0,0,31.76,29V26.91A.53.53,0,0,0,31.23,26.38Z"/><path id="Path_2156" data-name="Path 2156" class="cls-1" d="M6.28,13.64a.53.53,0,0,0,0-1.06H5.22a.53.53,0,0,0-.53.53V24.79a.53.53,0,0,0,.53.53H26.45a.53.53,0,0,0,.53-.53V13.11a.53.53,0,0,0-.53-.53H25.39a.53.53,0,1,0,0,1.06h.53V24.25H5.75V13.64Z"/><path id="Path_2163" data-name="Path 2163" class="cls-1" d="M8.41,20H23.27a.53.53,0,0,0,.53-.53V7.27a.53.53,0,0,0-.53-.53.53.53,0,0,0-.53.53V19H8.94V1.43h13.8V5.15a.53.53,0,0,0,1.06,0V.9a.53.53,0,0,0-.53-.53H8.41A.53.53,0,0,0,7.88.9V19.48A.53.53,0,0,0,8.41,20Z"/><path id="Path_2164" data-name="Path 2164" class="cls-1" d="M12.12,8.86a.79.79,0,0,1-.79-.79h0a.54.54,0,1,0-1.07,0h0a1.87,1.87,0,0,0,1.33,1.77v.62a.53.53,0,0,0,1.06,0h0V9.84a1.85,1.85,0,0,0-.53-3.63.79.79,0,0,1-.79-.8.79.79,0,0,1,.79-.79.79.79,0,0,1,.8.79.53.53,0,1,0,1.06,0h0a1.84,1.84,0,0,0-1.33-1.77V3a.53.53,0,0,0-.53-.53.53.53,0,0,0-.53.53h0v.62a1.85,1.85,0,0,0,.53,3.63.8.8,0,0,1,.8.8A.79.79,0,0,1,12.12,8.86Z"/><path id="Path_2165" data-name="Path 2165" class="cls-1" d="M21.14,3.56H18a.53.53,0,0,0-.53.53.53.53,0,0,0,.53.53h3.18a.54.54,0,0,0,.54-.53A.53.53,0,0,0,21.14,3.56Z"/><path id="Path_2166" data-name="Path 2166" class="cls-1" d="M20.61,11a.54.54,0,0,0,0-1.07H15.84a.53.53,0,0,0-.53.53.52.52,0,0,0,.52.54h4.78Z"/><path id="Path_2167" data-name="Path 2167" class="cls-1" d="M21.14,7.8h-5.3a.53.53,0,0,0-.53.53.52.52,0,0,0,.53.53h5.3a.53.53,0,0,0,.54-.53A.54.54,0,0,0,21.14,7.8Z"/><path id="Path_2168" data-name="Path 2168" class="cls-1" d="M21.14,5.68H16.37a.53.53,0,0,0,0,1.06h4.77a.53.53,0,1,0,0-1.06Z"/><path id="Path_2169" data-name="Path 2169" class="cls-1" d="M10,13.11v4.25a.53.53,0,0,0,.53.53H21.14a.54.54,0,0,0,.54-.53V13.11a.54.54,0,0,0-.54-.53H10.53A.53.53,0,0,0,10,13.11Zm10.61,3.71H14.25V13.64h6.37Zm-9.55-3.18h2.12v3.19H11.06Z"/></svg>