
<svg id="Layer_1" data-name="Layer 1" xmlns="http://www.w3.org/2000/svg" viewBox="0 0 31.76 37.88"><defs><style>.cls-1{fill:#232862;}</style></defs><title>Step1</title><path id="Path_2189" data-name="Path 2189" class="cls-1" d="M30.56,16.75V8.91A2.41,2.41,0,0,0,28.15,6.5v-3a3,3,0,0,0-6-.6H5.56L.38,8.05V37.88H25.73V30.22l2.41-3.63V7.7a1.21,1.21,0,0,1,1.21,1.21v7.84a2.43,2.43,0,0,0,2.41,2.42V18a1.21,1.21,0,0,1-1.21-1.21ZM23.84,27h2.57l-1.28,1.93Zm1.89-1.2H23.32V8.91h3.62v16.9ZM23.32,7.7V6.49h3.62V7.7Zm1.81-6a1.83,1.83,0,0,1,1.81,1.81V5.28H23.32V3.47a1.81,1.81,0,0,1,1.81-1.81ZM5.21,4.93V7.7H2.44ZM1.59,36.67V8.91H6.42V4.08H22.11V26.59l2.41,3.63v6.45Z"/><path id="Path_2190" data-name="Path 2190" class="cls-1" d="M8.83,18v-.63H7.62V18a2.11,2.11,0,0,0,.3,4.2h.61a.9.9,0,0,1,0,1.8H7.92a.9.9,0,0,1-.9-.9v-.3H5.81v.3a2.12,2.12,0,0,0,1.81,2.08v.64H8.83v-.64A2.11,2.11,0,0,0,8.53,21H7.92a.91.91,0,0,1,0-1.81h.61a.9.9,0,0,1,.9.9v.31h1.21v-.31A2.13,2.13,0,0,0,8.83,18Z"/><path id="Path_2191" data-name="Path 2191" class="cls-1" d="M2.8,28.22H20.9V12.53H2.8ZM4,27V16.15H19.7V27ZM19.7,13.73v1.21H4V13.73Z"/></svg>