<svg id="Layer_1" data-name="Layer 1" xmlns="http://www.w3.org/2000/svg" viewBox="0 0 31.76 32.15"><defs><style>.cls-1{fill:#232862;}</style></defs><title>Step4</title><path id="Path_2276" data-name="Path 2276" class="cls-1" d="M24.08,1.25A7.64,7.64,0,0,0,19.47,2.8V.23h-12L2.05,5.65v5.9a2.56,2.56,0,0,0-2,2.51V29.43A2.56,2.56,0,0,0,2.56,32H29.2a2.56,2.56,0,0,0,2.56-2.56V8.94A7.69,7.69,0,0,0,24.08,1.25ZM26.4,13.91a10.4,10.4,0,0,0,1.25-4.46h3.07a6.7,6.7,0,0,1-3.44,5.33A2.62,2.62,0,0,0,26.4,13.91Zm-7.12-.36a6.65,6.65,0,0,1-1.84-4.1h3.07a10.13,10.13,0,0,0,1.06,4.1Zm3.5-11.14a9.9,9.9,0,0,0-1.22,1.92H19.28a6.62,6.62,0,0,1,3.5-1.93Zm7.93,6H27.64A10.15,10.15,0,0,0,27,5.35h2.65a6.53,6.53,0,0,1,1,3.07Zm-4.09,0H21.54a9.32,9.32,0,0,1,.69-3.08h3.7a9.57,9.57,0,0,1,.69,3.07Zm-3.89-4.1a9,9,0,0,1,1.35-1.85,9.67,9.67,0,0,1,1.35,1.84Zm-4.25,1h2.64a10.73,10.73,0,0,0-.61,3.07H17.44A6.62,6.62,0,0,1,18.48,5.35Zm4.25,8.2a9.28,9.28,0,0,1-1.2-4.1h5.09a9.23,9.23,0,0,1-1.2,4.13,1.73,1.73,0,0,0-.32,0Zm6.14-9.23H26.6A10.74,10.74,0,0,0,25.38,2.4,6.68,6.68,0,0,1,28.87,4.32ZM18.44,3.73a7.64,7.64,0,0,0-.5,9.82H15.37V7.4H4.1v4.1h-1V6.37H8.2V1.25H18.44Zm-4.1,9.82H10l-.77-1a2.56,2.56,0,0,0-2.05-1h-2V8.42h9.22ZM3.8,5.35,7.17,2V5.35ZM2.56,12.52H7.17a1.54,1.54,0,0,1,1.23.62l1.07,1.43H25.1a1.54,1.54,0,0,1,1.45,1H1V14.06A1.54,1.54,0,0,1,2.56,12.52ZM2.56,31A1.54,1.54,0,0,1,1,29.43V16.62H26.64V29.43A2.61,2.61,0,0,0,27.15,31Zm28.18-1.54a1.54,1.54,0,1,1-3.07.06V16.11c0-.12,0-.24,0-.36a7.72,7.72,0,0,0,3.11-3Z"/><path id="Path_2287" data-name="Path 2287" class="cls-1" d="M2.05,24.17H9.22V19.05H2.05Zm1-4.1H8.2v3.08H3.07Z"/></svg>