<svg id="Layer_1" data-name="Layer 1" xmlns="http://www.w3.org/2000/svg" viewBox="0 0 31.76 32.6"><defs><style>.cls-1{fill:#232862;}</style></defs><title>Step3</title><path id="Path_2207" data-name="Path 2207" class="cls-1" d="M29.33,16a2.6,2.6,0,0,0,2.59-2.59V3.1A2.59,2.59,0,0,0,29.33.51H2.42A2.59,2.59,0,0,0-.16,3.1V13.45A2.58,2.58,0,0,0,2.42,16h.52v1H2.42A2.59,2.59,0,0,0-.16,19.66V30A2.59,2.59,0,0,0,2.42,32.6H29.33A2.6,2.6,0,0,0,31.92,30V19.66a2.59,2.59,0,0,0-2.59-2.59h-.51V16ZM.87,13.45V3.1A1.57,1.57,0,0,1,2.42,1.54H29.33A1.57,1.57,0,0,1,30.89,3.1V13.45A1.56,1.56,0,0,1,29.33,15H2.42A1.56,1.56,0,0,1,.87,13.45Zm7.25,3.62V16H23.64v1ZM4,16H7.09v1H4ZM29.33,31.56H2.42a1.55,1.55,0,0,1-1.45-1H30.79a1.54,1.54,0,0,1-1.45,1Zm-.51-2.07H21.57V29A1.56,1.56,0,0,0,20,27.42H11.74A1.55,1.55,0,0,0,10.19,29v.52H2.94V20.17H28.82Zm-8.28,0H11.22V29a.52.52,0,0,1,.52-.52H20a.52.52,0,0,1,.52.52Zm10.35-9.83v9.83h-1V19.14H1.91V29.49h-1V19.66A1.57,1.57,0,0,1,2.43,18.1h26.9A1.57,1.57,0,0,1,30.89,19.66Zm-3.11-2.59h-3.1V16h3.1Z"/><path id="Path_2208" data-name="Path 2208" class="cls-1" d="M29.85,12.93V3.61a1,1,0,0,0-1-1H2.94a1,1,0,0,0-1,1v9.32a1,1,0,0,0,1,1H28.82A1,1,0,0,0,29.85,12.93Zm-26.91,0V3.61H28.82v9.32Z"/><path id="Path_2251" data-name="Path 2251" class="cls-1" d="M7.6,8.79a1.56,1.56,0,1,0,1.55,1.55h0A1.55,1.55,0,0,0,7.6,8.79Zm0,2.07a.52.52,0,0,1-.52-.52.52.52,0,0,1,1,0h0A.52.52,0,0,1,7.6,10.86Z"/><path id="Path_2252" data-name="Path 2252" class="cls-1" d="M5,7.78l.73.73a2.59,2.59,0,0,1,3.66,0l.73-.73A3.63,3.63,0,0,0,5,7.78Z"/><path id="Path_2253" data-name="Path 2253" class="cls-1" d="M3.57,6.32l.74.73a4.65,4.65,0,0,1,6.58,0l.74-.73A5.71,5.71,0,0,0,3.57,6.32Z"/><path id="Path_2254" data-name="Path 2254" class="cls-1" d="M15.36,9.83H27.78V4.65H15.36Zm1-4.14H26.75v3.1H16.4Z"/><path id="Path_2257" data-name="Path 2257" class="cls-1" d="M15.36,10.86H27.78v1H15.36Z"/></svg>