<svg id="Layer_1" data-name="Layer 1" xmlns="http://www.w3.org/2000/svg" viewBox="0 0 100 100"><defs><style>.cls-1{fill:#232862;}.cls-2{fill:#fff;stroke:#fff;stroke-linecap:round;stroke-linejoin:round;stroke-width:0.8px;}</style></defs><title>Youtube</title><g id="youtube"><path id="Path_11550" data-name="Path 11550" class="cls-1" d="M97.9,25.8a12.68,12.68,0,0,0-8.83-9.12c-7.85-1.91-39.21-1.91-39.21-1.91s-31.35,0-39.19,2.1A12.66,12.66,0,0,0,1.83,26,131.47,131.47,0,0,0-.27,50.09a131.88,131.88,0,0,0,2.1,24.29,12.65,12.65,0,0,0,8.82,8.75c7.84,2.1,39.19,2.1,39.19,2.1s31.36,0,39.2-2.1A12.67,12.67,0,0,0,97.86,74,132.52,132.52,0,0,0,100,50.09,131.81,131.81,0,0,0,97.9,25.8Z"/><path id="Path_11551" data-name="Path 11551" class="cls-2" d="M39.61,65l26.2-14.88L39.61,35.19Z"/></g></svg>