<svg id="Layer_1" data-name="Layer 1" xmlns="http://www.w3.org/2000/svg" viewBox="0 0 100 100"><defs><style>.cls-1{fill:#1072ba;fill-rule:evenodd;}</style></defs><title>Bg1</title><path class="cls-1" d="M52,2c1.67-1.6,4.18-.84,5.93.07,1.52-.68,3.27-.07,4.63.69,1.07.61,1.3,2.51,2.89,1.59a3.39,3.39,0,0,1,3,1.37,11,11,0,0,1,.69,3.19c1.29,1.37,2.27,3.27,4.33,3.19,1.36.08,2.12-1.21,3.11-1.89,1.52-.08,3,.15,3.95,1.36s.16,2,.08,3.27c-.84.61-.61,1.67-1.22,2.36a15.45,15.45,0,0,0,.23,2.73c-.53,1.22.38,2.2.61,3.42l.23.15c.91-.83,1.14-2.35,2.5-2.66a5.39,5.39,0,0,1,5.63.38c3.19,2.43,4.56,6.16,6.38,9.5a56.23,56.23,0,0,1,2.81,12c1.29,5.16-.3,10.63-1.14,15.65l-.3,1c1.67,1.44.68,4,.53,5.77-.38,1.14-1.52,1.9-2.36,2.66-.07,1.22-1.52,1.6-2,2.51a12.64,12.64,0,0,1-2,8.89,11.06,11.06,0,0,1-1.83,2c-.6,1.75-1.06,3.88-2.81,4.87a5.69,5.69,0,0,1-3.65,1.06c-1,1.37-2.12,2.58-3.79,2.81-.92,1.75-2.51,3.42-4.56,3.57l-1.52.08C71.11,95,70,96.51,68,96.66c-1.67.31-2.89-.68-4.41-.91-.53.08-.45.76-.76,1.07a6.88,6.88,0,0,1-7.22,2.66c-.53-.23-1.21-.08-1.67-.54-2.2,1-5.32,1.3-7.37-.07-2.05.83-4.33.45-6.38.07-1.82-.83-2.89-2.5-4.41-3.64a5.47,5.47,0,0,0-3.64.15,4.31,4.31,0,0,1-3-1c-1.14-.3-1.52-2-3-1.44-1.14.23-2.05-.61-2.88-1.22-.69-.83-.61-1.9-1.14-2.81-.69-.23-1.45,0-2.13-.23-1.52-.53-3.8-1.44-3.8-3.49-.31-.46-.91-.31-1.29-.53-2.13-1.07-4.41-2.74-4.49-5.32-1.36-.69-1.9-2.06-2.81-3a11.3,11.3,0,0,1-.91-3.8c.08-1.29.76-2.66-.23-3.8-.23-.68.08-1.52-.07-2.2a9.79,9.79,0,0,1-3.73-3.5,6.13,6.13,0,0,1,.23-4.48,50.16,50.16,0,0,1-.3-16.87c.38-2,.76-4.18,1.21-6.23,1.14-3.57,1.83-7.3,3.57-10.64.61-1.67,2.13-2.81,3-4.41,1.14-.6,2.06-1.82,3.42-2.12,1.14.22,2-.61,3.12-.23A5.48,5.48,0,0,1,20,20.38c.69,1.14.46,2.58.61,3.95l.38-.15c1.29-1.83,2.28-3.42,2-5.7A3.41,3.41,0,0,0,22,16.12a4,4,0,0,1,.53-3.87A4.6,4.6,0,0,1,25.29,11a3.71,3.71,0,0,1,2.28,1.44c.91,1-.46,2.43,1.21,2.58,1.29,0,2-1.21,2.66-2.2.46-1.67-.07-3.27-.07-4.94.15-1.22,1.21-1.9,2.05-2.58a3.25,3.25,0,0,1,3.11.22c.23.23.76.92,1.14.23.61-1.29,1.9-1.37,2.89-2.28,1.14-1.29,2.51-2.28,4.18-2l1.9.15C48.23.17,50.51,1.15,52,2Zm-.76.68c.38-.23.61.46,1,.23l.91-1A6.27,6.27,0,0,1,58.11,3a2.9,2.9,0,0,1,2.74-.31c1.52.38,2.12,1.9,3.26,2.74a4.42,4.42,0,0,1,2.82-.23c1.9.84.83,3.42,2,4.64,1.14,1.59,2.73,3.19,4.86,3,1.82.23,2.2-2.5,4.18-1.82a2.63,2.63,0,0,1,2,1.06c.46,1.37-.23,2.74-.91,3.88-.76,1.37-.23,2.89-.23,4.41a7.82,7.82,0,0,0,1.45,4.48l.6-.46c.84-1.36,1.75-2.88,3.42-3.34a5.21,5.21,0,0,1,5.25,2.28c1.36.76,1.51,2.2,2.35,3.19,1.22,1.52,1.6,3.35,2.51,4.94,1,3.65,2.28,7.22,2.51,11.17a28.13,28.13,0,0,1,.3,8c-.61,2.66-.84,5.55-1.67,8-.84.76.3,1.36.68,2,.31,1.9.46,4.49-1.29,5.85-.38.31-1.14.31-1.22.92,0,1.36-1.59,1.89-2.5,2.58,1.21,2.2.22,4.48-.31,6.69a19.33,19.33,0,0,1-2.43,3.72c-.3.15-.68.07-.91.45-.23,1.68-.46,3.65-2,4.72a7.25,7.25,0,0,1-3.88.83c-.3,1.22-1.59,1.82-2.35,2.66a7.15,7.15,0,0,1-2.13.3c-.53.31,0,.84-.08,1.22a4.47,4.47,0,0,1-2.73,2.13,8.4,8.4,0,0,1-2.74,0c-.45.23-.07.76-.38,1.06a4.24,4.24,0,0,1-3.8,2.13c-1.59.15-3-.91-4.56-.76-1.06,1.75-2.65,3.8-4.93,3.72-1.45.08-3,.15-4.11-.76-1.82.69-3.57,1.45-5.54.84-1-.53-2.13-1.45-3.12-.38a13.57,13.57,0,0,0-2.51.3,21,21,0,0,0-2.28-.61,7,7,0,0,1-2.58-2.12c.68.07,1,.91,1.67,1.21,1,1.07,2.59.69,3.88.53,1.29.61,2.35-.6,3.57-.53.15.31.45.38.83.38.54,1,1.68.53,2.59.84A5.56,5.56,0,0,0,53.63,97c1.44.54,3,1.45,4.63,1.07,2.13-.61,3.42-2.81,4.94-4.1a2.3,2.3,0,0,1,2.21.53c1.06,0,1.9.91,3,.61a4.52,4.52,0,0,0,2-1.37,3.92,3.92,0,0,1,1.51-2.36c.76-.15,1.3.38,1.9.46.92-.15,1.52-1,2.28-1.37a.77.77,0,0,0,.08-.61c-.38-.45-.91,0-1.37-.3-1.06-.46-1.59-1.9-3-1.67-1.29,0-2.36,2-3.57.53-.61-1.22-1.37-2.74-2.89-3.12a7.13,7.13,0,0,0-2.81-.15A20.62,20.62,0,0,0,61,82.38c.3-1.6-1.06-2.43-2.2-3.19a5,5,0,0,0-3.27-.46A6.13,6.13,0,0,0,51,81.09h-.23a6.39,6.39,0,0,0-6.84-1.83c-1.59-.38-3.49-.76-4.86.38a3.76,3.76,0,0,0-1.22,3.8c-.45.23-1.06-.38-1.74-.22-2.06.38-2.89,2.5-3.35,4.17-.53.46-1.06,1.22-1.82.92a8.37,8.37,0,0,0-2.13-.76c-1.21-.61-2.35.22-3.34,1A3.46,3.46,0,0,1,24,89.83a1.61,1.61,0,0,0,1.13,1.82c1.14.3,2.74-.91,3.42.76a4.21,4.21,0,0,0,4.94,1.14c1.07,0,2.36-.68,3.19.46,0,.3.38.38.31.76-1.14-.16-2.28-.84-3.42-.38a4.27,4.27,0,0,1-4.33-.61,3.28,3.28,0,0,0-2.89-1.52c-.68.38-1.37-.15-2-.53-1.37-.76-.92-2.51-1.75-3.58-1.9.23-4-.15-5.17-1.89-.68-.61-.15-2.74-1.82-2.06-1.6-1.06-4-1.67-4.26-4,.46-1.44-1-1.59-1.67-2.35C9,76.76,7.51,75.77,8,74.17c-.38.08-.46-.3-.46-.6A7.57,7.57,0,0,1,8,70.07c-.23-.76-.91-1.29-.91-2.13,0-.68.53-1.44,0-2-1.75-.91-4-2.13-4-4.48a14,14,0,0,1,.61-2.89c-.38-1.9-.46-4-.84-5.93,0-4.25-.07-9.34,1-13.44a74.85,74.85,0,0,1,2.35-9.27c.23-2.13,1.83-3.65,2.28-5.63C9.86,22.66,11,20.6,13,19.47c1.67-.38,3.87-1.37,5.39.15,1.22.83,1.37,2.28,1.52,3.64-.15.76-.45,1.68-.53,2.51,1,.46,1.44-.68,2.2-1.14,1.75-2.13,3-5.09,1.9-7.9-.45-.91-1.52-1.75-1-3C22.7,12.55,24,12,25.06,11.71a2.27,2.27,0,0,1,1.52.61c1.14.76,0,2.13.91,3a4,4,0,0,0,2.51.08A6.86,6.86,0,0,0,32.2,13a22.22,22.22,0,0,0,0-5.09,3,3,0,0,1,2.66-2.21,2.33,2.33,0,0,1,2,1.22c.6,1.52-.84,2-1.37,3a2.37,2.37,0,0,0,.61,2.12,7,7,0,0,0,5.85,1.45c.53-.31,1.21-.31,1.44-1-.08-.38-.08-.84-.45-.84-1.75-.07-3.73,0-4.79-1.67-1-1.29-.23-3,.3-4.33C39.19,4.5,41,5,41.55,3.51c.68-.46.91-1.22,1.82-1.22a10.26,10.26,0,0,1,3.42.23c.68-.3,1.14-.91,2-.91a3.73,3.73,0,0,1,2.5,1.06Zm8.13.84c.54.15,1.37-.15,2,.23,1.52.53.53,2.58,2.13,2.88a3.66,3.66,0,0,1,.91,2.28A3.22,3.22,0,0,1,62.9,11a3,3,0,0,1-1.82.22c-.84-.68-2-.3-3-.6a2.65,2.65,0,0,0-1.6,1.29c.23.76-.61,1.21,0,1.9a4.22,4.22,0,0,0,4.18,2.05,6.43,6.43,0,0,0,4.86-4.64c0-1.29.61-2.66-.15-3.8a1.54,1.54,0,0,1,.84-1,.76.76,0,0,1,.91.45c.15.91-.38,1.52-.08,2.36a7.84,7.84,0,0,0,6.46,4.86c1.14-.3,2.43-.3,3.42-1,.3-.45.3-1.29,1-1.44a.83.83,0,0,1,1.06.61c.15.83-.91,1.29-1.14,1.9-.15,1.67-.76,3.49-.38,5.32A13.57,13.57,0,0,0,81.74,29c.69.08,1.22,1,1.9.54A.92.92,0,0,1,84.71,29a1.49,1.49,0,0,0,1.82.23c.46-.31,1-.69.91-1.37-.68-.15-1.37.38-2.13.38a3.71,3.71,0,0,1-2.88-1.67,4.1,4.1,0,0,1,.6-3.73,4.37,4.37,0,0,1,3.88-.76A12.17,12.17,0,0,1,91.24,27c3,5.24,4.33,11.24,5.17,17.47.15,3.35.45,7.07-.76,10.34-.46,1.67-1.07,3.27-1.6,4.86.15.46.69.46,1,.76a3.46,3.46,0,0,1,.76,3.12c-.23,1.52-2,2.05-2.58,3.42a4.35,4.35,0,0,1-3,2.2,10.36,10.36,0,0,1-3.42-.91,4.86,4.86,0,0,1-4.33.15,5.11,5.11,0,0,1-2.59-4.48,19.65,19.65,0,0,1,1-5.17c0-2.58.3-5.47-.38-7.83-.07-3.72-1.67-7.22-3.57-10.33a29.7,29.7,0,0,0-9.35-9.12,14.76,14.76,0,0,0-7.37-2.73c-.68.07-1.44.07-1.74.68a9.09,9.09,0,0,1-1.07,2.81c.31.68,1.14.15,1.6.15a11.3,11.3,0,0,1,5,0c1,.84.61,2.43.31,3.5a8.78,8.78,0,0,1-6.16,5.92c-1.06.46-.23,1.52-.45,2.44a3.09,3.09,0,0,1-2.06,2.35c-.38.31,0,.61,0,.91A3.31,3.31,0,0,1,55,49c.07.91.68,1.6.07,2.51-.38.68-1.52.38-1.44,1.37.38,1.37-1.9,2-1.07,3.27a3.6,3.6,0,0,1,2,2.81c.08.53-.46,1.36.3,1.67,5.25,3,10.87,4.86,16.42,7.14,4.4,1.37,8.81,3,13.14,4.48a12.43,12.43,0,0,0,3.73.69l2.58-.53c.61.22-.15.6-.08,1,.23,2.28-.53,4.94-2.73,6-1.52.3-.76,1.82-1.29,2.81A6.18,6.18,0,0,1,84,85l-2.13.3c-1.06,1.14-1.89,2.59-3.41,2.89-1.07-.08-2.21,0-3-.76a3.66,3.66,0,0,1-1.07-3.72c-.23-.69-1.21-.84-1.52-1.45C72,80.78,70,80.63,68.67,80c-2.81-1.21-5.85-2-8.66-3.19-2-.76-3.87-1.52-5.77-2.28L52.49,74a3.64,3.64,0,0,1-3.72.61c-.61,0-.69-.76-1.22-1C43.9,74.71,40.48,76,36.84,76.83c-2.89,1.29-6.23,1.37-9.05,2.89a.85.85,0,0,0-1.06.91c0,1-1.75,1.29-1.06,2.43a3.66,3.66,0,0,1-.46,2.82,4.37,4.37,0,0,1-6.61,0c-.61-.76-1.06-1.6-1.6-2.36a5.51,5.51,0,0,1-2.5-1,4.85,4.85,0,0,1-2.89-4.33c-1.06-1.06-2.66-1.29-2.89-3-.3-.38.08-1.07-.45-1.29.45-.46.07-1.83,1-1.52.92-.69,1.75.3,2.74.22a58.1,58.1,0,0,0,7.9-1.9A21.88,21.88,0,0,0,24.3,69c1.59-.23,2.89-1.14,4.41-1.52,2.28-.91,4.71-1.52,7-2.66,3.42-1.37,7-2.28,10.25-4.11.31-.6-.45-1.14-.22-1.82a4.27,4.27,0,0,1,2.5-3.27C48,55,47.17,54.57,47,53.81c.23-1.29-1.6-1.14-1.75-2.36A3.09,3.09,0,0,1,45.8,49c.08-.53-.61-.6-.68-1.14-.31-.6.61-1.14.15-1.59A4.77,4.77,0,0,1,43.45,44c-.31-.91.45-1.45,0-2.28a10,10,0,0,1-4.11-2.2,13.11,13.11,0,0,1-2.58-3.2c-.23-1.36-.91-2.88-.46-4.18a21.33,21.33,0,0,1,7.6.08l.15-.15c-.3-1.52-.53-2.89-.83-4.41-.53-.45-1.44-.15-2.13-.07-3.8.45-7.22,2.28-10.26,4.25-2.73,2.2-5.39,4.48-7.14,7.6a23.08,23.08,0,0,0-4.18,8.43c-.76,1.07-.76,2.66-1.14,3.95-.61,1.68-.38,4-.23,5.78,1,1.06,2.51,2.13,2.44,3.72-.31,1.67-.69,3.73-2.51,4.56-.84.69-1.83.31-2.74.53-.6-.07-1.06-.53-1.67-.6-.61,1-1.75.53-2.51,1.06-1.52-.38-3.42-.68-4.1-2.43-.46-.53-1.22-.08-1.67-.69A3.71,3.71,0,0,1,4.09,61.1,3.22,3.22,0,0,1,5,58.82l-1-2c-.61-4.33-1-9,.15-13.37.08-4.41,1.6-8.89,2.74-13.3A32.56,32.56,0,0,1,10.24,23a8.79,8.79,0,0,1,4.18-2.66c1.14.15,2.36,0,3.27.68a3.82,3.82,0,0,1,.76,3.58,3.51,3.51,0,0,1-2.89,2.12,2.54,2.54,0,0,1-1.82-1.06c-.08-.3,0-.68-.31-.91a1.15,1.15,0,0,0-.38,1.14c0,.76.76,1.21,1.14,1.59a28.57,28.57,0,0,0-3.87,8.67c-1,4.86-2.05,9.72-2.13,14.58a3,3,0,0,0,.61,2c1.29.23,2.28-1.14,3.11-2a10.07,10.07,0,0,0,1-9.19c-.53-.53-.53-2-1.59-1.59-.61.3-.84-.23-1.07-.61A1,1,0,0,1,11,38.23c.38.16.76.08,1.07.38,2-.76,4-2.58,4.17-4.94a10.71,10.71,0,0,0-.38-3.87c-.3-.84-2-.84-1.21-2a1.09,1.09,0,0,1,1.21-.38c.76,1.45,2.36.23,3.58.38,2.73-1.06,4.25-3.95,4.78-6.68a11.54,11.54,0,0,0,.16-5.32c-.23-.46-1-.38-.92-1a1.64,1.64,0,0,1,.92-1.37,1.13,1.13,0,0,1,1.21.69c.38.45-.46.76-.15,1.21l1.82,1.52c1.22.23,2.51.69,3.57-.07,2.74-1.75,2.44-4.94,2.66-7.6-.15-.46-.6-.91-.22-1.37.3-.76,1.13-.38,1.67-.53a.56.56,0,0,1,.3.91c-1.14.91-1,2.58-.68,3.87,1.06,1.52,2.88,2.06,4.71,2.51A4.94,4.94,0,0,0,44.36,13a2.42,2.42,0,0,0,.45-2.43c-1.74-.54-4,1.13-5.39-.69A4,4,0,0,1,38.66,8a4.65,4.65,0,0,1,2.51-3.11c1.06.22,1.59-1,2.2-1.68.84-.3,2.2-.6,3,.16,1.22-.31,2.44-1.14,3.73-.38a6,6,0,0,1,1.52,1.59c.53,0,.38-.76.91-1.06A3.83,3.83,0,0,1,56,2.75a4,4,0,0,1,2.13,1.06l1.29-.3ZM57.66,4.57c1.21.15,2.66-.91,3.72.15,1.29.69-.84,2.89,1.37,2.36.6.15.76.76.91,1.29a3.13,3.13,0,0,1-.61,1.52c-1.67,1.37-3.65-.61-5.47.15a3.81,3.81,0,0,0-2.36,2.36c-.68,3.34,1.83,5.62,1.83,8.66a8.17,8.17,0,0,1-.46,2.74,8,8,0,0,1,0,8l-1.14,1.45c-.68.38-1.75.83-2.2-.31a4.88,4.88,0,0,0-2.13-1.36c-1.59-.16-3.34.22-4.1,1.67a3.74,3.74,0,0,1-1.6-.53,16.21,16.21,0,0,1-1.29-6.16,11.82,11.82,0,0,1,1.37-4.18l.38-.38c-1.07-2.2-.08-4.56.68-6.61.31-1.29.76-2.81.08-4.18-.69-.76-1.37-1.59-2.51-1.52-1.44-.15-2.58.84-3.87,0-.69-.38-.69-1.21-.76-1.82a3.11,3.11,0,0,1,2-2.2c.3-.23.83-.08,1.21-.16.38-.68.61-1.52,1.45-1.82a3.86,3.86,0,0,1,2.58.53,2.93,2.93,0,0,1,2.74-.68c1.44.61,1.36,2.2,1.36,3.42,0,.91-.83,1.21-1.52,1.52h-.76c0-.23.46-.53.54-.91a2.22,2.22,0,0,0-.23-1.83c-.38-.76-1.29-.3-1.75-.15a1.59,1.59,0,0,0-.68,1.75c.3.61.53,1.52,1.29,1.75,1.21.68,2.28-.08,3.34-.54.3-.15.3-.91.84-.6a2.65,2.65,0,0,0,2.58,1c.61-.22,1.29-.45,1.52-1.06-.15-.53.3-.91.08-1.44-.38-.38-.54-.92-1.07-.92-.76-.22-1.06.54-1.59,1-.31.46.15,1,0,1.45-.69.07-.92-.61-1.3-1.07l-.07-1.52a3.75,3.75,0,0,1,2.28-2.05c1.21,0,2.66.08,3.27,1.29Zm-9.2,2.05c0,.38-.23.92-.68,1s-.46-.53-.38-.76.07-.61.38-.68a.55.55,0,0,1,.68.45Zm6.84.31c-.08.3-.08.76-.46.83s-.53-.45-.6-.76a.71.71,0,0,1,.53-.6.42.42,0,0,1,.53.53ZM52.56,12c2.13,1.29,2.44,3.72,3.12,5.77-.08.84.15,1.75-.46,2.36a1.29,1.29,0,0,1-1.74.3c-.16-.07-.46-.22-.61-.07-.31.45.07.83.23,1.14.76.68,2.12-.61,2.58.83-.61,1.9,1.06,3.35.76,5.25a10.41,10.41,0,0,1-1,3.41c-.53,0-1.52.23-1.52-.6.08-.53-.45-.84-.83-1-.38.08-1,.15-1.07-.38a2.12,2.12,0,0,0-.3-1.67c-.23-.31-.61-.23-.91-.15C49.6,27.6,49.45,29,49.3,30.1c-.91.15-2.43,0-2.66,1.29-.15.23-.46.31-.61.08l-.38-.68c-.23-2.81-1.06-6.46,1.67-8.21.69-.3,1.83-.61,1.83-1.6l-.08-.22c-.61.07-1.29.3-1.82-.23-1.22-.91-.31-2.36-.38-3.57.6-2.59,1.06-5.32,3.72-6.46.46-.23.68-1.37,1.29-.76s.3,1.59.68,2.28Zm-.76.15c2.21,1.22,2.36,3.57,3,5.62a2.36,2.36,0,0,1-.23,1.75c-.3.23-.53.38-.91.15s-.23-.83-.76-.83c-.76,0-.61.83-.91,1.29a2.59,2.59,0,0,0,1.14,2.28,2.57,2.57,0,0,0,1.52.07c.15.92-.16,2,.68,2.66.3,1.6.53,3.27-.3,4.64-.46.23-.54-.46-.84-.61a2.54,2.54,0,0,1-1.52-2,1.91,1.91,0,0,0-2-.76,3.22,3.22,0,0,0-2.13,2.73,5.18,5.18,0,0,1-1.9.53c-.61-1.21-.23-2.66-.38-3.95.46-1,.53-2.13,1.67-2.66,1.22,0,1.68-1.14,2.13-2.05a5,5,0,0,0-.3-1.82c-.23-.15-.53-.38-.76,0a1.37,1.37,0,0,1-.76.83c-.46.16-.61-.38-.69-.68.31-2.36.38-5.17,1.9-7.14A4.45,4.45,0,0,1,51.27,11c.46.15.23.83.53,1.21Zm14,8.13c.38.3-.16.61-.31.76A4,4,0,0,1,63,24.18c-2.58.07-3.64-2.66-4.78-4.49-.61-1.52-1.52-2.88-2-4.4.38-.54.61.45,1.07.53a5.34,5.34,0,0,0,5.62-.15,9,9,0,0,0,3.34-4.18c.15,3-.38,6-.45,8.81ZM70.65,14a6,6,0,0,0,4.48.46v.46a10.38,10.38,0,0,0-2.58,5.62c-.69,1.67-.61,4.33-3,4.56C68.07,24,68.45,21.82,68,20.15c0-1.82-.46-3.65-.46-5.62.23-1-.3-1.9.08-2.82a8.19,8.19,0,0,0,3,2.28Zm-7-2.05c.3.15.38.38.15.61a4.86,4.86,0,0,1-5.17,1.67,1.36,1.36,0,0,1-1.06-.76,1.65,1.65,0,0,1,.61-1.37c1.29-.76,2.51.31,3.72.31l1.75-.46ZM45.88,13.08a69.13,69.13,0,0,0-3.42,6.08C41.78,21,41,23.49,38.81,23.87c-2.73,0-3-3.11-3.8-5-.53-1.6-.15-3.5-.15-5l.3-.07c1.52.38,2.74,1.9,4.49,1.59a5.37,5.37,0,0,0,5.77-2.28,1.25,1.25,0,0,1,.38-.91c.46.08.15.68.08.91ZM76,15.36c-.38,1.67-1.29,3.19-1.75,4.94-1.29,3.42-.91,7.52.23,11,.76.76,1.44,2,2.58,2.13,2,.22,3.42-1.3,5.17-1.52l.07.07c-1.74,1.37-3.26,3.12-3.11,5.47.08,1.6.23,3.35,2,4.18a28.23,28.23,0,0,0,4.34,1.22c-.08.53-.92.83-1.37,1.06-1.9,1.45-1.52,4.41-1.07,6.31a10.8,10.8,0,0,0,4.87,6.38,2.21,2.21,0,0,0,1.52-.3A21.42,21.42,0,0,0,91.32,48,35.28,35.28,0,0,0,91,41.8c-.45-1.14-.45-2.58-.91-3.72A20.28,20.28,0,0,0,87.82,33c.08-1.22-1.82-2-.83-3.11.45-.31,1-.61,1.14-1.14a2,2,0,0,0-.31-2.21c-.07-.23-.38-.23-.53-.15-.15,1-1.29.91-2.05,1a2.8,2.8,0,0,1-2-1,3.39,3.39,0,0,1,0-2.43,3,3,0,0,1,2.21-1.29c2.12,0,3.19,1.9,4.4,3.42,3.65,5.47,4.87,11.85,5.7,18.46.61,2-.3,4.18.08,6.08A29,29,0,0,1,93,59.81c-1,.38-1.45-.83-2.36-1a4.72,4.72,0,0,0-4.86.69,3.24,3.24,0,0,0-1.06,2.89c.53,1.14,1.21,2.66,2.73,2.73a3.11,3.11,0,0,0,2.28-.68,1.94,1.94,0,0,0,.53-1.67c-.22-1.22-1.59-.69-2.35-1-.69.15-1.52.38-1.75,1.21-.38.08-.46-.45-.61-.68-.38-.91.31-1.75.91-2.36a4.21,4.21,0,0,1,2.74-.76c.84.54,2.13.38,2.51,1.52.38.23.68-.15,1-.22.76.07,1.83,0,2.21.91a2.76,2.76,0,0,1-.15,2.66c-.46.91-1.52.83-1.9,1.67a3.18,3.18,0,0,1-2.06,2.43,4.6,4.6,0,0,1-4-.91c-1.06.46-2.28,1.14-3.42.61-1.36-.61-2.88-1.83-2.81-3.57a12.65,12.65,0,0,1,1-4.79,42,42,0,0,0-.23-8.21c-.15-4.33-2-8.51-4.48-12.08-.23-1.06-1.37-1.75-2-2.51-2.12-3-5.54-5.09-8.43-7A14.69,14.69,0,0,0,58.64,28c-.3-1.37-.22-2.66-1-3.8A14.26,14.26,0,0,1,58,21.44h.38A6.13,6.13,0,0,0,62.37,25a4.15,4.15,0,0,0,3.34-2.2,15,15,0,0,0,1.14-5.17c.46,2.05.53,4.33,1.14,6.54.3.6.46,1.36,1.14,1.59s1.44-.15,2.05-.61c2.66-2.73,1.67-7.21,4.64-9.87l.15.07ZM33,16c-.15,2.81-.61,5.62-1,8.43A2.89,2.89,0,0,1,30.38,26c-1,.15-1.45-1.14-2.05-1.67l-.69-1.45c-.61-1.82-.53-3.95-1.44-5.69.45-.16.91.45,1.37.53,1.59.38,3.26.45,4.4-.84.31-.3.61-.83,1.07-.91Zm11.47,4.1c.76,2.36-1.22,4.11-1.29,6.39-3.72.68-7.45,1.29-10.56,3.42-4.79,2.43-8.44,6.83-11.25,11.39a30.41,30.41,0,0,0-2.58,6.23,23.76,23.76,0,0,0-1.6,6.16l.15,4.48c1,.76,2.44,1.67,2.36,3.19a5.1,5.1,0,0,1-2.36,4,3.54,3.54,0,0,1-2.65.16l-1.14-.61c-1.22.68-2.44,2-4,1l-1.14-.38c-.76-.54-.38-1.68-1.29-2A1.39,1.39,0,0,1,5.61,63a2.93,2.93,0,0,1-.76-2.35c.07-.84,1-1.22,1.59-1.67L8,59.13c.23-1.14,1.6-1.37,2.66-1.6A3.42,3.42,0,0,1,14,59.2,1.51,1.51,0,0,1,13.36,61c-.46-.07-.15-.83-.53-1.14-.38-.61-1.07-.61-1.75-.68-.61.15-.76.91-1.14,1.37-.15,1.14,1.14,1.52,1.82,2,1.37.38,2.28-.91,3-1.9A3.28,3.28,0,0,0,14.19,58l-1.52-1A6,6,0,0,0,7,58.29c-.53-.45-1.21.53-1.59-.3-1.29-1.52-.53-3.8-1-5.7-.45-3.5.23-7.07.68-10.49.38-1.52.16-3.19.92-4.63a33.31,33.31,0,0,1,5.09-13.91c1-.91,1.82-2,3.19-2.28,1.29-.07,2.66,0,3.34,1.14a4.14,4.14,0,0,1-.38,3c-.45.31-.91.54-1.29.84a2.2,2.2,0,0,1-1.44-.68c-.08-.46.23-.92.23-1.37a1.09,1.09,0,0,0-1.68-.15c-.6.38-.68,1-.91,1.52a3.55,3.55,0,0,0,.91,2.2c-.15.68-.83,1.29-1.06,2C8.8,35.12,8.34,42.18,7.43,48.42c-.08,1.59-.38,3.49.76,4.71,2.05,1.74,4.64.15,6.61-.69a8,8,0,0,0,2-8.28l-1.45-2.89c.61-.38,1.52,0,2.28.08a3.38,3.38,0,0,0,2.51-1.67c1.14-2.13-.08-4.56-.68-6.54,1,.31,1.59,1.22,2.66,1.37,1.74.3,3-1.29,3.72-2.58a13.38,13.38,0,0,0,.68-7.37l-.23-3.35c.54,1.07.76,2.36,1.37,3.42.84.76,1.29,2.13,2.51,2.28a3.3,3.3,0,0,0,2.2-1.29c.92-1.52.69-3.42,1.07-5.09l.38-2.74c0,.08.07-.07.07,0,.69,2.28,1.14,4.71,3,6.39.46-.08.61.53,1,.53,1.14.23,2.05-.46,3-.84,2.21-2,2.06-5.09,4-7.29l.23-.15c-.07,1.29-.61,2.28-.53,3.64Zm32-3c.3,1.3.08,2.82.38,4.18.68,2,.91,4.41,2.51,6a8.28,8.28,0,0,0,3.19,3.11l.15.23c-.61.53-1.52.45-2.2.91-1.37.38-2.89,2.05-4.33.68-1.83-2-1.83-4.78-2-7.21a14,14,0,0,1,.84-4.41A13.6,13.6,0,0,1,76.35,17ZM25.36,20.76c.15,2.81,1,6.08.31,8.89-.54,1.59-1.22,3.34-3,4.1-1.74-.08-2.81-1.44-4.1-2.51l-1.44-1.82c-.08-1.14,1.59-.38,2.28-.91,3.34-1.14,5.09-4.64,5.77-7.83l.15.08Zm17.1,9c-.15.38.38,1.14-.3,1.22-.92-.38-1.9-.15-2.89-.38a20.71,20.71,0,0,0-3.73,1c-.76.68-.15,1.67-.15,2.5,0,2.21,1.6,3.88,2.74,5.55-.38,1.29-1.37-.3-2.21-.15a1.42,1.42,0,0,1-1.59-1.06C33,37.63,31.52,36.64,29.77,37a8.82,8.82,0,0,0-3.27,1.59c-.23-.07-.45-.22-.45-.45l.3-.53a28,28,0,0,1,4.1-3.88A22,22,0,0,1,40.18,29c.68-.3,2.43-.68,2.28.68Zm23.33,1.52c3,1.29,5,4.18,7.44,6.16.23.68,1.14,1.29,1,2.05a7.18,7.18,0,0,1-1.67-.53,2.81,2.81,0,0,0-3-.53c-.69.3-1.52.6-1.83,1.36-.53.16-1.06-.3-1.75-.3a6.07,6.07,0,0,0-4.1,2.73A4.1,4.1,0,0,1,60,45.91a6.11,6.11,0,0,0-1.29,5.16c-.84,1.07.08,2.21.23,3.27,1.44,2.43,4.18,2.21,6.61,2,1.29-.22,2.51-1.29,4-.68.38.3-.08.61-.15.84C68.14,57,66.7,57.61,66.09,59a4.51,4.51,0,0,0,.61,3.57,10.31,10.31,0,0,0,5.62,2.73c.53.16.61.76.68,1.3-.22.38-.76.45-1.14.6-1.89-.6-3.64-1.59-5.54-2.12-3.42-1.45-6.76-3-10.18-4.41-1-.46-.54-1.45-.69-2.2-.3-1-.3-2.28-1.52-2.59l-.15-.15a5.3,5.3,0,0,1,2-2.81A4.52,4.52,0,0,0,56,49.33l.92-2.21c1.29-.45,1.52-1.82,1.59-2.88A1.27,1.27,0,0,1,59,42.79a17.85,17.85,0,0,0,4.71-3.64c1.29-1.6,2.43-3.5,1.9-5.86-.23-.6-.23-1.44-1.07-1.59-1.52-.31-3.26-1.07-4.71-.23-.53-.08-.38-.61-.38-.91s0-.84.54-.76c2.27-.23,4,.91,5.85,1.44Zm-50.69.15a6.27,6.27,0,0,1-.6,4.11c-.84.76-1.6,2.13-3,1.59l-.22-.3a20,20,0,0,1,2-6.46c.83-.68,1.59.3,1.74,1.06Zm70.52-1c.23.6.61,1.21.83,1.82-.45-.15-1-.53-1.52-.23-1.44,1.9,0,4.11.38,6.08.54,1.22,1.75,1.9,2.59,2.81.3-.15.83-.23.83-.68-.3-1.82-1.14-3.42-1.59-5.17l-.38-2h.15c3.19,5,3.87,11.32,3.42,17.17a24.08,24.08,0,0,1-1.6,5.24c-.38.46-.91.15-1.29,0l-.68-1.21a14.58,14.58,0,0,1-.08-6.54c.69-1.44.15-3.11,1.29-4.33.38,0,.76.3,1.07-.08.15-.45.61-1.21.15-1.67-.23-.15-.76-.23-.91.08a.64.64,0,0,1-.91.23c-1.68-.76-2.74-2.66-3.42-4.33a9.63,9.63,0,0,1,.3-6.54c.53-.08.76-1.14,1.37-.68Zm-66,6.38a3.86,3.86,0,0,1-1.14,3.34c-1.21.84-2.5,0-3.87-.15-.38-.23-1-.38-1.14-.83a15.69,15.69,0,0,1,2-1.83c1.52-1.75,1.75-4.1,1.52-6.46a14,14,0,0,1,2.66,5.93Zm33.36-3c.61.76-.53,1-.68,1.59a4,4,0,0,0-.92,2.74,3.88,3.88,0,0,0,2.44,2.05A4.42,4.42,0,0,0,58,38.69a1.86,1.86,0,0,0,.23-2c-.31-.84-1.22-.46-1.83-.31a2,2,0,0,0-.91,1.75c.08.31.38.69.31,1a2.78,2.78,0,0,1-3-.3,1.6,1.6,0,0,1-.23-2c.53-1.9,2.51-2.58,4.1-3.27a20,20,0,0,1,3.65-.61,12,12,0,0,1,3.27.16c.53.15.45.76.38,1.21-.54,2.21-1.45,4.49-3.65,5.63-1.14.45-2,1.36-3.27,1.44-.83.38-.15,1.06-.3,1.52a3.09,3.09,0,0,1-.31,2.05,2.46,2.46,0,0,1-2.73,1,1.88,1.88,0,0,1-1.29-1.22c-.31-.68,1.06-1.59-.08-2-.53.15-.61.76-.84,1.14a2.61,2.61,0,0,0,.92,2.28c.3.38,1.36.53.83,1.22a1,1,0,0,0-.07,1.06,2.61,2.61,0,0,1,1.36,2c.08.69-.68,1-1.14,1.14-.76.46-1.29-.76-2-.22-.3.53,0,1.29-.76,1.52-.46.15-1.22-.16-1.06-.84,0-.3-.23-.46-.46-.68-.76.15-1.37,1.36-2.2.76a1,1,0,0,1-.69-.69,2,2,0,0,1,.61-1.82c.23-.76,1.6-1.14,1.14-2.28-.68-.84.76-.61,1-1.14.61-.76,1.21-1.75.68-2.74-.15-.3-.53-.53-.76-.3-.07.68.15,1.6-.45,2.2a2.57,2.57,0,0,1-2.66.38,3.32,3.32,0,0,1-1.37-1.36,4.86,4.86,0,0,1,.38-2.59c-.46-1.14-2.05-.83-3-1.52a7.81,7.81,0,0,1-4.87-6.53A.85.85,0,0,1,38,32.53c3.8-.07,7.52.31,10.41,2.66a2.77,2.77,0,0,1,.68,2.28c-.23.61-.84.92-1.37,1.3a7.06,7.06,0,0,1-2.51,0c0-.69,1.07-1.22.54-2.06-.38-.53-1.14-1.14-1.9-.83a1.41,1.41,0,0,0-.76,1.82c.45.69.76,1.83,1.74,1.83s1.68.15,2.66.22c1.07-.53,2.36-1.06,2.59-2.5a4,4,0,0,0-2.13-3.42,1.23,1.23,0,0,1,.68-1.14,5.42,5.42,0,0,1,3.12-.08L53,33.83Zm29.71-.23a10.74,10.74,0,0,0,2.81,8c-.3.46-.91.08-1.37.15-1.29-.38-3-.45-3.72-1.89a6.63,6.63,0,0,1,.15-5.1,7.73,7.73,0,0,1,1.83-1.74c.3-.08.45.3.3.53ZM44.89,37c.15.53-.38.61-.61.91-.45,0-.38-.38-.45-.68,0-.46.83-.92,1.06-.23Zm12.54.38a.93.93,0,0,1-.53,1c-.23.07-.54-.08-.54-.31-.07-.53.23-.83.69-1.06.23-.08.38.15.38.38ZM34.1,40.06A5.69,5.69,0,0,1,38.43,42a4,4,0,0,1,.53,4.1c.76.76,2.06,1.6,2.06,3,.15,1.6-1,3-2.13,3.95-2.28,1.3-5.4-.15-6.84,2.51a1.08,1.08,0,0,0,.68,1.45,3.77,3.77,0,0,1,2.43,1.29c.61.91.16,2.05-.15,3A4.17,4.17,0,0,1,32,63c-1.21-.22-2.73-.91-3.87.08-.91,1-1.37,2.66-2.89,2.89-.68,0-1.52.53-2.05-.31a3.19,3.19,0,0,0-.23-2c-.15-1.9,3.27-2.28,2.13-4.33L23.62,58c-.08-.84-.46-1.75.38-2.36a1.47,1.47,0,0,0,1.21-1.52c-.38-1.52-2.51-2.12-1.9-4a2.5,2.5,0,0,1,1.82-2.35c.16-.08.38-.08.54-.31-.76-1.06-1.75-2.43-.92-3.72.76-.61.38-1.75.84-2.43.46-1,.84-2.28,2-2.66l1.29-.61c2.05-.07,4.1.23,5.24,2ZM33,39.75c.38.31.23,1,.76,1.07L34,41a4.44,4.44,0,0,1,3.2.76,2.86,2.86,0,0,1,1.21,2.44L38,45.83a3.52,3.52,0,0,0-2.44,1.83c0,.53-.45,1.51.38,1.89.31,0,.76.08.69-.3a1.59,1.59,0,0,1,.07-1.82c.38-.53,1-.53,1.45-.76a3.25,3.25,0,0,1,2,2.28,4,4,0,0,1-1.52,3c-1.75,1.52-4.26.15-6,1.67a2.92,2.92,0,0,0-1.52,1.9c-.31.83.45,1.59,1.14,2s1.82.23,2.2,1.22a3.17,3.17,0,0,1-.68,2.58c-1.67,2.13-4.18-.61-6,1-1.29.76-1.44,3.19-3.34,2.89-.15-.69-1-1.52-.38-2.28.84-1.07,2.36-1.67,2-3.19-.08-1.52-2.43-1.6-1.6-3.35.46-.45,1.44-.6,1.52-1.44.76-2.36-2.89-2.74-1.75-5.17.23-1,1.29-1.29,2.13-1.44,1.06.23,2.36.45,2.74,1.59a2.34,2.34,0,0,1-1,2.13c-.23.46.15.69.45.84,1-.23,1.07-1.37,1.45-2a3.2,3.2,0,0,0-.46-1.9c.46-.76,1.67-.38,2.28-1.14a4.67,4.67,0,0,0,.84-2,3.29,3.29,0,0,0-1.9-2.35,1.39,1.39,0,0,0-1.29.68A.7.7,0,0,0,30,45c.45-.23,1.06-.54,1.37.07a1.78,1.78,0,0,1,.07,1.75,3.58,3.58,0,0,1-3.65.91,4.69,4.69,0,0,1-2.35-1.67,2.07,2.07,0,0,1,.15-1.9c1.37-.38.08-1.67.76-2.43.38-.91.53-2,1.6-2.43,1.14-.76,2.73-.31,3.95-.23l1.06.68Zm41,.91c.76.54.61,1.45,1.07,2.06l-.23,1.9c.38,1,1,2.12.53,3.19.08.61-1.06,1.06-.3,1.52a4.11,4.11,0,0,1,2.35,1.74,2.64,2.64,0,0,1,.15,2.28c-.38.61-1.59,1.14-1.14,2.06.76.53,1.9,1.21,1.68,2.35.07,1.22-1.3,1.9-2.13,2.58-.61,1.07.53,1.75,1.06,2.44a2.81,2.81,0,0,1-.45,3l-1,.91c-.53-.23-1.6.38-1.6-.45a2,2,0,0,0-.07-1.45c-2.13-1.21-5.09-.76-6.69-2.89a2,2,0,0,1-.38-2.28A4.73,4.73,0,0,1,69,57.31c.68-.23,1.75.38,2-.46.23-.53-.23-1.06-.38-1.52C69,54,67,55.63,65.1,55c-1.06.3-2.28.91-3.49.38a4.38,4.38,0,0,1-2.28-2C59,51,59.1,48.11,60.7,46.21c.6-.38,1.44-.76,1.59-1.52C61.91,43,63.35,41.88,64.42,41a5.66,5.66,0,0,1,4-.45c1.06-.91,2.43-1.67,3.79-.84a4.33,4.33,0,0,1,1.75.91Zm-.76.38c.53.84,1.52,1.75.76,2.82-.23.22-.68.45-.38.83a2.44,2.44,0,0,1,1.07,2.51c-.23,1.29-1.6,2-2.74,2.43a3.72,3.72,0,0,1-3.42-.53,2.11,2.11,0,0,1-.3-2.2c.23-.31.45-.76.91-.84a1,1,0,0,0,.91.23c.38-.23.69-.91.23-1.22A1.06,1.06,0,0,0,69,44.84c-.76.61-1.75,1.14-1.83,2.21A3.1,3.1,0,0,0,68,49.78a5,5,0,0,0,3.87.69c.61.15.16,1,.84,1.14.46-.38.3-1.3,1.06-1.6a3.16,3.16,0,0,1,2.89,1.14,2.34,2.34,0,0,1,.08,1.9c-.38.68-1.83,1.29-1.22,2.36.61.91,2.28,1.36,1.6,2.73-.38,1.06-1.75,1.14-2,2.13-.54,1.37.76,2.13,1.36,3a2.2,2.2,0,0,1-.83,2.21l-.31.22a.89.89,0,0,1-.38-.83c-1.74-2.43-5.16-1-7-3.27a1.74,1.74,0,0,1-.22-1.9,4.05,4.05,0,0,1,1.59-1.59c.91,0,1.83.15,2.43-.61.76-1.07-.15-2.05-.68-2.81-1.29-1.14-3.5-.76-5-.38a3.47,3.47,0,0,0-.3-3.35c-.53-.45-1.14-1-1.82-.53-.31.23-.69.53-.46.84.38.68,1.06-.38,1.44.22a1.77,1.77,0,0,1,.38,1.9,2.74,2.74,0,0,1-1.59,1.22,3.4,3.4,0,0,1-3.42-1.22,4.38,4.38,0,0,1,.08-3.11c-.46-.53,0-1.45.15-2.05.45-1,1.06-2.21,2.28-2.28,1-.53.07-1.45.45-2.28a3.91,3.91,0,0,1,2.51-2.36c.91-.38,1.82.15,2.66.08v.07c1,.16,1.29-1.21,2.28-1.21,1.06-.23,1.75.45,2.58.83Zm-48.48-.38c.08,1.6-.75,3-.91,4.56a3.42,3.42,0,0,1,0,2c-1.44.68-1.44,2.43-1.59,3.95.23,1.37,2.05,2.13,1.67,3.57-.53.61-1.6,1.37-1.52,2.36.38,1.29,2.35,2.43,1.14,3.87a18.52,18.52,0,0,0-1.75,2.51A14.74,14.74,0,0,1,22.25,66c.07,1.21,1.44,1.14,2.13,1.67-.38.68-1.22.83-1.9,1.06l-4,1.37c-.91.08-1.59.84-2.58.84a1.26,1.26,0,0,1-.91.22c-1.82.16-3.72,1.22-5.32-.07a6.75,6.75,0,0,1-1.14-2.21c.15-.91,1.14-.91,1.82-1.06,1.3,0,2.59-1.37,3.73-.45,1.9.83,3.72-.46,5.32-1.3,1.06-1.9,2.81-3.87,2-6.3-.23-1.9-2.35-3-2.43-4.94a33.84,33.84,0,0,1,3.34-11.86l1.45-2.58a.66.66,0,0,1,1,.3Zm-8.66,7.83a4.82,4.82,0,0,1-2.5,3.72,8,8,0,0,1-2.82.84L10.7,53c2.66-1.82,3.72-5.09,3.72-8.28a17.24,17.24,0,0,0-1.06-4.33,8.37,8.37,0,0,1,2.73,8.13Zm26.22-5.85c.45.46.23,1.06.38,1.6.45.76.53,1.74,1.29,2.35a3.08,3.08,0,0,0,.76,2.66c-.38,1.29-.53,3.19.76,4.18.91.3,1,1.29,1.29,2-1.14,1.22-2.66,2.74-1.9,4.48.15.46-.61.69-.76,1.07a30.38,30.38,0,0,0-6.84,2.28c-.3,0-.68.3-.91-.08-.23.08-.23.38-.3.61-2.81.76-5.47,1.82-8.13,2.81a.49.49,0,0,1-.46-.38,3.59,3.59,0,0,1,1.6-2.58c1.29-.61,2.5.53,3.87.07a5.38,5.38,0,0,0,3.65-4.25c.23-1.14-.76-1.9-1.22-2.81-.61-.15-1.37-.38-1.59-1,.45-2.13,2.88-.76,4.33-1.37,1.52-.45,3-1.14,3.65-2.73.6-1.75.45-4.18-1.14-5.55-.61-.91.07-2.43-.61-3.5-.15-.38-.61-.91-.15-1.29,1.21-.53,1.29,1.37,2.43,1.37Zm34.65.3a38.86,38.86,0,0,1,3,9.65,18.09,18.09,0,0,1-.38,6.08l-.84,3.42c.61,1.83-.08,3.57,1.29,5.17,1.29,1.37,2.66,3.11,4.71,2.73.84,0,1.29-1,2.13-.45,1,.91,2.51.68,3.65,1.21.22.31,0,.61-.16.84-2.43.68-5.09.08-7.37-.38a60,60,0,0,0-7.29-2.74c-.3-.22.08-.45.23-.68.68-.91,2.2-1.29,2.2-2.58a7.56,7.56,0,0,0-.83-4.11c0-1.06,1.82-1.06,1.21-2.35a4.25,4.25,0,0,0-.83-3.8c-.31-.61.3-1.14.38-1.75.83-.61.45-1.75.3-2.51a3.75,3.75,0,0,0-2-1.9c-.22-.68.38-1.51-.22-2.2.6-1.67,0-3.57-.69-5.09l.15-.3c.76.15,1,1.14,1.3,1.74ZM12,41.73A9,9,0,0,1,11.53,49c-.3.76-1.44,1.14-1.52,2a.37.37,0,0,1-.53.08,6.18,6.18,0,0,1,0-3.11,45,45,0,0,0,.46-6.39c.3-.68,1.21-.07,1.75-.15l.3.23Zm74.62,2.35c-.23,2.51-1.37,4.64-1.14,7.3l.22,1.82-.22.23a11,11,0,0,1-2-6.23,13,13,0,0,1,.76-2.43l2-1.14a.38.38,0,0,1,.31.45Zm2.66.61a14.16,14.16,0,0,1-.76,9.65c-1.52-.23-.92-2.05-1.14-3-.38-1.75.3-3.42.45-5.16.08-.69.61-1.83,1.45-1.45Zm-42.18,3c0,.38-.38.38-.6.45S46,48,46,47.73s.16-.53.46-.61c.3.08.68.23.68.54Zm7.6-.08a.5.5,0,0,1-.3.53c-.23,0-.46-.07-.46-.3s.23-.38.38-.53.38.15.38.3Zm-1.9,5.17a1.72,1.72,0,0,1-.91,1.52c-.3.07-.83.15-.83-.38s.6-.38.75-.84.76-1.06,1-.3Zm-3.11,1.52c-.38.15-.91.53-1.37.22a1.19,1.19,0,0,1-.38-1.44c.76-1.06,1.29.53,1.9.61l-.15.61Zm1.67,1c.23.31,0,.61-.15.84-.38.3-.76.76-1.29.61a1.08,1.08,0,0,1-.61-1.22c.68-.07.91-1,1.67-.53l.38.3Zm-2.43,1.9a2.7,2.7,0,0,0-1.07,2.66.83.83,0,0,0,.61.91c1,.16,2-.38,3,0,.76-.38.76-1.29.69-2s-1.44-1.22-.38-1.9c.38-.3.68.23,1,.38,1,.84.76,2.43.76,3.49C55.6,62.24,58,63,60.16,64.14c6.69,2.89,13.53,5.25,20.37,7.68,1.82.45,3.57,1.21,5.47,1.67.38.46.15,1.14,0,1.6a4.47,4.47,0,0,1-3,3,5,5,0,0,1-2.5,3.87,2.78,2.78,0,0,1-2.21-.07c-.68-.46-.45-1.22-.22-1.75.15-.23.38-.68.68-.53,0,.53-.38,1.21.23,1.67.38.68,1.21.15,1.75.08a2.58,2.58,0,0,0,1.36-2.13c-.38-1.29-.15-2.74-1.52-3.57a5.23,5.23,0,0,0-1.82-.69,7.88,7.88,0,0,0-2.89,1,12.76,12.76,0,0,0-1.06,2.28,5.36,5.36,0,0,0-2.43,2.28,32.86,32.86,0,0,0-3.19-1.14c-2.82-1.29-5.78-2-8.67-3.19-2.43-.84-4.71-2.13-7.14-2.89-.3-.45-1-.15-1.29-.3-.61.68-1.52,1.44-2.51,1-.83,0-1.06-.92-1.82-1.14l-.69-.08A42.44,42.44,0,0,1,40.26,75c-2,.68-4,1.14-6.16,1.9a57,57,0,0,0-7.22,2c-.91-.15-1.14-1.22-2.05-1.44a4,4,0,0,0-3-3.19,4.21,4.21,0,0,0-2.59.38,3.15,3.15,0,0,0-1.44,3.11c0,.23.15.38.15.61a1.73,1.73,0,0,1-1.75-1.37c-.15-.68.61-1.06.31-1.82-.61-.38-1.75-.53-1.75-1.6l-.15-.83c1.37-.31,2.81-.69,4.18-1a18.55,18.55,0,0,0,2.51-.91c2.05-.54,4.1-1.45,6.15-2.13,5.78-2.2,11.7-4.1,17.4-6.54.68-.45,2-.07,2.13-1.29.3-.23.15-.68,0-.91-.38-.23-.38-.76-.31-1.22.23-.83.76-2,1.75-2.2.31,0,.38.31.46.53ZM51.2,58.9c.07,1.29-1.37.46-2.05.91-.23.15-.46-.23-.46-.45a1.47,1.47,0,0,1,.91-1.52c.61.23,1.6.15,1.6,1.06Zm-39,2.2a.48.48,0,0,1-.69.54c-.22-.23-.76-.46-.68-.84a1.19,1.19,0,0,1,.46-.84c.68-.07,1.06.46.91,1.14Zm47,4.41c.6,0,1.06.46,1.67.61,3.57.76,6.68,2.58,9.95,3.87l3,1.22c2,.84,4.18,1.22,6.08,2.28A23.83,23.83,0,0,1,83.72,75c0,.23.07.61-.31.68-.83-.07-1.29-1-2.2-.91-.53-.68-1.44-.07-2.2-.38a5.9,5.9,0,0,0-4.79,1.37l-.76,1.67a3.81,3.81,0,0,0-2,.84c-.46.07-.84-.38-1.29-.08-3.42-1.06-6.54-2.81-9.88-3.87-2.36-1-4.79-1.75-7.14-2.66-.69-1.07-1.52.15-2.21.22a3.18,3.18,0,0,1-3-.83c-1-.23-1.44.53-2.43.53-.53.38-1.29,0-1.67.68-3,1.22-6.23,1.68-9.2,3-2.5.68-5,1.37-7.6,1.9a4.37,4.37,0,0,0-1.36-1c-.76-1.37-1.52-3-3.35-3.19a4,4,0,0,0-3,.45c-.3-.15-.68.23-.76-.22.76-1,2.13-1,3.34-1.14A34.74,34.74,0,0,1,28.1,70.3c2.43-1.29,5.24-1.67,7.75-2.81A133.67,133.67,0,0,0,49.91,62,1.85,1.85,0,0,0,51,61.64c2.73,1.36,5.55,2.43,8.21,3.87Zm30.09-1.9c-.31.53-.92.53-1.37.69a1.2,1.2,0,0,1-.91-.69.75.75,0,0,1,.45-.83c.69-.23,2.21-.16,1.83.83ZM58.8,66.2a7.94,7.94,0,0,1,2.2.91c2.28.15,4.1,1.52,6.15,2.2l7.91,3.27c.76.45,1.82.3,2.5.91-.15.3-.76,0-1.06.23a4.65,4.65,0,0,0-3.65,2.81,5.23,5.23,0,0,0-2,1c-6-1.75-11.48-4.79-17.48-6.61-.3-.38-.76-1-1.37-.69a3.4,3.4,0,0,1-2.43.91A3.66,3.66,0,0,1,47.93,70c-1.75.38-3.34,1.22-5,1.68-5,1.59-10.11,3.42-15.28,4.56-.53.07-.76-.54-1.21-.61-.61-.46-.61-1.45-1.3-1.75-.07-.76-1.29-.91-1.06-1.6,2.2-1.14,4.79-1.29,7-2.43a120.66,120.66,0,0,0,12.39-4.25c2.28-.46,4.18-1.9,6.38-2.59,1.9-.83,3.65.92,5.39,1.52L58.8,66.2ZM12,68.85c0,.08-.08.38-.23.23v-.45c.15-.08.23.15.23.22Zm1.75,4.34c.45.83.61,1.9,1.67,2.43-.08,1.29.07,2.66,1.37,3.34,1.44.23.91,2,2.28,2.51a3.34,3.34,0,0,0,2.58-.08,3.1,3.1,0,0,0,.61-2.58,2.35,2.35,0,0,0-1.07-1.6,1.14,1.14,0,0,0-.83.31c-.31.6.38,1.14,0,1.67a2.28,2.28,0,0,1-1.75-1.37c-.3-.83.38-1.44.76-2a2.08,2.08,0,0,1,2.58-.53,2.76,2.76,0,0,1,1.83,1.37c.23.75-.15,1.74.91,1.89.76.16,1.06,1.07,1.21,1.75.16.91-1.14.69-1.36,1.45.38,1.21.83,3-.23,4-.84.92-2.05.76-3.19.92a4.48,4.48,0,0,1-3-3c.38-1.9-1.74-.76-2.66-1.37-1.29-.68-3-1.82-2.88-3.49.3-2.36-3.19-1.6-3.19-3.88-.08-.68-.31-1.59.22-2.12,1.3.3,2.66.91,4.11.38ZM89.87,74c-.07,1.6-.3,3.27-1.74,4.26-.54.91-1.9.45-2.06,1.59l-.15,2c-.91.91-1.29,2.58-2.81,2.51-.68.3-1.29-.31-1.9,0-.23,1.36-1.52,2.2-2.51,3-1.06.23-2.43.23-3.11-.84a2.61,2.61,0,0,1-.69-1.82c0-.61,1.22-.91.61-1.6-.83-.6-2.58-.76-2.13-2.28.46-.68.92-1.59,1.83-1.67.3,0,.61.15.76-.15a2.81,2.81,0,0,1,.83-2.73c.84-.69,2.06-.31,3-.08s1.22,1.52,1.37,2.43a2.06,2.06,0,0,1-.53,1.75c-.38.07-.61.53-1,.38-.15-.61.69-1.14.23-1.75s-1.14-.3-1.6-.23c-.6.23-.83,1-1.14,1.52a2,2,0,0,0,1,2.28,4.86,4.86,0,0,0,2.59.23A7.37,7.37,0,0,0,84,78.66a6.42,6.42,0,0,0,3.12-4.94,15.08,15.08,0,0,1,2.58-.08l.15.38Zm-40,1.67a2.81,2.81,0,0,0,2.81-.83c1,.3,1.9.76,3,1.06,4.71,1.14,9,3.65,13.45,5.24l2.58,1.14c-.07,1.14,1.22,1.37,1.37,2.28-.46,1.07,1.44,2,.08,2.74C71.64,86,70.5,88.38,69,87.77c-.61-.38-.46-1.13-.76-1.59-.91-1.06-2-2.28-3.57-2-.84.16-1.3-.6-1.6-1.21s-1-1-.91-1.83c-.15-1.82-2.2-2.5-3.65-3.19a10.41,10.41,0,0,0-6.08.46c-.61.23-.76,1.06-1.29,1.21A7.08,7.08,0,0,0,46.56,78c-1.82.61-3.57.15-5.47,0-1.44-.23-2.43.91-3.34,1.83-.76.6-.53,1.74-1.22,2.43-1.29-.31-2.05.83-3.11,1.29-1.14.91-1,2.43-1.75,3.57-1.37.53-2.13-1.52-3.57-.61-1,0-2,1.22-2.74.38-.07-.53.53-.53.76-.83L27,84.36c.16-.84-1.06-2.44.46-2.82.46-.38,0-1.29.84-1.21,6.23-1.6,12.15-4,18.31-5.78,1.14.23,2.13.92,3.27,1.14ZM20,80.1a1.31,1.31,0,0,0,1.37-.46c.22.46-.16.92-.46,1.14-.76.61-1.52-.07-2.13-.45-.15-.38-.53-.76-.38-1.29L20,80.1Zm40.12,1.37c0,.61-.53,1.67.3,2,.61.08.69.76,1,1.22a2.35,2.35,0,0,1-1.37,2,2.63,2.63,0,0,1-1.52.08,4.45,4.45,0,0,1-2.05,1.52,2.93,2.93,0,0,1-2.51-.54,3.23,3.23,0,0,1-.38-3.11c.46-.61,1-1.14,1.67-1.06.23.45-.3,1,.31,1.36a.83.83,0,0,0,1,.23,1,1,0,0,0,.6-1.06c.08-.69-.53-1.07-1-1.45a2.73,2.73,0,0,0-2.66.76c-1.14.76-1.22,2.28-.92,3.5l.76,1.52c-.53.61-1.44.91-1.74,1.75-.16,1.36,1.14,2.35.53,3.72-1.06,1.22,1.9,2.36-.23,3.19a4,4,0,0,1-4.1-.38c-.23-.68.53-1.14.61-1.75.68-.91.15-2.28,1.59-2.88a4.1,4.1,0,0,0-.45-3.65,5.92,5.92,0,0,0-2.59-1.6c-.45-.45.23-.83.08-1.36a2.72,2.72,0,0,0-1.37-2.74c-.46-.61-1.29-.46-1.82-.3a2.19,2.19,0,0,0-1,1.21c0,.69.68.84,1.21,1,.76.08.76-2.43,1.68-.76a2.45,2.45,0,0,1-.08,2.58c-1.06.61-2,2.21-3.49,1.22a5.23,5.23,0,0,1-1.6-1.29c.61-1.75-1.9-1.67-2-3.27a2.94,2.94,0,0,1,.92-2.66c1.21-1.14,3.19-.68,4.63-.23a5.35,5.35,0,0,1,4.33.08,5,5,0,0,1,2,1.59c1.44.54,1.82-1.44,3-1.82.68-.38,1.67-.23,2.36-.68,1.67.15,3.57.38,4.33,2Zm-21.58,4a2.71,2.71,0,0,1-.38,2.27c-.38.31-1.07.16-1.07.76.08.23.23.61.54.54,1.21-.08,1.59-1.3,2-2.21.46,0,.84.61,1.14.91a6.74,6.74,0,0,0,2.21,1.07c.37.61-.16,1.21.07,1.82s.68,1.6,1.44,2a1.37,1.37,0,0,0,1.37-.53c.23-.16.15-.54.08-.69-.23-.3-.69-.45-.91-.23s-.31.46-.61.38a2.54,2.54,0,0,1-.23-2.43,3,3,0,0,1,2-1.37,2.63,2.63,0,0,1,2.43.92,3.36,3.36,0,0,1,.54,2.81l-1.3,1.37c-.07,1.44-.38,2.81-1.74,3.57a3,3,0,0,1-2.66.22A3.84,3.84,0,0,1,40,96.51l-2.13-1.9c0-1.06-1.14-1.52-1.82-2-2.21-.83-4.49,1.83-6.46-.3-.76-.61-1.22-1.6-2.21-1.75-.83-.08-1.82,1-2.43.08.84-1.14,1.9-2.66,3.5-2.28,1.37,0,2.43,1.59,3.8.6l1.14-1.06c.68-1.37.83-3.42,2.73-3.87a3,3,0,0,1,2.36,1.52Zm27.66,1.14c1.06,1,1.06,3,2.81,3.19,1.37-.08,2.28-1.3,3.64-.92.54.46,1.37,1,1.6,1.68-.84.91-1.75-.61-2.81,0-1.75.83-1.22,3.42-3.42,3.72-2,.53-3-2.28-5.17-1.06-1.14.38-1.59,1.59-2.35,2.43A4.26,4.26,0,0,1,55.76,97c-1-.75-2.51-1-2.89-2.35-.08-.76.68-1.37.53-2a1.62,1.62,0,0,1-.68-1.37c.22-.68.22-1.82,1.21-1.9a3.93,3.93,0,0,1,2.13.08A1.32,1.32,0,0,1,56.59,91c-.07.91-1.82,1-1.06,2a.81.81,0,0,0,.91.08c.15-.46.61-.3.84-.68.38-1.07.76-2.21,0-3.2.22-.76,1.21-.83,1.67-1.52.38.16,1.14-.45,1.14.23-.23.69.15,1.29.15,1.9.3.46.84.91,1.37.69.15-.16.3-.38.15-.54-.31-.22-1-.22-.84-.83a3.78,3.78,0,0,1,1.14-2.81c1.22-.84,2.89-.46,4.11.23Z"/></svg>