<svg id="Layer_1" data-name="Layer 1" xmlns="http://www.w3.org/2000/svg" viewBox="0 0 100 100"><defs><style>.cls-1{fill:#a64787;}</style></defs><title>Bg2</title><path class="cls-1" d="M50,0a50,50,0,1,0,50,50A50,50,0,0,0,50,0Zm0,97.84A47.85,47.85,0,1,1,97.85,50,47.9,47.9,0,0,1,50,97.85Z"/><path class="cls-1" d="M56.76,10.06c.17.68.46,1.77-2.55,1.46C55.82,12.53,58,11.93,56.76,10.06Z"/><path class="cls-1" d="M47.37,19.22c-.06,1.89,2.33,2.68,5-1.52C50.26,18.53,48.5,21.17,47.37,19.22Z"/><path class="cls-1" d="M42.26,29.23a.65.65,0,0,1-.16.13C42.2,29.33,42.25,29.29,42.26,29.23Z"/><path class="cls-1" d="M43.59,85.8c-.32,0-.48.33-.43.7C43.22,86.09,43.38,85.8,43.59,85.8Z"/><path class="cls-1" d="M90.81,48.33c8,.19,4.14-7.53,3.29-6.5s-.18,2-6.4,1.89S73.85,33.54,70,26.38c4.14,7.91,14.6,14,17.24,14.13s6.4-.37,5.27-2.54-2.26,0-2.26,0,2.45,1.22-3.67.85c-5.71-.35-13.54-8.8-16.18-13C72.76,29.11,81,34.09,82.33,35s9.61,2,8.85-3.86-4.42-2.64-4.42-1.79-1,1.7-3.11,1.79c-4.24-.09-11.78-6.31-14-9.21,1.54,1.44,5.61,6,10.89,6.1S86.1,25.06,86,24.5a2.1,2.1,0,0,0-2.92-1.89c1.89.29,2.26,2.92-2.54,3.11s-8.48-2.73-10.84-5c3.4,2.1,8.39,2.05,10.18,1.13s3.86-2.94,1.6-4.18-1.32.3-3.77,1.53-6.59.56-9.61-.76c7.49,1.1,8.67-4.62,7.73-5C76.2,17,70.17,17,67.25,16.3c1.7-.19,3.11-1.88,1.89-4.29s1.79-3.62,3.48-2.49.29,2.63-.94,2.49c1.13,1.36,5.09-.8,1.7-3.34-4.62-3.49-7.82,2-7.54,5.46-.38-2-2.35-3.11-3.2-1.22,1-.57,1.88,1.13,1.22,2.17-2.64.18-4.14,3-3.67,5.18-.1.19-2.07,0-.1,3.86s4.71.66,3.4-.75c.75-1.23,3.48.66,2.73,2.54-1.89.75.09,3.3,1,3.39s1,2.26-.94,3.7c-2.16-1-5.27-.5-5.56,1.07-1.88-.42-2.82.51-4.14,1.07,1.17-2-1.63-2.92-3.14-1.34a4.34,4.34,0,0,0-.54-.33l.1,0a8.65,8.65,0,0,1-2.14-5,2.31,2.31,0,0,1,0-.74c.33,3.5,4.2,3.13,5.89,1.68s4.51-1.34,4.59.26-1.51,1.31-2.26.75c.75,2.26,3.56,1.29,3.51-.82-.05-2.56-3.26-3.14-6.4-1.32-2.58,1.5-3.9.63-4.89-2.25h0a2.73,2.73,0,0,0,4.89-.57c-.81,1.69-2.7,1.19-4.22-1.35l0,.11c.24-.71.48-1.47.67-2.25a1.55,1.55,0,0,0,0,.23,1,1,0,0,0,2,.31c-.79.73-1.11.12-1.83-.94v0c.07-.37.13-.73.18-1.1v0c1.23,2.63,3.75,1,3.24-.37-.43,1.38-2,1.07-3.15-.88v0a8.25,8.25,0,0,0-.16-1.71h0a3.06,3.06,0,0,0,1.6-1.11c1,3.12,4.47,3,4.28.4-.69,2.95-3.87-1.29-3.87-1.29s7.64,2.45,7.31-3c-.1-1.54-2.4-2.12-3.35-1.08,4.5-.1,1.18,6.87-4,1C54.13,11,52,9.31,48,10.43c-3.89-.63-4.77,1.26-4.77,2.76,1-1.49,4.48-2.8,6.54,1.22-3.51-1.45-3,1.15-7.06,1.23-4.52.1-2.54-2.17-1.41-2.07-2.17-.19-3,3.2,1.13,3,3.49-.16,4.53-3.06,7.35-2.14a4,4,0,0,1,.14.89c-1.29,1.76-1.89,1.88-3.35,1.25,1.08,1.39,3.75,1.64,5.77,1.12A12.26,12.26,0,0,1,50.66,21c-2,1.18-3.54,2.62-5.86,2.49s-1.45-1.17-.76-1.24c-1.32-.2-2.32,2.31.63,2.5s4.27-1.16,4.63-1.7a.43.43,0,0,0,0-.07,16.92,16.92,0,0,0-1,1.64c-.18.37-.36.7-.52,1h0c-1.3.94-2.06,1.51-2.62.32-.69.93.61,2.37,1.91,1.28v0a5.6,5.6,0,0,0-.2.7h0C45.3,30,44,31,42.22,30.78s-1.51-2.09-.75-2c.55.08.83.29.79.44.6-.52.33-1.81-1.17-2s-2.07.6-2.2,1.79.88,3.39,3.86,3.33a4.36,4.36,0,0,0,4.1-2.58h0a11.84,11.84,0,0,0,.9,3.14l.32.11a6.2,6.2,0,0,0-1.54.78c-1.5-1.58-4.3-.64-3.13,1.34-1.32-.56-2.26-1.49-4.14-1.07C39,32.5,35.86,32,33.7,33c-1.89-1.44-1.89-3.61-1-3.7s2.93-2.64,1-3.39c-.75-1.88,2-3.77,2.73-2.54-1.31,1.41,1.42,4.61,3.39.75s0-3.67-.09-3.86c.47-2.17-1-5-3.67-5.18-.66-1,.18-2.74,1.22-2.17-.85-1.89-2.82-.76-3.2,1.22.28-3.48-2.92-9-7.54-5.46-3.39,2.54.57,4.7,1.7,3.34-1.23.14-2.64-1.36-.95-2.49S32.1,9.6,30.87,12s.19,4.1,1.88,4.29c-2.92.66-8.94.66-8.57-2.83-.94.38.24,6.1,7.73,5-3,1.32-7.16,2-9.61.76s-1.51-2.76-3.77-1.53-.19,3.27,1.6,4.18,6.78,1,10.18-1.13c-2.36,2.24-6,5.16-10.84,5S15,22.9,16.93,22.61A2.1,2.1,0,0,0,14,24.5c-.1.56.19,3.58,5.46,3.48s9.35-4.66,10.89-6.1c-2.22,2.9-9.76,9.12-14,9.21-2.16-.09-3.11-.95-3.11-1.79s-3.67-4.05-4.42,1.79S16.17,35.9,17.68,35s9.57-5.84,11.94-9.13C27,30,19.15,38.47,13.44,38.82,7.32,39.19,9.77,38,9.77,38S8.64,35.8,7.51,38s2.63,2.64,5.27,2.54S25.88,34.29,30,26.38c-3.86,7.16-11.49,17.24-17.71,17.34s-5.56-.85-6.41-1.89-4.71,6.69,3.3,6.5,9.05-4.43,9.52-4.9a4.48,4.48,0,0,1-2.36,4c3.11-.75,11-10.74,12.13-16.2-.92,6.69-7,17.43-14.48,20s-6,.38-5.94,0-1.32-2.35-2.17.38,2.27,3.49,4.15,3.3,14.13-.57,18.28-20.45c-2.08,9.05-1.89,15.64-11.69,22.05-2.16,1.79-4.33,3-6.78,1.41S8,64.54,14.67,63.88,30.78,52.1,30.78,36.08c2.1,13.1,1.49,20.82-4.24,22.8s-2.08,2.83.84,1.23,8.11-3.39,3.95-23.75C33.41,42.11,36,49.84,34,53.42s-5.75,9.8,1.79,4.8c5.37-4.14.28-16-.94-18.65,3,5.09,5.18,7.73,5,12.15s0,4.62,1.23,1.13-4-11.68-5.09-13.37c3.67,3,7.35,9.42,6.12,14.22,2.07-.28,4.33-7-2.26-14,1.13,1,2.73-.19,3-1.32-.74,3.09,1.75,6.7,3.95,8.67A11.88,11.88,0,0,0,46.3,50a4.2,4.2,0,0,0,0,4.12C45,55,43,56.14,43,57.66c-1.51.63-2.71,0-2.1-1.13s1.6-.57,1.5-.28c.38-1-1.41-1.62-2.35-.48a2.25,2.25,0,0,0-.36,1.93h0c-.72,1.23-2.14,2.27-3.22.85.09,1.46,2.59,2.16,3.65.16a1.39,1.39,0,0,0,.92.64c-1.81.44-1.16,1.07-1.42,1.58-2.27-.38-3.15.87-2.9,2-1.88-.26-4,1.38-4,2.88L24.93,71c-.94.62-1.25-.82-1.31-1.51,1.57-.19,1.32-1.38,2.13-2.39-1.51.88-1.69.5-2.07-.27,1.69.23,4.21-.42,4.65-2.93-.88.63-1.13.56-2.14,0,.63-1.7,2.77-1.07,3.9,0s.31,2.07-.57,1.94c.38,1.13,2.69.3,1.45-1.94-1.67-3-5.72-3.08-8.23-1.38s-1.38,8,1.14,9.18h0l-1.65,1.1c-2.57-1.11-3.51,1.27-5.4,1S13.44,71.23,14.76,71s1.32-2.26,1.32-2.89a3,3,0,0,0-3-2.77,3.21,3.21,0,0,0-1.15.15c-1.5-1.31-2.77-.77-3.33.09a2.79,2.79,0,0,1,2.63.31,3.31,3.31,0,0,0-1,2.6c-.07,2.07,1.13,2.32,1.88,2.38-.38,1.76,1.51,4.9,3.64,4.65a2.19,2.19,0,0,0-1.24,3.19,3.67,3.67,0,0,0-1,2.27,7.41,7.41,0,0,0,2-1.22c1.86,1.44,4.14-.5,3.71-1.92,1.06,1.26.81,3,1.88,3.46-1.13.5-.57,3.58,2.32,3.08a6.91,6.91,0,0,0,.93-.24,2.59,2.59,0,0,1-.6,2.68c1-.21,2-1.18,1.31-3a1.9,1.9,0,0,0,.44-2.48c-.38-.94-2.52-1.26-3.71-2.45s-1.57-3.65-.34-4,2.41.69,1.91,1.89c1.19-.38,2.56-2.38-.26-3.49l8.8-5c.38.75,2.39-.76,2.14-1.89,1-.25,3-.5,2.89-2,.88,1,1.32,2.58.19,2.83,1.06.19,2.38-1.62,1.31-3.35-.06,0,.63.59,1.2.33-.51,1.64-1.07,6.16,2.13,6.35s3.08-1.76,2.83-2.2-.94-.94-1.76.13c.69-.19,1.19-.07,1.19.25s0,1-1.25,1.06-2-1.5-1.76-2.57,1.63-2.12,1.63-3.35c1,.65,3,1.84,4,0a1.81,1.81,0,0,1-2.64-2,11.3,11.3,0,0,1,3.08-4.47,3,3,0,0,0-.1.73,3.18,3.18,0,0,0,1.62,2.76c0,.13,0,.27,0,.41a1.9,1.9,0,0,0-.28,1,1.77,1.77,0,0,0,.07.46,20.88,20.88,0,0,1-4.1,9C42,74.12,41,70.47,38.94,69.84c-1,1.51-.63,1.76,0,2-2.13.26-4.65-2.26-2.89-2.63-1.88-.13-3.69,4.39-.59,5.15s3.73.88,4.61,0c-1.88,2.26-3.64,2.35-7.16.61-1.25-2.62-4.65-5.26-5-2.25-1-.37-1.58.41-2.14-.12.76,2.64,5.15,5.65,9,5.27S45.1,74.49,46.85,71c-.62,4.65-6,9.8-9.72,10.31s-5.73-3.15-7.48-3.4-3.74-.9-3.9,1.64c1.13-.76,2.89-.38,2.89.88s2.31,3.27,3.77,1.76A8.11,8.11,0,0,0,35.93,82c-1.13.75-5.28,1.49-5.53,4.83-1.38.7-.63,3.08-.13,3.08A2.32,2.32,0,0,1,32,87.43c-.63,1.51-.37,1.26.13,2,2-.5,1.76-1.76,2.51-3.52,1.89-.63,3.9-4.64,6.78-5.4-1.25,1.64-2.89,4.15-2.38,5.78,2.13-.13,4.6-.7,4.14-6,1.51-.75,3.13-5.55,4.15-7.29a19.09,19.09,0,0,0,1.37-3l.18,3.84c-1.69,1.14-2,2.7-.42,3.31.12,2.76-1,2.51-2.39,2.64.38,2.13,2.39,1.88,2.95,2.76S49,84,48.49,83.91c-.63.13-.29,1.26.73,1.38-.1,0,0,.63,0,.63s.27,1.13-.73,0-2,0-3.77,1.51c-1,.15-1.49-.43-1.56-.93-.17,1.31.82,3.76,5.33,1a17.23,17.23,0,0,1,0,2.49s-3.66-.62-5.35,2.26-8.45-2.4-4.07-3.76c1.13-.38,1.25,1.38.25,1.5a1.55,1.55,0,1,0-.25-3.08c-2.39.07-3.39,1.07-3.39,3.08s1.5,5.83,5.15,5.91c5.65.12,7.16-2.52,7.66-3.65-1.13,2.39.39,4,1.51,5h0c1.11-1,2.64-2.63,1.51-5,.5,1.13,2,3.77,7.66,3.65,3.65-.08,5.15-3.9,5.15-5.91s-1-3-3.39-3.08a1.55,1.55,0,1,0-.25,3.08c-1-.12-.88-1.88.25-1.5,4.38,1.36-2.38,6.65-4.07,3.76s-5.35-2.26-5.35-2.26a17.23,17.23,0,0,1,0-2.49c4.51,2.81,5.5.36,5.33-1-.07.5-.54,1.08-1.56.93-1.76-1.51-2.76-2.64-3.77-1.51s-.73,0-.73,0,.1-.63,0-.63c1-.12,1.36-1.25.73-1.38-.5.13-1-.62-.56-1.38s2.57-.63,2.95-2.76c-1.38-.13-2.51.12-2.39-2.64,1.63-.63,1.26-2.26-.56-3.41v-2L51,69.3A20.91,20.91,0,0,0,52.65,73c1,1.74,2.64,6.54,4.15,7.29-.46,5.33,2,5.9,4.14,6,.5-1.63-1.13-4.14-2.38-5.78,2.88.76,4.89,4.77,6.78,5.4.75,1.76.5,3,2.51,3.52.5-.75.76-.5.13-2a2.33,2.33,0,0,1,1.76,2.51c.5,0,1.25-2.38-.13-3.08-.25-3.34-4.4-4.08-5.53-4.83a8.11,8.11,0,0,0,3.52.13c1.46,1.51,3.77-.51,3.77-1.76s1.76-1.64,2.89-.88c-.16-2.54-2.14-1.89-3.9-1.64s-3.77,3.9-7.48,3.4S53.78,75.62,53.15,71c1.76,3.52,8.17,6.54,12.06,6.91s8.29-2.63,9.05-5.27c-.56.53-1.13-.25-2.14.12-.38-3-3.77-.37-5,2.25-3.52,1.74-5.28,1.65-7.16-.61.88.88,1.5.75,4.61,0s1.29-5.28-.59-5.15c1.76.37-.76,2.89-2.89,2.63.63-.25,1-.5,0-2-2,.63-3,4.28-5.15,1.89a20.88,20.88,0,0,1-4.1-9,1.77,1.77,0,0,0,.07-.46,1.9,1.9,0,0,0-.28-1c0-.14,0-.28,0-.41a3.18,3.18,0,0,0,1.62-2.76,3,3,0,0,0-.1-.73,11.3,11.3,0,0,1,3.08,4.47,1.81,1.81,0,0,1-2.64,2c.94,1.88,2.95.69,4,0,0,1.23,1.38,2.28,1.63,3.35s-.5,2.64-1.76,2.57-1.25-.75-1.25-1.06.5-.44,1.19-.25c-.82-1.07-1.51-.57-1.76-.13s-.38,2.39,2.83,2.2S61,65.89,60.5,64.25c.57.26,1.26-.37,1.19-.33-1.06,1.73.26,3.54,1.32,3.35-1.13-.25-.69-1.82.19-2.83-.12,1.51,1.89,1.76,2.89,2-.25,1.13,1.76,2.64,2.14,1.89l8.8,5c-2.82,1.11-1.45,3.11-.26,3.49-.5-1.2.69-2.2,1.91-1.89s.85,2.76-.34,4S75,80.4,74.63,81.34a1.9,1.9,0,0,0,.44,2.48c-.65,1.86.31,2.83,1.31,3a2.59,2.59,0,0,1-.6-2.68,6.91,6.91,0,0,0,.93.24c2.89.5,3.45-2.58,2.32-3.08,1.07-.44.82-2.2,1.88-3.46-.43,1.42,1.85,3.36,3.71,1.92A7.41,7.41,0,0,0,86.57,81a3.67,3.67,0,0,0-1-2.27,2.19,2.19,0,0,0-1.24-3.19c2.13.25,4-2.89,3.64-4.65.75-.06,2-.31,1.88-2.38a3.31,3.31,0,0,0-1-2.6,2.79,2.79,0,0,1,2.63-.31c-.56-.86-1.83-1.4-3.33-.09a3.21,3.21,0,0,0-1.15-.15,3,3,0,0,0-3,2.77c0,.63,0,2.7,1.32,2.89s-.19,2.51-2.07,2.76-2.83-2.13-5.4-1l-1.65-1.1h0c2.52-1.21,3.65-7.49,1.14-9.18S70.71,60.87,69,63.88c-1.24,2.24,1.07,3.07,1.45,1.94-.88.13-1.7-.87-.57-1.94s3.27-1.7,3.9,0c-1,.56-1.26.63-2.14,0,.44,2.51,2.95,3.16,4.65,2.93-.38.77-.56,1.15-2.07.27.81,1,.55,2.2,2.13,2.39-.06.69-.37,2.13-1.31,1.51l-7.73-5.16c0-1.5-2.14-3.14-4-2.88.25-1.14-.63-2.39-2.9-2-.26-.51.39-1.14-1.42-1.58a1.39,1.39,0,0,0,.92-.64c1.06,2,3.56,1.3,3.65-.16-1.08,1.42-2.5.38-3.22-.85h0A2.25,2.25,0,0,0,60,55.77c-.94-1.14-2.73-.51-2.36.48-.09-.29.9-.8,1.51.28s-.59,1.76-2.1,1.13c0-1.52-2-2.66-3.34-3.59a4.27,4.27,0,0,0,0-4.12,11.42,11.42,0,0,0-.5-2.93c2.21-2,4.7-5.58,4-8.67.29,1.13,1.89,2.35,3,1.32-6.59,7.07-4.34,13.75-2.26,14-1.23-4.8,2.45-11.21,6.12-14.22-1.13,1.69-6.31,9.89-5.09,13.37s1.42,3.3,1.23-1.13,2-7.06,5-12.15c-1.22,2.64-6.31,14.51-.94,18.65,7.54,5,3.77-1.22,1.79-4.8s.56-11.31,2.65-17.06c-4.16,20.36,1,22.15,3.94,23.75s6.59.76.85-1.23-6.34-9.7-4.24-22.8c0,16,9.42,27.14,16.11,27.8s7.26-7.54,4.81-5.94-4.62.38-6.79-1.41c-9.79-6.41-9.61-13-11.68-22.05C75.83,54.36,88.08,54.74,90,54.93s5-.57,4.14-3.3-2.26-.75-2.16-.38,1.5,2.55-5.94,0S72.44,38,71.52,31.28c1.13,5.46,9,15.45,12.13,16.2a4.48,4.48,0,0,1-2.36-4C81.76,43.9,82.8,48.14,90.81,48.33ZM51,14c-.65.15-1.09-1.78-.47-2,1.13-.47,1,1.13,1.61.94s1.22.66.47,1.6S50.83,15.17,51,14Zm.75,10.76c-.18.49-.38,1.06-.41,1.16C51.47,25.56,51.61,25.17,51.76,24.77ZM51.34,26c0,.08-.4,1.55-.44,1.67A9.93,9.93,0,0,1,51.34,26Zm-.72-4.9c-.19.29-.38.58-.58.87ZM50,97.13l0-.36C50,96.93,50,97.06,50,97.13Z"/><path class="cls-1" d="M56.42,85.8c.21,0,.37.29.43.7C56.89,86.13,56.74,85.8,56.42,85.8Z"/></svg>