<svg id="Layer_1" data-name="Layer 1" xmlns="http://www.w3.org/2000/svg" viewBox="0 0 100 100"><defs><style>.cls-1{fill:#a68b6a;fill-rule:evenodd;}</style></defs><title>Bg3</title><path class="cls-1" d="M50.91,1.44l2,2.66c3.08,2,6.64,2.84,9.3,5.8a29.18,29.18,0,0,1,3.08,4.16,16.89,16.89,0,0,1,9.54,7.49c.18.61.36,1.39,1,1.63a19.26,19.26,0,0,1,8.39,8.34c.3,1,.91,1.93,1.15,3a18.9,18.9,0,0,1,4,3.14c2.84,3.68,3.63,8.51,7.37,11.59A11.94,11.94,0,0,0,99,51.08a.29.29,0,0,1-.24.31c-.43-.19-.67.6-1.09.6-2.54,1.39-3.75,4.35-4.83,6.82C91.25,62,89.07,65.7,85.39,67c-.85.12-.85,1.14-1.33,1.57a31.39,31.39,0,0,1-8.64,8.81c-.84.49-.72,1.45-1.26,2.12a19.82,19.82,0,0,1-3.45,3.62c-.36.24-.72.6-1.08.85a17.29,17.29,0,0,1-5.44,2.77c-.42.55-.48,1.27-1,1.82-2,3-5.56,3.8-8.22,5.73a25.64,25.64,0,0,0-5.37,4.47c-.49.36-.55,1.15-1.09,1.21-.3-.18,0-.36.06-.6,1.69-1.82,3.38-3.81,5.56-5,2.78-1.93,6.16-2.9,8.39-5.61a3.82,3.82,0,0,0,1-2.18,19.42,19.42,0,0,0,9.06-5.73,9.32,9.32,0,0,0,1.93-3.33A31,31,0,0,0,83,69.14c1-.72,1.15-2.17,2.36-2.66,3-.9,4.89-4,6.46-6.52,1.51-3.14,2.72-7.06,6.22-8.63V51a19.55,19.55,0,0,1-6.4-8.63,26.28,26.28,0,0,0-3.2-5A14.33,14.33,0,0,0,85.15,35a2.72,2.72,0,0,1-.37-1.33,20.14,20.14,0,0,0-3.74-6,19,19,0,0,0-5.8-4.35c-.84-1.26-1.2-2.83-2.41-4C70.65,17.14,68,15.09,65,14.49c-1.45-2.78-3.81-5.74-6.83-7.07C55.8,5.85,52.42,5.19,51,2.17c-.18-.24-.55-.61-.79-.24C48.43,3.74,46.68,5.79,44.44,7c-3.32,1.75-6.7,3.68-9.11,6.88-3,1.27-6.16,2.48-8.34,5.14a20.78,20.78,0,0,0-2.6,3.62,25.47,25.47,0,0,0-3.92,2.17,38.79,38.79,0,0,0-4.41,4.47,18.6,18.6,0,0,0-2.29,4c-3.08,1.21-5.2,4.23-7.07,6.82-2.42,3-2.9,6.89-5.92,9.48v.19c5.14,2.77,5.2,9.17,9.06,13,1.09.78,1.93,2,3.26,2.17.42.55.3,1.39.73,2a22.53,22.53,0,0,0,6.22,8.51c1.33,1.33,3.44,1.15,4.22,3.08a20.88,20.88,0,0,0,7.37,7.31l2.78,1.21c.6.42.42,1.14.91,1.63,1.32,2.47,3.68,3.92,5.79,5.49,2.36,1.63,5.8,2.36,7.07,5.26l-.12.06c-.91-.85-1.51-2.12-2.78-2.6-1.27-.91-2.9-1.33-4.11-2.36a7.27,7.27,0,0,1-1.81-1.14,23.83,23.83,0,0,1-3.44-3.08c-1.33-.85-1-2.78-2.54-3.26a20.26,20.26,0,0,1-9-7.55,6.68,6.68,0,0,0-1.87-2.24c-1-.06-1.63-1-2.47-1.39-2.66-1.93-4.35-4.77-6-7.48-.79-1.09-.43-2.9-2-3.45l-.42-.18A15.74,15.74,0,0,1,6,57.3c-.37-.3-.31-.72-.55-1.08A11.16,11.16,0,0,0,.42,50c-.24.06-.36-.12-.36-.37.48-.54,1-1,1.57-1.51,1.87-2.65,2.65-5.85,4.77-8.45a21.4,21.4,0,0,1,5.92-6.22l1.14-.6c1.45-3.33,4.29-6.35,7.19-8.76a36.44,36.44,0,0,1,3.44-1.81A18.77,18.77,0,0,1,34.3,13.94c1.51-.36,1.75-2,3-2.83,3.08-3,7.12-4.11,10.2-7,.91-1.27,2.42-1.87,3-3.32.43-.12.25.48.37.66Zm-.49,1.45a6.44,6.44,0,0,0,2.72,2.54,55.11,55.11,0,0,1,6.22,3.74A16.81,16.81,0,0,1,64,14.79c.42.48,1.09.42,1.57.72L68.78,17a15.13,15.13,0,0,1,4.77,5.2c-.24,1.75,1.69,1.69,2.6,2.59,2.17,1.57,4.89,3.39,6.1,6a34,34,0,0,1,2,4.83c3.75,1.15,6,5,7.25,8.52,1.09,2.17,2.41,4.59,4.53,6a.8.8,0,0,1,.78.48c.12.73-.9.73-1.14,1.33a16.18,16.18,0,0,0-2.9,4.11c-.12.54-.61,1-.79,1.57a14.89,14.89,0,0,1-7,8c-1.45-.06-1.09,1.57-1.94,2.29a29.48,29.48,0,0,1-9.12,8.88,5.64,5.64,0,0,0-.72,1.63c-2.72,3.44-6.1,6.46-10.27,7.49-.48.3-.48.84-.66,1.33-2.17,4.22-7,4.89-10.45,7.49a16.54,16.54,0,0,0-2.29,2.65c-.49.18-.79,1.27-1.33.73-2-3-6-3.2-8.34-5.86a11.69,11.69,0,0,1-4.58-5.8c-.19-.48-.73-.18-1-.48-3.38-1.09-5.92-3.68-8.4-6.16-1-.91-1-2.54-2.17-3.2a15.54,15.54,0,0,1-6.64-5.38,33.23,33.23,0,0,1-3-5.67c-.12-.49-.06-1.21-.73-1.27-2.9-1-4.77-3.93-5.91-6.58-.85-1.51-1-3.08-2.12-4.47C4.47,52,3.5,50.42,1.93,49.94a.39.39,0,0,1-.12-.49c3.62-3.92,4.41-9.18,8.51-12.92a12.72,12.72,0,0,1,3.87-2.3C16,31,17.75,27.71,21,25.48a13.51,13.51,0,0,1,4.29-2.3c.06-1.51,1.45-2.65,2.42-3.8a17.67,17.67,0,0,1,8.45-4.95c2.78-5.38,8.76-6,12.8-9.61.55-.66,1.21-1.08,1.27-2l.24.06Zm1.94,2.9a56.58,56.58,0,0,1,7.3,4.29,18.31,18.31,0,0,1,4.11,5.49,19,19,0,0,1,4.77,2.12C70.65,18.77,72,21,73,22.94a15.13,15.13,0,0,0-4.41-.84c-.24.06-.6.12-.78-.12l-.13-.43a10.33,10.33,0,0,0-6-3.5c-1.21-.06-1-1.51-1.7-2.23-1.57-3-4.65-4.78-7.6-5.92A8.65,8.65,0,0,1,50.3,8.09c-.66-.06-.3.66-.66.9l-.55.61C46,11.11,42.63,12,40.28,14.79a7.78,7.78,0,0,0-1.81,3.32,11,11,0,0,0-7.73,4.11c-1.57.18-3.14,0-4.65.54-.19-.18-.06-.42.06-.6A30,30,0,0,1,31.34,17a11,11,0,0,1,5.31-2.11c.31-.36.37-.85.67-1.21A17.75,17.75,0,0,1,44.2,8.45a26.27,26.27,0,0,0,5.38-3.26,4.6,4.6,0,0,1,.84-1c.91.18,1.15,1.15,1.94,1.63Zm-.61,4.53c1.51.85,3.2,1.45,4.65,2.36a12.33,12.33,0,0,1,4.17,5.73c.6.36,1.57.24,2.23.61a7.51,7.51,0,0,1,4.11,3c-1,.72-1.27-.85-2-1.15a6.79,6.79,0,0,0-4.65-1.33L60,19.38c-1-2.05-1.58-4.59-3.81-5.86-1.75-1.39-3.93-1.87-5.74-3.2a12.62,12.62,0,0,0-1.2.85c-3.33,1.44-7.61,2.65-8.88,6.64-.06,1.93-2.24,1.39-3.44,2.05-1.88.18-3.39,1.57-4.84,2.72-.24-.06-.54-.06-.54-.3a10.46,10.46,0,0,1,6.89-3.63c.12-.36.54-.24.72-.54,1.57-4.65,6.64-6.28,10.57-8.15.36-.24.78-.79,1.21-.36l.78.72Zm7,7A15.54,15.54,0,0,0,60,20a5.43,5.43,0,0,1,4.23.79c.49.48,1.27.78,1.39,1.45A13.25,13.25,0,0,0,59,27.47a6,6,0,0,0-3.38-4.17,5.42,5.42,0,0,0-1.75-3.92c-1.39-1.21-3.15-1.93-4.23-3.5-1.09-.73-1.33.72-2.06,1.14-1.69,1-3.92,2.3-4.22,4.47a3.38,3.38,0,0,0,.06,2.18c-.36.66-1.21.66-1.63,1.33a4.48,4.48,0,0,0-1.94,3.38c-.06.12-.24.12-.24.06-.72-2.3-3.14-3.75-5.07-5.08l-1.63-.66c.12-.6.78-.72,1.15-1.15,1.63-1.39,4-1.33,6-2.11.78-.48.6-1.45,1-2.11,1.81-4.11,6.28-4.47,9.6-6.47,3,1.63,6.77,2.9,8.16,6.47Zm-7.43,1.08a4.41,4.41,0,0,1,1.51,1.09c.72.12,1,.91,1.45,1.39.24.72.84,1.57.3,2.35.36.73,1.21.67,1.75,1.21a3.76,3.76,0,0,1,1.45,1.75,3.76,3.76,0,0,1-.24,4.11,4.07,4.07,0,0,1-4.29,1.21,2.72,2.72,0,0,1-1.21-1.63,1.54,1.54,0,0,1,.18-.91c.25.54.37,1.21.91,1.57a2.57,2.57,0,0,0,2.11.18,4.91,4.91,0,0,0,2.06-1.81c.48-1.45-.43-2.9-1.39-3.92-.61-.49-1.57-.55-1.93-1.27-.06-1.51-.25-3.26-1.82-4.05-.9-.72-2.05-1-3-1.93-.42.3-1,.6-1.38.9-1.51.61-3,1.7-3.2,3.45A9.58,9.58,0,0,0,45,24.39c-1.57.79-3.26,2.18-3.32,4.17a2.73,2.73,0,0,0,1,2.41,2.79,2.79,0,0,0,2.6.06,2.41,2.41,0,0,0,.6-1.45c-.06-.24-.24-.42-.12-.66s.67-.12.67.18a1.77,1.77,0,0,1,.12,1.81,3.1,3.1,0,0,1-2.9,1.27,3.42,3.42,0,0,1-3-2.53,4.09,4.09,0,0,1,1.15-4A8.58,8.58,0,0,1,44,24.21c.24-.48-.24-1-.18-1.63.18-1.57.73-3.26,2.23-4a9.4,9.4,0,0,0,3-2.17,17.18,17.18,0,0,1,2.24,2Zm-1.57,3.32a2.29,2.29,0,0,1,1.57,1.94c.12.6-.24,1.08.3,1.45l1.63.6c.18.54.79,1,.42,1.63-.18.36-.42,0-.72.06-.48,0-.79.42-1.15.79a3.53,3.53,0,0,0-.24,2.35A2.63,2.63,0,0,0,54,32.18,5.61,5.61,0,0,0,57.79,31h.12a11.12,11.12,0,0,0,3.14,6.28c1.63.73,3.2,1.76,5.07,1.88h2.24a4.89,4.89,0,0,0-2,2.41A4.18,4.18,0,0,0,67,45.11c.48,1,1.57,1.08,2.54,1.26a2.5,2.5,0,0,0,2.17-1.51h.36a6.35,6.35,0,0,1,2.06,2.3c.36.12.78-.18,1.2-.06,1.63.3,2.6,1.81,3.57,3-.24.48-.79.78-1,1.27-.3.78-.72,1.75-1.57,2l-2,.3c-.3.6,0,1.39-.3,2a2.41,2.41,0,0,1-1.94,1c-.48-.24-.66-.84-1-1.21-.67-.42-1.51-1.08-2.42-.66a2.93,2.93,0,0,0-2,2.6,6.16,6.16,0,0,0,1.75,4c-1.45-.18-3-.72-4.53-.06a8.29,8.29,0,0,0-4.59,3.2,10,10,0,0,0-1.45,5,4.15,4.15,0,0,0-4.11-1.93,3.23,3.23,0,0,0-2.95,2.3,2.6,2.6,0,0,0,.9,2.53c.42.3,1,.18,1.51.36.24.61-.42,1.15-.84,1.64-.55-.06-.25.78-.85.66-.36.24-.06.54-.12.78.12,1.33-1.39,1.76-1.87,2.78-1.21-.42-2.72-.78-3-2.35.12-.36.18-1.09-.49-1.15a3.34,3.34,0,0,1-1.81-1.81c-.12-.48-.06-1,.49-1.21,1.08-.36,1.39-1.45,1.63-2.41a2.64,2.64,0,0,0-.85-1.94,4.66,4.66,0,0,0-5,1l-.54.6-.12-.06c0-2.53-.67-5.31-3.15-6.64a10.09,10.09,0,0,0-5.61-1.75c-.36,0-.85.3-1.09,0a4.86,4.86,0,0,0,1.51-4.41,2.18,2.18,0,0,0-.78-1.39c-.61.06-1-.36-1.51-.36-.79.3-1.88.42-2.06,1.45a.52.52,0,0,1-.36.54c-1.51-.36-1.69-2-2.29-3.08.06-1-1.15-.36-1.7-.78a9.21,9.21,0,0,1-2.59-2.48c-.06-1.45,1-2.36,1.87-3.26.79-.73,2.36-.18,2.66-1.51a3,3,0,0,1,1.87-2.11A1.23,1.23,0,0,1,28,44a3.67,3.67,0,0,0,.84,1.09A2.32,2.32,0,0,0,31.22,45c.48-.36.6-1,.9-1.51a4.66,4.66,0,0,0-1.44-3.86c3.38-.12,7.06-1.15,8.81-4.29a24.32,24.32,0,0,0,.67-4.53l.12-.06a4.7,4.7,0,0,0,3.38,2,3.56,3.56,0,0,0,3.5-1.7,2.51,2.51,0,0,0,.12-1.87,1.38,1.38,0,0,0-1-.78c-.61-.24-1.63.6-1.88-.37s.67-1.14,1.09-1.57c.73-.24,1.27-.66,2-.9.12-.54-.18-1.15-.18-1.75a3.77,3.77,0,0,1,1.63-2.6c.49-.06.43.48.85.54ZM73.37,24a24.92,24.92,0,0,1,6.22,4.17,17.13,17.13,0,0,1,4.29,8c.3.3.72.12,1.09.24a13,13,0,0,1,5.49,7.06,22.12,22.12,0,0,0,5,7.31l.12.24c-4.34,4.29-4.89,11.3-10.87,14-1.63-.3-1.14,1.69-2,2.36-4,5.55-9.78,12-17.39,10a8,8,0,0,1-5.07-3.2,9.21,9.21,0,0,1-.67-8.15c.73-2.23,2.9-3.32,4.89-4.11a9.51,9.51,0,0,1,8.88,4.29,7.48,7.48,0,0,1,.85,5.13,8.37,8.37,0,0,1-3.33,1.7c-.24,0-.18-.43-.06-.55l.25-.36c.18-2.48-.43-5-2.48-6.46a5,5,0,0,0-4.83.72,4.49,4.49,0,0,0-.55,6.46c1.09.49,2.24,1.39,3.57,1.27l2.59.12c1.51-.84,3.45-.78,4.78-2a15.51,15.51,0,0,0,6.76-9.36,1.53,1.53,0,0,1,1.39-.6,13.23,13.23,0,0,0,4.47-3.87c1.14-1.63,1.51-3.56,2.65-5.19,0-.36.55-.49.61-.85.3-.6,1-1,1.39-1.51,0-.54-.49-.72-.67-1.21-1.75-1-2.17-3.2-2.71-4.95-.91-2.29-2.84-5-5.44-5.67l-1.33-.31c-.84-2.23-1.33-4.65-2.9-6.7-2.41-3.56-6.52-6.28-11-5.37a6.13,6.13,0,0,0-4,1.87,4.29,4.29,0,0,0,.18,4.71c1.14,1.15,3,2.11,4.65,1.45,2-.12,3.08-2.06,3.68-3.75a8.18,8.18,0,0,0,0-3c.48-.6,1.27.19,1.87.37.49.36,1.33.6,1.21,1.45a8.2,8.2,0,0,1-2.17,6c-1.57,1-2.9,2.65-4.9,2.59a8.59,8.59,0,0,1-8.09-3.86c-.54-1.69-1.51-3.75-.54-5.56.91-2.84,3.8-4.89,6.52-6a19.61,19.61,0,0,1,3.75-.12,8.7,8.7,0,0,1,4,1.15Zm-38.47.24a18,18,0,0,1,3.51,3.2l1,2.3c.42,1.57-.42,2.71-.66,4.1.12,1.63-1.21,2.78-2.48,3.69-2.17.78-4.71,1.87-7.06.72a8.09,8.09,0,0,1-5.32-6c-.36-1.08,0-2.17-.06-3.2a5.35,5.35,0,0,1,2.9-1.57c.24.42-.06,1,.06,1.57a7.9,7.9,0,0,0,2.36,5.5,5.2,5.2,0,0,0,5.13.48A5,5,0,0,0,36,29.89c-1.33-2.72-4.53-3.75-7.49-3.51-5.68.91-9.84,6.35-11.59,11.42a12.64,12.64,0,0,0-7.43,6.34c-.79,1.75-1,3.68-2.42,5.13-.12.73.79.61,1.15,1.09,2.42,3.62,3.08,8.33,7.37,10.57.42.12.72.48,1.21.48a46.62,46.62,0,0,0,2.41,4.65,13,13,0,0,0,6.16,6.4c1.63.36,3.26,1,5.07.85,2.12-.24,4.35-1.45,5-3.57A4.17,4.17,0,0,0,35,66.79c-.72-1.39-2.29-1.51-3.74-1.64a3.62,3.62,0,0,0-3.08,1.27A6.2,6.2,0,0,0,27.35,72c0,.48-.48.18-.72.18A7.65,7.65,0,0,1,23.85,71a6.75,6.75,0,0,1,0-2.9c.36-1.2.42-2.53,1.33-3.5,1.39-1.27,2.78-2.66,4.71-2.72a8.68,8.68,0,0,1,8,2.66,8.21,8.21,0,0,1,1.33,5.07A5.62,5.62,0,0,1,36.9,74C34.36,77.11,30,77.6,26.27,76.81c-1.94-.24-3.57-1.39-5.26-2.36-3.08-2.17-4.59-5.37-6-8.51-.24-.66-.06-1.57-.6-2C7.61,61.71,8.45,53.56,3.26,49.57c-.18-.54.48-1,.72-1.45,2.18-3.14,3.08-6.94,5.74-9.9,1.21-1.39,2.72-3,4.59-3.14,1.93-2.72,3.14-6,5.86-8.15,1.93-1.57,3.92-3.38,6.52-3.57.54-.72,1.63-.3,2.35-.48,2.24-.24,4,.55,5.86,1.39Zm-.3,4.65a3.62,3.62,0,0,1,.79,3.68,4.52,4.52,0,0,1-1.51,2A4.37,4.37,0,0,1,29.53,34a7,7,0,0,1-1.87-6.76c.12-.12.24-.24.42-.18.3.84-.12,1.81.12,2.6-.12.18.24.3.24.54.42,1.63,1.39,3.44,3.32,3.8a3.46,3.46,0,0,0,2.42-.54,3.46,3.46,0,0,0,.54-3c-.72-1.93-2.72-2.72-4.53-3.2H28.8c-.12-.18.06-.3.18-.36a7.75,7.75,0,0,1,5.62,2ZM70,27.59a.42.42,0,0,1-.54.42c-1.76-.12-3.93,0-4.9,1.7-.18,1.14-.3,2.29.73,3a2.54,2.54,0,0,0,2.84.6c1.63-.85,2.23-2.6,2.47-4.35a4.32,4.32,0,0,1-.06-1.51c.49-.06.55.48.67.79a6.59,6.59,0,0,1-1.33,4.83,4.33,4.33,0,0,1-4.29,1,3.84,3.84,0,0,1-2.17-3.5c-.18-1.09.78-2,1.69-2.54.84.13,1.51-.48,2.29-.66a6.86,6.86,0,0,1,2.48-.06l.12.3ZM33,28.8a3.8,3.8,0,0,1,1.45,2.72c-.12.54-.06,1.27-.48,1.63a2.46,2.46,0,0,1-2.24.36c-2.23-.6-2.9-2.9-3.08-4.95.06-.06.06,0,.12,0,.3,1.27.91,2.78,2.24,3.32l1.14.24c.43-.18,1-.36,1.21-.84-.6-.91-.9-2.06-2-2.54-.48-.36-1.21-.36-1.45-.91a9.23,9.23,0,0,1,3.08,1Zm35.93-.24c-.18.36-.84.12-1.15.42-.72.3-1.57,1-1.57,1.81A1.27,1.27,0,0,0,66.91,32c1.57.12,2.35-1.57,3.08-2.66a4.21,4.21,0,0,1-2.54,3.81c-1,.24-1.63-.67-2.41-1.27a2.61,2.61,0,0,1,.18-2.3,4.28,4.28,0,0,1,3.68-1ZM23.19,30.43c-.61.6-1.39,1.21-1.94,1.81-1.44,1.87-2,4.11-2.83,6.22-.43.73-1.33.61-1.94,1a9,9,0,0,0-4.59,3.38,53.8,53.8,0,0,0-2.59,6v.24c2,2.54,2.53,5.68,4.35,8.27C14.91,58.57,16.18,60,18,60.08l.37.42A34.91,34.91,0,0,0,22,68.3c.36.24.48.72.9.84a.72.72,0,0,1,.07.79h-.31c-2.65-2.48-3.68-5.86-5.13-9-4.47-1.21-6.34-6.1-7.79-10-.48-.6-.72-1.2-1.39-1.57-.12-.66.6-1,.73-1.63.84-2.23,1.38-4.71,3.38-6.34,1.33-1.69,3.32-2.11,5-3.08,1.15-3,2.66-6.16,5.25-8.33.43-.55.55.24.49.42Zm55.68,3.93a18.25,18.25,0,0,1,1.63,4.52l.48.61a7.74,7.74,0,0,1,6,5.07c.78,2,1.15,4.47,3,5.92.24.12.18.42.06.6-3,3.39-3.56,8.76-8.33,10.63-.61.36-1.82.12-1.82,1.15-.84,3-2.35,6-5,7.73-.12-.06,0-.18,0-.3,1.63-.91,2.48-2.66,3.32-4.17a30.6,30.6,0,0,0,1.09-4.29c1.69-1,3.87-.9,5.19-2.77,1.88-2.48,2.54-5.56,4.53-8-.12-.84-1-1.32-1.27-2.11-1.57-3.08-2-7.91-6.34-8.64A1.8,1.8,0,0,1,80,39.85c-.84-3.14-1.87-6.28-4-8.76-.12-.12-.42.06-.42-.18a1,1,0,0,1,.06-.84,11.44,11.44,0,0,1,3.26,4.29Zm-55.44-1c.84,2,1.93,4.05,4,5v.12a6.16,6.16,0,0,0-4.89,3.38c-.3.79-1,.25-1.63.49-3.62.9-3.86,5.07-6.82,7a.86.86,0,0,0-.12.85c2.71,1.33,2.65,5.19,5.49,6.64a6.08,6.08,0,0,0,2.3.73c1.21,2.11,3.26,4,5.79,4,.13.12,0,.3-.06.36a7.21,7.21,0,0,0-3.74,3.81L23,68.66a5.19,5.19,0,0,1-1.39-1.81,33.35,33.35,0,0,1-2.9-7c-.49-.54-1.33-.3-2-.6C12.38,57.36,12.32,52.35,9.9,49c-.06-.54.48-.91.54-1.39,1-2.66,2-6,5-7.19a13.42,13.42,0,0,0,3.44-1.51c1.09-2.59,1.51-5.67,4-7.48l.19.06.36,1.87ZM76.87,33a23.63,23.63,0,0,1,2.66,7.24c1.69.85,3.93.61,5.07,2.54a57.12,57.12,0,0,1,3.08,6.88c.25.55,1,.79.91,1.45-1.81,2.48-2.6,5.26-4.41,7.73-1.33,1.69-3.5,1.57-5.19,2.54-.36.54,0,1-.3,1.63a10.17,10.17,0,0,1-3.63,6.58c-.42-.54-.36-1.63-.72-2.35a9.16,9.16,0,0,0-3.87-4.53.31.31,0,0,1-.12-.24c1.51.3,3-.37,4.29-.91a12.41,12.41,0,0,0,2.84-3.08c3-.6,5-3.2,6.1-5.86a6.1,6.1,0,0,1,1.63-1.39c0-.36-.43-.48-.61-.78a10.38,10.38,0,0,1-1.39-1.75,8.58,8.58,0,0,0-6-5.38.6.6,0,0,0-.49.31c.24.66,1.21.42,1.75.84.12.24.25.06.43.18A8,8,0,0,1,82.67,49l1.51,2-.12.24c-2,1.33-2,3.87-4,5.26A6.49,6.49,0,0,1,77,57.73c-.42.48-.6,1.14-1.08,1.69-1.39,1.51-3.08,2.59-5.14,2.29a3.82,3.82,0,0,1-3.08-2.41,3,3,0,0,1,0-2.6,2.22,2.22,0,0,1,1.7-1.09l.06.12a2,2,0,0,0-1.15,1.45,3.38,3.38,0,0,0,1.39,3c1.08,1,2.65.55,3.74-.06a7.45,7.45,0,0,0,2.78-3.2c.72-.78,1.63-.24,2.48-.84A6.66,6.66,0,0,0,81.34,53c-.06-1.09,1.69-1.63,1.09-2.84-1.45-2.06-2.6-5-5.44-5.44-.78-.6-2.35.67-2.41-.78a4.45,4.45,0,0,0-3-3.08,3.75,3.75,0,0,0-2.9.6,2.69,2.69,0,0,0-.78,2.12c-.06.72.72,1,1,1.63a2.13,2.13,0,0,1-1.51-.61c-.72-.6-.6-1.57-.66-2.41.42-1,1-2.12,2.11-2.42a7.38,7.38,0,0,1,5.26,1.33,14.49,14.49,0,0,1,1.93,2.72.4.4,0,0,0,.54-.24l-.12-.55C75.18,40.82,73,39,70.29,39H69.2c.06-.25.61-.19.85-.43,2.11-1.33,4.29-3.08,5-5.55a4.6,4.6,0,0,1,.42-1.63c.67.24.85,1.08,1.39,1.57Zm-27.17.48c.36.72,1.09,1.21,1.45,1.93a3.51,3.51,0,0,1,2.47-.12c.18.3.79.42.61.91a5.06,5.06,0,0,0-1.87,2.35l.06.18A5.4,5.4,0,0,1,55.5,38c.18.06.48.06.42.36-.24.55-1.09,1-.67,1.75.43-.3,1,0,1.45-.12a3.18,3.18,0,0,1,2.36-1,3.27,3.27,0,0,1,2.35,1.14,1.82,1.82,0,0,1,.37,1.57c-1,.24-2.3.67-2.6,1.75.72.13,1.63-.3,2.48.07.66.3,1.57.66,1.87,1.38a4,4,0,0,0-2.36,1.94c-.42.72.49,1.2.49,1.87.3.3.66.06,1,.24a3.53,3.53,0,0,1,2.18,1.75A2.05,2.05,0,0,1,65,52.47a3.23,3.23,0,0,0-2.48-.12,7.46,7.46,0,0,0-1.27,1A5.14,5.14,0,0,1,63,55.79c0,.61.19,1.27-.12,1.63-.78-.06-1.45-.6-2.23-.36a1.25,1.25,0,0,0-1,.3c-.84,1.45,1.51,1.45,1.45,2.9a2.91,2.91,0,0,1-.6,2.78c-.48-.12-.42-.72-.85-.9-.66-.49-1.51-1.15-2.41-.73A8.74,8.74,0,0,0,57,62.74,4.9,4.9,0,0,1,55.74,65c-1.21.49-1.39-1.08-2.12-1.69-.48-.3-.9-1.08-1.57-.78-.3,1.45-1.69,2-2.84,2.72-1.26-.49-2.77-1.39-3.14-2.84-.48-.3-1,.24-1.5.42A4.27,4.27,0,0,0,43.12,65a.46.46,0,0,1-.55.06,4.27,4.27,0,0,1-1.45-3.68,2.86,2.86,0,0,0-3,1c-.72.12-.84-.79-1.14-1.21-.19-.79-.31-2.18.42-2.9.36-.24.9-.36.84-1,0-1.14-1.45-.66-2.17-1-.54-.12-1.33.66-1.51-.24A4.54,4.54,0,0,1,37,52.9c0-.55-.67-.67-.91-1a4,4,0,0,0-2.9-.12c-.72-.3-.3-1.15-.3-1.75a3.37,3.37,0,0,1,2.72-2.48c.72-.36,1.69.73,2-.3A3.69,3.69,0,0,0,35,44.8c-.18-.12-.12-.42,0-.54a4.65,4.65,0,0,1,4.11-1c.3-.24-.06-.48-.12-.72-.79-.79-1.69-1.63-2.78-1.45-.12-.12-.54-.12-.42-.48A4.18,4.18,0,0,1,39.49,38c.73.36,1.69.36,2.06,1.27l2.17-.18c.42-.25.06-.61,0-.91s-.3-.3-.24-.6a2.85,2.85,0,0,1,2.72.06c.18,0,.18-.24.12-.37-.43-.36-.85-1.2-1.51-1.14.12-.61,1-.73,1.63-.85l1.27.12c.6-.66,1.2-1.33,1.75-2Zm.9,2.11c.06.31.43.37.73.43a2.53,2.53,0,0,1,2-.37.42.42,0,0,1,.18.55c-.36.54-.9.48-1.45.36l-1.63.54c-.42-.24-.66-.9-1.14-1.2-.61.36-.25,1.14-.79,1.57-.78-.55-2.35-.25-2.29-1.45a1.82,1.82,0,0,1,1.63.42c.42-.54.72-1.27,1.26-1.87.67-1.15,1.21.66,1.51,1Zm-.24,2.18a2.71,2.71,0,0,1,2-.67c.12.55-.61.85-.49,1.39-.9,2.18-.18,4.71.36,6.77a24.87,24.87,0,0,1-.18,3,3.47,3.47,0,0,1,1.45,3.2,2.38,2.38,0,0,1-1.27,1.75,1.29,1.29,0,0,1-1.14-.3,1.11,1.11,0,0,1-.37-1c.07-.18.25-.06.37,0s.18.42.42.42c.6.06.85-.54,1-1s.06-1-.49-1.08a1.11,1.11,0,0,0-1.14-.06,2.09,2.09,0,0,0-1,1.21c-.24.84.36,1.63.78,2.23-.06.18.13.48-.12.54a2.58,2.58,0,0,1-1.32-1.2c-.19-.13-.31-.25-.49-.19-.42.61-.48,1.57-1.33,1.7-.72-.79.55-1.33.61-2.06a1.91,1.91,0,0,0-.18-1.87A2,2,0,0,0,46.62,50a1.63,1.63,0,0,0-1.09.9c-.24.55.18.91.42,1.33.79.36.91-.6,1.39-1,.49.31.06.85,0,1.27-.24.37-.66.91-1.2.73s-1.27-.36-1.45-1a2.62,2.62,0,0,1,.48-2.47c1.33-.61-.06-2,.48-3,.3-.43.18-1,.42-1.39.85-2.12,2.06-4.53,1.21-7,.06-.3-.24-.6,0-.9.61-.06,1,.48,1.51.36.3-.3.3-1,.85-1,.24.24.36.73.72.85Zm-3.5,1.33c.06.12.12.36,0,.48-.42-.42-1-1.15-1.69-1-.18.37.36,1.09-.18,1.09-.61-.36-.55-1.09-.79-1.69a2,2,0,0,1,2.66,1.09Zm8.21-.43c-.48.61-.24,1.82-1.2,2-.37-.49.66-.91.12-1.33-.73.06-1.15.66-1.82.9-.3-.12,0-.54-.12-.78a3.73,3.73,0,0,1,2.9-.91l.12.12ZM41.67,40a3,3,0,0,1,2-.36,2.67,2.67,0,0,1,1.75,2.48c-.06.6-.3,1.32-1,1.45-.12-.55-.3-1.21-1-1.33-.42-.12-.73.3-.91.66s.3.79.55,1.15a2.22,2.22,0,0,0,1.75.18A2.91,2.91,0,0,0,46.26,42a12.37,12.37,0,0,1-.55-2.72c.73.06,1,1,1.27,1.57a19.69,19.69,0,0,1-1.69,4.95L44.93,48,45,49.21a3,3,0,0,0-.91,2.84c.06.85.85,1.27,1.45,1.75.36.24,1.39-.24,1.27.61s.78,1.26,1.33,1.69a2.23,2.23,0,0,0,2.41-.49c.49-.6.73-1.39,1.33-1.81.73.12,1.15-.48,1.63-.9a4,4,0,0,0-.24-4.17c-1.09-1-.12-2.48-.48-3.69-.06-1.44-1.27-3.08-.36-4.52l.84-.55a3.47,3.47,0,0,1,0,1.57,3,3,0,0,0,0,2.78,2.31,2.31,0,0,0,1.81.79c.43-.31,1.15-.31,1.27-1,.06-.42,0-1-.48-1.09a1,1,0,0,0-1.15.55c-.12.3.18.78-.12,1.08a1.63,1.63,0,0,1-1.09-.78,3,3,0,0,1,.37-2.48,3.34,3.34,0,0,1,2.29-.84c.24,0,.48.42.72.12.31-.73,1.09-.85,1.7-1.09,1,.18,2.35.18,2.71,1.45.12.66-.66.3-1,.6-1.69.79-2.36,2.54-2.84,4.11a6.48,6.48,0,0,1-1,1.15c-.24.84-.72,1.69-.36,2.53a1.82,1.82,0,0,0,1.51,1.27,1.12,1.12,0,0,0,.91-.42c.6-.54-.31-1-.43-1.45a.73.73,0,0,0-.9.18c-.18.12-.3.3-.49.24-.42-.48-.06-1.15.12-1.69a2.53,2.53,0,0,1,2.42-.72c.91.6,2,1.14,1.81,2.35.3.42.67.06,1,.12a2.88,2.88,0,0,1,2.41,2.36v.12c-1.93-.55-3.32,1-4.83,1.69a8,8,0,0,1-4.59-.6H55c0-.25.06-.79.49-.61,1.93,1,4.34.3,6-.9.31-.67,1.76.36,1.21-.73-1.69-.48-2.72,1.51-4.41,1.45a4.21,4.21,0,0,1-2.84-.66c-.18-1.33-.18-2.84-1.14-3.93l.12-.3c1-.24,2.11-.48,2.6-1.57.42-.61.42-1.33.84-1.93A4,4,0,0,1,60,41.06a.33.33,0,0,0-.18-.3c-2.29.72-2.47,3.26-3.5,5a2.08,2.08,0,0,1-1.33.72c-.72.37-1.33-1.81-1.33-.12,0,.79-.18,1.51.55,2.06a4.77,4.77,0,0,1-.24,4.89c-.43.66-1.09.78-1.7,1.15-.18.6-.9.9-.9,1.51l.42.24c.79-1.27,2.3-1.75,3-3.08.54.3,1,.9,1.57,1.14-.54.25-1.27.49-1.57,1.15A2.21,2.21,0,0,0,55,57.91c.36.48,1.09.42,1.57.36.24-.24.67-.36.61-.72a.72.72,0,0,0-.49-.67,1.42,1.42,0,0,0-.72.06c-.36.18-.12.67-.36.79-.37-.12-.49-.55-.55-.91A1.71,1.71,0,0,1,55.86,55a2.68,2.68,0,0,1,2,.18c1.09.85,1,2.23,1,3.5.18.37.6.18.9.43a3,3,0,0,1,.73,2.77l-.18.18a3.82,3.82,0,0,0-3.57-1.32,2.19,2.19,0,0,1-1.63-.06c-1.81-.67.18-2.18-1-3.21a2.48,2.48,0,0,0-2.3-1c-.84.12-1.87.36-2.17,1.33A1.57,1.57,0,0,0,50,59.6c.36.3.66.18,1.09.12a.86.86,0,0,0,.24-1c-.24-.3-.61-.18-.91-.06-.18-.24,0-.6.12-.9A2.22,2.22,0,0,1,52.17,57c.67.3,1.51.42,1.7,1.27.36.79-.25,1.45-.49,2.11a2.81,2.81,0,0,1-1.57.85c-.24.36-.06.84-.24,1.21a3.4,3.4,0,0,1-2.42,2.11,3.11,3.11,0,0,1-2.53-2.29,1,1,0,0,0-.18-.91,2.24,2.24,0,0,1-2.06-1.15,2.07,2.07,0,0,1,0-1.69,2.87,2.87,0,0,1,2.72-1.33,1.66,1.66,0,0,1,1.21.79.89.89,0,0,1-.42,1.09c-.43-.07-.79-.61-1.27-.25-.18.18-.12.43-.12.67.18.48.6.3,1,.3a1.37,1.37,0,0,0,1.15-.6,1.29,1.29,0,0,0,.12-1.63,2.32,2.32,0,0,0-2.35-1A3.2,3.2,0,0,0,44,57.85c-.48.72-.18,1.69-.84,2.41-1.39,1.09-3.81-.18-5.14,1.27-.78-.48-.66-1.69-.54-2.41s.78-.85,1.33-1c.48-.54-.18-1.09,0-1.75a2,2,0,0,1,.72-1.69,2.24,2.24,0,0,1,2.36-.37,2,2,0,0,1,1.21,1.51c0,.37,0,.79-.37.91a1.37,1.37,0,0,0-1.2-.42.8.8,0,0,0-.37,1.08,2.09,2.09,0,0,0,2,0c.48-.42.9-.9.72-1.57A2.1,2.1,0,0,0,42.81,54a4.3,4.3,0,0,0-1.51-.42c-.72-.06-1.51.54-2.17.06-1.39-.79-2.42-2.23-4.11-2.42-.54-.36-1.75.37-1.63-.66a2.93,2.93,0,0,1,2.06-2.48c1-.54,2,.73,2.59-.42.06-.54.61-.78,1-.9a2.56,2.56,0,0,1,2.78.9,2.22,2.22,0,0,1,.06,2.12c-.42.24-.55-.55-1-.55a.93.93,0,0,0-1,.24c-.25.18-.19.61-.06.85a1.2,1.2,0,0,0,1.08.6,1.61,1.61,0,0,0,1.45-.9c.54-.61.3-1.63.18-2.36-.72-1.09-2.05-1.51-2.23-2.78a5.14,5.14,0,0,0-1.93-3.5,3.59,3.59,0,0,0-1.63-.84c-.19-.49.3-.79.48-1.09C38.1,39,39,38.22,40,38.7c.72.06,1.2.73,1.69,1.27Zm-12.14-.42a3.92,3.92,0,0,1,2,3.2,3,3,0,0,1-.6,1.63,1.59,1.59,0,0,1-1.75.24c.6-.36,1.51-1,1.45-1.93.12-1.33-1.27-2-2.18-2.6-2.17.24-4.47,1.21-5.31,3.38-1,.37-2.24.31-3,1.21-1.45,1.63-2.54,3.5-4,5.14-.18.54.36.42.55.66,1.5,1.33,1.14,3.62,2.83,4.89a6.45,6.45,0,0,0,2.36.54c.24,0,.66-.18.9.07a8.12,8.12,0,0,0,3,3.44c1,.12,2.18.72,3.08,0a2.64,2.64,0,0,0,1.27-2.24L29.71,56a1.64,1.64,0,0,1,.78.12A1.66,1.66,0,0,1,31,57.73a3.42,3.42,0,0,1-1.81,3,5.66,5.66,0,0,1-5.38-1.33c-1-.67-1.21-1.75-1.75-2.66-1.33.42-2.48-.48-3.44-1.27-1.57-1.69-1.75-4.17-3.69-5.49v-.37c2.42-1.75,2.66-5.31,5.56-6.46.66.12,1.15-.6,1.81-.24.91-.36,1-1.39,1.63-2a5.19,5.19,0,0,1,5.56-1.33Zm11.65,2.84c.61,1.33.67,3.14,2.18,3.92.66-.18.72-1.14,1.33-1.33.18.49-.31.85-.43,1.21a5.52,5.52,0,0,0-.06,3,4.53,4.53,0,0,0-.9,3.26,3.84,3.84,0,0,0,2.29,2.24c0,.6,1.21,1.08.42,1.57-1-.37-.78-1.57-1.87-1.75-.6-.43-.84-1.21-1.45-1.64a4.33,4.33,0,0,1-3.38-.36,8.48,8.48,0,0,0-2.9-2.17c-.66-.06-1.14.06-1.75,0-.06-.42.36-.42.67-.48,1.93-.37,3.14,1.32,4.52,2.35.91.24,2.06.66,2.78-.18-.18-1.15.61-2,.91-3-.24-.85.24-1.93-.73-2.42-1.2-.78-1.57-2.29-1.81-3.62a5.14,5.14,0,0,0-3-2.66c-.12-.18.12-.3.24-.3,1.27.06,2.12,1.39,2.9,2.36Zm-1.45,1.87c-.06.18-.18.42-.42.24l-1.57-.06c-.12.06-.3.12-.3.3.36.55,1.15,1.15.84,1.81-.12.19-.36.06-.42-.06a9.82,9.82,0,0,0-2-1.81c-.12-.06-.12-.3,0-.42.9-.91,2.47-.72,3.56-.54l.3.54Zm22.89.42-.06.24a7.24,7.24,0,0,0-2.05,2c-.12.06-.3.06-.36-.06-.31-.55.42-.91.66-1.33.18-.24.66-.24.66-.61-.12-.6-.72-.24-1.08-.42-.61,0-1.15.36-1.75.24-.19-.12-.06-.36.06-.48,1.14-.48,3-.66,3.92.42ZM40.1,45.77c.06.54-.61.3-.91.42a1.67,1.67,0,0,1-.6-1.21c.6-.24,1.57-.12,1.51.79Zm20.41-.66-.91,1.32L58,46.37c.12-.48.18-1,.73-1.14s1.2-.37,1.81-.12Zm-10.33,3.8c0,.48.06,1.09-.48,1.27-.36.24-.79,0-1.15-.24a1.1,1.1,0,0,1,0-1.33,1,1,0,0,1,1.63.3ZM37.92,53.62c-.18,1-1.51.91-1.57,1.81a8.53,8.53,0,0,1,1.69.42.48.48,0,0,1,.06.31c-.42.12-.84-.25-1.33-.25s-1.26.25-1.57-.18a4.07,4.07,0,0,1,2-2.47c.36-.06.66.06.72.36ZM62.5,55.85l.06.91c-.54.12-.9-.24-1.45-.24l-1.39.18c-.18,0-.3-.24-.18-.36a1.86,1.86,0,0,1,1.69-.24.59.59,0,0,0,.37-.37A4.68,4.68,0,0,0,60.21,54c.06-.12.3-.18.36-.24a2.86,2.86,0,0,1,1.93,2.11ZM39,54.28c-.06.37-.36.61-.54.91a1.18,1.18,0,0,1-.91-.12c-.06-.54.66-.66.91-1.09.24,0,.48.06.54.3Zm21.74,1.09a3.05,3.05,0,0,1-1.63.3c-.36-.54-.91-.84-1.09-1.45.85-.42,1.57.19,2.24.49a1.26,1.26,0,0,1,.48.66ZM43.18,59a1.53,1.53,0,0,1-1,.79c-1,.24-2-.24-3,.12l-.72.54a.25.25,0,0,1-.07-.42c1.15-1.51,3.15-.18,4.41-1.33.18.06.43.12.43.3Zm15.4.55c.3.24.9.3.84.78-.54.31-1-.42-1.63-.36-.78-.06-2,.67-2.54-.36.19-.61.61.18,1,0a3.77,3.77,0,0,1,2.3-.06Zm-8.22,1c.06.19.24.31.12.49-.48.24-1-.24-1.39-.43-.6-.06-1.2.79-1.69.13,0-.49.55-.06.73-.25.48-.06.48-.84,1-.54.37.3.67.66,1.21.6Zm5.32,1.09c.18.36-.12.79-.37,1.09-.66-.12-1.08-1-1.75-1.33-.3-.36.18-.6.43-.85a2.9,2.9,0,0,0,1.69,1.09Zm-11.36-.36c-.12.42-.72.54-1,.84-.18.13-.31.37-.55.31a2.47,2.47,0,0,1,.18-1.33,3,3,0,0,1,.91-.36.85.85,0,0,1,.48.54Zm-2,.12c0,.85-.42,1.75.18,2.48.61,0,.36-.67.67-1,.6-.54,1.26-1.27,2.11-1l.06.12a5.87,5.87,0,0,0-2.48,2.36.53.53,0,0,1-.6-.36,4.08,4.08,0,0,1-.54-2.54.55.55,0,0,1,.6-.06Zm14.37,1a2.94,2.94,0,0,1-1.27,2.29c-.72-.18-.78-1-1.26-1.39-.55-.6-1.09-.84-1.57-1.33.12-.36.48-.18.72-.18.61.67,1.57,1,2,1.87h.19a8.49,8.49,0,0,0,1-2c.36,0,.3.48.24.73Zm-7.06.54c.3-.3.36-.72.78-.85l.06.25c-.42.54-.72,1.51-1.57,1.51a6.22,6.22,0,0,1-1.27-1.45l.13-.43c.6.31,1.08,1.39,1.87,1ZM34,66.79a3,3,0,0,1,.78,2.53c-.3,1.75-2.23,2.9-3.8,3.2-.67-.06-1.51.49-1.87-.24,0-.18.12-.3.3-.24,1.39-.36,3-.36,3.86-1.57a2.57,2.57,0,0,0,.49-2.36,2.88,2.88,0,0,0-1.88-1.57,4,4,0,0,0-2.47.73,5.08,5.08,0,0,0-1.09,3.2.22.22,0,0,0,.36,0c.24-1.15.18-2.6,1.45-3.2a2.62,2.62,0,0,1,2.66.12c.3.6.84,1,.6,1.75A2.23,2.23,0,0,1,31.58,71h-.12a2.54,2.54,0,0,0,.85-2c-.12-.54-.73-.6-1.15-.73-1.21.13-2.05,1.45-2.36,2.54.49.67-.66,1-.24,1.63l-.06.06c-.54-.24-.66-1-.84-1.63.06-1.69.06-3.62,1.69-4.53a3.92,3.92,0,0,1,4.65.49Zm35.39,1a5.8,5.8,0,0,1,.54,4.59c-.12,0-.24.12-.36,0-.18-1.09.24-2.05-.12-3.14a3.38,3.38,0,0,0-2.84-2.35,3.9,3.9,0,0,0-3,2.29,3,3,0,0,0,.66,2.66c1.51,1.57,3.69,1,5.68,1a.34.34,0,0,1-.12.49l-1,.3c-1.75,0-3.68.06-5-1.21-1.27-1.09-1.15-2.9-.67-4.29A4.37,4.37,0,0,1,66.61,66a3,3,0,0,1,2.78,1.81ZM67,67.51a2.42,2.42,0,0,1,1.75,1.33,3,3,0,0,1,.3,2c-.48-.06-.3-.78-.72-1a2.2,2.2,0,0,0-1.63-1,1.23,1.23,0,0,0-1.21.6,2.11,2.11,0,0,0,.72,2.12,3.52,3.52,0,0,0,1.57.9c-.84.42-1.81-.24-2.65-.54a2.12,2.12,0,0,1-1.09-2,3.06,3.06,0,0,1,2.24-2.42c.24.24.48-.12.72.06ZM45.47,69a1.73,1.73,0,0,1-.12,1.63c-.36-.48-.66-1.15-1.39-1.27-.9-.24-1.63.48-2.29,1a3,3,0,0,0-.49,2.84l1.21,2,1.33,1.21c0,1.39-.06,2.9,1,3.86.42.24.66.55,1.14.79,1,.36,2.12.54,3.2.84.19.24.55.67.85.36a31.59,31.59,0,0,1,2.66-2.29,6.67,6.67,0,0,0,1.75-3.56c.3-.55-.3-1,.12-1.51a3.5,3.5,0,0,0,1.93-2.48,3.42,3.42,0,0,0-.78-2.29,2.71,2.71,0,0,0-2.12-.67,7.81,7.81,0,0,0-1.81.79c.06-.73.85-1.27,1.45-1.57a3.8,3.8,0,0,1,3.32.42c1.15,1,1.15,2.48,1,3.8a4.48,4.48,0,0,1-2.18,3c-.3.31.06.55,0,.91-.78,1.93-1.57,4.11-3.62,5.31a22.29,22.29,0,0,0-2.11,1.33c-.43-.12-.73-.72-1.21-.84-1.93-.67-4.35-1.27-5.25-3.38a4,4,0,0,1-.19-2.54,5.15,5.15,0,0,1-2.65-3c-.61-1.33,0-2.54.3-3.8.91-1.51,2.66-1.64,4.17-1.51.36,0,.54.42.72.6Zm-6.1,4.23A7.25,7.25,0,0,0,42,77.05c.3.73.18,1.45.42,2.18.91,2.35,3.44,3,5.5,3.74,1,.12,1.39,2.54,2.41,1a18.59,18.59,0,0,1,3-2.3A11,11,0,0,0,56,76.27a6.79,6.79,0,0,0,2.41-3.63c.61.67.79,1.51,1.39,2.18a8.58,8.58,0,0,0,3.63,2.78c.6-.19,1,.42,1.51.48.12.84-.91,1-1.39,1.45A19.82,19.82,0,0,1,57.43,82a4.88,4.88,0,0,1-2.18,4.35c-1.26,1.39-3,1.69-4.59,2.36-.72.6-2,.42-2.41,1.45-.79.12-1.45-.67-2.24-.85-3.08-1.15-6-4-6.28-7.43-.12-.48-.06-1-.54-1.33-2.35.06-4.17-1-6-2.17-.24-.3-.66-.48-.54-.85a12.81,12.81,0,0,0,6.4-5c.18.06.3.36.3.61Zm-8.94,4.65c.37.9,1.45,1.39,2.18,2.17a10.39,10.39,0,0,0,5.19,2.48c1,1.81,1.57,3.86,3.32,5.43,1.87,2.78,5.38,2.6,7.61,5,.24-.06.3-.48.55-.66.78-.6.9-1.69,2-1.75,2.17-1.51,5-2.11,6.58-4.47a19,19,0,0,0,1.63-2.9,17.55,17.55,0,0,0,4-1.45,13.69,13.69,0,0,1,1.63-1,5,5,0,0,0,2-2.3c.66-.18,1.45,0,2.11-.18a16.29,16.29,0,0,0,3.45-.79c0,.91-.79,1.63-1.33,2.3-2.66,2.48-5.44,5.13-9.06,5.62-.3.24-.18.72-.42,1-2.24,5-8.16,5.38-11.66,9a10.07,10.07,0,0,0-1.39,1.87c-.48.12-1-.54-1.33-.84-1.87-2.18-4.89-2.24-6.88-4.29-2.17-1.69-4.35-3.87-5.07-6.52-.31-.3-.61-.06-.91-.24-3-.79-5.19-3.08-7.43-5-1-.78-1.27-1.93-2.05-2.84l.12-.24a29.51,29.51,0,0,0,5.19.55Zm3.26,1.45c1.64.72,3.15,2,5.14,1.69.6.36.36,1.27.66,1.81a8.06,8.06,0,0,0,3.08,5c1.63,1.51,3.75,2,5.62,3,.36,0,.48-.3.6-.6a19.6,19.6,0,0,1,4.77-2c1.63-1.39,3.93-2.41,4.23-4.71.06-.42-.06-.9.24-1.2,2.3-.73,4.71-1.33,6.65-2.9.78-.12.66-1.88,1.69-1-1,1.75-2.84,2.6-4.53,3.44a29.17,29.17,0,0,1-3,1c-1,3.32-4.17,5.62-7.25,6.7-1,.3-1.75,1.21-2.72,1.63-.06.3-.3.36-.42.61-.72-.25-1.39-.85-2.11-1.15a11.72,11.72,0,0,1-7.49-7.49c-.36-.36,0-1.09-.67-1.21-2.65-.24-4.65-1.93-6.64-3.5-.06-.3-.6-.24-.42-.54a.59.59,0,0,1,.9.06l1.63,1.39Zm14,1.87v.06c-.13,0-.13-.24,0-.24s.06.18,0,.18Z"/></svg>