<svg id="Layer_1" data-name="Layer 1" xmlns="http://www.w3.org/2000/svg" viewBox="0 0 100 100"><defs><style>.cls-1{fill:#a64787;fill-rule:evenodd;}</style></defs><title>Bg4</title><path class="cls-1" d="M51.18,2.27c.67.42.5-.58,1-.67C53.94-.07,56.53-.32,58.87.1c1.51.75,3.77,1.67,3.52,3.84l.16.17c1.26-.42,2.59-1,3.93-.33a6,6,0,0,1,2.68,3.09c.75.33,1.5-.42,2.34-.5,1.92.08,4.18-.42,5.6.92,1.76-.34,3.18,1.17,4.68,1.84a34.26,34.26,0,0,1,5.77,6.35c.42,1.42.84,3,1.17,4.43.84.25,2.26-.25,3.1.5.58.09,1.33.09,1.75.59-.58,1.34-.75,2.84-1.25,4.18.58.84,1.59,1,2.42,1.51a8.74,8.74,0,0,1,2.43,9.53c-.17.67-.92,1.08-.92,1.75a9.46,9.46,0,0,1,2.84,3.68,5.59,5.59,0,0,1-1.84,4.77c-.42.5-1.67.42-1.34,1.33a16.22,16.22,0,0,1,2.93,5c1.42,4,1.76,9-.25,12.88a28.83,28.83,0,0,1-3.09,4.18,8.31,8.31,0,0,1,1.08,4.26c-.25.34-.83.34-1.08.75-1.18.34-2.6.09-3.6.76.42,1.92-.59,3.59-.67,5.43a6.55,6.55,0,0,1-2,3c-1.17.67-2.34,1.67-3.84,1.59-.42.42-.09,1-.09,1.42a4,4,0,0,1-2.42,3.43l-2.26.67a17.14,17.14,0,0,1-2.67-.84l-.34.17a13.09,13.09,0,0,1-6.94,6.94,9.91,9.91,0,0,1-3.34,1c-3.1,1.42-6.77.84-10.12.5a15.5,15.5,0,0,1-5-2.09c-1.17.26-2,1.26-3.09,1.59a1.55,1.55,0,0,1-1,.92c-.34-.08-.67-.67-1.17-.42a11.19,11.19,0,0,0-1.76-1.75,15.83,15.83,0,0,1-6.94,1.75c-4.18-.25-8-1.67-10.78-4.93a14.48,14.48,0,0,1-2.85-4.35c-.58-.41-1,.59-1.67.51-1.75.16-3.93,0-5-1.51a6.23,6.23,0,0,1-1.42-4.51c-1.84.16-3.26-.76-4.76-1.51a8.31,8.31,0,0,1-2.93-3.68l-.33-.42A15,15,0,0,1,8,75c-.75-.58-1.92-.5-2.76-1L5,73.67V71.33a18.17,18.17,0,0,0,.42-3,14.23,14.23,0,0,1-4.18-5.68c-.09-3.1-1.43-5.86-.34-8.87A18.72,18.72,0,0,1,4.19,46C4,45,2.94,44.83,2.52,44c-.67-1.17-.42-2.76-.17-4,.34-.92,1.26-1.42,1.93-2.09.08-.84-.51-1.51-.51-2.34-.16-1.42-.58-3,0-4.43.84-.84.67-2.34,1.84-2.93C6,26.85,7.54,26,8.54,25.26c.42-1.58-.59-3,.17-4.59.83-.42,1.92-.42,2.84-.84.67.08,1.42,0,1.59-.75a11.29,11.29,0,0,1,6.44-10.2c1.5-.25,2.67-1.43,4.18-1.43A18.51,18.51,0,0,1,27.52,7a12.91,12.91,0,0,1,4,.25c.67-1.51,1.17-3.51,3-4a7.22,7.22,0,0,1,3.51-.16c.67.08,1.34,1.5,1.76.33C41.06.93,43.91-.15,46.58-.24c1.68.34,3.68.67,4.6,2.51ZM50,2.27c.25.5.67,1.26,1.34,1.34.83.17,1-.92,1.59-1.26A6.52,6.52,0,0,1,58.79,1c.84.58,2.17.83,2.42,2l.51,2.26c.5.42,1-.25,1.59-.17a3.15,3.15,0,0,1,3.09-.33,5.87,5.87,0,0,1,1.75,2.09c0,.67-.25,1.25.34,1.59C72,6.45,76.68,7.2,80,9c2.09.67,3,2.93,4.68,4.1.92,1.42,2.34,2.68,2.42,4.35.67,1.25-.16,2.84,1.34,3.59,1.17-.5,2.34.17,3.51.17.59.42.17,1.17.09,1.67a20.53,20.53,0,0,0-.84,2.93c1.17.92,3,1.25,3.85,2.76,2,1.92,1.92,5.27,1.08,7.61-.41.92-2,1.25-1.75,2.25.5.51,1.42.17,1.92.59.92,1,1.92,1.92,1.92,3.34a4.49,4.49,0,0,1-1.42,3.26c-.58.84-2.84.59-2,2.09A16.8,16.8,0,0,1,98.76,62a9.24,9.24,0,0,1-3.93,6.85c-.25,0-.51.17-.42.42.33,1.51,1.59,2.68,1.17,4.35-1.17,1-2.76.67-4.27.92l-.33.33c.5,2.18-.42,4.27-.59,6.36a7.42,7.42,0,0,1-4.68,3.59c-.5-.16-1.08-.5-1.59-.33,0,1.59.76,3.34-.58,4.6-1.26.67-2.76,1.67-4.27.92-.83,0-1.25-1.59-2.09-1.09-.5,2.59-2.67,5.1-4.76,6.77l-3.18,1.51c-1.92.25-3.51,1.25-5.52,1.25-3.17-.16-6.18.17-8.94-1.25-1.34.08-1.59-2.09-2.93-1.26l-4,2.51c-.42-.08-.42-.67-.76-.83C46,97.34,46,95.25,44.74,96.25c-2.76,2-6.43,2.09-9.86,1.42-3.68-1.09-7.36-3.51-8.87-7.36-.83-.58-.25-2.67-1.75-2.09a2.85,2.85,0,0,1-2.93,1.09c-1.67.25-2.59-1.09-3.51-2.34-.75-1-.33-2.59.17-3.6-.42-.75-1.42.09-2.18-.08-2.84,0-5.26-2.34-6.35-4.77-.17-1.25-.92-2.76-.25-4-.75-1-2-.25-3-.92-.92-1.76.25-3.76.25-5.43C4.78,66.4,2.94,64.64,2.1,62.47L1.35,57c.58-3.93,1-7.61,3.85-10.53,1.08-1.26-1.09-1.51-1.51-2.34a4.15,4.15,0,0,1-.17-4.27,2.79,2.79,0,0,1,2.09-1.34c.51-.75-.67-1.25-.75-2,0-1.84-1-3.35-.17-5.1A8.08,8.08,0,0,1,9,26.27c.25-.25.83-.34.75-.84a12.89,12.89,0,0,1-.25-4c1.25-.67,2.93-.59,4.35-1.09.58-.67-.09-1.75.42-2.51C14.64,15,16,12,18.74,10.55c1.09-1.09,2.68-1.09,3.85-1.92A20.46,20.46,0,0,1,31,8c.42.42.92.08,1.51.08.5-.58.08-1.5.5-2.09.08-1.08,1.25-1.59,2.09-1.92,1.17,0,2.34-.33,3.43.25.41.5.75,1.26,1.5,1a5.46,5.46,0,0,1,3.26-4c2-.92,5-1.09,6.69.92Zm9.28.25A2.56,2.56,0,0,1,59.88,5c-.25,1.25-1.59,1.25-2,2.25-.17.92.5,1.51,1,2.18,3.26,2.34,7.78.5,11.37,0,3.6-1.17,8.28-.75,11.21,2a10.21,10.21,0,0,1,4.51,6c.92,1.51.59,3.6.51,5.19.5.67,1-.34,1.58-.25,1-.17,2.09-.67,3.18-.42.5.58-.33,1.17-.17,1.76-.33.92-.75,1.75-1.08,2.59.33.58,1.08.33,1.5.75,2.84.84,3.93,3.93,4.1,6.69a3.7,3.7,0,0,1-2.51,3.18c-1.59.33-1.92-1.43-2.59-2.35-.25-.58-.17-1.33-1-1.42-.92.09-2,.34-2.26,1.34-1,1.51-.09,3.18.5,4.43,1.34,2.59,3.09,5,4.6,7.53.83,1.42,2.34,2.34,3,3.93A11.38,11.38,0,0,1,98,56.2c.09,2.68.25,5.43-.92,7.86a13.61,13.61,0,0,1-2.5,3.68,4.54,4.54,0,0,0-1.76,1.34,6.54,6.54,0,0,1,1.76,3.67,36.34,36.34,0,0,1-4.35.84c-.5.75.16,1.59,0,2.43a7.64,7.64,0,0,1-3.43,6.77l-1.25.58c-.76-.16-1.51.17-2-.58-.75.25-1.42-.75-1.76-1.26a3.46,3.46,0,0,1,.67-3,1.92,1.92,0,0,0,1-1.25c.16-.84-.76-1-1.26-1.25a6.77,6.77,0,0,0-2.93,1c-.16.67-.91,1-1.08,1.75-2.09,3.35-.92,8.2-3.1,11.54-.92,3.6-4.68,5.69-8,6.36a14.2,14.2,0,0,1-6.94.75,14.9,14.9,0,0,1-6-1.92c-.67-.42-1.26-1.34-2-1-1,1.26-2.34,1.84-3.43,2.85h-.5a9.06,9.06,0,0,1-2.09-2.26c-.75-.42-.92.75-1.59.75a10.27,10.27,0,0,1-8.69,1.34c-3.93-.67-7.61-3.43-8.61-7.36-.76-1-1-2.26-1.68-3.26C24.09,84,23.76,81,22,78.61c-1.09-1.59-2.59-3.26-4.6-3.51-.5.08-1.25.16-1.25.83-.17.75.58.92,1.09,1.09a1.4,1.4,0,0,1,1.42.75,2.71,2.71,0,0,1,.25,2.84c-.5,1.17-1.76,1.34-2.84,1.68a7,7,0,0,1-5.52-3.77c-.84-1.58-.17-3.51-.34-5.18-.42-.67-1.5-.17-2.17-.25-.42-.34-1.42.08-1.34-.75C7,71,7,69.58,7.79,68.49c-.17-1.09-1.51-1.25-2-2.26-1.59-2-3.43-4.09-3.09-6.94.16-3.17.33-6.1,1.59-9.11,1.5-2.84,3.84-4.6,6.27-6.77,1.67-3.1,5.26-6.36,3.17-10.2-.33-.67-1-.76-1.5-1a2,2,0,0,0-1.42.92,16,16,0,0,1-.59,2.6c-.75.58-1.5,1.67-2.67,1.42a3.79,3.79,0,0,1-2.18-2.09C4.61,31.87,6.45,28.78,9,27.1a22.47,22.47,0,0,1,2.18-.75c0-.84-.67-1.75-.84-2.76-.67-.83.42-1.34.92-1.75,1.17-.25,2.93.25,3.26-1.17a16.64,16.64,0,0,1,2.17-6.61c.51-1.59,2.18-1.84,3-3.18,2.6-1.75,5.94-1.67,9-1.42,1.84.09,3.43.67,5.19.67,1.5.75,3.18.67,4.85,1,1.5-.16,3.59.42,4.6-1.25.33-.5,0-1.17-.09-1.67A2.35,2.35,0,0,1,41.4,6.62a3.68,3.68,0,0,1,.33-2.68c1.26-1.25,2.76-2.34,4.69-2,2.17.58,4.34,2.25,4.68,4.51a10.85,10.85,0,0,1,1.59-2.92,5.32,5.32,0,0,1,6.6-1Zm-.42,1.09a2,2,0,0,1-.16,1.67C57.79,6.7,55.45,5,55,7.12c-.59,1.42.25,2.68,1.08,3.68,1.18,1.42,3.1,1.84,4.85,2,2.43.33,4.44-1.09,6.69-1.43a13.74,13.74,0,0,1,7.7-1.58l.08.08c-1.51.5-2.68,1.67-4,2.42C69.74,14,67.23,14.56,65,15.06l-3.1.51a9.88,9.88,0,0,1-7.44-2.76A7.58,7.58,0,0,1,52.6,5.45c.42-1.59,2.18-2.51,3.77-2.76a3.14,3.14,0,0,1,2.5.92ZM49.68,5.36A6.79,6.79,0,0,1,49,12.14a13.18,13.18,0,0,1-13.21,3c-1.34-.59-2.68-.84-3.77-1.84-.5-.42-.83-1.17-1.42-1.51-.33-.33-.92-.58-1.08-1.08.58-.51,1.5.08,2.25.08,4.1,1.34,9,3.51,13.38,1.25,1.34-.92,2.51-2.34,2.18-3.76a3,3,0,0,0-1.68-2.51c-.25-.16-.75-.42-1,0-.42.5-.59,1.34-1.34,1.51-.67-.17-.92-.84-1.17-1.42-.25-1.09.59-1.68,1.26-2.26A3.68,3.68,0,0,1,46.75,3a6.32,6.32,0,0,1,2.93,2.34Zm-11,1.34A2.39,2.39,0,0,1,37.89,9c-.84,1-2.09.42-3.1.33-.5-.33-1-.66-1.08-1.25A3.08,3.08,0,0,1,35,5.53,2.45,2.45,0,0,1,38.64,6.7Zm28.43.09a2.48,2.48,0,0,1-1.26,2.5,2.05,2.05,0,0,1-2.42-.66l-1-1.26a2,2,0,0,1,1.5-2c1.17.17,2.76.09,3.18,1.43Zm-29.43.33a1.21,1.21,0,0,1-.5,1.34,5,5,0,0,1-1.93.08C34.88,8,34.46,7.37,35,6.79A2.62,2.62,0,0,1,36.05,6c.83-.16,1.25.51,1.59,1.09Zm28.42.08a1,1,0,0,1-.58,1.17,1.63,1.63,0,0,1-1.26-.08,1.76,1.76,0,0,1-.75-1.42c.5-.92,2.18-.59,2.59.33Zm-20,.34a3,3,0,0,1-.33,2.76,5.31,5.31,0,0,1-3.35,1.59c.76-.76,2.51-1.26,2.26-2.76,0-.59-.67-1.26,0-1.76a.72.72,0,0,1,1.42.17Zm11,1.25c1.25,2.18,3.93,2.76,6.1,2.76a6.76,6.76,0,0,1-5.27-.5,4.08,4.08,0,0,1-2.09-2.76c0-.42,0-1.25.51-1.42.83.17.33,1.34.75,1.92Zm-5.69.76c1.17,2.34,2.34,5.1,5.19,5.93a16,16,0,0,0,4.59,1.09l2.68-.42.25.25a8.51,8.51,0,0,0-.42,3.85c.5.75,1-.25,1.68-.09a9.87,9.87,0,0,0,3.09-1.08h.33c.92,1.5.92,3.68,2.85,4.43,1,.08,2.17.17,2.92-.84l1.09-2.51a2.52,2.52,0,0,1,.25-2.42,2.12,2.12,0,0,1,1.84-.92c1-.17,1.34,1,1.67,1.67a16.12,16.12,0,0,1,.5,6.94h-.08c-.42-.5-.92-1.5-1.76-1.59a4.44,4.44,0,0,0-2.34.09c-1.25.67-1.25,1.75-.83,2.92a5.17,5.17,0,0,0,2,1.76c.92-.25,2.09-.17,2.68-1.17l.17.17c-.42,2.84.83,5.18.92,7.77L81.2,37a88.11,88.11,0,0,0,5.1,8.61v.34a5.38,5.38,0,0,0-2.76-.42c-.67.75,0,1.92.17,2.76A14.49,14.49,0,0,0,87,52.6c-1.42,1-3.6,2.35-3.51,4.35A3.12,3.12,0,0,0,85,59.54C87,60.8,88.3,58.71,90,58.12a1.81,1.81,0,0,1,1.59,1.17c.75,1.93-.84,3.35-1.76,4.77a8.94,8.94,0,0,1-3.09,2.09A2.32,2.32,0,0,1,85,67.24c-2.09.67-4.51.75-6.35,2.17-2.84,1.92-4.26,5.18-5.44,8.19-.58.25-.91-.5-1.5-.58L70,76.43c0-.5.76-.83.84-1.42a3.23,3.23,0,0,0-.42-3.34c.84-1.17,2.34-1.26,3.51-2.09a16.44,16.44,0,0,0,3.52-3.68l.75-2.68a6.1,6.1,0,0,0,3.51-5.85l-.59-1.59c1.26-1.75,2.09-4.1,1.09-6.27L81,47.42a5.69,5.69,0,0,0-.67-5.52,5.38,5.38,0,0,0-4.85-2.59,3.43,3.43,0,0,1-1.26.17c.09-1.34.09-3.1-1-4.1.92-1.25,1.42-3.18.59-4.51a5.49,5.49,0,0,0-5.35-2.93l-1.68.75c-.16-2.17-.16-4.68-2.34-6.1-1.08-1.09-2.59-.84-4-.59-1.42.42-1.92,1.84-2.93,2.76-.42.25-.75-.16-1.08-.16-.67-.67.08-1.51-.26-2.26-.16-2-2.09-3.68-3.84-4.52-2.26-.83-4.52.5-6.1,2.26a6.06,6.06,0,0,0-1.51,5c.17.33.5.08.67.08a9.62,9.62,0,0,0,.33-2.09,6.27,6.27,0,0,1,4.1-4.43c1.25-.42,2.51.17,3.6.67A5.4,5.4,0,0,1,54.94,25a.46.46,0,0,0,.17.67c.34.42.67-.08,1.09-.08a3.61,3.61,0,0,1,2.67,1.59,7.27,7.27,0,0,1-.41,6.18.86.86,0,0,1-.59.34c.17-1.67.75-3.85-.5-5.35a3.39,3.39,0,0,0-3.6-1.26c-.16.17-.41.17-.67.25-.58-1.84-.33-4.18-1.67-5.68a2.16,2.16,0,0,0-2.51-.34c-1.84.84-1.75,3.18-2.59,4.77l-.42,2.51c-1.17-.34-1.58.75-2.34,1.25-.58.59-.08,1.26-.16,2-.59-.5-1.51-.42-1.76-1.25a3.65,3.65,0,0,1,1.42-3.52c.59-.58,1.92-.41,2-1.42-1.59-.58-1.59-2.51-3.26-3.09-.76.17-.84-.59-1.42-.75a5.11,5.11,0,0,0-5.19,1.84,8.46,8.46,0,0,0-1,3.76,6.65,6.65,0,0,0-3.85-.84c-1.84.09-2.76,1.84-3.84,3-.84,2.43.41,4.77,1.75,6.61a10.31,10.31,0,0,0-.42,2.67c-.66.5-1.17-.33-1.84-.16-1.5,0-3.09-.17-3.92,1.17-1.09,1.25-.92,3.17-1.26,4.68A5.21,5.21,0,0,0,19,49.26,7.72,7.72,0,0,0,20.41,53l-.08.42a4,4,0,0,0-1.42,2.34c.08,1.84,1.08,3.35,2,4.85a14.8,14.8,0,0,0,3.43,2.17A7.64,7.64,0,0,1,25,65.15c.84,1.92,2.43,3.93,4.35,4.59-.25,1-.92,2.09-.59,3.35A8,8,0,0,0,30.7,75.6l-2.34.58c-1.68-3.59-4.85-6.85-8.87-7.52-.67-.59-1.75-.09-2.51-.42-3-.5-5.18-3.34-6.77-5.69a6.1,6.1,0,0,1,.09-5.26,2.18,2.18,0,0,1,2.25-.17A2.45,2.45,0,0,0,15,58.21c1.5.08,1.42-1.59,1.92-2.43A6.23,6.23,0,0,0,14.81,51c.17-.76,1.26-.84,1.59-1.51.5-.5,1.5-.92,1.25-1.76-.75-.75-1.42-1.83-2.42-2.17.33-.92,1.25-1.34,1.75-2.17,1-1.76,2.35-3.1,3.1-4.94.25-1.75.92-3.67.58-5.51-.92-3.26-1.75-7.11-1.08-10.62.92-2.34,1.17-5.69,3.93-6.69a3.41,3.41,0,0,1,2.59,2.26c.08,1.67-.09,3.42,1.17,4.68.58.58,1.25.08,1.92.25a5.5,5.5,0,0,0,2.18-1.76l1.17-2.5h.33c1.34,1.25,3,1.58,4.52,2.25.5.09.66-.25.92-.5a17.75,17.75,0,0,1-.51-3.59c2.51-.26,5.44,0,7.7-1.17a9.25,9.25,0,0,0,5.77-6ZM27.85,10.8c1.93,1.17,3.93,2.84,4,5.35-.17,2.09-.67,4.35-2.51,5.6-.5.17-1.25.42-1.76,0-.92-1.67,1.42-2.67,1.17-4.35-.16-1.33-.33-2.59-1.5-3.42-1.51-.92-3.18-1.59-5-.92a7.93,7.93,0,0,0-4.18,7.35,33.3,33.3,0,0,0,.5,8.7,7.38,7.38,0,0,0-2.67-2.17c-1.26-2.6-.84-5.52-.17-8.2.59-2.84,2.09-5.85,4.77-7.19a9.4,9.4,0,0,1,7.35-.75Zm52.6,1.09c.66-.17.66.67,1.25.75,2.34,1.42,3.34,4.26,4,6.69,0,1.42.17,3.09-.67,4.26.09,1.92-1,3.6-1.67,5.35a13.85,13.85,0,0,0-1.84,3.43c-.67-1.25,0-2.76.17-4,.42-4.85,3.68-11-1.76-14.3a4.68,4.68,0,0,0-3.68-.67c-1.17.59-2.59.92-3.26,2.18-.41,1.17-.92,2.59-.25,3.76A3.61,3.61,0,0,1,74.26,21a1.94,1.94,0,0,1-1,1.59c-.5.33-1-.09-1.58-.09-.67-.5-.92-1.25-1.43-1.83a6.32,6.32,0,0,0-.5-2.09A9.24,9.24,0,0,1,76,10.72a7,7,0,0,1,4.44,1.17ZM27,14.73a3.76,3.76,0,0,1,.75,2.93,1.66,1.66,0,0,1-.42,1.17c-.42-.34-.16-1.09-.5-1.51a3.83,3.83,0,0,0-3-2.51,2.85,2.85,0,0,0-2.67,1.42c-1,1.17-1.26,2.85-2,4.1a7.2,7.2,0,0,1,1.42-4.68,4.57,4.57,0,0,1,3.18-2A5.67,5.67,0,0,1,27,14.73Zm54.6,2.42c.92,2.68.33,5.35-.42,8L81,24.85c-.25-2.43.42-5.69-1.25-8a2.29,2.29,0,0,0-1.84-1,4.69,4.69,0,0,0-3.6,2.59c0,.25.09.67-.25.67s-.58-.5-.67-.75a3.83,3.83,0,0,1,2-3.76c2.34-1.26,5.18.25,6.19,2.5Zm-12.38-1a2.63,2.63,0,0,1-1.84,2.51c-.75.42-1.67.33-2.34.67-.58-.09-.33-.84-.33-1.26a5.62,5.62,0,0,1,1-2.17l3.85-1.25c.75.33-.34,1-.34,1.5Zm-32.86.17c.25,1,.84,2.09.5,3.09a4.77,4.77,0,0,1-4.09-2.76c.08-.5-.25-1.25,0-1.75,1.08.67,2.51.83,3.59,1.42ZM51.1,22.84a20.84,20.84,0,0,1,1,5.77c.17.33.5,0,.75-.17.76-.42,1.76-1,2.68-.5A2.94,2.94,0,0,1,57,29.7c.42,1.5-.08,2.92-.33,4.34,1,1.26-.84,2.18-1.26,3.18l-.5,1c.42-2.25,1.67-5.18-.67-6.94-1.5-.41-1.34-2.5-2.84-2.92a7.06,7.06,0,0,0-2.68.08c-1,.92-1,2.26-1.5,3.43l-2.09,1.42a4.27,4.27,0,0,1-.75-2.76c.08-.5.66-.67,1-.92.58-.17,1.17.25,1.5-.25a23.51,23.51,0,0,1,1.59-6.52A1.75,1.75,0,0,1,49.59,22c.59-.25,1.17.34,1.51.84Zm-37,.25.25,3.09c-.58.25-1.17-.16-1.75,0-.67-1-1.84-2.17-1-3.42.76-.17,2.34-1.09,2.51.33ZM42.57,24.6c.17.5.67.91.59,1.5-.34,0-.51.5-1,.33-1.17-1-2.51-2-4.18-1.83a3.89,3.89,0,0,0-1.84,3.59c0,.75.59,1.51.25,2.26-1.17-.75-.67-2.34-1-3.51.08-1.43.42-3.1,1.84-3.85a4.8,4.8,0,0,1,3.26-.25c.75.58,1.67.84,2.09,1.76Zm22.16-.42a7.63,7.63,0,0,1,.67,5.6l-.92,1.42c.16-1.92.25-4.18-1.09-5.85-.84-.5-1.76-1.17-2.76-.5-.75.33-1.17,1.75-2,.92-.33-.26-.16-.76,0-1.09a5.12,5.12,0,0,1,3.68-2,3.6,3.6,0,0,1,2.43,1.51Zm25.41-1A6.13,6.13,0,0,1,88.89,26c-1,.33-2.34.08-3.18.83-.42-.25-.16-.75-.08-1.17l.42-1.34c1-1.17,2.59-1.33,3.93-1.5l.16.33Zm-64.38,2a2.25,2.25,0,0,1,0,2.68,3.74,3.74,0,0,1-2.76.92c-.66-.42-1.58-.76-1.75-1.59a2.12,2.12,0,0,1,.33-2.09,2.74,2.74,0,0,1,4.18.08Zm53,.5a1.93,1.93,0,0,1-.25,1.67,1.86,1.86,0,0,1-2.17-.08,2.14,2.14,0,0,1-.59-2.09,2.15,2.15,0,0,1,.92-.58,2.06,2.06,0,0,1,2.09,1.08ZM24.84,25.6A1.46,1.46,0,0,1,25.26,27c-.25.59-.83.75-1.42.92-1.25.42-1.25-1.09-1.84-1.76.17-.58.84-.75,1.26-1.08a2.07,2.07,0,0,1,1.58.5ZM41.4,27.19c.08.25.08.5-.25.5-.75-.42-1.59-1.17-2.59-.75-1.09.58-.84,1.92-.92,2.92-.42-.16-.59-.92-.59-1.42.34-1-.08-2.34,1.09-2.84a3.87,3.87,0,0,1,3.26,1.59Zm21.82-.34A5.27,5.27,0,0,1,63,31.2h-.08a15.51,15.51,0,0,0-.17-2.76c-.67-.33-1-1.59-1.92-1.09-.25.09-.5.26-.76.09-.41-.59.34-1,.67-1.34a1.47,1.47,0,0,1,2.51.75Zm-44.9,3.26a8.57,8.57,0,0,1,1.51,4.52c-.42,1.67-.34,3.43-1.26,4.93-1.67,1.67-2.17,4.1-4.43,5.52a44.63,44.63,0,0,0-6.6,5.35c-.84.5-1,1.25-1.84,1.59-.59.42-.76,1.17-1.42,1.34a11,11,0,0,1,5.35-7.7c2.51-2.5,5.43-4.51,6.6-7.94a6.55,6.55,0,0,0-.08-6.1,5.49,5.49,0,0,0-5.6-2.43A4.09,4.09,0,0,0,8.29,31,4.12,4.12,0,0,0,9.46,33c.08,1,.5,1.75-.17,2.5-.58.42-1.25,1.43-2.09.76A3.21,3.21,0,0,1,6,33.37a7,7,0,0,1,4.27-5.93,6.68,6.68,0,0,1,8,2.67ZM94,30.45c.42,1.42,1.09,3.18.17,4.6-.42.5-.76,1.08-1.51,1-1-.33-1.17-1.51-1.5-2.34s1.25-1.26.58-2.18c-1-.66-1.59-1.58-2.92-1.5a5,5,0,0,0-4.35,3.09c.08,1.34-.5,2.85.08,4.1.34,2.84,3.1,4.43,4.35,6.77,1.17,1.59,2.84,2.68,3.93,4.18.67,1.34,2.09,1.93,2.42,3.35.26.83,1.17,1.5,1.09,2.42-.5.17-.75-.58-1.25-.67A5,5,0,0,0,92.74,52C89.56,47.5,85,43.74,83.29,38.47A8.4,8.4,0,0,1,82,35C82.2,31.87,84,28.44,87,27.19a6.34,6.34,0,0,1,7,3.26Zm-59.2-.75c.67.58.09,2.34,1.43,2,1.83-1.25,4.26-.33,6.1.42A10.91,10.91,0,0,1,47,41.4c-.42.42-1,.34-1.5.5-.59-.75-.51-1.75-.92-2.51a10,10,0,0,0-6-6c-1,0-2.18-.25-2.93.51-.67.08-.59-.84-1-1.17-1.51-.84-2.85-2.43-4.85-1.59a2.63,2.63,0,0,0-.67,2.42c.58,2.18,2.26,3.76,3.18,5.77a4,4,0,0,0-1.17,2.76l-1.26.17c-.33-.34-.25-1.17-.84-1.51-.33-1.34-.75-3.26.59-4.26-.08-.67-.84-.75-1.09-1.42a8.67,8.67,0,0,1-1.42-4.18c.67-1.43,1.67-3.52,3.51-3.43a4.2,4.2,0,0,1,4.18,2.26ZM72,29.86c.59.92,1.42,1.84,1.17,3.1a9.6,9.6,0,0,1-1.25,2.42c0,.59.75.67,1,1.09.75,1.5,0,3-.67,4.26a2.88,2.88,0,0,1-1.09.67c.17-1.42.92-3.43-.75-4.26-.25-.17-.75-.17-.75-.59a4.38,4.38,0,0,0,.17-3.68A3.25,3.25,0,0,0,67.65,32c-.67.34-1.67.92-1.92,1.76C65,34,65,34.88,64.48,35.3a5.21,5.21,0,0,0-5.27,1,11.8,11.8,0,0,0-2.51,6.35c-.17-1.08-2.09-1.17-1.42-2.42.75-1.09.67-2.59,1.67-3.6a8.21,8.21,0,0,1,2.68-2.92,5.68,5.68,0,0,1,5.43-1c.59-.17.25-.84.59-1.18A4.51,4.51,0,0,1,68.41,29a4.58,4.58,0,0,1,3.59.83ZM15.73,32.54c.92,2.51-.17,5.6-1.92,7.61,1.08-2.09,1.92-4.35,1-6.78-.33-1-1.25-1.42-2-1.92a2.38,2.38,0,0,0-2.59.92c-.33,0-.58-.5-.83-.75a1.11,1.11,0,0,1,.83-1.26,4.76,4.76,0,0,1,5.52,2.18ZM90.56,32c-.08.25-.08.5-.33.5a4.18,4.18,0,0,0-2.85.51,4.2,4.2,0,0,0-1.5,2.76c0,2.09,1.25,3.42,1.84,5.26a7.47,7.47,0,0,1-2.34-7.52A4.09,4.09,0,0,1,88.56,31a2.74,2.74,0,0,1,2,1ZM33.87,33.21c.84.5.42,2.59,1.84,1.92a2.21,2.21,0,0,1,1.84-1,8,8,0,0,1,5.86,4.93c.41,1.42,1.42,2.84.92,4.35-.42.42-.17,1.5-1,1.25-.67-2.76-.5-6.6-3.93-7.44l-.83.42c-1-.59-1.84-1.59-3.1-1.34-2.09,1.09-.5,3.26-.33,4.77a3.55,3.55,0,0,0-.5,2l-.5-.08c-.59-.59-2-.25-2-1.42-.17-1,.92-1.42,1.42-2.09-1.09-2.43-3.68-4.27-3.51-7,.08-.33.42-.5.67-.66,1.33-.17,2.17.66,3.17,1.42Zm35.29.5c.42,1.34-.59,2.42-.84,3.51.42,1,1.67,0,2.09,1.17.5,1.51-.58,2.84-.92,4.26-.42.42-.33,1-.92,1.34a2.77,2.77,0,0,0-.42-2.59c-.41-.33-1.08-.58-.92-1.42.34-.84-.25-1.76-1-2.51-.83-.58-1.75.17-2.51.5-.16.42-.25.92-.75,1a2.68,2.68,0,0,0-2.26.16c-1.25.92-1.5,2.68-1.59,4.1-.41.25-.92-.17-1.25-.42a7.1,7.1,0,0,1,2.93-6.44,4.39,4.39,0,0,1,4.18.25c.92-.5.75-1.75,1.42-2.59s2.17-1.67,2.76-.33ZM54.61,38.89l.08-.58h.17l-.25.58ZM27.85,40.31a7.23,7.23,0,0,1,1.26,2.85l.33.25c1.84-1.09,3.93,0,5.44,1,1.17,1.59,2.59,3.18,3,5.1.75.5.42,1.59.83,2.26.09.33-.41.5-.67.58l-.25-.08C36.55,50,36,47,33.29,45.75c-1.34-.34-2.93-.92-4.27-.09-.5-.16-.41-.75-.75-1a4.6,4.6,0,0,0-3.43-1.84c-1.08,0-1.42,1.26-1.84,1.92a5.84,5.84,0,0,0,.26,3.18c-.59,1-1.93,2.18-1,3.51.09.51.75.76.75,1.26-.66-.17-1.25.33-1.92.08-1.09-2-2.09-4.76-.5-6.94.17-.75,1.25-.75,1.42-1.42a4.28,4.28,0,0,1,1.26-4.68,7.19,7.19,0,0,1,3.51-.09l1.08.67ZM7.2,39.9c1.17.58,1.17,2,.84,3.09a1.37,1.37,0,0,1-1,1.09c-.84-.17-2.18.25-2.51-.92-.17-.84-.84-1.68-.25-2.51.66-1.09,1.84-1,2.92-.75Zm72.83,3c.5,1.5.58,3.51-.5,4.76a5.65,5.65,0,0,1,2.17,3.85c-.08,1.34-.34,2.92-1.59,3.51-1.84-.34.17-1.76-.17-2.84a5,5,0,0,0-.67-2.51c-.41-.5-1.08-.5-1.5-1,.33-1.75.5-3.51-.75-4.93a2.66,2.66,0,0,0-2.43-.67c-2.34.67-3.09,3.18-3.68,5.19-.92.25-2-.09-2.92.25-1.59,0-2.43,1.75-2.85,2.92,0,.42-.16.76.26,1.09-.34-.17-.84.08-1-.25a3.26,3.26,0,0,0,.25-2.34A6.06,6.06,0,0,1,68,46.25l2-.33a6.94,6.94,0,0,1,3.77-5.19A4.59,4.59,0,0,1,80,42.91ZM7.45,41.48a1.45,1.45,0,0,1-.25,1.34c-.5.17-.92.84-1.5.42a2,2,0,0,1-.67-2,1.53,1.53,0,0,1,1.17-.75c.58-.08.92.59,1.25,1ZM97.17,42a2.93,2.93,0,0,1-1,2.5,2,2,0,0,1-1.92.09c-.84-.5-2-1.26-2-2.43a3.85,3.85,0,0,1,2.85-1.59A2.65,2.65,0,0,1,97.17,42ZM96,42.07a.9.9,0,0,1-.09,1.42c-.41.5-.92.42-1.5.34-.42-.34-.92-.59-1-1.18a1.36,1.36,0,0,1,1.18-1.17,1.53,1.53,0,0,1,1.42.59Zm-44.32.25a1.4,1.4,0,0,1-.83,1.59c-.34,0-.67.25-.92-.08s-.59-.84-.25-1.34c.58-.25,1.67-1.34,2-.17Zm3.93.42c0,.58-.08,1.34-.75,1.5-.5.09-1.34.09-1.42-.58,0-.5.17-1.17.75-1.26s1.09-.25,1.42.34Zm-7.77.67a1.5,1.5,0,0,1-1.26,1.33,1,1,0,0,1-1.17-.16c.42-.59.09-1.76,1.09-1.93.58-.16,1.34.17,1.34.76Zm-19.9,2.42c.17.5.25,1.17.75,1.26.67-.17.84-1.09,1.67-1A4.88,4.88,0,0,1,35,48.51c1,2,2.26,4.18,1.84,6.44,0,.16.09.33.09.5h-.25c-.92-2.68-2.51-6-5.6-6.52l-1.26.58c-1.09-.84-2.34-2.09-3.85-1.25-.58.92,0,2.17.26,3.17-.51.51-.42,1.34-.92,1.68L24,52.69c-.42-.84-1.42-1.51-1.09-2.68a1.71,1.71,0,0,1,1.42-1.25c.5-.67-.58-1.17-.58-2a3.16,3.16,0,0,1,1-3.18,3.51,3.51,0,0,1,3.18,2.26Zm48.83-1c1,1.5,0,3.18-.25,4.68.5.59,1.67-.25,2,.67a3.19,3.19,0,0,1,.25,2.76c-.16.58-.41,1.34-1.17,1.34-1,0-.33-1.42-.58-1.84,0-1.17-1.51-.76-1.59-1.68a5.25,5.25,0,0,0,.25-3.17,1.89,1.89,0,0,0-1.09-1.17c-.83.16-1.34,1-1.67,1.75l-1,3.68c-.59.25-.92-.42-1.51-.42-.83,0-1.67-.25-2.42.25l-1.67,1.68-.84-.84c.92-.92.84-2.84,2.51-3.09a29,29,0,0,1,3.84-.17c.17-2.09.92-4.68,3.1-5.35a1.8,1.8,0,0,1,1.84.92ZM59,44.74c0,.59-.17,1.26-.76,1.43-.58-.09-1.08.41-1.5-.25a1.61,1.61,0,0,1-.08-1.26c.33-.67,1.08.17,1.42-.5a1,1,0,0,1,.92.58Zm-6.61,1a11.42,11.42,0,0,1-.5,3c-.58-.34-.25-1.09-.33-1.76.08-.92-.09-2,.58-2.76.59.25.17,1,.25,1.51Zm-3.43-.42c0,1.42.09,2.84,0,4.18A11.4,11.4,0,0,1,48.17,45c.25-.67.92-.17.75.33Zm1.76,0c-.08,1.17-.17,2.42-.25,3.6l-.25.16c-.42-1.25-.17-2.34-.34-3.68-.08-.58.84-.58.84-.08Zm3,.08a8.71,8.71,0,0,1-.08,3.6c-.59.25-.51-.5-.67-.75a10.87,10.87,0,0,1,.58-3l.17.16Zm1.76.59a4.7,4.7,0,0,1-.59,2.42,7.27,7.27,0,0,1,0-3c.42-.33.67.25.59.59Zm-11,.67a2.45,2.45,0,0,1-1.25,1.59.75.75,0,0,1-1-.42,2.49,2.49,0,0,1,1-1.59c.66.17.41-1,1.17-.75l.08,1.17Zm2.67-.75c.59,1.25.42,2.84.59,4.09-.67.09-.92,1.09-1.67.92l-1.09-2.76.59-1.75c.83,1.08.25,2.92,1.17,3.93.41.08.5-.25.58-.5l-.67-3.68c.09-.25.25-.42.5-.25Zm-31,1.58c.33.17.58.59.41.84a5.64,5.64,0,0,1-2.92,1.76c-1.09,0-2.18-.59-3.35-.34-.33.09-.42-.33-.25-.58a44,44,0,0,0,3.93-2.93,2.51,2.51,0,0,1,2.18,1.25Zm72.15.17c.92,1.42,2.26,2.34,2.93,3.76-.59.51-1.59.17-2.34.59-2,0-3.18-2.34-4.27-3.85-.08-.58-.42-1.25-.25-1.84,1.51,0,2.59,1,3.93,1.34Zm-31.35,0A12.27,12.27,0,0,1,56,49.76c-.42-.75.08-1.84.42-2.59.25,0,.58.17.5.5Zm1.5.42c-1,.58-.58,2-1.42,2.42l-.08-.33,1-2.84c.67-.59.67.41.5.75Zm3.1-.17a1.54,1.54,0,0,1-1.09,1.51.85.85,0,0,1-1-.67c.16-.17-.09-.67.25-.84.58-.17,1.75-1.34,1.84,0ZM45.25,51.68c.08.34-.26.59-.51.76-.83-.76-.75-2-1.42-2.85-.08-.41.34-.66.67-.75,1,.5.59,2,1.26,2.84ZM41.57,50.1a1.39,1.39,0,0,1-1,1.75c-.67.25-.83-.5-1.17-.83a1.55,1.55,0,0,1,.25-1.34c.34-.25.34.33.67.25.34-.5,1.34-.84,1.26.17ZM58,51.43a1.92,1.92,0,0,1,.67-1.67A2,2,0,0,1,58,51.43Zm-.5,1.09a7.9,7.9,0,0,1,.5,6,.76.76,0,0,0,.59.84,2.24,2.24,0,0,1,2.17-.09c.92.84,2,1.76,2,3a7,7,0,0,1-2.26,6c-.25.17-.5.5-.83.42.08-.67.75-1.17,1.08-1.84.67-1.42,1.09-3.51,0-4.93-.92-.84-2-1.84-3.34-1.34a2.22,2.22,0,0,1-1.26-.08c.34-2.18.76-4.77-.58-6.78A5.27,5.27,0,0,0,49.93,52c-3.1,1-4.6,4.43-4.68,7.44-.67.17-1.51.17-2.18.33-1.84.67-2.34,2.76-2.51,4.52A8.2,8.2,0,0,0,44.41,71l-.08.08a7.64,7.64,0,0,1-4.6-4.76c-.67-2.18-.84-4.94.83-6.69a4,4,0,0,1,2.85-1.09c1-1.67.75-3.85,2.09-5.35,2.09-2.93,6.1-3.76,9.53-2.76a9.73,9.73,0,0,1,2.42,2.09Zm6.44-1.67a2.22,2.22,0,0,1-1.34,1.84.78.78,0,0,1-.92-.67,1.5,1.5,0,0,1,.25-1.17c.51-.59,1.76-1.17,2,0Zm-48.66,2a4.27,4.27,0,0,1,.25,4.34c-.33.34-.92.25-1.34.25-.75-.67,0-1.75-.58-2.67a4.88,4.88,0,0,0-4.18-.59A6,6,0,0,0,6.2,57.7c-.84,3.43,1.25,6.53,4,8.37,1.67,1,3.43,1.75,5.1,2.67-.25.59-1.17.42-1.67.84a1.84,1.84,0,0,1-2.59.08,20.18,20.18,0,0,1-7.36-8.11c1.09-1.34-.58-2.67.08-4.26.51-3,3-6.11,6.11-6.78,2,0,4.35.42,5.35,2.35Zm44.48-2.1a6.63,6.63,0,0,1-.84,1.76,3,3,0,0,1,.76-1.84l.08.08Zm-15.64,2.6c-.08.25-.08.67-.41.67a5.81,5.81,0,0,1-1.09-2.43l.08-.84c1,.59.59,1.84,1.42,2.6ZM59.38,54c-.26-.34.33-.42.25-.76.25-.58.33-1.25.92-1.67.16.92-.67,1.76-1.17,2.43ZM95,54.11l1.59,1.42c.09,1.51.75,2.68.59,4.18a10.47,10.47,0,0,1-3.1,7.11A12.74,12.74,0,0,1,86.63,70a10.63,10.63,0,0,0-6.27-.26c2.18-1.33,4.85-1.5,7.28-2.42a9,9,0,0,0,7.19-6.61,4.74,4.74,0,0,0-1.43-4.26c-1.08-1-2.75-1.67-4.09-1a3.81,3.81,0,0,0-1.84,1.33c-.25.76.42,2-.75,2.18a2.73,2.73,0,0,1-1.93-.67A2.2,2.2,0,0,1,84.46,56a5.58,5.58,0,0,1,3.09-2.59c1.67-1.25,3.68-1,5.6-.5L95,54.11ZM41.82,52.52A11.34,11.34,0,0,0,43.16,55l-.09.84h-.25A29,29,0,0,0,41.23,53c-.08-.42.25-.5.59-.5ZM55.11,55c.84,2.34,0,4.59-.5,6.85l.25.25c1.51-.25,3.76-1.25,5,.42,1.08,1.09.25,2.84-.17,4.1-.75,2.09-2.93,2.92-4.6,4.26.08-.67.92-.75,1.09-1.34.67-1.33,1.67-3.17.67-4.51a2.67,2.67,0,0,0-2.59-1.51c-.34.09-.67.42-1,.25-.33-.92.25-2,.25-3,0-1.67.09-3.59-1.67-4.34a2,2,0,0,0-2.26.08,5.07,5.07,0,0,1-1,.84c-1.25,1.5-1.17,3.93-1,5.68-.42.67-1.59.25-2.18.75a2.81,2.81,0,0,0-1.34,2.09,7.27,7.27,0,0,0,3.77,5.69c-2.43-.67-4.94-2.34-5.86-4.77-.92-1.58-.33-3.67.34-5.18a3.33,3.33,0,0,1,3.51-1c.42-.17.17-.76.17-1,.25-2.59,1.34-5.35,3.84-6.43A4.35,4.35,0,0,1,55.11,55Zm-14.8-1.43a2.3,2.3,0,0,1-1.08,1.76.91.91,0,0,1-1.34-.59,1.79,1.79,0,0,1,.67-1.42c.67.42,1.42-.75,1.75.25Zm21.32.17a10.21,10.21,0,0,1-2.09,3c-.58-1.17.92-2.17,1.34-3.18.25-.41.84-.16.75.17Zm3.77.25c.08.75-.59,1.26-1.26,1.51-.42.16-.5-.34-.67-.5a2.14,2.14,0,0,1,1-1.51c.33,0,.83,0,.92.5ZM27.85,56.2A5.65,5.65,0,0,1,30.53,56C32,56.78,34,57,34.63,58.88c.92,2.09,1.67,4.26,2.76,6.35l-.09.08A19.08,19.08,0,0,1,34,60.71,8,8,0,0,0,31,58l-2.68-.17a10.26,10.26,0,0,0-3.93-2.59,2,2,0,0,0-1.84.25c-.67.33-.5,1.08-.41,1.59C22.5,58.54,24,59.21,25,60.3l1.59,1c.42,3,2.51,6.69,5.77,7.52,1.09.34,2.17.59,3.18,1V70A10.12,10.12,0,0,1,29,68.57a8.73,8.73,0,0,1-3.42-4.68c-.42-.67.41-1.67-.5-2.09-2.26-.08-4-2.17-4.85-4.1-.26-.92-.76-2.09,0-2.92a3,3,0,0,1,2.92-1.26c1.84.25,3.76.76,4.68,2.68Zm34.54-.75c-1.09.83-1.26,3.17-3,2.51-.26-.09,0-.26-.09-.42.25-.25.59.25.92,0a10.14,10.14,0,0,1,2.09-2.85.62.62,0,0,1,.09.76ZM42.82,57.12c.17.25-.25.42-.5.5-.84-.33-.84-1.5-1.51-2.17-.08-.25.09-.5.25-.76.84.51.76,1.93,1.76,2.43ZM12.89,55.7l-.09.42c-1-.42-2.17.16-3.09.41A6.92,6.92,0,0,0,10,63.81l.84,1.42c-2-1.09-4-3.43-3.85-6a4.47,4.47,0,0,1,2.34-3.93c1-.59,3-.92,3.6.42Zm67.3.58c1.17,1.34.34,3.18-.41,4.43a3.56,3.56,0,0,1-2.51,1.84c-.42.59-.09,1.43-.34,2a9,9,0,0,1-5.85,5.18,9.87,9.87,0,0,1-8.53,1c.5-.59,1.26-.17,1.93-.42s1.58-.08,2.17-.59A10,10,0,0,0,75,64.56l.34-2.17c1.33-1,3.34-1.51,3.59-3.43A2.71,2.71,0,0,0,77.44,57L75.76,57A19.2,19.2,0,0,0,73,58.71a5.28,5.28,0,0,0-5.18,1.34c-.92,1.42-2.68,2.67-3.18,4.43l-.25.16c.84-2.59,1.84-5.35,4-7.52.58.17.92-.42,1.5-.5,1.25-.34,3-.5,4.1.33.5-.08.58-.67.92-.92a4.06,4.06,0,0,1,5.26.25ZM28,59A3.55,3.55,0,0,1,31,59c1.92,1.17,3.09,3.43,3.93,5.27-.59,0-.84-.92-1.51-1.09-.83-.42-2-1.09-3-.5a1.74,1.74,0,0,0-.58,2.26C30.53,66.57,32.2,67,33.46,68a4.67,4.67,0,0,1-2.85-1.17,8.25,8.25,0,0,1-3.09-6,14.17,14.17,0,0,1-4.43-3.68A1.72,1.72,0,0,1,23,56.2c.34-.42,1.09-.17,1.51,0A10.53,10.53,0,0,1,28,59ZM66.4,56.78a1.35,1.35,0,0,1-.75,1,.81.81,0,0,1-.76-.59c-.16-.83.84-.75,1.09-1.25.5-.08.42.58.42.83ZM40.65,57c0,.42.67.92.16,1.26-.41-.09-.33-.51-.58-.76-.25-.41-.84-.25-.92-.75,0-.33.42-.42.58-.58.59-.09.67.58.76.83Zm52.59.5A4.28,4.28,0,0,1,93.82,61C93,62.64,92,64.64,90.06,65.31c1.09-1.67,3-3.09,2.68-5.35a3.62,3.62,0,0,0-1.68-2.42,2.33,2.33,0,0,0-2.42.25c-.34-.09-.34-.59-.17-.75.42-.67,1.17-.67,1.84-.92a5.92,5.92,0,0,1,2.93,1.33Zm-29.43-.92a26.26,26.26,0,0,0-2.09,2.26c-.25,0-.34-.25-.34-.42.17-.83,1.09-1.59,1.59-2.17a1,1,0,0,1,.84.33Zm-25.17,1A1.43,1.43,0,0,1,37.8,59a1,1,0,0,1-1.25-.58c0-.59-.08-1.42.5-1.68.59.34,1.34,0,1.59.76Zm25.5.67c-.58.5-.67,1.5-1.42,1.58-.42-.75.59-1.42,1-2a.4.4,0,0,1,.42.42Zm13.55.16c.33.42.08,1-.09,1.34a8.6,8.6,0,0,1-3.26,2.09c-.33.5.17,1.17-.08,1.76-.75,2.51-3,4-5.35,4.85h-.59l.17-.25c1.5-.84,3.34-1.93,3.93-3.6a2.55,2.55,0,0,0-.75-2,2.37,2.37,0,0,0-2.43-.33c-1.84,1.17-3.18,3-4.68,4.35,1.76-2.68,3.26-6.69,7.11-7.11l1.5.42C74.51,59,76.1,57,77.69,58.37Zm-12,.59c0,.33-.51.17-.67.33l-1.17,1.42a20.83,20.83,0,0,1,.92-2,3.1,3.1,0,0,1,.92.25ZM38.81,60.71c0,.17-.09.42-.25.42-.42-.25-.42-.67-.42-1.08a4,4,0,0,0,1.5-1.34c.51.67-.67,1.34-.83,2ZM38,63.14c.34.25.17.67.17,1-1.09-1.25-1.34-2.84-2-4.26.25-.25.59.08.84.17.58.92.5,2.09,1,3.09ZM18.82,61.89c.51.5.34,1.5.17,2.09-.5.58-.75,1.67-1.67,1.75a4.17,4.17,0,0,1-2-.75,2.71,2.71,0,0,1-.25-2.84c.34-.67,1.09-.76,1.67-1.09a2.75,2.75,0,0,1,2.09.84Zm45.15.5h-.08a.62.62,0,0,1,.33-.67.53.53,0,0,1-.25.67Zm-45.73.33a1.86,1.86,0,0,1-1.09,2A1.1,1.1,0,0,1,15.73,64a1.75,1.75,0,0,1,.84-1.93,1.47,1.47,0,0,1,1.67.67Zm67.22-.17a2.06,2.06,0,0,1,.34,2.26A2,2,0,0,1,84.37,66c-.83.34-1.42-.42-1.92-.75-.33-.67-1.17-1.25-.58-2A2.3,2.3,0,0,1,84.12,62a2,2,0,0,1,1.34.58ZM85.13,64c0,.5-.17,1-.67,1.08-.59.42-1.09-.25-1.51-.58a.93.93,0,0,1-.08-1.26c.75-.75,2.34-.42,2.26.76ZM69,64.48v-.17h.08l-.08.17ZM10.63,70.33c.33.25.92.5.84.92s-.51.75-.84.92a7.1,7.1,0,0,1-2.68,0c-.66-.75,0-1.67.26-2.43.83-1.42,1.58.51,2.42.59ZM27.27,76c1,2.67,2.42,6.43.5,9,0,.5-.42.83-.5,1.17-.67-.34-.25-1.34-.67-1.84a28.29,28.29,0,0,0-1.09-4.69c-.75-1.67-1-3.59-2.59-4.85-1.67-2-4.18-3.42-6.94-2.67-.92.67-2.34.92-2.51,2.26-.58,1.17.25,2.42,1,3.42A1.57,1.57,0,0,0,16,78c.42-.42,1-.25,1.59-.17.59.59,1.09,1.59.5,2.35-.42,1-1.5,1.08-2.42,1.17a5.26,5.26,0,0,1-3.51-2,6.59,6.59,0,0,1-.84-6.1A7,7,0,0,1,18,69.49c4-.08,7.69,3.1,9.28,6.53Zm66.22-4.27-.17.34c-1.17.25-2.42.75-3.51.5-.42-.67-1.25-1.09-1.42-1.84.33-.42.92-.17,1.34-.42a11.64,11.64,0,0,1,1.5-.59c1.34-.25,1.67,1.18,2.26,2Zm-4.68,1c.58,2.26,1.08,5.52-.67,7.53a5.81,5.81,0,0,1-2.43,2.09c-1.08-.17-2.17.08-3-.75a2.37,2.37,0,0,1,.17-2.34c.33-.67,1.25-.51,1.84-.42a1,1,0,0,0,1.17.08,2.4,2.4,0,0,0,.84-2.59,4.66,4.66,0,0,0-2-3,5.14,5.14,0,0,0-4.68.92c-3.85,3.18-3.93,8.28-4.6,13-1.09,2.43-1.84,5.44-4.52,6.86a11.59,11.59,0,0,1,1.59-3c.84-2.51.5-5.27,1.09-7.69a18.61,18.61,0,0,1,.33-4.85c.76-3.51,3.35-7.19,7-8,2.76-.67,6-.5,7.86,2.17Zm-57.28-2c-.41.5-.08,1.25.09,1.75.92,1.26,2.42,1.59,3.76,2a1.27,1.27,0,0,1-1.09.67,5,5,0,0,1-3.51-.84,3.44,3.44,0,0,1-1.25-2.51,2.81,2.81,0,0,1,1.08-1.5,1.55,1.55,0,0,1,.92.42Zm2.76.25c-.25,1.09,1,1.5,1.67,2h.42c-.33.5-1,.41-1.59.5-.92-.5-2-.76-2.5-1.68a.93.93,0,0,1,.5-1,3,3,0,0,1,1.5.17Zm28.18,2c.92,1.17,1.75,3,.92,4.34-.84,2.26-3.26,2.43-5.19,2.51a3,3,0,0,0-2.42,0,5.4,5.4,0,0,1-4.68,3.68c-2.34-.08-4.93-.5-6.19-2.68-.17-.66.17-1.75-.5-2.17a5.88,5.88,0,0,1-5.85.75,4.72,4.72,0,0,1-2-3.68c.5-1.83,1.84-4.26,4-4.43l.25.09c-.92,1.17-1.92,2.76-1.08,4.34a3.25,3.25,0,0,0,2.42,1.76c1.26.25,2.18-.25,3.35-.33.83,1.42,1.17,3.67,3.17,4a6.26,6.26,0,0,0,6.52-2.84c1.59.33,3.68.58,4.94-.76a4.53,4.53,0,0,0,.25-4.26,12.37,12.37,0,0,0-1.67-1.84c1.42-1,2.59.75,3.76,1.51Zm-18.9-1c-.33.42-.08,1.09.09,1.51.83,1.42,2.42,1.33,3.76,1.5.58,1.09.67,2.76,2.26,3.1a3.81,3.81,0,0,0,2.17-.26c.92-.75.84-2.09,1.67-2.84a3.11,3.11,0,0,0,2.59-.75c.76-.5.59-2,1.68-2a2.86,2.86,0,0,1,2,2c.17.92.25,2.34-.75,2.93a4.75,4.75,0,0,1-4.1-.17c-.83.08-.5,1.09-1.08,1.59a5.66,5.66,0,0,1-4.94,1.67c-1.84-.5-2.25-2.59-2.5-4.1-.51-.58-1.09.17-1.68.17a4.56,4.56,0,0,1-4-.5,2.6,2.6,0,0,1-.08-2.59c.41-1,1.33-1.17,2-1.93a.9.9,0,0,1,.92.67Zm26.59,1.17a2.15,2.15,0,0,1-.25,1.59A2.87,2.87,0,0,1,67.4,76a3.78,3.78,0,0,1-2.34-1c1.34-.08,3,.09,3.68-1.42.25-.58-.42-1-.17-1.42.76-.17,1.17.5,1.59,1Zm-2.42-.08c.16.75-.59.75-.92,1-.67-.08-1.51.09-2.09-.33.41-.5,1.42-.42,1.5-1.26.59-.67,1.09.17,1.51.59ZM23.84,77.6a26,26,0,0,1,1.67,6.69c-.83-1.08-.92-2.59-1.5-3.76-1.26-2.59-3.43-5.94-6.61-6.19a1.92,1.92,0,0,0-2.09,1c-.33.58.09,1.33-.08,1.75a2.19,2.19,0,0,1-.92-2.34,3.57,3.57,0,0,1,3-2c2.93-.08,5.18,2.76,6.52,4.85Zm61.71-2.17a3.36,3.36,0,0,1,.25,2.17.8.8,0,0,1-1.17.25c-.42-.66-.09-1.92-1.17-2.25-.92-.84-2.51-.34-3.52,0,.76-1.09,2.09-1.26,3.18-1.76a3,3,0,0,1,2.43,1.59Zm-50,.59c.41,1.75,1.17,3.84,3,4.51a5.8,5.8,0,0,0,4.85-.25c.75.08.41,1.17,1,1.59A6.91,6.91,0,0,0,47.25,84l.25.33-.83.09a5.85,5.85,0,0,1-2.6,3.42A3.46,3.46,0,0,0,44,85.05a3.15,3.15,0,0,0-1.67-1.26c-.84,0-1.34.59-1.92,1.09a2.8,2.8,0,0,0-.51,2.42,3.39,3.39,0,0,0,3,1.51c-.33,1.17-1.75.92-2.5,1.67a7.58,7.58,0,0,1-5.27-.42,2.31,2.31,0,0,1-.92-2.26c.08-.41.33-1,.83-1,1.09,0,1.84,1.34,2.93.34a4.13,4.13,0,0,0,.84-4.6c-.84-1.84-2.85-2.68-4.68-3-.59,0-1.43.5-1.84,0,.33-1.09-.09-2.09,0-3.26.92-.25,1.92,0,2.92-.25Zm33.69.58h.17c.08,1.51-.5,3.26.08,4.85-.33.33-.75-.17-1.25-.17a7.08,7.08,0,0,0-6.11,3.1A4.44,4.44,0,0,0,62,87.64,2.93,2.93,0,0,0,64.73,89a5.67,5.67,0,0,0,1.42-.92c.5.25.33.92.33,1.42-.5,1.75-2.42,1.84-3.93,2-.75-.33-1.75-.08-2.34-.75-1.34-.08-2.59-1.42-3.26-2.51.34-.67,1.67-.42,1.92-1.42.59-.92.09-2-.33-2.84a2,2,0,0,0-2-.67c-.75.75-1.92,1.59-1.75,2.84-.09,1.09,1.33,1.26,1.17,2.34a8.7,8.7,0,0,0,7.77,4,8.38,8.38,0,0,0,1.93-.59,3.55,3.55,0,0,0,1.92-2.76A4,4,0,0,0,66.82,87c0-.34.16-.75.58-.67.67.08.67.84.92,1.34a5.54,5.54,0,0,1-2.26,5,7.6,7.6,0,0,1-6.35.67c-3.09-1.42-6.61-3.93-7.11-7.61l-.08-1.33c1.76-.51,2.93-2.09,3.93-3.52,2-.16,4.1,0,5.94-.83a7.14,7.14,0,0,0,2.5-3.76c1.34.5,2.93,1,4.35.33Zm-37.71.75c-.08,1.51,0,3.1-1.5,3.77-.59-.09-.42-.92-.59-1.43l-.58-2.42c.67-.59,2.42-1.17,2.67.08Zm41.31,1.76c-.42,1.59-.09,3.34-.42,4.85a6.32,6.32,0,0,1-2.26-5.6c.08-.59.59-.92,1.09-.59s1.42.67,1.59,1.34ZM37.89,82.87a3,3,0,0,1-.17,3c-.42.09-.58.75-1.09.42a3.19,3.19,0,0,0-1.33-2.09c-1.43-.59-2.76.33-3.93,1.17a4.85,4.85,0,0,0-.09,5.18c2,2.68,5.44,3.6,8.7,3.26.83.09,1.17-1,1.92-.58.92-.34,1.51-1.25,2.51-1.51,1.34-1.25,2.09-3,3.18-4.34a11.08,11.08,0,0,1,.92,2.25,14.59,14.59,0,0,1-4,5.1A9.32,9.32,0,0,1,38,96.58c-3.51-.5-7.19-1.75-9.11-4.93A8.83,8.83,0,0,1,29.61,83a5.63,5.63,0,0,1,3.93-2.51c1.67.25,3.6.59,4.35,2.34ZM72,85.21a16.49,16.49,0,0,1-.17,4.94c-1,2-2.09,4.34-4.34,5.26a10.72,10.72,0,0,1-5.1,1.17c-2.93-.16-5.94-.25-8.2-2-2.59-1.26-3.59-4.1-5.18-6.19a8.73,8.73,0,0,1-.34-3.85,10,10,0,0,1,2.68,0c.5.84.33,1.93.75,2.85a12.22,12.22,0,0,0,9.62,7.27c.41-.25.75.08,1.08.17,2.6-.42,5.35-1.84,6.19-4.52a5.21,5.21,0,0,0-.58-4.6,1.69,1.69,0,0,0-1.84-.25c-1.17.67-1.09,3.18-3,2.34-.51-.08-.76-.66-1-1.08-.08-1.67,1.17-3,2.34-3.85a13,13,0,0,1,3-.67,4.88,4.88,0,0,1,4.1,3Zm-48.49-.16a3.76,3.76,0,0,1-1.17,3.26,3.18,3.18,0,0,1-3.26-1.17c-.34-1-.59-2.18.25-3a2.27,2.27,0,0,1,2-.76,3,3,0,0,1,2.18,1.68Zm-.92.33a2.51,2.51,0,0,1-.84,2.17,1.78,1.78,0,0,1-1.67-.67,2.3,2.3,0,0,1-.25-1.83,1.51,1.51,0,0,1,2.76.33Zm35.53.17c0,.5-.17,1.25-.83,1.33-.51,0-1.51.17-1.51-.75.08-.58.17-1.34.84-1.59.83-.92,1.42.34,1.5,1Zm24.16-.92a2.82,2.82,0,0,1,.92,3c-.41,1.34-1.75.92-2.67,1.17a3,3,0,0,1-2.26-1.76,2.58,2.58,0,0,1,.92-2.26c.92-.75,2.17-.33,3.09-.16Zm-39,1.42c-.08.58-.08,1.42-.83,1.59a1.49,1.49,0,0,1-1.68-.92c-.25-.59.25-1,.59-1.42a1.13,1.13,0,0,1,1.92.75Zm-7.94-.42c-.42.34-1.42,0-1.67.84-.67.83-.5,1.59-.42,2.67.67,2.18,3.09,2.34,4.85,2.76,1.34.09,2.09-1.09,3.43-.83,1.75-.59,3.26-2.68,4.76-3.68a8,8,0,0,1-4.68,4.93l-.25.25c-3.18.75-7.11.33-9.28-2.34-.92-.75-.67-2.09-.5-3.09a3.15,3.15,0,0,1,2.25-2.09c.59,0,1.26-.09,1.51.58Zm46.9.5a1.24,1.24,0,0,1-.08,1.51c-.58.58-1.42.33-2.17.25-.67-.25-.76-.92-.84-1.51A1.19,1.19,0,0,1,80,85.21c.83,0,1.92,0,2.25.92Zm-31,7.44a4.11,4.11,0,0,1-2.85,2.51c-.67-.33-1.75-1-1.75-2l2.42-3.18h.25l1.93,2.67Z"/></svg>