<svg id="Layer_1" data-name="Layer 1" xmlns="http://www.w3.org/2000/svg" viewBox="0 0 100 100"><defs><style>.cls-1{fill:#a64787;fill-rule:evenodd;}</style></defs><title>Bg5</title><path class="cls-1" d="M40.78,1.28l2.13,1.28a20.73,20.73,0,0,1,5,8.08.34.34,0,0,0,.42.14,14.84,14.84,0,0,1,3-3.4,1.41,1.41,0,0,1,1.27.85c.78.85,1.21,2,2,3,.28,0,.35-.35.42-.56A26.39,26.39,0,0,1,59.28,3C60.55,1.42,62.4,1.28,64,.78a11.75,11.75,0,0,1,6.8.64L72,2.2a14,14,0,0,1,3.41.07,4.5,4.5,0,0,1,2.55.43,4.56,4.56,0,0,1,2.34.49A15.13,15.13,0,0,1,83.94,5C85.5,6,87.2,7.38,87.63,9.29c-.07.92.07,2-.57,2.62a2.91,2.91,0,0,1-2.84,1.14c-.63.35-.49,1.2-.85,1.77-.85,1.2-2.41.85-3.61.64-3.54-.93-5-5.53-8.86-5a3.85,3.85,0,0,1-2.27,1.7c-1.34.15-2.27-1-3.4-.85A6.81,6.81,0,0,0,62,15.1l.14.07a6.77,6.77,0,0,1,6.24-.71,1.93,1.93,0,0,1,.92,1.7c-2.13,1.21-2.9,3.48-3.68,5.53a11.2,11.2,0,0,0,.85,6.17.65.65,0,0,1-.29.42,4.64,4.64,0,0,1-1.56-1.91A9.48,9.48,0,0,1,65,18.08c.07-.57.78-1.07.49-1.7A5,5,0,0,0,60.62,19a14.25,14.25,0,0,0,.85,8.43c.22.64.71,1.42.22,2.06a.7.7,0,0,1-.5.14,15.58,15.58,0,0,1,.71-17.08c.64-.92,1.42-1.56,2.13-2.41a1.31,1.31,0,0,0-.78-.92,5.29,5.29,0,0,0-2.34,2.2c-2.91,3.61-3.19,8.57-3,13,.21.56.14,1.27.35,1.84a.35.35,0,0,1-.49.07c-1.56-3.05-1.21-6.87-.5-10.21S59.56,9.08,63,7.87c1.56-.64,2.77.64,3.83,1.49.64-.07,1.21.21,1.56-.28a1.2,1.2,0,0,0,.21-1.56c-.21-.29-.49-.71-.21-1,.64-.29,1.56,0,2-.71a1.33,1.33,0,0,0,.22-1.35c-.57-.92-1.56-1.06-2.27-1.56L65.87,2.7a12.48,12.48,0,0,0-8.72,6.59c-2.34,3.69-3,7.8-2.83,12.47.21,1.56,1.41,2.84,2,4.33.5.56-.07,1.13,0,1.77-.21.42-1-.14-.92.57-.07.42.35,1.06-.21,1.27-.36-.07-.36-.57-.36-.92a3.57,3.57,0,0,0-.42-1.7l-.15.14a7.58,7.58,0,0,1,.08,2.84.27.27,0,0,1-.43,0,12.49,12.49,0,0,0-.78-4.26l-.21.14a28.7,28.7,0,0,1-.07,4.26c-.14,0-.29.14-.43,0-.07-1.92.21-4.4-.78-6.1l-.07.14a28.92,28.92,0,0,1,0,6.1.32.32,0,0,1-.35,0A32,32,0,0,0,50.63,24l-.14.21-.28,6.24a.5.5,0,0,1-.36.28l-.21-.28c0-2,.42-4.61.14-6.45-.92,1.42-.92,3.76-.92,5.53,0,.35.21.78-.21,1-.22.07-.36-.21-.36-.35A28.55,28.55,0,0,1,48.93,24l-.07-.07c-1.21,1.91-1.35,4.54-1.56,6.73a.32.32,0,0,1-.35,0c-.29-2.05.35-4,.85-5.88-.08-.35.42-.64.21-1-.29.14-.29.49-.43.71a14.13,14.13,0,0,0-1.49,6.3.31.31,0,0,1-.49.15,13.7,13.7,0,0,1,1.06-5.82L46.52,25c-.85.71-.78,1.78-1.35,2.63-.07.14-.21.07-.35.07-.21-.64.5-1,.42-1.63-1,.28-.92,1.63-2.12,1.7.14-1.63,1.42-2.91,2.27-4.25.92-1.14,2-1.92,2.9-2.91.71-.35,1.28-1.35,2.13-.92,1.2.42,2,1.42,3.12,2l.21-.49A28.68,28.68,0,0,1,54,14.25c-.85-1.27-1.27-3-2.55-4-1,1.35-2.76,2.41-2.83,4a23.07,23.07,0,0,1-.29,5.53c-.07.21-.28.14-.42.14-.43-.92.21-2.13.14-3.19A15.34,15.34,0,0,0,41.63,4.12C39.36,3,36.74,1.64,34.19,2.7c-.85.28-1.14,1.06-1.42,1.77s.64.92,1.13,1.06A1,1,0,0,1,35,5.68c.28,1.06-1.21,2.05-.21,3.18.42.71,1.27.71,2,.71.64-.28,1.49.22,1.84-.49A2.29,2.29,0,0,1,41,8.86c.71-.28,1.14.29,1.63.5a13,13,0,0,1,3,12.9c-.07.07-.21.21-.36.14l-.14-.14c.64-3.05-.07-5.74-.56-8.43a4.52,4.52,0,0,0-4-3.05.26.26,0,0,0-.22.42c1.85,1.78,2.13,4,2.91,6.31a26.06,26.06,0,0,1,.07,6.24c-.42,1.56-.5,3.19-1.7,4.32-.14.07-.21,0-.28-.14a18.35,18.35,0,0,0,.78-8.79,3.57,3.57,0,0,0-2.77-3c-.71-.07-1.7-.49-2.12.22,2.19,3,3,7.51.92,10.77a17.41,17.41,0,0,1,1.7,3.69c.42.7.92,0,1.34-.22.5-1.13,1.85-1.41,2.7-2.27,1.13.29.07,1.49.28,2.2s.14,1.7.85,2.13a16.94,16.94,0,0,1,3-1.07c.28,0,.42.22.42.5-.92,2.06-1.7,4.61-.85,7A6.84,6.84,0,0,1,48.79,43c0,.22-.36.29-.5.15-.28-.71-1-.93-1.34-1.49a8.43,8.43,0,0,1-1.71-5.81c-.35-.71-1.41.56-1.7-.64A22,22,0,0,0,42.48,32a3.7,3.7,0,0,0-1.7,2.62c-.14.43-.57.5-.78.21a29.49,29.49,0,0,1-2-3.33c-.57.22-.64.93-.86,1.42-.85,2.06.64,3.76.93,5.6A8.07,8.07,0,0,1,38,47.35c-.93,1.63-2.56,3.12-1.85,5.31a6.6,6.6,0,0,0,1.14,2.2.62.62,0,0,1-.22.43A2.52,2.52,0,0,1,35.82,54c-2.13-3.33,0-6.31,1.27-9.35A11.76,11.76,0,0,0,37,41.11a19.42,19.42,0,0,0-1.06-2.2.43.43,0,0,0-.21-.49c-.15.21-.36-.07-.5.07C32.77,42,30.43,45.93,31.57,50.4c0,1.63.85,3,1.13,4.39.35.85,1,1.63.92,2.55-.21.36-.64.21-.85,0-1.7-1.77-2.05-4.18-2.69-6.38-.07-1.41-.57-2.62-.36-4l.57-3.12a38.67,38.67,0,0,1,2.34-4.39c-.36-1.06-1.42-1.35-1.91-2.27a8.33,8.33,0,0,1-1.42-3.9c0-.49,0-.77-.43-1.06C28,32,27,34.87,26.53,32.75a18.93,18.93,0,0,0-1.27-4.32.63.63,0,0,0-.78-.36,20.48,20.48,0,0,0-3.83,5.1c-.21.22-.64.36-.78.07A6,6,0,0,0,17.11,30c-.43-.14-.36.36-.5.57l-.42,3.33a5.23,5.23,0,0,0,1.06,2.2,7,7,0,0,0,1.06,2.55c.92-.49,1.49-1.77,2.55-2.13.22-.21.43-.77.85-.49l.64.71a21.39,21.39,0,0,1,1.49,8.71A20.71,20.71,0,0,1,23.27,48l.07.49a8.57,8.57,0,0,1,4.82,3.4c.22,1.14,1.14,2.13.78,3.34a.76.76,0,0,0,.5.63c1.13-.07,1.77,1.21,2.55,1.85.28,1.27.85,2.69-.42,3.68-.85-.07-1.42-.71-2.34-.49a2.6,2.6,0,0,0-1.7,1.62,1.76,1.76,0,0,0,.56,1.64,5.7,5.7,0,0,0,4.4.92,6.17,6.17,0,0,0,3.12-1.63c.14-.5-.43-1.07-.43-1.7A12.63,12.63,0,0,1,35,55.43c.92-.07,1.27,1.06,2.05,1.34.36.08.71.57,1.07.36.49-.85.42-1.91.78-2.77.35-1.63,1.63-2.76,2.55-4.18.92-.63,1.84-1.41,2.69-2.12,1.77-1.28,4.32-1.56,5.25-3.83,1.06.07,1.34,1.56,2.41,1.63,2.4,1.56,5.1,2.62,6.87,5a8.3,8.3,0,0,1,2.2,4c.14.85-.14,1.91.71,2.34C62.68,56.77,64,58,65,57c.35-.29.49-.78.92-.71.21,2.62-.78,5.17-1.77,7.51a3.58,3.58,0,0,0,2.9,1.49c1,.57,2.2.21,3.4.28.43-.07.78-.42,1.28-.28.64-.5,1.42-1,1.28-1.91.07-1-.85-1.63-1.7-2s-2.63.85-2.63-.78a4.78,4.78,0,0,1,2.7-4.75c.7-.35,1.48.07,2.12-.21A6.06,6.06,0,0,1,77.92,51l.21-.21a19.71,19.71,0,0,1-.36-9.5,9.62,9.62,0,0,1,1-2.69c.92-.35,1.63.5,2.41.85l1.48,1.28.36-.15a16,16,0,0,1,2.41-4.81,5.76,5.76,0,0,0-1-3.26l-.36.07c-.85,1.2-2,2.33-2.76,3.61-.21.14-.5.21-.64.07-1.06-2.27-1.49-4.89-3.54-6.59-.29.14-.14.57-.29.85l-1,3.47c-.28.29-.57.57-1,.29l-2.41-2.06c-.57.21-.5,1.14-.64,1.63a15.53,15.53,0,0,1-3.4,8A19.24,19.24,0,0,1,71,48.06c0,2.41-.07,4.67-1.2,6.73a10.42,10.42,0,0,1-2.84,3.9c-.28-.57.71-1,.92-1.63a12.62,12.62,0,0,0,.29-11.27c-1-1.7-2.34-3-3.41-4.68-.14-.07-.49-.28-.56.07-2.06,3.26.49,6.24,2.19,8.93a4.6,4.6,0,0,1-.49,4.75c-.36.14-.57.64-1.06.43.07-.36.56-.71.63-1.14.85-3.61-3.82-4.53-4.25-7.86a8.84,8.84,0,0,1-.07-4.89A48.67,48.67,0,0,0,64,35.16a13.2,13.2,0,0,1,.5-2.27c-.64-.21-1.2.5-1.77.64-.71.42-1.35,2-2.41,1.27S59,32.75,58.14,32c-.92.64-1.13,1.84-1.49,2.76-.7.64-1.63-.7-2,.29a11.47,11.47,0,0,1-1.77,6.73,7.5,7.5,0,0,1-2,1.06c-.63-.92.64-1.48,1-2.19,1.06-1.14.7-3.12.7-4.54a25.61,25.61,0,0,0-1.2-3.83.59.59,0,0,1,.28-.71,15.29,15.29,0,0,1,3.12.64l.5-.28,2.34-4.11c.85-.57,1,.64,1.56,1l2,2.62c.78.57,1-.78,1.63-1,.92-.5,1.42-2,2.55-1.56.71.21.71,1.14.5,1.7-.5,2.27.21,4.61.35,7a6.23,6.23,0,0,0,1.7,3.4c.71-.5.71-1.49,1-2.27.78-3.68,1.07-8-.85-11.62.93-1,2.06.28,3.05.5a12,12,0,0,1,3,2.48l.28-.22L75,26.09a.76.76,0,0,1,1.06-.5c2.56,1.21,4.11,3.69,5.32,6.1.5.14.57-.57.85-.85a8.08,8.08,0,0,0-.85-2.49c-.28-3.26-.5-6.44,1.2-9.28.71-1.56,2.2-3,4-2.76.78,0,1.28,1.13,2.13.63,1.35-.85,3.26-1.48,4.75-.56a5.4,5.4,0,0,1,2.2,2.83c.56,2-1.35,3-2.48,4.11a8.21,8.21,0,0,0-1.64,7.3c0,2.41.57,5.18,0,7.59A26.47,26.47,0,0,1,88.41,50l-1.49,1.84c.21.5.92.15,1.34.36A6.8,6.8,0,0,1,93.51,56c.42,1.21,1.06,2.27.78,3.69-.5.21-.92-.21-1.42-.21a5.75,5.75,0,0,0-5,1.7c-1.28,1.2-1.84,2.69-2.84,4a13.73,13.73,0,0,1-7.15,6c-.85-.07-1.49.5-2.2.64a13.86,13.86,0,0,1-2.41,0c-.21.35.21.71.5,1.06,1.34,1.14,1.91,2.84,2.55,4.33-.29.63-.92-.15-1.42,0-1.21-.22-2.06.42-3.12.42A25.47,25.47,0,0,1,63.1,80.3c-2.69-.14-5.52-.14-7.65-1.91a41.91,41.91,0,0,1-3.9-4.11c-.28-.07-.28.21-.21.35a8.48,8.48,0,0,0,6.31,6.45c2.19,1.14,4.82.15,7.16.64l1.48.78a9,9,0,0,1,5-1.77c.56-1.06,1.84-1.42,2.83-1.91,1.21-.57,2.76-.15,4-.57,1.28-1.06,2.13-2.91,4-3.4a10.24,10.24,0,0,1,5.46-.22c.35-.07.56-.56,1-.28.35.43.78.07,1.27,0,2.63-1.35,2.7-4.39,2.84-6.8-.07-.43-.28-.92.07-1.28a6.46,6.46,0,0,1,6.31,7.44c-.29,2.2-2.06,4-3.76,5.39l-1.2.78a7.62,7.62,0,0,1-2,4.32,9.9,9.9,0,0,1-4.82,1.92c-.56.7-.56,1.63-1.2,2.33A7.47,7.47,0,0,1,78.2,90.3c-.43.64-.07,1.56-.5,2.12A4.09,4.09,0,0,1,75,95.68a8.22,8.22,0,0,1-3,.22c-.85,1.13-2.12,2.48-3.61,2.55A9.76,9.76,0,0,1,64.1,98a4.82,4.82,0,0,1-4,1.42,7.57,7.57,0,0,1-2.7-1.13,5.27,5.27,0,0,1-4,.7c-.85-.49-2.19-.85-2.19-2.05-.5-.36.21-.64.28-1a3.65,3.65,0,0,0-.5-4c-.49-.36-.92-1-1.63-.78A4.81,4.81,0,0,0,47,95.68c.42.57.63,1.49,1.48,1.63a.33.33,0,0,1-.07.5,6.69,6.69,0,0,1-6.45.35c-1.34-1.41-2.55.78-4,.07-1.77,0-2.69-1.84-3.82-2.76A6.1,6.1,0,0,1,28.59,97c-1.77-.28-2.48-1.77-3.47-3.19C23.2,94,21.79,92.49,21,91a9.81,9.81,0,0,1-.43-2.13l-.21-.14a10.06,10.06,0,0,1-3.83.71c-1.35-.5-2.83-.78-3.9-1.92a4.82,4.82,0,0,1-1.34-2.76c0-.57.21-1.42-.36-1.63A6,6,0,0,1,7.11,82,6.64,6.64,0,0,1,5.2,78.25c.43-2.06-1.91-2-2.69-3.4a6.62,6.62,0,0,1-.71-7,5.85,5.85,0,0,1,5.39-2.69c.28.07,1,.14.63.71a5.34,5.34,0,0,0-.71,2.69,7,7,0,0,0,3.41,5.17c2.12,1.21,4.75,1.42,7.3,1.56a8.49,8.49,0,0,1,6.16,4c1.35.14,2.77-.5,4.11,0a8.55,8.55,0,0,1,3.9,2.2l2-.78c1.06.14,2-.36,2.9.07a16.91,16.91,0,0,0,5-.14,10.55,10.55,0,0,0,6.59-5.46v-.07h-.28A15.37,15.37,0,0,1,35,79.52c-2.48-.21-4.54-1.7-6.81-2.41-1-.14-2.12-.63-3.11-.21-.22,0-.5-.14-.5-.35a17.46,17.46,0,0,1,2.41-5l-.14-.29c-4.33-.49-9.14-1.7-11.06-6-1.42-2.34-1.7-5.25-4.11-7.09-1.91-1.06-3.68-.21-5.46.71-1,.07-.56-1.21-.78-1.84.15-2.91,1.35-5.81,4.12-7.3a11.54,11.54,0,0,1,3.54-.85l.14-.36-.71-2.34c-.21-3.54-.57-7.3.5-10.7a31.94,31.94,0,0,0,1.49-5.81l.07-3.47a2,2,0,0,1,2,.28c1.56.07,2.7,1.28,3.69,2.27.42,0,.49-.36.64-.64,1.55-1.84,3.54-2.76,5.1-4.39.78-.29.85.63,1.06,1.06a27.57,27.57,0,0,0,1.06,4c.64.07,1.07-.92,1.71-1.21a9.63,9.63,0,0,1,3-1.13c.14,1.06-.49,2.06-.71,3.12-.78,2.69-.42,4.68.07,7.3l.78,1.42c.36.07.57-.36.71-.64.78-2.13.64-4.47,1.85-6.38.42-1.35,1.7-2.41,2.33-3.69-.85-.77.15-1.91-.07-2.9a8.61,8.61,0,0,0-4.75-8.15c-.35-.5.5-.78.5-1.28L35,13.9c1.35-.15,2.62-.92,4-.5a1.55,1.55,0,0,0,1.06.35c-.21-1.34-1.7-1.7-2.76-2.12-1.28-.78-2.48,0-3.76-.57A3.3,3.3,0,0,1,32,8.94c-1.27-.5-2.69,0-4,.21-2.34,1.27-3.9,3.83-6.59,4.46a3.27,3.27,0,0,1-2.83-.21c-1.28-.57-.57-2.2-1.92-2.41A4.39,4.39,0,0,1,13.49,9.5a3.24,3.24,0,0,1-.35-3.12c2.13-4,6.66-4.6,10.63-5.17a25.72,25.72,0,0,1,7,.92c.92.07,1.2-.85,2-.92C34.61.08,36.88.36,39.08.64l1.7.64ZM29.65,3.12c.43.5-.14,1.07-.14,1.56A2.12,2.12,0,0,0,30.86,6.6c.42.28,1.13,0,1.34.56a.48.48,0,0,1-.42.57,11.82,11.82,0,0,0-7.44,1.84c-.92.57-2.06,1.85-3.33,1.07a1.26,1.26,0,0,1-.85-.93c-.22-.7,1.06-1.13.35-1.77A8,8,0,0,1,18,8.3c-.29-.43-.85-.14-1-.64-.15-1.56.92-2.48,2.12-3.26A16.39,16.39,0,0,1,29.65,3.12ZM83.44,7.94c.08.43.36,1.14-.35,1.21a3,3,0,0,1-2.55-.07c-.36.21-.64.56-.43,1a2,2,0,0,1,.43,2c-1.7,1.07-3.26-.7-4.68-1.56-.42,0-.71-.56-1.13-.7-1.07-.36-2.13-1-3.19-.78-.29,0-.43-.36-.43-.57s.43-.36.71-.36a5.07,5.07,0,0,0,2-3.68c.85-.71,1.91.21,2.83.14a11.43,11.43,0,0,1,6.8,3.4ZM17.75,15.67a17.56,17.56,0,0,1,1.55,8.15c-.35,1-.28,1.84-.56,2.83-.29.15-.43-.21-.43-.42.43-1.84-.14-3.76-.56-5.53-.57-1.13-1.14-2.76-2.63-3.05a1.62,1.62,0,0,0-1.49.85c-.21.29-.07.92-.56,1-1.07-.64-1.7-2.41-3.33-2-.5.28-1.35.92-1.21,1.63,1.07,2.69,3.12,5,3.33,7.94a30.76,30.76,0,0,1,0,5.17c.5.5-.28.71-.21,1.14a54.19,54.19,0,0,1-.92,6.16c.14,2.77,0,5.67,1.49,8.08.21.07.49.36.28.57-.42.21-.71-.21-1.06-.36A17.56,17.56,0,0,1,9.52,41.4a18.34,18.34,0,0,1,.15-5.89c.07-3.82,1.13-8-.85-11.41-1.63-2.19-3.83-4.39-3-7.37a4.25,4.25,0,0,1,1.77-2.12,5.09,5.09,0,0,1,4,.63c.78-.28,1.06-1.06,1.77-1.34,1.77-.78,3.19.63,4.4,1.77Zm74.7,3.68c.49,2-2.2,3-2.63,4.89-2.19,6.67,1.21,13.54-.42,20.2-.57,2.55-1.28,5.11-3.12,7a33.4,33.4,0,0,0,2-12.33c0-3.69-.63-7.09-2.83-10-.78-.21-1.35.64-2.13.71.43-2.41-.07-5.1.78-7.44.29-.21.22-.64.5-.92a2.65,2.65,0,0,1,1.77-1.13A1.83,1.83,0,0,1,88,21c.71,0,.43-.85,1-1.13a3.87,3.87,0,0,1,2.13-1.21,1.41,1.41,0,0,1,1.35.71ZM15.69,40A18.63,18.63,0,0,1,16.9,43.8c.21.29.49.43.77.15,1.14-1.42,1.63-3,3.12-4,1.07.56,1.21,2.12,1.56,3.26.5,1.77.07,3.26.07,5-1.27.64-3,.14-4.18,1.35-.49.28-.71,1-1.34,1s-1-.85-1.63-1c-1.21-1.85-.57-4.33-1-6.38.29-.71-.21-1.63.29-2.27a3.13,3.13,0,0,1,.49-2.13A1.47,1.47,0,0,1,15.69,40Zm70.52.56a35.77,35.77,0,0,1-.85,10.64c-.5.35-.21,1.63-1.14,1.2C83,51,81.11,51,79.4,50.61a24.34,24.34,0,0,1,0-5.53L80,41.82c.5-.42.92.43,1.35.64A11.77,11.77,0,0,1,83,44.58c.5.22.71-.35.92-.63.5-1.56.78-3.12,1.84-4.4.43.07.43.71.43,1ZM49.14,49.76A45.08,45.08,0,0,0,48,62.51c.07.22.42.29.49.15l.15-.15a35.56,35.56,0,0,1,.85-11l.14.14a58.35,58.35,0,0,0,.28,11.13c.21.35-.28.78.21,1l.22-.14c-.22-3.9-.07-7.87,0-11.7.35-.07.35.5.56.71A41.82,41.82,0,0,1,51.34,62a.31.31,0,0,0,.42.21l.22-.49c0-3.48.35-7.3-.78-10.56l.21-.22c1.56,2.91,1.77,6.81,1.77,9.78.21.29.43.15.57-.14a20.45,20.45,0,0,0-1.91-10.49c.28-.21.49.22.77.43,1.56,2.27,1.92,5.1,2.41,7.72-.07.57-.21,1.28.15,1.63.21.07.35-.21.42-.35A22.66,22.66,0,0,0,53.89,51L54.1,51c1.7,1.28,1.63,3.19,2.27,5,.36.85-.07,2.06.57,2.77.57-.57.28-1.63.21-2.41-.14-1.63-.85-2.84-1.13-4.4.92.08.85,1.28,1.13,1.85.78,1.2.36,2.83,1.21,4,.21.07.28-.15.42-.29a35,35,0,0,1-.64-3.75c1.21.85,1.63,2.41,2,3.82-.64.71-1.63.85-2.2,1.63-.71.5-.57,1.56-1.28,1.92-.56.14-1.13.35-1.63.49a11.48,11.48,0,0,0-4.81,5.39c-.64-.07-.43-.92-.78-1.35a9.2,9.2,0,0,0-4.68-4c-.5-1.48-1.42-3.11-3.12-3.61-.71-.21-1.56-.36-2.34-.57a.75.75,0,0,1,0-.85A9,9,0,0,1,41.63,53a16,16,0,0,0-1.35,3.61c.07.21.29.29.43.14.28-.49.21-1.13.49-1.63a5.17,5.17,0,0,1,1.63-2.26c-.28,1.41-1.27,2.69-1.13,4.18.07.14.14.28.28.21.57-.21.07-1.13.43-1.56.71-1.84,1.42-4,3.19-5,0,.78-1,1.56-1.28,2.48a12.73,12.73,0,0,0-1.06,4.68c.07.07.14.28.35.28l.22-.07c-.14-2.62,1.06-4.89,2.41-6.95l.63-.49c-.07.71-.78,1.42-1,2.19a23.34,23.34,0,0,0-1.13,7c.07.14.21.14.35.07.5-.64,0-1.42.29-2.13.42-2.26.7-4.81,2.12-6.66l.07.14a27.83,27.83,0,0,0-1.27,10.21c.21.28.56.07.64-.14a24.6,24.6,0,0,1,1.91-11.62l.21-.15.07.36ZM25.83,53.09a5,5,0,0,1,.42,3.76c.21,1.06,1.7.49,2.2,1.34.07.21.49.29.21.57-1.2.49-2.83.92-3.4,2.41a3.6,3.6,0,0,0,1.27,4,7.5,7.5,0,0,0,3.41,1.49A19.55,19.55,0,0,0,36.67,65c.35.63,1.27,1.06,1.63,1.77a3.79,3.79,0,0,1-2,.71,12.31,12.31,0,0,1-1.48,1.2c-.36.5-.5,1.49-1.28,1.42a6.62,6.62,0,0,0-4.54.07,14.08,14.08,0,0,1-9.63-3.4,26.6,26.6,0,0,1-2.06-2.84c-.92-2.55-1.49-5.31-3.69-7.3A8.72,8.72,0,0,0,9,54.86c-.29-.5.21-1.06.42-1.56C10.66,51.6,13,52,14.7,52.38c1,.35,1.63,1.35,2.41,2.06.92.21.71-.93,1.2-1.28.85-1.35,2.48-1.7,4-1.84a4.09,4.09,0,0,1,3.55,1.77Zm58.89,2.83c.64.43,1.06-.35,1.63-.42a4.13,4.13,0,0,1,3.05.14c.49.43,1.42.64,1.34,1.35A10.51,10.51,0,0,0,85,60.81c-1.48,1.56-2,3.76-3.61,5.32A13,13,0,0,1,72.25,71c-.92.35-1.56-.5-2.41-.64-.64,0-1.21-.35-1.77-.14a3.93,3.93,0,0,0-2.91.85c-.85,0-1.42-1-1.91-1.35-1.14-.78-2.63-.85-3.83-1.41.49-.57,1.49-.85,2.12-1.49.57-.43,1.28-1.63,2.13-1.21,2.62,1.21,6,2.2,9,1.07a3.72,3.72,0,0,0,0-6.74c-.28-.35-.71-.56-.28-1a2.18,2.18,0,0,1,2.34-.42A2.31,2.31,0,0,0,76,59c.5-.35.14-1.2.29-1.7a4.1,4.1,0,0,1,2-3.33,6.17,6.17,0,0,1,6.38,1.91Zm-42,5a2.28,2.28,0,0,1,.36,1.63,1.22,1.22,0,0,1-1,.42c-.14-.35-.14-1.13-.63-1.56-.57-.14-.92.43-1.28.64a1.39,1.39,0,0,0,.07,1.63,2.11,2.11,0,0,0,1.35.85c.92.07,1.56-.5,2.34-.78,1.77.07,3.12,1.21,4.32,2.34A5.59,5.59,0,0,1,49,68.75c-.92.07-2-.28-3-.21-1.91-1.06-4.25-1.56-6-3.05A9.44,9.44,0,0,1,37.16,60c.36-1.06,1.63-.14,2.34-.42A4.29,4.29,0,0,1,42.69,61Zm20.41-.57a9.94,9.94,0,0,1-2.55,5.1c-.56.14-.85.92-1.41,1.21C56.87,68,54,68.47,51.41,68.82c-.5,0-.35-.56-.28-.85a9,9,0,0,1,5.74-4.82c.56,0,.78.64,1.34.78a2.34,2.34,0,0,0,2.56-.78,1.34,1.34,0,0,0-.08-1.27c-.28-.14-.49-.5-.85-.29-.63.15-.49,1.42-1.27.85-.36-.28-.29-.78-.21-1.2,1-1.63,3.11-.92,4.67-1.13l.07.28ZM6.83,66.06c-.92,1.84-.21,3.9.57,5.53,2.48,3.82,6.8,4,10.77,4.39a7,7,0,0,1,4.75,3.12c.28.42.14,1,.64,1.2,2.76-.78,6-.92,7.79,1.63A3.52,3.52,0,0,0,31,84.84a4.65,4.65,0,0,0,3.9,2.69,6.09,6.09,0,0,0,4.53,2,7,7,0,0,0,2.34-.71c.57.28.92.78,1.56,1.06a8.14,8.14,0,0,0,2.27-.42c1.06.42,1.56,1.49,2.62,1.7a5.9,5.9,0,0,0-1.7,5.1c.07.57.85.85.71,1.49-1.56.92-3.26.21-4.82-.14-.57-.22-1-1.63-1.7-.71a3.7,3.7,0,0,1-4,.49c-.64-.78-1.63-1.48-1.7-2.48a3.61,3.61,0,0,1,1.91-3,3.35,3.35,0,0,1,3.19.92c.43.28.14,1.06.85,1.06.21-.28,0-.78-.21-1.13-.71-1.21-2-1.35-3.19-1.63a3.37,3.37,0,0,0-2.69,1.84c-.22.64-.5,1.42-1.28,1.56-.21.92-1.27,1.2-1.91,1.7A5.87,5.87,0,0,1,27.6,96a5,5,0,0,1-1.35-1.85c.07-.42.14-1-.35-1.2a3,3,0,0,1-3-.35,4,4,0,0,1-1.14-4.4A3,3,0,0,1,24.05,86a3.71,3.71,0,0,1,3.55,1.14c.49.57,1,1.27.63,2-.07.22-.28.57-.56.57s-.36-.07-.43.14.14.36.29.5A1.82,1.82,0,0,0,29,89.09c.43-1.2-.63-2.12-1.48-2.9a4.74,4.74,0,0,0-2.91-.92c-.71.28-1.49.07-2.06.63-.63,0-.14-.85-.49-1.13a4,4,0,0,0-2.84-2.55,2.33,2.33,0,0,0-1.41.28.87.87,0,0,0-.07.85c.56.14,1-.78,1.7-.28a3.45,3.45,0,0,1,1.77,1.56,3,3,0,0,1-.29,3c-1.13.93-2.62,1-4,1.21-1.35-.64-3.41-.36-4-2.13-1.35-1.06-.64-2.83-.57-4.18-.43-.64-1,.07-1.49,0C9,82.43,7.4,82,6.55,80.37c-.5-1.2-1-2.19-.43-3.4L6,76.55c-1.28-.64-2.91-1.42-3.54-2.84-.85-2.12-1-4.25.42-6.23a4.44,4.44,0,0,1,3.83-1.63l.14.21Zm91.36,5.31a7.05,7.05,0,0,1-3.41,7.23c-.49.57-1.55.5-1.48,1.56.14,1.49-.85,2.48-1.56,3.55-1.35,1.06-3.12,2-4.75,1.34l-.29.07c-.42,1.63-.92,3.33-2.55,4.26a6.12,6.12,0,0,1-6.23-.15c-.64-.21-.78-.92-1.21-1.34,0-1.21,0-2.62,1.28-3.26a7.47,7.47,0,0,1,1.63-.71.26.26,0,0,0-.07-.36c-1.14.29-2.55.64-3.12,1.92-.29.56-.21,1.2-.64,1.63a4.48,4.48,0,0,0-4.61.21,3.7,3.7,0,0,0-1.13,3.9,1.44,1.44,0,0,0,1.49.21c-.29-.28-1.28-.28-1.07-1.06a3,3,0,0,1,1.14-2.55c1.06-.92,2.48-.5,3.68-.22a4.55,4.55,0,0,1,1.85,4.19,4.18,4.18,0,0,1-2.27,3.4,6.41,6.41,0,0,1-3.26-.14c-.64.35-.57,1.2-1.06,1.7-.93,1.2-2.41,1.06-3.76,1.27-.64-.35-1.63,0-2.27-.64a4.55,4.55,0,0,0-.92-3.75,4.44,4.44,0,0,0-4-1.56c-1.06.07-2.12.35-2.48,1.42,0,.85-.92,1.7.14,2.34a.28.28,0,0,0,.22-.36,2.77,2.77,0,0,1,.63-2.41,4.51,4.51,0,0,1,4.33.28,3.57,3.57,0,0,1,1.34,2.91,2.71,2.71,0,0,1-1.34,2.13c-.93.71-2,.35-3.12.28-.64-.5-1.56-.43-2-1.2a19.45,19.45,0,0,1-2.48,1.13,3.85,3.85,0,0,1-3.33-1.7,4.85,4.85,0,0,0,.5-4.61,3.3,3.3,0,0,1-.85-1.13c.56-.43,1.27-.85,1.84-1.21a7.8,7.8,0,0,0,2.84.22l1.27-1.07a5.27,5.27,0,0,0,5.74-.28,4.1,4.1,0,0,0,4.18-2.13c1.07-1.06.22-2.48-.14-3.61,1.06-1.63,3.26-1.56,4.89-1.84,1.42-1.92,3.83-2.06,6.1-2.13.28,0,.56.21.85,0,.21-.78,1.2-1,1.34-1.91,2-2.84,6-2.34,9-1.92a5.6,5.6,0,0,0,3.26-2.34,12.4,12.4,0,0,0,.93-3.26A8.81,8.81,0,0,0,93.44,67c.56-.21,1.27.21,1.84.5a6,6,0,0,1,2.91,3.89ZM5.27,67.83A9.26,9.26,0,0,0,5.63,71c1,1.7,2,3.76,4,4.46.7.78,1.84.71,2.76,1.21a15.38,15.38,0,0,0,3.05.49,7.89,7.89,0,0,1,4.89,1.42,21,21,0,0,1,2.76,2.91c.21.35.57.21.92.14a7.7,7.7,0,0,1,3.19-.64,3.44,3.44,0,0,1,2.62.92c.08,1.21-.56,2.34.29,3.33,1,1.63,2.12,3.9,4.39,3.48a5,5,0,0,0,2.13,1.2,7.35,7.35,0,0,0,2.12-.14c1.42.78,2.77,0,4.12.64.78-.29,1.34.57,2.12.64.43,0,1.14-.15,1.14.42A5.42,5.42,0,0,0,45,95.19c.14.56.78,1.27.21,1.7-1.27-.21-2.76-.36-3.47-1.49a2.79,2.79,0,0,0,.36-2.48c-.64-1.56-2.27-2.2-3.76-2.48a4.81,4.81,0,0,0-3.12.64c-1.56,1.34-2,4.32-4.68,4a2.79,2.79,0,0,1-2.62-1c-.57-.56-.14-1.77-1.06-1.84a5.26,5.26,0,0,1-3-.42,3.28,3.28,0,0,1-1.63-2.13,2.54,2.54,0,0,1,1.42-2.27c1.13-.49,2.13.14,3,.78.63,1.13-1.56,2.69.35,3.26,1.2.21,2-.57,2.83-1.27a2.65,2.65,0,0,0,.5-2.41c-.5-1.56-2.13-2.06-3.33-2.84-1.2-.35-2.69-.92-3.9-.35-.64-.15-.14-.92-.49-1.35a3.55,3.55,0,0,0-2.7-1.84c-1.2.07-2.69.28-3.26,1.63.14.49,0,1,.5,1.34.78.07,1.42-.78,2.12-.21A2,2,0,0,1,20,86.4a3,3,0,0,1-2.12,1.49c-.78.14-1.14-.22-1.85-.14a4.42,4.42,0,0,1-2.55-2.34c-.63-1.28.22-2.63-.21-3.9-1.2-.85-2.69.21-3.83-.57A3.82,3.82,0,0,1,7.54,79c0-1.21-.35-2.27-.43-3.4-1.27-.57-2.9-.85-3.61-2.34A4,4,0,0,1,3.07,70a5.07,5.07,0,0,1,1.85-2.41.32.32,0,0,1,.35.28Zm39.48,1.63,4.6.5c.15.71-.42,1.27-.63,1.84a25.9,25.9,0,0,1-3,3.19c-1,.49-2,1.13-3,1.63-4.11,1.7-8.71,0-12.61-1.35-.78,0-1.49-.49-2.34-.35-.28-.21-.14-.57,0-.78A5.07,5.07,0,0,1,32,71.66c1.06-.22,1.84.56,2.77.85l.42-.29a6,6,0,0,1,3.61-4c1.56-.63,3.05.57,4.54.86l1.42.42ZM63.6,73.78,64,74c1.56-1.49,4-1.56,6-1.28a4.9,4.9,0,0,1,2.69,2.34,3.35,3.35,0,0,1-2.2.85,7.29,7.29,0,0,0-3,1.13,5.5,5.5,0,0,0-1.42.43c-1.84.42-3.68,1.27-5.81.92a12.67,12.67,0,0,1-8-4.18c-.64-1.35-2-2.62-1.91-4.18A33.69,33.69,0,0,0,55,69.25c3.34.28,7.45.85,8.58,4.53Zm33.1-3c.92,1.34.21,3.19-.29,4.46-1.27,1.42-2.48,2.7-4.25,3.19-.71.57-.35,1.63-.64,2.41a4.94,4.94,0,0,1-3.11,2.62c-.85.36-1.49,0-2.41.07a6.45,6.45,0,0,0-1.07,1.92c-.92,1.27-2.34,2.76-4,2.62a2.27,2.27,0,0,1-1.56-1.42c-.21-1.34,1-2,1.92-2.55a.65.65,0,0,0,0-.85,2.77,2.77,0,0,0-3.19-.92,4.65,4.65,0,0,0-3.33,2.83c-.5.22-1.06-.21-1.7-.07-2,0-3.76,1.7-4.54,3.48-.14,1.41-.64,3.26.92,4.11a2.74,2.74,0,0,0,2.34-.43c.71-.71-.07-1.77.57-2.55a1.86,1.86,0,0,1,1.84-.92c1,.07,1.56,1.2,1.84,2a3.26,3.26,0,0,1-1.7,2.7c-1.13,1.13-2.76.21-4.11.63a3.66,3.66,0,0,1-3.05,2.63c-.42.14-.7-.15-1.06-.29-.35-.56-.14-1.41-.42-2a4.79,4.79,0,0,0-3.05-3.12l-1.77-.21c-.29-1.07,1-.43,1.49-.78.77-.71,2.05-.22,3-.64l1.85-1.21A7.84,7.84,0,0,0,69,84.13.68.68,0,0,1,69.27,83c.78-.78,2-.29,3-.29.85-.56,1.27-1.63,2.34-1.91,1.48-.64,3.11-.14,4.74-.07,1.42-1.35,2-3.83,4.19-4l1.63-.35c1.77-.43,3.47.63,5.17.14,1.77-.29,2.2-2.13,3.4-3.19a8.09,8.09,0,0,0,1-3.83l.14-.21a2.32,2.32,0,0,1,1.85,1.56ZM50.35,73.15c.42,3.33,2.62,7.3,6.3,8.29a10.83,10.83,0,0,0,5.82.71c1.48.07,3.19.21,4,1.7.7,1.06.14,2.19-.5,3.05A2.78,2.78,0,0,1,63.74,88l-1.2-.14a4,4,0,0,1-4.54.85,1.88,1.88,0,0,1-.71-3.12A2.67,2.67,0,0,1,59.35,85c.78-.07,1.13,1.56,1.77.5C61,84.63,60,84.34,59.28,84.2a3.23,3.23,0,0,0-2.77,1.07,2.91,2.91,0,0,0-.07,3.11,1.69,1.69,0,0,1-.92,1.28A3.52,3.52,0,0,1,53,88.88c-.5,0-.5.57-.78.78a4.44,4.44,0,0,1-4.75.35c-.64-.35-1.2-1.77-2.12-1.2a6.75,6.75,0,0,1-2.06.42c-.14-.42-1.2-.85-.42-1.27a3,3,0,0,0,1-2c.14-.92-.64-1.56-1-2.33-1.07-.36-2.2-.93-3.41-.36-.42.14-.92.43-1,.92a.71.71,0,0,0,.36.71c.56,0,.49-.64.85-.92.63-.43,1.63-.14,2.33.07a2.7,2.7,0,0,1,1.07,2.06c-.14,1.41-1.7,2.19-2.84,2.62a4.59,4.59,0,0,1-3.61-.57c-.57-.28-.78-.92-1.21-1.35a4.14,4.14,0,0,1-3.33-1.2,2.67,2.67,0,0,1-.42-2.41c2.27-3.76,6.66-.78,9.92-1.91a11.17,11.17,0,0,0,8.43-8.37l.07-.07.22.29Zm.42,5.74a10.32,10.32,0,0,0,4,3.61l2.13.43c.07.14.21.35.07.49-.78.64-2,1.21-2.2,2.27-.42.78.64,1.7-.42,2.13-.93.71-1.78-.64-2.63.14a2.26,2.26,0,0,1-2,.85,3.13,3.13,0,0,1-2.48-1.21l-2.48.29c-.71-.43.35-.71.35-1.14a3.5,3.5,0,0,0,.36-2.9,3,3,0,0,0-1.63-1.35c-.36-1.06,1.27-.71,1.84-1.2a6.25,6.25,0,0,0,3.54-3.69c.29-.07.29-.64.71-.42.5.49.5,1.13.85,1.7ZM38.09,83.07c-.15.78-.64,1.91.07,2.62,1,0,1.7-1.06,2.69-.78.35.43,1.06,1.13.57,1.84a2.14,2.14,0,0,1-1.49.85c-1.56-.07-3.19-.42-4.11-1.91-.92-.28-2.27.07-2.55-1.13a1.88,1.88,0,0,1,.63-1.35,4.48,4.48,0,0,1,4-.35l.15.21ZM65,84.13a1.57,1.57,0,0,1-.29,2.13c-.49.71-1.41.35-2.05.71-1.14.49-2.41,1.27-3.69.78a1,1,0,0,1-.42-1.21c.78-1.63,1.91.78,2.9-.42A.93.93,0,0,0,62,85c-.5-.28-.21-1.06-.85-1.13-.14-.36.28-.36.5-.43.85.07,1.84-.28,2.62.22l.78.49ZM58.36,91a5.77,5.77,0,0,0-2.77,2.9c-.28,1.06.21,1.92.29,2.84a2.66,2.66,0,0,1-2.41.07c-.22-.57.49-1,.56-1.63a3.56,3.56,0,0,0-.92-3.4c0-.29.28-.29.43-.36,1.06.57,2.26-.14,3.4-.21.49-.07.85-.57,1.42-.43V91ZM39.72,94c.21.43.56,1,.21,1.49a1.79,1.79,0,0,1-1.35.78c-.71,0-1.63.14-1.91-.64a2,2,0,0,1,.07-1.77c.78-1.13,2.27-.57,3,.14Zm22.6,1.56a2.49,2.49,0,0,1-.42,1.56,1.87,1.87,0,0,1-2.06.36c-.56-.29-1.27-.57-1.27-1.28s.28-1.06.42-1.56A3.35,3.35,0,0,1,60.06,94a2.38,2.38,0,0,1,2.26,1.56Z"/></svg>