<svg id="Layer_1" data-name="Layer 1" xmlns="http://www.w3.org/2000/svg" viewBox="0 0 100 100"><defs><style>.cls-1{fill:#504d6a;}</style></defs><title>Bg6</title><path class="cls-1" d="M50.44.39a49.77,49.77,0,1,0,49.77,49.77A49.77,49.77,0,0,0,50.44.39Zm0,97.39A47.63,47.63,0,1,1,98.07,50.16,47.68,47.68,0,0,1,50.44,97.78Z"/><path class="cls-1" d="M83.2,27.13C87.57,23.19,79.26,6.36,67.68,14c-4-13.25-15.4-7.89-17.24-6.92C48.6,6.12,37.21.76,33.2,14,21.61,6.36,13.3,23.19,17.68,27.13,2.15,29.32-1.79,57.74,20.3,62.77c-8.75,1.75-13.12,11.81-1.75,18.37-4.15-7,1.2-13.12,9.24-8.53S45.45,83.1,46.32,83.76c-3.72,1.31-4.59,8.09-2.62,9.4-1.1.22-4.38-1.09-4.38-1.09s4.16-4.15-2.84-6.78-2.3-7.21-1-6.78c-3.83-1.86-9.08,1.42-6.89,5.8-3.39-1.53-8.31-1.1-9.51-1.75,1.31,3.83,19,13.34,26.56,12.46-1.31-1.75-2-9,2.08-10.06-.11-.1,1.53,1.21,1.53,1.21s-7.79,5.58.91,11v.31l.26-.15.25.15v-.31c8.71-5.37.91-11,.91-11s1.64-1.31,1.53-1.21c4,1.1,3.39,8.31,2.08,10.06,7.55.88,25.26-8.63,26.57-12.46-1.2.65-6.12.22-9.51,1.75,2.18-4.38-3.06-7.66-6.89-5.8,1.31-.43,6,4.16-1,6.78s-2.85,6.78-2.85,6.78-3.28,1.31-4.37,1.09c2-1.31,1.09-8.09-2.62-9.4.87-.66,10.49-6.56,18.53-11.15s13.39,1.53,9.24,8.53c11.37-6.56,7-16.62-1.75-18.37C102.66,57.74,98.73,29.32,83.2,27.13Zm-6.45-1.42C74.89,25.27,69,27,69,27c3-2.84,4.26-9.4-1.31-10.6C72.49,14.12,82,17.07,76.75,25.71Zm-7,10.6c-.87,0-2.84,1.31-3.82,2.74,0,0-5.69-2.74-6.78-4.27,2.18-2.84,10.16-6.78,14.43-6.23A5.86,5.86,0,0,0,69.75,36.31ZM63.52,12.92c4.7,8.09-1.75,20.11-6.18,21-4.21-2.52-7.16-12.14-1.58-12.58s3.06,6.56,1.53,6.89c5.79-.33,8.09-13.34-1.86-11.8.66-2.74-3.83-5.36-4.26-8.53C54.34,6.36,58.82,4.83,63.52,12.92ZM56.09,35.33c-1.64.55-5.36,8-5.36,8h-.59s-3.71-7.43-5.35-8C46.1,35,49.49,31.7,50.44,28,51.39,31.7,54.78,35,56.09,35.33ZM37.35,12.92c4.71-8.09,9.19-6.56,12.36-5-.44,3.17-4.92,5.79-4.26,8.53-10-1.54-7.66,11.47-1.86,11.8-1.53-.33-4.05-7.32,1.53-6.89s2.62,10.06-1.59,12.58C39.1,33,32.65,21,37.35,12.92Zm-10,15.63c4.26-.55,12.24,3.39,14.43,6.23C40.63,36.31,35,39.05,35,39.05c-1-1.43-3-2.74-3.83-2.74A5.85,5.85,0,0,0,27.3,28.55Zm5.9-12.13c-5.58,1.2-4.26,7.76-1.31,10.6,0,0-5.91-1.75-7.76-1.31C18.88,17.07,28.39,14.12,33.2,16.42ZM6.63,46.81C6.52,39.7,6.48,32,18.44,28.5a7.61,7.61,0,0,1,2.84,3.55c-3.6-1.09-10.38.33-11.91,7s4.48,6.23,3.82,11.48S6.74,53.91,6.63,46.81Zm11.81,3.93c-.33,1.75.11,5.91,2.3,9.63-1.53.65-7.11-1.64-8.2-4.38.76.22,4-.44,4.7-4.75,1-5.74-9.19-6-3.29-13.18,3.22-4,7.33,3,10.94,3,1.33,0,4.25-.25,5.69-3A3.07,3.07,0,0,1,33,39.81C22.22,41.56,18.77,49,18.44,50.74Zm17.27-8.63c3.71,4.84,4,16.54-6.94,18.26C25.88,53,31.78,42.65,35.71,42.11ZM50.44,84.59c-2.3-1.37-19.56-12-21.39-21.6,6.66-1.09,15.63-9.73,7.65-22.09,2.4-.54,6.89-3.82,6.89-4.92,2.07,2.3,5.24,7.77,5,8.31-2.53,1.27-5,7.22,1.38,8.61a.57.57,0,0,0,0,.18.43.43,0,0,0,.07.25c-3.77,1.61-5.31,6.55-4.69,9-3.07-4.26-15.75-4.37-9.84,9.3,0-4.6,2.84-8.53,5.9-4.92-1,5.35-1,12.68,4.59,12.46a4.06,4.06,0,0,0,4.45-1.67,4,4,0,0,0,4.44,1.67c5.58.22,5.58-7.11,4.6-12.46,3.06-3.61,5.9.32,5.9,4.92,5.9-13.67-6.78-13.56-9.84-9.3.61-2.45-.92-7.39-4.69-9a.52.52,0,0,0,.07-.25.39.39,0,0,0,0-.18c6.43-1.39,3.91-7.34,1.38-8.61-.22-.54,3-6,5-8.31,0,1.1,4.48,4.38,6.89,4.92-8,12.36,1,21,7.65,22.09C70,72.58,52.73,83.22,50.44,84.59ZM72.11,60.37c-10.94-1.72-10.65-13.42-7-18.26C69.1,42.65,75,53,72.11,60.37Zm8,0c2.19-3.72,2.62-7.88,2.29-9.63s-3.78-9.18-14.57-10.93a3.07,3.07,0,0,1,2.44-1.75c1.43,2.71,4.36,3,5.68,3,3.61,0,7.72-6.91,11-3,5.89,7.22-4.28,7.44-3.29,13.18.74,4.31,3.93,5,4.7,4.75C87.25,58.73,81.67,61,80.14,60.37Zm7.54-9.84C87,45.28,93,45.72,91.51,39.05s-8.31-8.09-11.92-7a7.68,7.68,0,0,1,2.84-3.55C94.4,32,94.35,39.7,94.24,46.81S88.34,55.77,87.68,50.53Z"/></svg>