<?xml version="1.0" encoding="utf-8"?>
<!-- Generator: Adobe Illustrator 23.0.2, SVG Export Plug-In . SVG Version: 6.00 Build 0)  -->
<svg version="1.1" id="Layer_1" xmlns="http://www.w3.org/2000/svg" xmlns:xlink="http://www.w3.org/1999/xlink" x="0px" y="0px"
	 viewBox="0 0 100 100" style="enable-background:new 0 0 100 100;" xml:space="preserve">
<style type="text/css">
	.st0{fill-rule:evenodd;clip-rule:evenodd;}
	.st1{stroke:#000000;stroke-width:2;stroke-linecap:round;stroke-linejoin:round;}
	.st2{fill:#4D5FAB;}
	.st3{fill:#214294;}
	.st4{fill:#F2F1F1;}
	.st5{fill:none;}
</style>
<path d="M50,1.3C23.3,1.3,1.7,23,1.7,49.6c0,26.7,21.6,48.3,48.3,48.3c26.7,0,48.3-21.6,48.3-48.3C98.3,23,76.7,1.3,50,1.3z
	 M50,14.5c8.7,0,15.8,7.1,15.8,15.8S58.7,46,50,46S34.2,39,34.2,30.2S41.3,14.5,50,14.5z M76.6,78.3h-55v-6.9
	c0-7.6,6.2-13.8,13.8-13.8h27.5c7.6,0,13.8,6.2,13.8,13.8V78.3z"/>
</svg>
