<svg id="Layer_1" data-name="Layer 1" xmlns="http://www.w3.org/2000/svg" viewBox="0 0 100 100"><title>bank</title><path d="M50,60.57a3.34,3.34,0,1,1,3.34-3.34h3.33a6.65,6.65,0,0,0-5-6.42V48.9H48.34v1.91A6.65,6.65,0,0,0,50,63.9a3.34,3.34,0,1,1-3.33,3.33H43.34a6.65,6.65,0,0,0,5,6.43v1.91h3.33V73.66A6.65,6.65,0,0,0,50,60.57Z"/><path d="M50,40.57A21.67,21.67,0,1,0,71.67,62.23,21.66,21.66,0,0,0,50,40.57Zm0,40A18.34,18.34,0,1,1,68.34,62.23,18.34,18.34,0,0,1,50,80.57Z"/><path d="M98.33,37.24A1.67,1.67,0,0,0,100,35.57V28.9s0,0,0-.06a1.62,1.62,0,0,0-.11-.53.13.13,0,0,0,0-.06,1.87,1.87,0,0,0-.34-.49.79.79,0,0,0-.15-.12,1.33,1.33,0,0,0-.24-.19L50.8.78a1.63,1.63,0,0,0-1.6,0L.86,27.45a1.33,1.33,0,0,0-.24.19.79.79,0,0,0-.15.12,1.87,1.87,0,0,0-.34.49.13.13,0,0,1,0,.06,1.62,1.62,0,0,0-.11.53s0,0,0,.06v6.67a1.67,1.67,0,0,0,1.67,1.67h5v50h-5A1.66,1.66,0,0,0,0,88.9v10a1.66,1.66,0,0,0,1.66,1.67H98.33A1.67,1.67,0,0,0,100,98.9v-10a1.67,1.67,0,0,0-1.67-1.67h-5v-50ZM50,4.14l41.86,23.1H8.14ZM96.67,90.57v6.66H3.34V90.57ZM10,87.23v-50h6.66v50Zm10,0v-50H80v50Zm63.32,0v-50H90v50ZM3.34,33.9V30.57H96.67V33.9Z"/></svg>