<svg id="Layer_1" data-name="Layer 1" xmlns="http://www.w3.org/2000/svg" viewBox="0 0 100 100"><defs><style>.cls-1{fill:#4d5fab;}</style></defs><title>Clock</title><g id="clock"><g id="Ellipse_214" data-name="Ellipse 214"><path class="cls-1" d="M49.93,98.29A48.44,48.44,0,1,1,98.36,49.85,48.49,48.49,0,0,1,49.93,98.29Zm0-92.52A44.08,44.08,0,1,0,94,49.85,44.12,44.12,0,0,0,49.93,5.77Z"/></g><g id="Path_11534" data-name="Path 11534"><path class="cls-1" d="M68.43,61.29a2.11,2.11,0,0,1-1-.24L49,51.8a2.18,2.18,0,0,1-1.21-1.95V22.1a2.18,2.18,0,1,1,4.35,0V48.51l17.3,8.65a2.18,2.18,0,0,1-1,4.13Z"/></g></g></svg>