<svg xmlns="http://www.w3.org/2000/svg" width="14" height="14" viewBox="0 0 14 14">
  <g id="Group_12603" data-name="Group 12603" transform="translate(1288.127 -286.027)">
    <path id="Path_11671" data-name="Path 11671" d="M-1288.127,288.254a.382.382,0,0,1,.4-.227c.551.007,1.1,0,1.654,0a.594.594,0,0,1,.2.028.293.293,0,0,1,.179.32.3.3,0,0,1-.308.256c-.36,0-.72,0-1.08,0h-.427c0,.054-.006.1-.006.149q0,.629,0,1.257a1.073,1.073,0,0,1-.008.163.28.28,0,0,1-.226.243.287.287,0,0,1-.312-.113c-.022-.027-.041-.058-.061-.087Z" transform="translate(0 -2)" fill="#131e72"/>
    <path id="Path_11672" data-name="Path 11672" d="M-1288.127,510.167a.837.837,0,0,1,.177-.179.3.3,0,0,1,.43.3c.005.442,0,.884,0,1.326,0,.049,0,.1,0,.163h1.445c.238,0,.377.11.38.3s-.137.308-.383.308c-.551,0-1.1,0-1.654,0a.382.382,0,0,1-.4-.227Z" transform="translate(0 -212.362)" fill="#131e72"/>
    <path id="Path_11673" data-name="Path 11673" d="M-1236.337,342.751q0,1.5,0,2.994c0,.239-.142.376-.351.345a.282.282,0,0,1-.25-.25,1.218,1.218,0,0,1-.008-.164q0-2.926,0-5.851a.771.771,0,0,1,.024-.229.289.289,0,0,1,.314-.187.294.294,0,0,1,.265.252,1.042,1.042,0,0,1,.005.15Q-1236.337,341.282-1236.337,342.751Z" transform="translate(-49.356 -49.724)" fill="#131e72"/>
    <path id="Path_11674" data-name="Path 11674" d="M-963.82,342.761q0-1.5,0-2.994c0-.239.142-.376.351-.345a.283.283,0,0,1,.25.25,1.239,1.239,0,0,1,.008.164q0,2.926,0,5.851a.776.776,0,0,1-.024.229.289.289,0,0,1-.314.187.293.293,0,0,1-.265-.252,1.05,1.05,0,0,1-.005-.15Q-963.82,344.23-963.82,342.761Z" transform="translate(-312.742 -49.734)" fill="#131e72"/>
    <path id="Path_11675" data-name="Path 11675" d="M-1100.373,342.741q0-1.483,0-2.967c0-.253.136-.39.351-.359a.286.286,0,0,1,.251.25,1.385,1.385,0,0,1,.006.177q0,2.912,0,5.824a1.362,1.362,0,0,1-.006.177.3.3,0,0,1-.3.257.3.3,0,0,1-.291-.257,1.341,1.341,0,0,1-.006-.177Q-1100.373,344.2-1100.373,342.741Z" transform="translate(-181.058 -49.727)" fill="#131e72"/>
    <path id="Path_11676" data-name="Path 11676" d="M-1134.065,342.025q0,1.161,0,2.322c0,.267-.11.416-.307.418s-.314-.148-.314-.424q0-2.315,0-4.63c0-.277.111-.427.314-.424s.307.15.307.431Q-1134.065,340.871-1134.065,342.025Z" transform="translate(-147.969 -49.583)" fill="#131e72"/>
    <path id="Path_11677" data-name="Path 11677" d="M-1066.414,342.037q0-1.161,0-2.322c0-.278.11-.427.313-.424s.307.15.307.43q0,2.308,0,4.616a.9.9,0,0,1-.024.215.3.3,0,0,1-.282.217.3.3,0,0,1-.291-.222.877.877,0,0,1-.022-.2Q-1066.415,343.191-1066.414,342.037Z" transform="translate(-213.807 -49.587)" fill="#131e72"/>
    <path id="Path_11678" data-name="Path 11678" d="M-1202.946,342.123q0-1.181,0-2.363c0-.254.133-.4.34-.378a.3.3,0,0,1,.276.289.9.9,0,0,1,0,.136q0,2.308,0,4.616a.928.928,0,0,1-.021.2.3.3,0,0,1-.285.23.3.3,0,0,1-.291-.223.768.768,0,0,1-.022-.188Q-1202.947,343.284-1202.946,342.123Z" transform="translate(-82.143 -49.673)" fill="#131e72"/>
    <path id="Path_11679" data-name="Path 11679" d="M-997.538,342.021V344.3c0,.032,0,.064,0,.1,0,.228-.126.373-.312.371a.324.324,0,0,1-.307-.363q0-2.376,0-4.753a.327.327,0,0,1,.187-.336.291.291,0,0,1,.319.046.388.388,0,0,1,.114.322Q-997.538,340.853-997.538,342.021Z" transform="translate(-279.627 -49.586)" fill="#131e72"/>
    <path id="Path_11680" data-name="Path 11680" d="M-1168.677,342.152q0-1.189,0-2.378c0-.253.137-.39.351-.359a.289.289,0,0,1,.252.249,1.219,1.219,0,0,1,.006.164q0,2.317,0,4.634a1.084,1.084,0,0,1-.007.177.307.307,0,0,1-.3.246.3.3,0,0,1-.291-.259,1.362,1.362,0,0,1-.007-.177Q-1168.677,343.3-1168.677,342.152Z" transform="translate(-115.19 -49.702)" fill="#131e72"/>
    <path id="Path_11681" data-name="Path 11681" d="M-1031.493,342.04q0,1.169,0,2.337a.843.843,0,0,1-.014.19.31.31,0,0,1-.3.218.309.309,0,0,1-.29-.246.791.791,0,0,1-.007-.136q0-2.358,0-4.716c0-.2.071-.321.2-.364a.3.3,0,0,1,.4.269c.009.122.005.246.005.369Q-1031.493,341-1031.493,342.04Z" transform="translate(-246.895 -49.604)" fill="#131e72"/>
    <path id="Path_11682" data-name="Path 11682" d="M-961.943,288.693h-1.415a1.006,1.006,0,0,1-.15-.006.3.3,0,0,1-.26-.3.294.294,0,0,1,.271-.291c.122-.01.246-.006.369-.007q.7,0,1.408,0c.28,0,.384.108.385.391,0,.565,0,1.13,0,1.695a.305.305,0,0,1-.423.321.322.322,0,0,1-.185-.335c0-.433,0-.866,0-1.3Z" transform="translate(-312.793 -2.055)" fill="#131e72"/>
    <path id="Path_11683" data-name="Path 11683" d="M-961.94,511.79c0-.425,0-.829,0-1.234,0-.1,0-.21.006-.314a.3.3,0,0,1,.286-.279.289.289,0,0,1,.306.256q.014.963,0,1.926c0,.157-.14.249-.322.251-.31,0-.62,0-.929,0-.273,0-.547,0-.82,0-.215,0-.348-.119-.35-.3s.135-.306.358-.307c.433,0,.865,0,1.3,0Z" transform="translate(-312.795 -212.373)" fill="#131e72"/>
    <path id="Path_11684" data-name="Path 11684" d="M-997.735,509.965a.321.321,0,0,1,.3.3.321.321,0,0,1-.315.311.313.313,0,0,1-.3-.31A.314.314,0,0,1-997.735,509.965Z" transform="translate(-279.735 -214.277)" fill="#131e72"/>
    <path id="Path_11685" data-name="Path 11685" d="M-1202.238,510.266a.308.308,0,0,1-.317.288.321.321,0,0,1-.286-.323.318.318,0,0,1,.322-.287A.3.3,0,0,1-1202.238,510.266Z" transform="translate(-82.244 -214.255)" fill="#131e72"/>
    <path id="Path_11686" data-name="Path 11686" d="M-1168.531,510.239a.305.305,0,0,1,.3-.308.308.308,0,0,1,.3.309.309.309,0,0,1-.309.3A.306.306,0,0,1-1168.531,510.239Z" transform="translate(-115.331 -214.244)" fill="#131e72"/>
    <path id="Path_11687" data-name="Path 11687" d="M-1031.417,510.331a.3.3,0,0,1-.308.3.3.3,0,0,1-.294-.312.31.31,0,0,1,.3-.292A.307.307,0,0,1-1031.417,510.331Z" transform="translate(-246.975 -214.333)" fill="#131e72"/>
    <path id="Path_11688" data-name="Path 11688" d="M-1065.631,510.263a.313.313,0,0,1-.308.3.312.312,0,0,1-.3-.307.317.317,0,0,1,.308-.3A.316.316,0,0,1-1065.631,510.263Z" transform="translate(-213.975 -214.266)" fill="#131e72"/>
    <path id="Path_11689" data-name="Path 11689" d="M-1133.921,510.238a.311.311,0,0,1-.3.309.316.316,0,0,1-.309-.3.32.32,0,0,1,.3-.31A.312.312,0,0,1-1133.921,510.238Z" transform="translate(-148.122 -214.25)" fill="#131e72"/>
  </g>
</svg>
