<svg id="Layer_1" data-name="Layer 1" xmlns="http://www.w3.org/2000/svg" viewBox="0 0 100 100"><title>Coppy</title><path d="M22.51,10.24a5.84,5.84,0,0,1,5.83-5.83H52.89V29a1.65,1.65,0,0,0,1.65,1.65H79.09V43.88h3.28V29a1.68,1.68,0,0,0-.12-.63,1.65,1.65,0,0,0-.28-.41s0-.09-.08-.12L55.7,1.6s-.08-.05-.11-.08a1.71,1.71,0,0,0-.42-.28,1.69,1.69,0,0,0-.63-.13H28.34a9.14,9.14,0,0,0-9.12,9.13v9h3.29ZM56.18,6.73,76.76,27.31H56.18Z"/><path d="M69.91,48.88a1.46,1.46,0,0,0-.27-.41,1.25,1.25,0,0,0-.08-.12L43.36,22.16s-.07-.05-.1-.08a1.77,1.77,0,0,0-.43-.28,1.69,1.69,0,0,0-.63-.13H16A9.14,9.14,0,0,0,6.88,30.8V90.67A9.13,9.13,0,0,0,16,99.8h44.9A9.13,9.13,0,0,0,70,90.67V49.51A1.69,1.69,0,0,0,69.91,48.88ZM43.85,27.29,64.42,47.87H43.85ZM60.91,96.51H16a5.85,5.85,0,0,1-5.84-5.84V30.8A5.84,5.84,0,0,1,16,25H40.56V49.51a1.64,1.64,0,0,0,1.64,1.65H66.75V90.67A5.85,5.85,0,0,1,60.91,96.51Z"/></svg>