<svg xmlns="http://www.w3.org/2000/svg" width="20" height="20" viewBox="0 0 20 20">
  <g id="Group_31193" data-name="Group 31193" transform="translate(0)">
    <path id="Path_18349" data-name="Path 18349" d="M10.619,12.915a4.69,4.69,0,1,0,6.417-4.358c0-1.419,0-2.748,0-4.207a.574.574,0,0,0-.213-.466Q14.646,1.946,12.476,0H1.271A1.483,1.483,0,0,0,0,1.625C.016,7.256.009,12.887.009,18.518c0,.938.6,1.482,1.646,1.482H15.387c.08,0,.16,0,.24,0a1.409,1.409,0,0,0,1.4-1.285.351.351,0,0,0-.347-.377.366.366,0,0,0-.39.323c-.092.5-.325.677-.9.677H1.637c-.6,0-.885-.254-.885-.786V1.459c0-.537.283-.794.877-.794H11.942a.586.586,0,0,1,.014.07c0,.814,0,1.628,0,2.441a1.407,1.407,0,0,0,1.515,1.36c.756.005,1.511,0,2.266,0h.536V8.326a4.682,4.682,0,0,0-1.934,0c0-.516,0-1,0-1.537,0-.718-.454-1.123-1.259-1.123H5.956c-.7,0-1.409,0-2.114,0a1.054,1.054,0,0,0-1.126.98q-.014,2.148,0,4.3a1.04,1.04,0,0,0,1.09.969c1.62.006,3.24,0,4.861,0,.258,0,.415-.135.412-.337s-.158-.323-.4-.325c-.465,0-.93,0-1.395,0H7.05V9.127h3.174c.42,0,.535-.1.535-.472,0-.7,0-1.406,0-2.109,0-.068.009-.136.013-.215h2.333c.357,0,.489.116.489.435,0,.62,0,1.182,0,1.785A4.688,4.688,0,0,0,10.619,12.915Zm2.764-9.049a.654.654,0,0,1-.668-.587c-.023-.693-.007-1.386-.007-2.044l2.944,2.635C14.92,3.869,14.152,3.876,13.383,3.866ZM6.274,11.239c-.052,0-.114.01-.176.01q-1.088,0-2.176,0c-.331,0-.466-.119-.467-.411,0-.559,0-1.116,0-1.7H6.274Zm.009-2.8H3.455V7.706c0-.332,0-.663,0-.995a.343.343,0,0,1,.352-.374c.818-.009,1.637,0,2.475,0Zm3.713,0H7.048V6.339H10Zm5.313.512a3.957,3.957,0,1,1-3.957,3.957A3.957,3.957,0,0,1,15.31,8.958Z" transform="translate(0)" fill="#131e72"/>
    <path id="Path_18350" data-name="Path 18350" d="M5.7,32.48a1.174,1.174,0,0,0,.259.019q1.057,0,2.113,0c.711,0,3.423,0,4.134,0a1.088,1.088,0,0,0,.259-.021.317.317,0,0,0,0-.624.982.982,0,0,0-.237-.022c-1.437,0-4.875,0-6.313,0a.966.966,0,0,0-.216.019.318.318,0,0,0,0,.629Z" transform="translate(-2.717 -15.916)" fill="#131e72"/>
    <path id="Path_18351" data-name="Path 18351" d="M25.926,23.686a.976.976,0,0,0,.242.02q.815,0,1.631,0,0,.819,0,1.639a.924.924,0,0,0,.023.242.339.339,0,0,0,.65,0,.82.82,0,0,0,.023-.221q0-.83,0-1.661.82,0,1.639,0a.9.9,0,0,0,.241-.022.34.34,0,0,0,0-.65.84.84,0,0,0-.222-.022H28.5q0-.835,0-1.67a.8.8,0,0,0-.02-.2.339.339,0,0,0-.655,0,1,1,0,0,0-.021.242q0,.816,0,1.632H26.13a.8.8,0,0,0-.2.019.339.339,0,0,0,0,.656Z" transform="translate(-12.838 -10.444)" fill="#131e72"/>
    <path id="Path_18352" data-name="Path 18352" d="M5.958,27.5c.551,0,1.1,0,1.653,0h3.653a1.492,1.492,0,0,0,.217-.01.329.329,0,0,0,.312-.321.326.326,0,0,0-.306-.325,1.422,1.422,0,0,0-.217-.011H5.964a1.233,1.233,0,0,0-.258.019.318.318,0,0,0-.006.628A1.138,1.138,0,0,0,5.958,27.5Z" transform="translate(-2.717 -13.415)" fill="#131e72"/>
  </g>
</svg>
