<svg id="Layer_1" data-name="Layer 1" xmlns="http://www.w3.org/2000/svg" viewBox="0 0 100 100"><title>Date</title><path d="M77.42,6.93H75.7V5.2a5.17,5.17,0,0,0-10.34,0V6.93h-31V5.2A5.17,5.17,0,0,0,24,5.2V6.93H22.29a19,19,0,0,0-18.95,19V81a19,19,0,0,0,19,19H77.42a19,19,0,0,0,19-19V25.88A19,19,0,0,0,77.42,6.93ZM22.29,17.26H24v8.62a5.17,5.17,0,0,0,10.34,0V17.26h31v8.62a5.17,5.17,0,0,0,10.34,0V17.26h1.72A8.63,8.63,0,0,1,86,25.88v8.61H13.67V25.88A8.63,8.63,0,0,1,22.29,17.26ZM77.42,89.63H22.29A8.63,8.63,0,0,1,13.67,81V44.83H86V81A8.62,8.62,0,0,1,77.42,89.63Z"/></svg>