<svg id="Layer_1" data-name="Layer 1" xmlns="http://www.w3.org/2000/svg" viewBox="0 0 100 100"><title>FileSoild copy</title><path id="Icon_material-date-range" data-name="Icon material-date-range" d="M35.23,45.09H25.38v9.84h9.85Zm19.7,0H45.08v9.84h9.84Zm19.69,0H64.77v9.84h9.85Zm9.84-34.48H79.55V.77H69.71v9.84H30.32V.77H20.46v9.84H15.54a9.81,9.81,0,0,0-9.8,9.81v0l0,68.94a9.85,9.85,0,0,0,9.85,9.83H84.46a9.87,9.87,0,0,0,9.85-9.84V20.46A9.89,9.89,0,0,0,84.46,10.61Zm0,78.78H15.54V35.23H84.46Z"/></svg>