<svg id="Layer_1" data-name="Layer 1" xmlns="http://www.w3.org/2000/svg" viewBox="0 0 100 100"><title>Drop_1</title><g id="Group_8739" data-name="Group 8739"><g id="Group_8738" data-name="Group 8738"><path id="Path_11314" data-name="Path 11314" d="M.67,49.84A49.33,49.33,0,1,0,50,.51,49.33,49.33,0,0,0,.67,49.84Zm94.54,0A45.21,45.21,0,1,1,50,4.62,45.21,45.21,0,0,1,95.21,49.84Z"/><path id="Path_11315" data-name="Path 11315" d="M25.94,40.16a2.06,2.06,0,0,0,0,2.91l22.6,22.6a2.06,2.06,0,0,0,2.91,0l22.61-22.6a2.06,2.06,0,0,0-2.91-2.91L50,61.31,28.84,40.16A2.05,2.05,0,0,0,25.94,40.16Z"/></g></g></svg>