<svg id="Layer_1" data-name="Layer 1" xmlns="http://www.w3.org/2000/svg" viewBox="0 0 100 100"><title>Edit_2</title><g id="edit-3"><g id="Path_11529" data-name="Path 11529"><path d="M96.24,94.25H50.74a1.77,1.77,0,1,1,0-3.53h45.5a1.77,1.77,0,1,1,0,3.53Z"/></g><g id="Path_11530" data-name="Path 11530"><path d="M73.49,9.06A10.72,10.72,0,1,1,88.88,24l-.22.23-63.2,63.2-20.23,5,5.06-20.22Z"/><path d="M5.23,94.23A1.76,1.76,0,0,1,3.52,92L8.58,71.81A1.86,1.86,0,0,1,9,71L72.23,7.81A12.46,12.46,0,0,1,81,4h.19a12.49,12.49,0,0,1,9,21.19L26.71,88.68a1.77,1.77,0,0,1-.82.46l-20.23,5A1.59,1.59,0,0,1,5.23,94.23Zm6.65-21.09L7.66,90l16.9-4.2L87.41,23a9.11,9.11,0,0,0,2.74-6.58,8.91,8.91,0,0,0-2.72-6.3,8.2,8.2,0,0,0-6.37-2.53,8.88,8.88,0,0,0-6.3,2.71l0,0ZM73.49,9.05h0Z"/></g></g></svg>