<svg id="Layer_1" data-name="Layer 1" xmlns="http://www.w3.org/2000/svg" viewBox="0 0 100 100"><defs><style>.cls-1{fill:none;}</style></defs><title>Edit</title><polygon class="cls-1" points="20.03 53.39 15.02 48.37 15.02 53.39 20.03 53.39"/><path d="M21.4,53.81v0a.42.42,0,0,0-.09-.25.45.45,0,0,1,.09.25Z"/><path d="M21.28,53.51h0l0,0Z"/><path d="M70.28,83.92a6.84,6.84,0,0,1-6.8,6.81H11.07A6.83,6.83,0,0,1,4.25,83.9V14a6.83,6.83,0,0,1,6.82-6.83H39.73V35.87a1.92,1.92,0,0,0,1.91,1.92H70.28v7.1l3.84-3.27V35.87a1.93,1.93,0,0,0-.45-1.19c-.06-.06-.09-.14-.15-.19L43,4s-.1-.06-.14-.1a2.23,2.23,0,0,0-.48-.32,2,2,0,0,0-.74-.14H11.07A10.66,10.66,0,0,0,.42,14V83.9A10.67,10.67,0,0,0,11.07,94.56H63.49A10.7,10.7,0,0,0,74.12,83.92V78.71L70.28,82.3Zm-26.72-74,24,24h-24Z"/><path d="M97.35,35.83a8.69,8.69,0,0,0-6-2.27,8.37,8.37,0,0,0-5.84,2.62L54.64,67.05a2,2,0,0,0-.49.85L50.72,80.48a1.91,1.91,0,0,0,1.84,2.42,1.79,1.79,0,0,0,.51-.07L65.65,79.4a1.82,1.82,0,0,0,.85-.49L97.36,48.05l.36-.36a8.37,8.37,0,0,0-.37-11.86Zm-2.66,9.48L64.15,75.84l-8.86,2.42,2.42-8.86L88.24,38.87l0,0a4.5,4.5,0,0,1,3.18-1.43,4.63,4.63,0,0,1,3.27,1.24,4.5,4.5,0,0,1,1.44,3.17A4.71,4.71,0,0,1,94.69,45.31Z"/></svg>