<svg id="Layer_1" data-name="Layer 1" xmlns="http://www.w3.org/2000/svg" viewBox="0 0 100 100"><title>Edit_1</title><g id="edit"><g id="Path_11545" data-name="Path 11545"><path d="M78,99.28H12.16A11.3,11.3,0,0,1,.88,88V22.19A11.29,11.29,0,0,1,12.16,10.91h32.9a1.89,1.89,0,0,1,0,3.77H12.16a7.52,7.52,0,0,0-7.52,7.51V88a7.52,7.52,0,0,0,7.52,7.51H78A7.53,7.53,0,0,0,85.48,88V55.09a1.88,1.88,0,1,1,3.76,0V88A11.3,11.3,0,0,1,78,99.28Z"/></g><g id="Path_11546" data-name="Path 11546"><path d="M31,71.08a1.92,1.92,0,0,1-1.33-.55,1.88,1.88,0,0,1-.49-1.79l4.7-18.8a1.93,1.93,0,0,1,.49-.88L79,4.41h0a11.85,11.85,0,0,1,20.23,8.38,11.74,11.74,0,0,1-3.47,8.38L51.09,65.83a2,2,0,0,1-.87.49L31.42,71A1.82,1.82,0,0,1,31,71.08Zm6.4-19.73L33.54,66.61,48.8,62.8,93.08,18.51a8.09,8.09,0,0,0,0-11.44,8.1,8.1,0,0,0-11.44,0Z"/></g></g></svg>