<svg id="Layer_1" data-name="Layer 1" xmlns="http://www.w3.org/2000/svg" viewBox="0 0 100 100"><title>EditLine</title><g id="edit-3"><g id="Path_11529" data-name="Path 11529"><path d="M96.14,94.63H49.63a1.81,1.81,0,0,1,0-3.61H96.14a1.81,1.81,0,1,1,0,3.61Z"/></g><g id="Path_11530" data-name="Path 11530"><path d="M3.12,94.61a1.8,1.8,0,0,1-1.75-2.24L6.54,71.7A1.88,1.88,0,0,1,7,70.85L71.6,6.28A12.77,12.77,0,0,1,93.52,15a12.65,12.65,0,0,1-3.61,9.08L25.07,88.93a1.9,1.9,0,0,1-.84.47L3.55,94.55A1.59,1.59,0,0,1,3.12,94.61Zm6.8-21.56L5.6,90.33,22.87,86,87.12,21.77a9.29,9.29,0,0,0,2.8-6.72A9.17,9.17,0,0,0,74.18,8.8l0,0Zm63-65.5h0Z"/></g></g></svg>