<svg id="Layer_1" data-name="Layer 1" xmlns="http://www.w3.org/2000/svg" viewBox="0 0 100 100"><title>Faceid</title><path d="M86.59,4.13H14.31A10.33,10.33,0,0,0,4,14.45V86.73A10.34,10.34,0,0,0,14.31,97.06H86.59A10.34,10.34,0,0,0,96.92,86.73V14.45A10.33,10.33,0,0,0,86.59,4.13Zm6.2,82.6a6.21,6.21,0,0,1-6.2,6.2H14.31a6.2,6.2,0,0,1-6.19-6.2V14.45a6.19,6.19,0,0,1,6.19-6.19H86.59a6.2,6.2,0,0,1,6.2,6.19Z"/><circle cx="42.22" cy="43.62" r="4.13"/><path d="M58.74,47.75a4.13,4.13,0,1,0-4.13-4.13A4.13,4.13,0,0,0,58.74,47.75Z"/><path d="M58,56.31l-.06.07h0a10.67,10.67,0,0,1-15,0,3,3,0,1,0-4.26,4.13l.06.06a16.6,16.6,0,0,0,23.44,0A3,3,0,0,0,58,56.31Z"/><path d="M17.81,32.79a3,3,0,0,0,3-3v-8.9h8.9a3,3,0,1,0,0-5.94H17.81a3,3,0,0,0-3,3V29.82A3,3,0,0,0,17.81,32.79Z"/><path d="M29.68,80.26h-8.9v-8.9a3,3,0,1,0-5.93,0V83.23a3,3,0,0,0,3,3H29.68a3,3,0,0,0,0-5.94Z"/><path d="M83.09,68.39a3,3,0,0,0-3,3h0v8.9h-8.9a3,3,0,0,0,0,5.94H83.09a3,3,0,0,0,3-3h0V71.36A3,3,0,0,0,83.09,68.39Z"/><path d="M71.22,20.92h8.9v8.9a3,3,0,0,0,5.94,0h0V18a3,3,0,0,0-3-3H71.22a3,3,0,0,0,0,5.94Z"/><path d="M80.13,50.59A29.68,29.68,0,1,0,50.46,80.26,29.67,29.67,0,0,0,80.13,50.59ZM50.45,74.33A23.74,23.74,0,1,1,74.19,50.59,23.73,23.73,0,0,1,50.45,74.33Z"/></svg>