<svg id="Layer_1" data-name="Layer 1" xmlns="http://www.w3.org/2000/svg" viewBox="0 0 100 100"><title>Face</title><path d="M50,.64A49.36,49.36,0,1,0,99.36,50,49.36,49.36,0,0,0,50,.64ZM64.23,50.77H58.09a7.43,7.43,0,0,0-1.7,0,1.51,1.51,0,0,0-.8.79,2.41,2.41,0,0,0,0,1V80.05c0,1.56,0,1.57-1.59,1.57H44c-1.71,0-1.71,0-1.71-1.67V52.38c0-1.61,0-1.61-1.61-1.61H36.38V39.66c1.6,0,3.14,0,4.67,0,1,0,1.21-.32,1.23-1.24a73.35,73.35,0,0,1,.48-9.14A10.83,10.83,0,0,1,53,19.94c3.65-.25,7.33-.17,11-.25.75,0,1,.29,1,1q0,4.55,0,9.08c0,.75-.3,1-1,1H58.13a2.23,2.23,0,0,0-2.53,1.9,2.25,2.25,0,0,0,0,.58c0,1.78,0,3.56,0,5.34,0,.88.35,1.09,1.15,1.08,2.35,0,4.7,0,7,0h1.44Z"/></svg>