<svg id="Layer_1" data-name="Layer 1" xmlns="http://www.w3.org/2000/svg" viewBox="0 0 100 100"><title>fAX</title><g id="Icon_awesome-fax" data-name="Icon awesome-fax"><path d="M89.85,98.43H33.14a7.6,7.6,0,0,1-7.59-7.57V11.47a7.61,7.61,0,0,1,7.59-7.59h43A7.54,7.54,0,0,1,81.51,6.1l8,8a7.52,7.52,0,0,1,2.22,5.37v13a7.59,7.59,0,0,1,5.67,7.33v51A7.6,7.6,0,0,1,89.85,98.43ZM33.14,7.71a3.76,3.76,0,0,0-3.76,3.76V90.86a3.75,3.75,0,0,0,3.76,3.75h56.7a3.77,3.77,0,0,0,3.76-3.75v-51a3.77,3.77,0,0,0-3.76-3.76H87.93V19.49a3.73,3.73,0,0,0-1.1-2.66l-8-8a3.7,3.7,0,0,0-2.66-1.1Zm-17,90.72H10.46a7.6,7.6,0,0,1-7.59-7.57V34.15a7.6,7.6,0,0,1,7.59-7.58h5.66a7.59,7.59,0,0,1,7.59,7.58v56.7A7.59,7.59,0,0,1,16.12,98.43Zm-5.66-68a3.77,3.77,0,0,0-3.77,3.76V90.86a3.76,3.76,0,0,0,3.77,3.75h5.66a3.76,3.76,0,0,0,3.77-3.76V34.15a3.77,3.77,0,0,0-3.77-3.76Zm65.21,56.7H70a4.76,4.76,0,0,1-4.75-4.74V76.68A4.76,4.76,0,0,1,70,71.93h5.68a4.75,4.75,0,0,1,4.74,4.75v5.67A4.75,4.75,0,0,1,75.67,87.09ZM70,75.75a.93.93,0,0,0-.92.93v5.67a.92.92,0,0,0,.92.92h5.68a.92.92,0,0,0,.92-.92V76.68a.93.93,0,0,0-.92-.93ZM53,87.09H47.31a4.75,4.75,0,0,1-4.75-4.74V76.68a4.75,4.75,0,0,1,4.75-4.75H53a4.75,4.75,0,0,1,4.74,4.75v5.67A4.75,4.75,0,0,1,53,87.09ZM47.31,75.75a.93.93,0,0,0-.92.93v5.67a.92.92,0,0,0,.92.92H53a.93.93,0,0,0,.92-.92V76.68a.93.93,0,0,0-.92-.93ZM75.67,64.41H70a4.76,4.76,0,0,1-4.75-4.75V54A4.76,4.76,0,0,1,70,49.25h5.68A4.75,4.75,0,0,1,80.41,54v5.67A4.75,4.75,0,0,1,75.67,64.41ZM70,53.07a.92.92,0,0,0-.92.92v5.67a.93.93,0,0,0,.92.93h5.68a.93.93,0,0,0,.92-.93V54a.92.92,0,0,0-.92-.92ZM53,64.41H47.31a4.75,4.75,0,0,1-4.75-4.75V54a4.75,4.75,0,0,1,4.75-4.74H53A4.75,4.75,0,0,1,57.73,54v5.67A4.75,4.75,0,0,1,53,64.41ZM47.31,53.07a.92.92,0,0,0-.92.92v5.67a.93.93,0,0,0,.92.93H53a.93.93,0,0,0,.92-.93V54a.93.93,0,0,0-.92-.92ZM83.25,41.73H34.06V12.39H74.74V20a.93.93,0,0,0,.93.93h7.57ZM37.89,37.91H79.43V24.72H75.67A4.75,4.75,0,0,1,70.92,20V16.21h-33Z"/></g></svg>