<svg id="Layer_1" data-name="Layer 1" xmlns="http://www.w3.org/2000/svg" viewBox="0 0 100 100"><title>FileSoild</title><path d="M56.83,31V2.82h-36a9.38,9.38,0,0,0-9.38,9.38V87.29a9.39,9.39,0,0,0,9.38,9.39H77.14a9.39,9.39,0,0,0,9.38-9.39V32.51H58.37A1.54,1.54,0,0,1,56.83,31ZM30.21,34.13H39.6a1.54,1.54,0,0,1,0,3.07H30.21a1.54,1.54,0,1,1,0-3.07ZM69,76.31H29a1.54,1.54,0,0,1,0-3.08H69a1.54,1.54,0,0,1,0,3.08Zm1.53-21.56A1.54,1.54,0,0,1,69,56.28H29a1.54,1.54,0,0,1,0-3.07H69A1.54,1.54,0,0,1,70.54,54.75Z"/><polygon points="84.99 29.44 59.91 4.36 59.91 29.44 84.99 29.44"/></svg>