<svg id="Layer_1" data-name="Layer 1" xmlns="http://www.w3.org/2000/svg" viewBox="0 0 98.3 98.3"><defs><style>.cls-1{fill:#fff;}.cls-2{fill:#aaadb9;}</style></defs><title>Icon_3</title><g id="Group_9660" data-name="Group 9660"><g id="Group_9594" data-name="Group 9594"><g id="Group_9586" data-name="Group 9586"><circle id="Ellipse_218" data-name="Ellipse 218" class="cls-1" cx="49.58" cy="49.39" r="48.05"/></g></g><g id="Group_9650" data-name="Group 9650"><path id="Path_1803" data-name="Path 1803" class="cls-2" d="M20.62,37.88v2.26c0,1-.51,1.56-1.27,1.57S18,41.1,18,40.12V36.79a1.33,1.33,0,0,1,1.13-1.5,1.29,1.29,0,0,1,.34,0c2.47,0,4.93,0,7.4,0a1.48,1.48,0,0,1,1.55,1.1c.32.92.68,1.83,1.07,2.72a1,1,0,0,0,.63.53c4.2.6,8.4,1.16,12.6,1.74,3.41.48,6.81,1,10.22,1.42,4.75.65,9.5,1.28,14.26,1.92,2,.27,4,.54,5.93.83,1.06.16,1.47.89,1.07,2q-2.27,6-4.54,12c-.68,1.78-1.35,3.57-2,5.35-.41,1.07-.71,1.26-1.84,1.26H38.56c-1.15,0-1.41-.2-1.83-1.27q-5.1-13.13-10.18-26.25a.85.85,0,0,0-1-.67C24,37.9,22.32,37.88,20.62,37.88Zm31.93,23H63.68a3.53,3.53,0,0,0,.79-.08,1.24,1.24,0,0,0,.09-2.39,3,3,0,0,0-.85-.11H41.32a1.31,1.31,0,0,0-1.46,1.13,1.29,1.29,0,0,0,0,.55c.17.6.66.91,1.53.91Zm.09-7.69H41.24a1.25,1.25,0,0,0-1.39,1.08,1,1,0,0,0,0,.25c0,.78.55,1.2,1.52,1.2H64a1.27,1.27,0,0,0,1.27-1.84,1.32,1.32,0,0,0-1.33-.7ZM50.1,48.11H44.84c-1.25,0-2.49,0-3.73,0a1.24,1.24,0,0,0-1.28,1.21,1.13,1.13,0,0,0,.12.57,1.34,1.34,0,0,0,1.44.75H58.78a1.1,1.1,0,0,0,.52-.05c.34-.24.82-.5.91-.84a1.59,1.59,0,0,0-.3-1.25,1.63,1.63,0,0,0-1.14-.39c-2.89,0-5.78,0-8.67,0Z"/><path id="Path_1804" data-name="Path 1804" class="cls-2" d="M71,37.27c-.09,1-.13,1.82-.24,2.64a1.29,1.29,0,0,1-1.3,1.25l-.2,0a1.27,1.27,0,0,1-1.06-1.46.5.5,0,0,1,0-.12A14,14,0,0,0,62,25.62,14.17,14.17,0,0,0,40.26,35a1.33,1.33,0,0,1-1.43,1.21h0a1.28,1.28,0,0,1-1.1-1.44,2,2,0,0,1,.07-.26,16.26,16.26,0,0,1,9.58-12.33A16.65,16.65,0,0,1,69.41,30.4a16.29,16.29,0,0,1,1.28,4.14C70.88,35.49,70.94,36.47,71,37.27Z"/><path id="Path_1805" data-name="Path 1805" class="cls-2" d="M59.61,66.7a5.64,5.64,0,1,1-.14,0Z"/><path id="Path_1806" data-name="Path 1806" class="cls-2" d="M50.48,72.22a5.7,5.7,0,1,1-6-5.51h.08a5.68,5.68,0,0,1,5.89,5.46Z"/><path id="Path_1807" data-name="Path 1807" class="cls-2" d="M56.46,29.32c-.21.64.17.95.84,1.24a3.73,3.73,0,0,1,2.34,3.63,1.25,1.25,0,0,1-1.14,1.35h0a1.25,1.25,0,0,1-1.36-1.15.28.28,0,0,1,0-.09c-.11-1-.48-1.48-1.51-1.63a4.79,4.79,0,0,0-1.77.07,1.49,1.49,0,0,0-1.2,1.36,1.46,1.46,0,0,0,.84,1.53c.77.4,1.54.78,2.31,1.2S57.26,37.6,58,38a3.52,3.52,0,0,1,1.71,3.13,1.28,1.28,0,0,1-1.1,1.45h-.12a1.22,1.22,0,0,1-1.32-1.13v-.15a1.54,1.54,0,0,0-.93-1.41L53,38.31q-.48-.24-.93-.51a3.84,3.84,0,0,1-2-4.1,4,4,0,0,1,3.17-3.45c.52-.15.69-.35.62-.85a6.31,6.31,0,0,1,0-.87,1.33,1.33,0,0,1,1.3-1.27,1.28,1.28,0,0,1,1.26,1.28A6.06,6.06,0,0,1,56.46,29.32Z"/></g></g></svg>