<svg id="Layer_1" data-name="Layer 1" xmlns="http://www.w3.org/2000/svg" viewBox="0 0 100 100"><title>DS copy 5</title><g id="gift"><g id="Path_11535" data-name="Path 11535"><path d="M87.22,98.09H12.81a1.62,1.62,0,0,1-1.62-1.61V52a1.62,1.62,0,1,1,3.24,0V94.86H85.6V52a1.62,1.62,0,0,1,3.24,0V96.48A1.62,1.62,0,0,1,87.22,98.09Z"/></g><g id="Rectangle_4518" data-name="Rectangle 4518"><path d="M96.52,53.61H3.5A1.63,1.63,0,0,1,1.88,52V27.73A1.62,1.62,0,0,1,3.5,26.11h93a1.62,1.62,0,0,1,1.62,1.62V52A1.63,1.63,0,0,1,96.52,53.61ZM5.12,50.37H94.9v-21H5.12Z"/></g><g id="Line_141" data-name="Line 141"><path d="M52,98.09a1.62,1.62,0,0,1-1.62-1.61V27.73a1.62,1.62,0,1,1,3.24,0V96.48A1.61,1.61,0,0,1,52,98.09Z"/></g><g id="Path_11536" data-name="Path 11536"><path d="M50,28.33H29.08a13.25,13.25,0,0,1,0-26.49C46.49,1.84,51.4,25.4,51.6,26.4a1.62,1.62,0,0,1-.34,1.34A1.59,1.59,0,0,1,50,28.33ZM29.08,5.08a10,10,0,0,0,0,20H47.94C46.43,19.73,41.2,5.08,29.08,5.08Z"/></g><g id="Path_11537" data-name="Path 11537"><path d="M70.94,28.33H50a1.59,1.59,0,0,1-1.25-.59,1.62,1.62,0,0,1-.34-1.34c.2-1,5.12-24.56,22.52-24.56a13.25,13.25,0,1,1,0,26.49ZM52.08,25.1H70.94a10,10,0,1,0,0-20C58.83,5.08,53.6,19.73,52.08,25.1Z"/></g></g></svg>