<svg id="Layer_1" data-name="Layer 1" xmlns="http://www.w3.org/2000/svg" viewBox="0 0 100 100"><title>Gmail</title><path d="M50,1.35A48.65,48.65,0,1,0,98.65,50,48.65,48.65,0,0,0,50,1.35ZM64.29,47.22a62.63,62.63,0,0,1-.47,7.49,19.78,19.78,0,0,1-3.53,8.19,22.28,22.28,0,0,1-21,9.35,22.55,22.55,0,0,1-9-3.23,22.06,22.06,0,0,1-7.44-7.74,21.17,21.17,0,0,1-2.5-6.5,21.61,21.61,0,0,1,.18-9.86,22.38,22.38,0,0,1,6.6-11.06A22.64,22.64,0,0,1,43.39,28,22,22,0,0,1,55,32.18c.55.4.51.71.16,1.16-1.4,1.8-2.8,3.6-4.18,5.42-.38.47-.69.5-1.19.15a13.1,13.1,0,0,0-9.67-2.26A13.71,13.71,0,1,0,54.33,56.42c1-1.75.8-2-1.17-2h-10c-1,0-1.09-.08-1.09-1.1,0-2.12,0-4.26,0-6.36,0-.78.29-1,1-1,3.34,0,6.73,0,10.1,0h10C64.29,46,64.35,46,64.29,47.22ZM86.74,53c-1.53,0-3.06,0-4.6,0-.66,0-.88.22-.86.87,0,1.53,0,3.07,0,4.61,0,.65-.19.95-.91.95-1.26,0-2.51,0-3.77,0-.68,0-.95-.28-.95-.95,0-1.48,0-3,0-4.43,0-.83-.28-1.09-1.06-1s-1.4,0-2.09,0H70c-.47,0-.7-.21-.7-.71V48.15c0-.63.35-.73.86-.73h4.6c.71,0,.92-.25.9-1,0-1.48,0-2.95,0-4.43,0-.75.24-1.08,1-1,1.25,0,2.51,0,3.76,0,.63,0,.84.25.84.84,0,1.5,0,3,0,4.52,0,.78.19,1.09,1,1,1.5,0,3,0,4.52,0,.69,0,.94.24.91.95,0,1.25,0,2.51,0,3.76C87.77,52.86,87.43,53,86.74,53Z"/></svg>