<svg id="Layer_1" data-name="Layer 1" xmlns="http://www.w3.org/2000/svg" viewBox="0 0 100 100"><title>Group</title><g id="user"><g id="Path_11329" data-name="Path 11329"><path d="M63.42,98.74A1.47,1.47,0,0,1,62,97.27V89.83a13.42,13.42,0,0,0-13.4-13.4H18.79a13.41,13.41,0,0,0-13.4,13.4v7.44a1.47,1.47,0,0,1-2.94,0V89.83A16.36,16.36,0,0,1,18.79,73.49H48.54A16.37,16.37,0,0,1,64.89,89.83v7.44A1.47,1.47,0,0,1,63.42,98.74Z"/></g><g id="Ellipse_200" data-name="Ellipse 200"><path d="M35,63.88c-7.89,0-14.32-7.25-14.32-16.15S27.14,31.59,35,31.59s14.31,7.24,14.31,16.14S42.92,63.88,35,63.88Zm0-29.36c-6.28,0-11.38,5.93-11.38,13.21S28.75,60.94,35,60.94,46.4,55,46.4,47.73,41.3,34.52,35,34.52Z"/></g><g id="Ellipse_241" data-name="Ellipse 241"><path d="M71.72,63.88c-7.89,0-14.31-7.25-14.31-16.15s6.42-16.14,14.31-16.14S86,38.83,86,47.73,79.61,63.88,71.72,63.88Zm0-29.36c-6.27,0-11.37,5.93-11.37,13.21s5.1,13.21,11.37,13.21S83.09,55,83.09,47.73,78,34.52,71.72,34.52Z"/></g><g id="Path_11682" data-name="Path 11682"><path d="M63.42,98.74A1.47,1.47,0,0,1,62,97.27V89.83a13.42,13.42,0,0,0-13.4-13.4H18.79a13.41,13.41,0,0,0-13.4,13.4v7.44a1.47,1.47,0,0,1-2.94,0V89.83A16.36,16.36,0,0,1,18.79,73.49H48.54A16.37,16.37,0,0,1,64.89,89.83v7.44A1.47,1.47,0,0,1,63.42,98.74Z"/></g><g id="Path_11683" data-name="Path 11683"><path d="M93.32,98.74a1.47,1.47,0,0,1-1.47-1.47V89.83a13.41,13.41,0,0,0-13.4-13.4H70.62a1.47,1.47,0,1,1,0-2.94h7.83A16.36,16.36,0,0,1,94.79,89.83v7.44A1.47,1.47,0,0,1,93.32,98.74Z"/></g></g></svg>