<svg id="Layer_1" data-name="Layer 1" xmlns="http://www.w3.org/2000/svg" viewBox="0 0 100 100"><title>Artboard 1</title><g id="Line_23" data-name="Line 23"><path d="M99.15,50.6H1.94a.5.5,0,0,1-.5-.5.5.5,0,0,1,.5-.5H99.15a.51.51,0,0,1,.5.5A.5.5,0,0,1,99.15,50.6Z"/></g><g id="Line_24" data-name="Line 24"><path d="M99.15,18.2H1.94a.5.5,0,0,1-.5-.5.5.5,0,0,1,.5-.5H99.15a.5.5,0,0,1,.5.5A.51.51,0,0,1,99.15,18.2Z"/></g><g id="Line_25" data-name="Line 25"><path d="M99.15,83H1.94a.5.5,0,0,1-.5-.5.5.5,0,0,1,.5-.5H99.15a.51.51,0,0,1,.5.5A.5.5,0,0,1,99.15,83Z"/></g></svg>