<svg xmlns="http://www.w3.org/2000/svg" width="17.268" height="17.268" viewBox="0 0 17.268 17.268">
  <path id="Icon_awesome-question-circle" data-name="Icon awesome-question-circle" d="M17.83,9.2A8.634,8.634,0,1,1,9.2.563,8.633,8.633,0,0,1,17.83,9.2Zm-8.4-5.779A4.509,4.509,0,0,0,5.37,5.637a.418.418,0,0,0,.095.566l1.208.916a.418.418,0,0,0,.58-.074C7.875,6.256,8.3,5.8,9.248,5.8c.711,0,1.591.458,1.591,1.147,0,.521-.43.789-1.133,1.183-.819.459-1.9,1.03-1.9,2.46v.139a.418.418,0,0,0,.418.418h1.95a.418.418,0,0,0,.418-.418v-.046c0-.991,2.9-1.032,2.9-3.713C13.485,4.949,11.39,3.417,9.428,3.417ZM9.2,12.051a1.6,1.6,0,1,0,1.6,1.6A1.6,1.6,0,0,0,9.2,12.051Z" transform="translate(-0.563 -0.563)" fill="#001968"/>
</svg>
