<svg id="Layer_1" data-name="Layer 1" xmlns="http://www.w3.org/2000/svg" viewBox="0 0 100 100"><defs><style>.cls-1{isolation:isolate;}</style></defs><title>Ask</title><g id="Vibrate_on_Ring" data-name="Vibrate on Ring" class="cls-1"><g class="cls-1"><path d="M46.4,1C60.49,1,71.46,9,71.46,22.58,71.46,32.72,65.9,39.1,57,45.69c-9.85,7.36-10.9,12.64-10.9,18.53V71H42.17V63.88c0-7.84,2.08-13.12,12.77-21.17C63.41,36.33,67.36,31,67.36,22.65c0-11.86-9.92-18-21.37-18-16.8,0-21.52,11.94-22.14,18.25H20.17C20.86,12.31,28.08,1,46.4,1ZM44.32,89.07A4.77,4.77,0,0,1,49,93.79a4.71,4.71,0,0,1-4.72,4.65,4.65,4.65,0,0,1-4.65-4.65A4.71,4.71,0,0,1,44.32,89.07Z"/></g></g></svg>