<svg id="Layer_1" data-name="Layer 1" xmlns="http://www.w3.org/2000/svg" viewBox="0 0 100 100"><title>Home</title><path d="M47.6.78a.4.4,0,0,1,.15,0A.4.4,0,0,0,47.6.78Z"/><path d="M47.75.81l.1.07Z"/><path d="M93.56,34.09,50.76.8a2,2,0,0,0-2.44,0L5.52,34.09a2,2,0,0,0-.77,1.57V88a11.52,11.52,0,0,0,11.5,11.49H82.83A11.51,11.51,0,0,0,94.33,88V35.66A2,2,0,0,0,93.56,34.09ZM61.81,95.47H37.27V51.92H61.81ZM90.34,88a7.52,7.52,0,0,1-7.51,7.51h-17V49.92a2,2,0,0,0-2-2H35.27a2,2,0,0,0-2,2V95.47h-17A7.51,7.51,0,0,1,8.74,88V36.63L49.54,4.9l40.8,31.73Z"/></svg>