<svg id="Layer_1" data-name="Layer 1" xmlns="http://www.w3.org/2000/svg" viewBox="0 0 100 100"><title>Image</title><g id="image"><g id="Rectangle_4540" data-name="Rectangle 4540"><path d="M87.25,99.89H12.86A12.76,12.76,0,0,1,.11,87.14V12.75A12.76,12.76,0,0,1,12.86,0H87.25A12.76,12.76,0,0,1,100,12.75V87.14A12.76,12.76,0,0,1,87.25,99.89ZM12.86,4.25a8.52,8.52,0,0,0-8.5,8.5V87.14a8.52,8.52,0,0,0,8.5,8.5H87.25a8.52,8.52,0,0,0,8.5-8.5V12.75a8.52,8.52,0,0,0-8.5-8.5Z"/></g><g id="Ellipse_218" data-name="Ellipse 218"><path d="M31.46,41.45a10.1,10.1,0,1,1,10.1-10.1A10.11,10.11,0,0,1,31.46,41.45Zm0-15.94a5.84,5.84,0,1,0,5.84,5.84A5.85,5.85,0,0,0,31.46,25.51Z"/></g><g id="Path_11544" data-name="Path 11544"><path d="M12.86,99.89a2.13,2.13,0,0,1-1.5-3.63L69.8,37.81a2.13,2.13,0,0,1,3,0L99.38,64.38a2.13,2.13,0,0,1-3,3L71.31,42.32l-56.94,57A2.15,2.15,0,0,1,12.86,99.89Z"/></g></g></svg>