<svg id="Layer_1" data-name="Layer 1" xmlns="http://www.w3.org/2000/svg" viewBox="0 0 100 16.81"><defs><style>.cls-1{fill:#0c6499;}.cls-2{fill:#f8991d;}.cls-3{fill:#c9c9c9;}</style></defs><title>invoice_mobile_icon</title><g id="Group_2381" data-name="Group 2381"><g id="Group_2380" data-name="Group 2380"><path id="Path_788" data-name="Path 788" class="cls-1" d="M94.74,4.15h4.11c.75,0,.86.12.86.86,0,.4,0,.78,0,1.18s-.16.67-.68.69-1.29,0-1.94,0c-1.45,0-2.88,0-4.33,0a2.9,2.9,0,0,0-1.22.34,1.21,1.21,0,0,0-.47.72c0,.14.23.37.4.49s.32,0,.48,0h6.81c.8,0,1,.16.95.94v.91c0,.69-.2.9-.92.9h-6.9c-.35,0-.85,0-.84.38a1.57,1.57,0,0,0,.62,1,2.06,2.06,0,0,0,1.09.2h5.95c.83,0,1,.17,1,1V14.9c0,.58-.23.81-.82.83H92.35a18.8,18.8,0,0,1-2-.13,2.57,2.57,0,0,1-2-1,4.34,4.34,0,0,1-.7-1.9c-.09-1.84-.05-3.69,0-5.54a3,3,0,0,1,.75-2,2.94,2.94,0,0,1,2.3-.95c1.35,0,2.71,0,4.06,0Z"/><path id="Path_789" data-name="Path 789" class="cls-2" d="M9.57.67h5.34c1,0,1.12.15,1.12,1.12,0,.51,0,1,0,1.52,0,.67-.21.88-.89.9-.84,0-1.68,0-2.52,0-1.88,0-3.75,0-5.63,0a3.58,3.58,0,0,0-1.59.44,1.49,1.49,0,0,0-.6.94c0,.16.28.48.51.63s.42,0,.63,0H14.8c1,0,1.24.19,1.23,1.22V8.7c0,.91-.26,1.17-1.18,1.17h-9c-.45,0-1.1,0-1.09.5a2,2,0,0,0,.81,1.32A2.53,2.53,0,0,0,7,11.94c2.58,0,5.16,0,7.74,0,1.08,0,1.31.22,1.3,1.3v1.41c0,.76-.3,1.06-1.07,1.08H13.09c-2.21,0-4.41,0-6.62,0-.86,0-1.71-.07-2.57-.16a3.35,3.35,0,0,1-2.63-1.34,5.37,5.37,0,0,1-.91-2.47C.24,9.37.29,7,.32,4.55a4,4,0,0,1,1-2.63,3.84,3.84,0,0,1,3-1.23c1.76,0,3.52,0,5.28,0Z"/><path id="Path_790" data-name="Path 790" class="cls-1" d="M62.89,4.18c1.06,0,2.11,0,3.16,0A2.68,2.68,0,0,1,68,5a3.76,3.76,0,0,1,.66,1.25,4.44,4.44,0,0,1,.11,1.21c0,1.74,0,3.48,0,5.23a2.87,2.87,0,0,1-.63,1.88,2.56,2.56,0,0,1-2,1c-2.25,0-4.5.06-6.75,0a2.65,2.65,0,0,1-2.37-1.68,1.34,1.34,0,0,1-.14-.52c0-2.22-.07-4.44,0-6.67a2.58,2.58,0,0,1,2.57-2.51c1.13-.09,2.28,0,3.42,0Zm2.59,5.66c0-.59,0-1.18,0-1.76a1.1,1.1,0,0,0-1-1.1c-1.05-.06-2.1-.06-3.15,0A1.26,1.26,0,0,0,60.17,8.2c0,1.12,0,2.25,0,3.38a1.17,1.17,0,0,0,1.15,1.2h0c1,.05,2,.06,2.93,0a1.11,1.11,0,0,0,1.18-1,.48.48,0,0,0,0-.17c0-.59,0-1.18,0-1.77Z"/><path id="Path_792" data-name="Path 792" class="cls-1" d="M80.54,4.16c1,0,2-.06,3.07,0a3.48,3.48,0,0,1,1.68.52,3,3,0,0,1,1,1.4A6.55,6.55,0,0,1,86.47,8c0,.54-.16.69-.7.7H83.88c-.58,0-.68-.11-.77-.66A1.09,1.09,0,0,0,82,7a25.16,25.16,0,0,0-2.88,0,1.39,1.39,0,0,0-1.32,1.45c0,1,0,2,0,3A1.31,1.31,0,0,0,79,12.79h0c1,0,2,0,3.06,0,.65,0,.92-.36,1-1s.26-.72.83-.73H85.7c.56,0,.84.28.8.83s-.09,1.08-.17,1.61a2.43,2.43,0,0,1-1.86,2,5.39,5.39,0,0,1-1.6.24c-2,0-3.9,0-5.85-.13a2.7,2.7,0,0,1-2.5-2.8c0-1.94,0-3.88,0-5.82a2.63,2.63,0,0,1,2.54-2.74h.1c1.12-.09,2.25,0,3.38,0Z"/><path id="Path_793" data-name="Path 793" class="cls-1" d="M42.5,11.08c0,1.26,0,2.53,0,3.79,0,.68-.17.85-.85.86H40c-.58,0-.79-.2-.79-.78,0-1.32,0-2.64,0-4,0-.81,0-1.62,0-2.43,0-1.26-.61-1.66-1.62-1.66h-2c-1.18,0-1.7.47-1.7,1.69v6.14c0,.81-.2,1-1,1H31.25c-.57,0-.82-.27-.82-.84,0-2.48,0-5,0-7.44A3.85,3.85,0,0,1,31,5.32,2.48,2.48,0,0,1,33.1,4.21c2.24-.07,4.49-.12,6.72,0,1.75.1,2.53,1.15,2.66,3,.08,1.29,0,2.59,0,3.88Z"/><path id="Path_794" data-name="Path 794" class="cls-1" d="M45.37,4.16h1.12A.5.5,0,0,1,47,4.6c.32,1.43.63,2.87,1,4.3.25,1,.53,2,.85,3a1.42,1.42,0,0,0,.55.68c.23.16.48.07.71-.16a3.59,3.59,0,0,0,.77-1.84C51.29,9,51.6,7.44,52,5.86c.1-.42.22-.84.33-1.26a.56.56,0,0,1,.64-.44h2c.63,0,.77.21.61.81s-.27,1.11-.42,1.66c-.22.85-.46,1.71-.69,2.56s-.41,1.53-.56,2.31a6.64,6.64,0,0,1-1.73,3.35,2.67,2.67,0,0,1-2,.89h-.31A3.41,3.41,0,0,1,46.52,14a9.29,9.29,0,0,1-1.35-3.4c-.23-1-.49-1.91-.72-2.87S44,5.84,43.8,4.89c-.12-.61,0-.74.62-.74h.95Z"/><path id="Path_796" data-name="Path 796" class="cls-1" d="M26,9.88V5c0-.69.14-.82.83-.82H28.5c.72,0,.85.12.84.84,0,3.12-.08,6.25-.07,9.38,0,1.27-.17,1.42-1.38,1.37-.34,0-.69,0-1,0-.67,0-.9-.24-.9-.89Z"/><path id="Path_797" data-name="Path 797" class="cls-1" d="M70,9.88V5.06c0-.86,0-.91.92-.91h1.58c.69,0,.77.07.77.79,0,1.52,0,3,0,4.55l0,5.46c0,.63-.16.78-.76.79H70.77c-.61,0-.76-.18-.76-.79Z"/><path id="Path_798" data-name="Path 798" class="cls-3" d="M21.21,8.49h3c.62,0,.73.13.73.76,0,.42,0,.84,0,1.26s-.17.7-.67.71H18.11a.68.68,0,0,1-.7-.65V10.5c0-.4,0-.79,0-1.18,0-.65.18-.84.86-.84h2.94Z"/></g></g></svg>