<svg id="Layer_1" data-name="Layer 1" xmlns="http://www.w3.org/2000/svg" viewBox="0 0 98.3 98.3"><title>Report_Line</title><g id="Group_12486" data-name="Group 12486"><g id="Rectangle_7376" data-name="Rectangle 7376"><path d="M88,97.3H10.66A9.68,9.68,0,0,1,1,87.64V10.33A9.68,9.68,0,0,1,10.66.67H88a9.68,9.68,0,0,1,9.67,9.66V87.64A9.68,9.68,0,0,1,88,97.3ZM10.66,4.54a5.8,5.8,0,0,0-5.79,5.79V87.64a5.8,5.8,0,0,0,5.79,5.79H88a5.8,5.8,0,0,0,5.8-5.79V10.33A5.8,5.8,0,0,0,88,4.54Z"/></g><g id="Group_12484" data-name="Group 12484"><g id="Line_774" data-name="Line 774"><rect x="39.85" y="22.88" width="32.61" height="3.87"/></g><g id="Line_776" data-name="Line 776"><rect x="39.85" y="47.53" width="32.61" height="3.87"/></g><g id="Line_775" data-name="Line 775"><rect x="39.85" y="71.21" width="32.61" height="3.87"/></g><g id="Rectangle_7372" data-name="Rectangle 7372"><rect x="25.16" y="20" width="9.66" height="9.66"/><rect x="25.16" y="20" width="9.66" height="9.66"/></g><g id="Rectangle_7374" data-name="Rectangle 7374"><rect x="25.16" y="44.15" width="9.66" height="9.66"/><rect x="25.16" y="44.15" width="9.66" height="9.66"/></g><g id="Rectangle_7373" data-name="Rectangle 7373"><rect x="25.16" y="68.31" width="9.66" height="9.66"/><rect x="25.16" y="68.31" width="9.66" height="9.66"/></g></g></g></svg>