<svg id="Group_31132" data-name="Group 31132" xmlns="http://www.w3.org/2000/svg" width="24" height="24" viewBox="0 0 24 24">
  <path id="Path_18327" data-name="Path 18327" d="M4.079,8.386C1.767,8.4.017,9.912.008,11.9,0,15.019,0,18.224.016,20.478a3.309,3.309,0,0,0,.213,1.15A3.975,3.975,0,0,0,4.129,24q5.9,0,11.8,0h3.935c.1,0,.194,0,.289,0a3.805,3.805,0,0,0,3.832-3.355.633.633,0,0,0-.643-.695.656.656,0,0,0-.728.629,2.517,2.517,0,0,1-2.763,2.27c-5.538,0-10.677,0-15.711,0A2.5,2.5,0,0,1,1.38,20.422c0-2.569,0-5.89,0-8.459A2.5,2.5,0,0,1,4.143,9.541c5.3,0,10.582,0,15.711,0a3.393,3.393,0,0,1,.79.083,2.375,2.375,0,0,1,1.974,2.311c0,.562,0,1.849,0,2.4,0,.589,0,1.2,0,1.8a.689.689,0,0,0,1.366.013l0-.55c.007-.993.016-2.818-.012-3.88a3.482,3.482,0,0,0-2.592-3.095,7.3,7.3,0,0,0-1.379-.213l-.214-.02a6.441,6.441,0,0,0-.761-.011c-.132,0-.259.006-.386.006h-.422l0-1.815c0-.459,0-.587,0-1.207A5.4,5.4,0,0,0,14.137.34,9.369,9.369,0,0,0,13.022.1c-.175-.031-.355-.062-.532-.1L11.465,0l-.2.03c-.167.023-.339.047-.5.076C7.831.619,5.779,2.788,5.77,5.385c0,.576,0,.674,0,1.076V8.386H4.079ZM7.215,4.777a4.315,4.315,0,0,1,3.9-3.552A5.076,5.076,0,0,1,16.4,3.583a3.373,3.373,0,0,1,.421,1.384c.032.8.03,1.031.024,1.713l0,.248c0,.349,0,.7,0,1.049v.391H7.186V7.978c0-.391-.01-.789-.02-1.174l-.009-.329A9.875,9.875,0,0,1,7.215,4.777Z" transform="translate(0)" fill="#003383"/>
  <g id="Group_31113" data-name="Group 31113" transform="translate(5.246 15.443)">
    <path id="Path_18328" data-name="Path 18328" d="M16.371,44.532a.75.75,0,1,1-.747-.757A.755.755,0,0,1,16.371,44.532Z" transform="translate(-14.87 -43.775)" fill="#003383"/>
    <g id="Group_31110" data-name="Group 31110" transform="translate(4.003)">
      <path id="Path_18329" data-name="Path 18329" d="M27.717,44.532a.75.75,0,1,1-.747-.757A.755.755,0,0,1,27.717,44.532Z" transform="translate(-26.216 -43.775)" fill="#003383"/>
    </g>
    <g id="Group_31111" data-name="Group 31111" transform="translate(8.005)">
      <path id="Path_18330" data-name="Path 18330" d="M39.063,44.532a.75.75,0,1,1-.747-.757A.755.755,0,0,1,39.063,44.532Z" transform="translate(-37.562 -43.775)" fill="#003383"/>
    </g>
    <g id="Group_31112" data-name="Group 31112" transform="translate(12.008)">
      <path id="Path_18331" data-name="Path 18331" d="M50.409,44.532a.75.75,0,1,1-.747-.757A.755.755,0,0,1,50.409,44.532Z" transform="translate(-48.908 -43.775)" fill="#003383"/>
    </g>
  </g>
</svg>
