<svg id="Layer_1" data-name="Layer 1" xmlns="http://www.w3.org/2000/svg" viewBox="0 0 100 100"><title>Logout</title><path d="M34.59,96H13.49a8.45,8.45,0,0,1-8.44-8.44V13.67a8.45,8.45,0,0,1,8.44-8.44h21.1a2.11,2.11,0,0,0,0-4.22H13.49A12.68,12.68,0,0,0,.83,13.67V87.52a12.68,12.68,0,0,0,12.66,12.66h21.1a2.11,2.11,0,0,0,0-4.22Z"/><path d="M99.64,51.77l.14-.25a.6.6,0,0,1,.06-.11l.08-.26s0-.09,0-.14a2.32,2.32,0,0,0,0-.83s0-.09,0-.14l-.08-.26-.07-.11a2,2,0,0,0-.13-.25l0-.06a1.71,1.71,0,0,0-.21-.26L73,22.73a2.11,2.11,0,1,0-3,3L92.79,48.48H34.59a2.12,2.12,0,0,0,0,4.23h58.2L70,75.48a2.11,2.11,0,0,0,0,3,2.06,2.06,0,0,0,1.49.62,2.09,2.09,0,0,0,1.5-.62L99.38,52.09a1.71,1.71,0,0,0,.21-.26Z"/></svg>