<svg id="Layer_1" data-name="Layer 1" xmlns="http://www.w3.org/2000/svg" viewBox="0 0 100 100"><defs><style>.cls-1{fill:#214294;}</style></defs><title>MinusBlack</title><path class="cls-1" d="M49.86,1.1h0A48.09,48.09,0,1,1,1.78,49.19h0A48.09,48.09,0,1,0,49.86,1.1Z"/><path class="cls-1" d="M49.86,1.1h0A48.09,48.09,0,0,0,1.78,49.19h0A48.09,48.09,0,0,1,49.86,1.1Z"/><path d="M49.86,97.27A48.09,48.09,0,1,0,1.78,49.19,48.08,48.08,0,0,0,49.86,97.27ZM18.12,17.44A44.89,44.89,0,0,1,81.6,80.93,44.89,44.89,0,0,1,18.12,17.44Z"/><path d="M26,49H73.88a1.6,1.6,0,1,0,0-3.2H26A1.6,1.6,0,0,0,26,49Z"/></svg>