<svg id="Layer_1" data-name="Layer 1" xmlns="http://www.w3.org/2000/svg" viewBox="0 0 100 100"><title>Money</title><g id="dollar-sign"><g id="Line_141" data-name="Line 141"><path d="M57.31,98.58a1.63,1.63,0,0,1-1.64-1.64V2.54a1.64,1.64,0,1,1,3.28,0v94.4A1.63,1.63,0,0,1,57.31,98.58Z"/></g><g id="Path_11535" data-name="Path 11535"><path d="M69.16,81.42H32.68a1.65,1.65,0,0,1,0-3.29H69.15a13.38,13.38,0,1,0,0-26.75H47.7a16.66,16.66,0,0,1,0-33.32H79.88a1.64,1.64,0,1,1,0,3.28H47.7a13.38,13.38,0,0,0,0,26.76H69.16a16.66,16.66,0,1,1,0,33.32Z"/></g></g></svg>