<svg id="Layer_1" data-name="Layer 1" xmlns="http://www.w3.org/2000/svg" viewBox="0 0 98.3 98.3"><defs><style>.cls-1{fill:#fff;}.cls-2{fill:#aaadb9;}</style></defs><title>Icon_4</title><g id="Group_9579" data-name="Group 9579"><path id="Path_11574" data-name="Path 11574" class="cls-1" d="M97.12,49.57a48,48,0,1,1-48-48,48,48,0,0,1,48,48Z"/></g><path id="Path_1209" data-name="Path 1209" class="cls-2" d="M40.06,24a9.7,9.7,0,0,1,1.36-2.46,3.55,3.55,0,0,1,2.22-1c3.32-.11,6.64-.09,10,0a3.21,3.21,0,0,1,3.3,3c.09.61.35.75.91.75,2,0,3.95-.06,5.92.08a5.5,5.5,0,0,1,5,5.22c.06,1.4,0,2.8,0,4.28H65.4V30.42a2.42,2.42,0,0,0-2-2.77,2.3,2.3,0,0,0-.74,0c-1.66,0-3.32,0-5,0-.5,0-.7.16-.8.66a3.07,3.07,0,0,1-3.09,2.61c-3.53,0-7.08,0-10.61-.05-1.17,0-2.61-.84-2.89-3.21H34.41a2.35,2.35,0,0,0-2.54,2.15,2.14,2.14,0,0,0,0,.44V67.73c0,2.08.79,2.87,2.9,2.9h1.41a8,8,0,0,1,.07.85v2.4a6,6,0,0,1-7.47-3.95,6.29,6.29,0,0,1-.27-1.83c0-12.58.05-25.17,0-37.76a6,6,0,0,1,5.82-6.1h.24c1.57,0,3.14,0,4.7,0h1ZM43.8,24V27.5h9.7V24Z"/><g id="Group_2391" data-name="Group 2391"><path id="Path_1210" data-name="Path 1210" class="cls-2" d="M55,46.5H46.09c-1.22,0-1.79-.48-1.81-1.46s.58-1.53,1.85-1.54H64c1.28,0,1.89.52,1.88,1.52s-.61,1.48-1.92,1.48Z"/><path id="Path_1211" data-name="Path 1211" class="cls-2" d="M55,54.66H46.09c-1.22,0-1.79-.48-1.81-1.46s.58-1.54,1.85-1.54H64c1.28,0,1.89.52,1.88,1.52s-.61,1.47-1.92,1.48Z"/><path id="Path_1212" data-name="Path 1212" class="cls-2" d="M55,62.82H46.09c-1.22,0-1.79-.48-1.81-1.46s.58-1.54,1.85-1.54H64c1.28,0,1.89.52,1.88,1.52s-.61,1.47-1.92,1.48Z"/><path id="Path_1213" data-name="Path 1213" class="cls-2" d="M55,71H46.09c-1.22,0-1.79-.48-1.81-1.46S44.86,68,46.13,68H64c1.28,0,1.89.52,1.88,1.52S65.23,71,63.92,71Z"/></g><g id="Path_1214" data-name="Path 1214"><path class="cls-2" d="M68.53,79.32H41.59a4.27,4.27,0,0,1-4.27-4.27V39.43a4.28,4.28,0,0,1,4.27-4.28H68.53a4.28,4.28,0,0,1,4.27,4.28V75.05A4.27,4.27,0,0,1,68.53,79.32ZM41.59,37.54a1.89,1.89,0,0,0-1.88,1.89V75.05a1.88,1.88,0,0,0,1.88,1.88H68.53a1.88,1.88,0,0,0,1.88-1.88V39.43a1.89,1.89,0,0,0-1.88-1.89Z"/></g></svg>