<svg id="Layer_1" data-name="Layer 1" xmlns="http://www.w3.org/2000/svg" viewBox="0 0 100 100"><title>Phone</title><g id="Icon_feather-phone" data-name="Icon feather-phone"><path d="M86.2,98.24c-.31,0-.63,0-.94,0A93.53,93.53,0,0,1,44.62,83.76,92.33,92.33,0,0,1,16.44,55.53,93.43,93.43,0,0,1,2,14.77,11.11,11.11,0,0,1,12.06,2.64c.34,0,.7,0,1.06-.05H27a11.16,11.16,0,0,1,11,9.59,56.91,56.91,0,0,0,3.12,12.53,11.14,11.14,0,0,1-2.51,11.75l-4.79,4.81A71.81,71.81,0,0,0,58.73,66.16l4.79-4.79a11.17,11.17,0,0,1,11.77-2.51A57,57,0,0,0,87.8,62a11.14,11.14,0,0,1,9.61,11.11.92.92,0,0,1,0,.16V87.06A11.15,11.15,0,0,1,86.33,98.24ZM13,6.46c-.2,0-.38,0-.56,0a7.27,7.27,0,0,0-6.58,7.9A89.6,89.6,0,0,0,19.7,53.45a88.35,88.35,0,0,0,27,27.05A89.64,89.64,0,0,0,85.65,94.33a2.72,2.72,0,0,0,.64,0,7.24,7.24,0,0,0,5.15-2.15,7.16,7.16,0,0,0,2.1-5.14V73.43a1.92,1.92,0,0,1,0-.24,7.27,7.27,0,0,0-6.26-7.38,60.7,60.7,0,0,1-13.35-3.33,7.29,7.29,0,0,0-7.67,1.64L60.42,70a2,2,0,0,1-2.33.31A75.69,75.69,0,0,1,29.73,41.91,1.94,1.94,0,0,1,30,39.59l5.84-5.85a7.28,7.28,0,0,0,1.63-7.67A61.3,61.3,0,0,1,34.18,12.7a7.36,7.36,0,0,0-7.26-6.23H13Z"/></g></svg>