<svg id="Layer_1" data-name="Layer 1" xmlns="http://www.w3.org/2000/svg" viewBox="0 0 98.3 98.3"><title>Pie_Chart_Soild copy</title><path d="M46.64,47.34V5.88l-1.58,0a45.08,45.08,0,0,0,1.12,90.15h1.14A44.82,44.82,0,0,0,91.28,51V49.45H48.75A2.1,2.1,0,0,1,46.64,47.34Zm2.16,45.6A42,42,0,1,1,43.57,9.05V47.32a5.17,5.17,0,0,0,5.16,5.17H88.18A42,42,0,0,1,48.8,92.94Z"/><path d="M96.76,39.71A38.79,38.79,0,0,0,57.59,1.31H55.11V36.76a4.65,4.65,0,0,0,4.65,4.61v0h37V39.71Zm-37-1.38a1.58,1.58,0,0,1-1.58-1.58V4.35h0a35.85,35.85,0,0,1,35.46,34Z"/></svg>