<svg id="Layer_1" data-name="Layer 1" xmlns="http://www.w3.org/2000/svg" viewBox="0 0 100 100"><title>Price</title><path d="M36.55,99.2a8.18,8.18,0,0,1-5.79-2.38L5.27,71.33a8.21,8.21,0,0,1,0-11.57L58.8,6.23a5.06,5.06,0,0,1,3.58-1.48H89.2A8,8,0,0,1,95,7.17a8.13,8.13,0,0,1,2.37,5.76V39.74a5,5,0,0,1-1.47,3.56L42.34,96.82A8.19,8.19,0,0,1,36.55,99.2ZM62.38,8.59a1.25,1.25,0,0,0-.89.36L8,62.47a4.38,4.38,0,0,0,0,6.16L33.47,94.1a4.37,4.37,0,0,0,6.16,0l53.5-53.5a1.18,1.18,0,0,0,.35-.86V12.92a4.3,4.3,0,0,0-4.29-4.33l0-1.92V8.59ZM78,33a8.91,8.91,0,0,1-8.82-7.92,8.89,8.89,0,1,1,17.67-1.95,9.08,9.08,0,0,1,0,1.95A8.85,8.85,0,0,1,79,32.93h0A8.35,8.35,0,0,1,78,33Zm0-14a5.25,5.25,0,0,0-.56,0,5.06,5.06,0,0,0-2.61,9,5.1,5.1,0,0,0,3.72,1.08A5.06,5.06,0,0,0,78,19Z"/></svg>