<svg id="Layer_1" data-name="Layer 1" xmlns="http://www.w3.org/2000/svg" viewBox="0 0 100 100"><title>ProductLine</title><g id="shopping-bag"><g id="Path_1365" data-name="Path 1365"><path d="M79.61,98.52H13.22A11,11,0,0,1,2.15,87.61V22.2a1.57,1.57,0,0,1,.31-.93L16.69,2.58A1.6,1.6,0,0,1,18,2H74.87a1.6,1.6,0,0,1,1.27.62L90.37,21.27a1.57,1.57,0,0,1,.31.93V87.61A11,11,0,0,1,79.61,98.52ZM5.31,22.72V87.61a7.86,7.86,0,0,0,7.91,7.79H79.61a7.86,7.86,0,0,0,7.91-7.79V22.72L74.08,5.07H18.75Z"/></g><g id="Line_23" data-name="Line 23"><path d="M88.91,24.54H3.7a1.56,1.56,0,0,1,0-3.12H88.91a1.56,1.56,0,0,1,0,3.12Z"/></g></g></svg>