<svg id="Layer_1" data-name="Layer 1" xmlns="http://www.w3.org/2000/svg" viewBox="0 0 100 100"><title>Profile</title><g id="user"><g id="Path_11329" data-name="Path 11329"><path d="M89.53,99.24a1.86,1.86,0,0,1-1.86-1.86V87.27A18.39,18.39,0,0,0,69.29,68.9H28.84A18.39,18.39,0,0,0,10.47,87.27V97.38a1.86,1.86,0,0,1-3.72,0V87.27A22.12,22.12,0,0,1,28.84,65.18H69.29a22.12,22.12,0,0,1,22.1,22.09V97.38A1.86,1.86,0,0,1,89.53,99.24Z"/></g><g id="Ellipse_200" data-name="Ellipse 200"><path d="M50.48,51.82A25.08,25.08,0,1,1,75.56,26.74,25.11,25.11,0,0,1,50.48,51.82Zm0-46.43A21.36,21.36,0,1,0,71.84,26.74,21.38,21.38,0,0,0,50.48,5.39Z"/></g></g></svg>