<svg xmlns="http://www.w3.org/2000/svg" width="20" height="24" viewBox="0 0 20 24">
  <g id="Group_31075" data-name="Group 31075" transform="translate(501.229 -1562.461)">
    <path id="Path_18300" data-name="Path 18300" d="M-491.429,1586.461c-.783-.334-1.584-.632-2.347-1.009a12.411,12.411,0,0,1-6.88-8.569,18.907,18.907,0,0,1-.553-4.123c-.035-1.983-.013-3.967-.008-5.951a.843.843,0,0,1,.9-.867c.6-.033,1.2-.043,1.79-.106a10.9,10.9,0,0,0,6.379-2.838c.1-.09.192-.182.29-.271a.848.848,0,0,1,1.231,0c.522.442,1.035.9,1.593,1.292a10.362,10.362,0,0,0,4.683,1.766c.691.09,1.391.119,2.089.154s.99.325,1,1.013c.013,1.57.05,3.14.034,4.71a22.407,22.407,0,0,1-.685,5.563,12.34,12.34,0,0,1-6.648,8.155c-.807.408-1.66.725-2.491,1.083Zm-8.117-18.824c0,.085-.01.162-.011.24-.013,1.007-.032,2.015-.036,3.022a23.753,23.753,0,0,0,.518,5.489,10.691,10.691,0,0,0,3.2,5.644,13.576,13.576,0,0,0,4.538,2.654.343.343,0,0,0,.239-.015c.87-.408,1.768-.77,2.6-1.249a10.275,10.275,0,0,0,4.16-4.4,14.4,14.4,0,0,0,1.377-5.856c.078-1.769.029-3.544.035-5.317,0-.075-.01-.151-.015-.221-.605-.068-1.192-.122-1.775-.2a12.1,12.1,0,0,1-6.278-2.788c-.2-.166-.3-.159-.493,0a12,12,0,0,1-6.027,2.744C-498.183,1567.486-498.854,1567.552-499.547,1567.637Z" fill="#003383"/>
    <path id="Path_18301" data-name="Path 18301" d="M-457.287,1629.8a1.828,1.828,0,0,1,.159-.217q1.875-1.89,3.752-3.778a.915.915,0,0,1,.624-.322.786.786,0,0,1,.783.443.8.8,0,0,1-.078.9,1.929,1.929,0,0,1-.188.207l-4.364,4.389a.869.869,0,0,1-1.442.005q-1.079-1.084-2.157-2.169a.828.828,0,0,1-.23-.858.793.793,0,0,1,.636-.584.835.835,0,0,1,.8.278q.74.746,1.483,1.49C-457.451,1629.647-457.389,1629.7-457.287,1629.8Z" transform="translate(-35.076 -54.181)" fill="#003383"/>
  </g>
</svg>
