<svg id="Layer_1" data-name="Layer 1" xmlns="http://www.w3.org/2000/svg" viewBox="0 0 100 100"><defs><style>.cls-1{fill:none;}.cls-2{fill:#fff;}</style></defs><title>Artboard 1 copy 4</title><polygon class="cls-1" points="41.32 8.08 41.32 30.5 63.73 30.5 41.32 8.08"/><path d="M11,83.49a6.36,6.36,0,0,1-6.36-6.36V11.91A6.37,6.37,0,0,1,11,5.54H37.73V32.29a1.8,1.8,0,0,0,1.8,1.79H66.26V50.36l3.59-2.64V32.29a1.81,1.81,0,0,0-.14-.69,1.77,1.77,0,0,0-.31-.46s0-.08-.07-.12L40.79,2.49s-.09-.06-.13-.09a1.49,1.49,0,0,0-.44-.3A1.81,1.81,0,0,0,39.53,2H11A10,10,0,0,0,1,11.91V77.13a10,10,0,0,0,10,9.94H38.67l-2.43-3.58ZM41.32,8.08,63.73,30.5H41.32Z"/><path class="cls-2" d="M58,97.26c-.05,0-.1,0-.14-.07Z"/><path class="cls-2" d="M60.46,97.72l-.27,0Z"/><path class="cls-2" d="M57.18,96.75a.47.47,0,0,1-.09-.06A.47.47,0,0,0,57.18,96.75Z"/><path class="cls-2" d="M61.26,97.57l-.24.06Z"/><path class="cls-2" d="M62,97.27l-.18.07Z"/><path class="cls-2" d="M37.92,65l2.91-2.27L37.92,65a4.47,4.47,0,0,0-1.09,5.79A4.47,4.47,0,0,1,37.92,65Z"/><path class="cls-2" d="M58.6,97.54a5.19,5.19,0,0,0,.85.19h0A5,5,0,0,1,58.6,97.54Z"/><path d="M66.28,94.05l-2.21-2.82L60.55,94a1,1,0,0,1-1.26-.16L40,69.13a1,1,0,0,1,.16-1.26l3.52-2.77-2.2-2.82h0l-.62.49L37.92,65a4.47,4.47,0,0,0-1.09,5.79,3.84,3.84,0,0,0,.32.5L56.46,96a4.31,4.31,0,0,0,.63.65.47.47,0,0,0,.09.06,3.76,3.76,0,0,0,.63.44s.09,0,.14.07a5.3,5.3,0,0,0,.65.28,5,5,0,0,0,.85.19h0l.55,0h.19l.27,0a3.44,3.44,0,0,0,.56-.09l.24-.06a4.24,4.24,0,0,0,.59-.23l.18-.07a4.61,4.61,0,0,0,.72-.46l3.53-2.76Z"/><path class="cls-2" d="M81.5,48a4,4,0,0,1,.7-.45,5,5,0,0,0-.71.45L63.85,61.83h0Z"/><path class="cls-2" d="M82.29,47.55a4.35,4.35,0,0,1,1.6-.44A4.35,4.35,0,0,0,82.29,47.55Z"/><path class="cls-2" d="M84.89,47.14a4.67,4.67,0,0,1,.76.17A4.91,4.91,0,0,0,84.89,47.14Z"/><path class="cls-2" d="M84,47.1a4.07,4.07,0,0,1,.78,0A4.07,4.07,0,0,0,84,47.1Z"/><path class="cls-2" d="M89.23,50.66l-1.45-1.85-.07-.08.08.08Z"/><polygon class="cls-2" points="74.88 75.95 81.72 70.61 74.88 75.95 74.88 75.95"/><path class="cls-2" d="M93.37,56a4.48,4.48,0,0,1-.18,5.55A4.48,4.48,0,0,0,93.37,56Z"/><path d="M93.37,56a.41.41,0,0,0-.07-.11l-4.07-5.21-1.44-1.85-.08-.08a4.25,4.25,0,0,0-.55-.57L87,48a3.7,3.7,0,0,0-.54-.37,3.49,3.49,0,0,0-.34-.15,3.62,3.62,0,0,0-.45-.2,4.67,4.67,0,0,0-.76-.17l-.09,0h-.07a4.07,4.07,0,0,0-.78,0h-.06a4.35,4.35,0,0,0-1.6.44l-.09,0a4,4,0,0,0-.7.45L63.85,61.83l2.2,2.83L83.7,50.86a.87.87,0,0,1,.55-.19h.12A.91.91,0,0,1,85,51l5.52,7.06a.91.91,0,0,1-.15,1.26L72.67,73.13,74.88,76l6.83-5.34,10.82-8.45a4.38,4.38,0,0,0,.66-.63A4.48,4.48,0,0,0,93.37,56Z"/><path class="cls-2" d="M40.72,58.12a4.63,4.63,0,0,0-.21,1.73,5.06,5.06,0,0,1,0-.87A4.88,4.88,0,0,1,40.72,58.12Z"/><path class="cls-2" d="M52.77,49.6a5.37,5.37,0,0,1,.67.15A4,4,0,0,0,52.77,49.6Z"/><polygon class="cls-2" points="42.22 55.99 42.21 56 42.22 55.99 42.22 55.99"/><path class="cls-2" d="M81.13,87.17a4.55,4.55,0,0,0,.21-1.72,5.08,5.08,0,0,1,0,.87A4.77,4.77,0,0,1,81.13,87.17Z"/><path class="cls-2" d="M66.28,94.05,41.45,62.28l-.08-.12.08.12h0l2.2,2.82L64.07,91.23l2.21,2.82h0l.18.19C66.4,94.17,66.33,94.12,66.28,94.05Z"/><path class="cls-2" d="M75,92.92l4.63-3.62a4.83,4.83,0,0,0,.4-.38,3.59,3.59,0,0,1-.4.38Z"/><path class="cls-2" d="M72.67,73.13l-6.62-8.47-2.2-2.83h0L55.57,51.24a2.72,2.72,0,0,0-.24-.24,1.9,1.9,0,0,1,.24.25L80.4,83s.07.12.12.17-.07-.12-.12-.18L74.88,76h0Z"/><path d="M55.57,51.25a1.9,1.9,0,0,0-.24-.25,3.59,3.59,0,0,0-.38-.4c-.09-.08-.2-.14-.29-.21s-.28-.21-.43-.3-.35-.15-.52-.22l-.27-.12a5.37,5.37,0,0,0-.67-.15l-.19,0a1.51,1.51,0,0,0-.3,0A4.32,4.32,0,0,0,50.1,50L50,50a4.63,4.63,0,0,0-.76.48L42.22,56h0a4.18,4.18,0,0,0-.64.62.71.71,0,0,0-.1.14,3.66,3.66,0,0,0-.4.57,3,3,0,0,0-.16.37,3.89,3.89,0,0,0-.19.42,4.88,4.88,0,0,0-.19.86,5.06,5.06,0,0,0,0,.87,4,4,0,0,0,.08.46c0,.13,0,.26.06.39s.14.37.21.55.06.18.11.27a3.82,3.82,0,0,0,.4.64l.08.12L66.28,94.05c0,.07.12.12.18.19a4.78,4.78,0,0,0,.44.46c.07.06.16.1.23.16a5.36,5.36,0,0,0,.49.34c.13.07.28.12.42.18l.37.17a5.08,5.08,0,0,0,.86.19h0a4.19,4.19,0,0,0,.5,0H70l.31,0,.51-.08.29-.08a3.39,3.39,0,0,0,.53-.2l.23-.1a4.05,4.05,0,0,0,.71-.45L75,92.92l4.63-3.62a3.59,3.59,0,0,0,.4-.38c.08-.08.17-.15.24-.23s.17-.24.26-.36.18-.24.25-.37a4.46,4.46,0,0,0,.22-.5c0-.09.09-.19.13-.29a4.77,4.77,0,0,0,.19-.85,5.08,5.08,0,0,0,0-.87,3.85,3.85,0,0,0-.08-.47,2.66,2.66,0,0,0-.07-.39,3.82,3.82,0,0,0-.2-.53c0-.09-.06-.19-.11-.29a5.05,5.05,0,0,0-.36-.58s-.07-.12-.12-.17ZM77.76,85.88a.89.89,0,0,1-.34.6l-7,5.52a1,1,0,0,1-1.26-.16L44.27,60.07a.86.86,0,0,1-.18-.66.89.89,0,0,1,.34-.6l7-5.51a.84.84,0,0,1,.52-.15.94.94,0,0,1,.74.3L77.58,85.22A.86.86,0,0,1,77.76,85.88Z"/></svg>