<svg xmlns="http://www.w3.org/2000/svg" width="20" height="20" viewBox="0 0 20 20">
  <g id="Group_31131" data-name="Group 31131" transform="translate(-891.458 -42.618)">
    <path id="Path_18337" data-name="Path 18337" d="M891.745,62.618h19.422a.484.484,0,0,0,.291-.463c0-2.659,0-5.363,0-7.978q0-1.927,0-3.853a.406.406,0,0,0-.461-.454h-1.719a.2.2,0,0,1-.2-.2V46.016a.2.2,0,0,1,.2-.2h1.184a.2.2,0,0,1,.2.2v.547c0,.422,0,.839,0,1.256a.487.487,0,0,0,.128.349.372.372,0,0,0,.269.105h0a.406.406,0,0,0,.4-.46c0-.839,0-1.607,0-2.349a.407.407,0,0,0-.459-.456q-.536,0-1.073,0h-.661a.2.2,0,0,1-.2-.2c0-.081,0-.159,0-.234,0-.154,0-.3,0-.442a1.591,1.591,0,0,0-3.181.09c0,1.217,0,2.456,0,3.653q0,.772,0,1.545v.249a.2.2,0,0,1-.2.2H902.66c-3.474,0-7.066,0-10.6-.006-.323,0-.492.079-.6.29V62.331A.709.709,0,0,0,891.745,62.618Zm14.938-18.494a.8.8,0,0,1,.789-.71h.009a.794.794,0,0,1,.782.726c.011.153.008.307.006.456,0,.067,0,.134,0,.2a.2.2,0,0,1-.2.2h-1.189a.2.2,0,0,1-.2-.2c0-.069,0-.137,0-.2A4.474,4.474,0,0,1,906.683,44.124Zm1.581,8.865a.859.859,0,0,1-.149.448c-.1.157-.216.3-.335.458-.049.063-.1.128-.149.2a.2.2,0,0,1-.16.08h0a.2.2,0,0,1-.16-.08l-.149-.2c-.147-.2-.287-.381-.423-.571a.436.436,0,0,1-.064-.265q0-3.471,0-6.935c0-.029,0-.055,0-.083,0-.013,0-.027,0-.044a.2.2,0,0,1,.2-.187h1.188a.2.2,0,0,1,.2.2v1.359C908.27,49.21,908.27,51.115,908.264,52.989Zm-16-2.115a.2.2,0,0,1,.2-.2h13.213a.2.2,0,0,1,.2.2v.209q0,.294,0,.588c0,.531,0,1.08.009,1.618a.744.744,0,0,0,.126.383c.294.418.61.834.916,1.235l.185.244a.473.473,0,0,0,.358.217h0a.467.467,0,0,0,.355-.214l.157-.206c.319-.419.649-.853.957-1.289a.7.7,0,0,0,.117-.366c.011-.59.01-1.169.008-1.781q0-.319,0-.641a.2.2,0,0,1,.2-.2h1.184a.2.2,0,0,1,.2.2V61.607a.2.2,0,0,1-.2.2H892.466a.2.2,0,0,1-.2-.2Z" fill="#4d5eab"/>
    <path id="Path_18338" data-name="Path 18338" d="M954.522,298.506A1.6,1.6,0,0,0,953,297.256a.8.8,0,1,1,.022-1.594h.472c.211,0,.428,0,.642,0a.4.4,0,1,0-.009-.794c-.124,0-.247,0-.377,0h-.185a.2.2,0,0,1-.2-.2c0-.03,0-.058,0-.084,0-.048,0-.086,0-.122a.379.379,0,0,0-.172-.316.359.359,0,0,0-.4-.03.4.4,0,0,0-.226.378c0,.017,0,.038,0,.059a.43.43,0,0,1-.267.469,1.561,1.561,0,0,0-.89,1.78,1.6,1.6,0,0,0,1.521,1.25.8.8,0,1,1-.021,1.594h-.529c-.189,0-.377,0-.566,0a.407.407,0,0,0-.443.393.37.37,0,0,0,.116.283.5.5,0,0,0,.336.119h.544a.2.2,0,0,1,.2.2c0,.037,0,.069,0,.1s0,.041,0,.053l.031.081a.881.881,0,0,0,.14.276.323.323,0,0,0,.4.05.4.4,0,0,0,.237-.384c0-.017,0-.038,0-.06a.43.43,0,0,1,.266-.468A1.561,1.561,0,0,0,954.522,298.506Z" transform="translate(-57.526 -241.408)" fill="#4d5eab"/>
    <path id="Path_18339" data-name="Path 18339" d="M1102.2,463.781q-2.136,0-4.272,0h-2.34c-.67,0-1.363,0-2.045,0h0a.4.4,0,0,0-.414.236.371.371,0,0,0,.016.364.445.445,0,0,0,.383.2c1.04,0,2.1,0,3.12,0h3.436l2.1,0h0a.413.413,0,0,0,.428-.243.363.363,0,0,0-.019-.358A.458.458,0,0,0,1102.2,463.781Z" transform="translate(-193.583 -404.348)" fill="#4d5eab"/>
    <path id="Path_18340" data-name="Path 18340" d="M1182.988,404.31c0,.243.186.395.48.4h5.013c.231,0,.478-.1.481-.394a.369.369,0,0,0-.1-.27.51.51,0,0,0-.367-.131h-5.033a.511.511,0,0,0-.368.131A.368.368,0,0,0,1182.988,404.31Z" transform="translate(-279.897 -346.869)" fill="#4d5eab"/>
  </g>
</svg>
