<svg id="Layer_1" data-name="Layer 1" xmlns="http://www.w3.org/2000/svg" viewBox="0 0 100 100"><defs><style>.cls-1{fill:#4d5fab;}</style></defs><title>Refresh</title><g id="refresh-cw"><g id="Path_11528" data-name="Path 11528"><path class="cls-1" d="M96,43.61H70.9a1.94,1.94,0,0,1,0-3.88H94.05V16.59a1.94,1.94,0,0,1,3.88,0V41.67A1.94,1.94,0,0,1,96,43.61Z"/></g><g id="Path_11529" data-name="Path 11529"><path class="cls-1" d="M4,85.42a1.94,1.94,0,0,1-1.94-1.94V58.39A1.94,1.94,0,0,1,4,56.45H29.1a1.94,1.94,0,0,1,0,3.88H6V83.48A1.94,1.94,0,0,1,4,85.42Z"/></g><g id="Path_11530" data-name="Path 11530"><path class="cls-1" d="M50,89.56A39.43,39.43,0,0,1,22,78L2.68,59.79A1.94,1.94,0,0,1,5.34,57L24.74,75.2A35.7,35.7,0,0,0,83.67,61.93a1.94,1.94,0,1,1,3.65,1.29A39.49,39.49,0,0,1,50,89.56ZM96,43.61a1.94,1.94,0,0,1-1.33-.53L75.28,24.85a36,36,0,0,0-13.41-8.48A35.69,35.69,0,0,0,16.33,38.13a1.93,1.93,0,1,1-3.65-1.28A39.56,39.56,0,0,1,63.16,12.72,39.8,39.8,0,0,1,78,22.08L97.3,40.26A1.94,1.94,0,0,1,96,43.61Z"/></g></g></svg>