<svg id="Layer_1" data-name="Layer 1" xmlns="http://www.w3.org/2000/svg" viewBox="0 0 98.3 98.3"><title>Report_Line copy</title><g id="Group_12494" data-name="Group 12494"><g id="Path_11625" data-name="Path 11625"><path d="M88.54,5H77.32c-.07-1-.12-1.68-.18-2.58H93.45v17l-2.38-.23V7.39l-35.24,37L37.46,24.85,4.35,59.73l-1.92-1.9,34.82-36.4L54.88,40.21,88.54,5"/></g></g><path d="M21,96.22H7.56V74.84H21Zm-12.67-.8H20.23V75.64H8.36Z"/><path d="M44.77,96.22H31.31V51.1H44.77Zm-12.66-.8H44V51.9H32.11Z"/><path d="M68.51,96.22H55.05V63H68.51Zm-12.66-.8H67.71V63.77H55.85Z"/><path d="M92.26,96.22H78.79V35.27H92.26Zm-12.67-.8H91.46V36.07H79.59Z"/></svg>