<svg id="Layer_1" data-name="Layer 1" xmlns="http://www.w3.org/2000/svg" viewBox="0 0 100 100"><defs><style>.cls-1{fill:#4d5fab;}</style></defs><title>Setting_1</title><g id="tool"><path class="cls-1" d="M13.71,98.58A12.58,12.58,0,0,1,4.81,77.1L37.42,44.5A31.49,31.49,0,0,1,79.74,4.24,2.24,2.24,0,0,1,81,5.88a2.19,2.19,0,0,1-.62,2L62.06,26.2l-1.63-1.54L62,26.24a2.62,2.62,0,0,0,0,3.67l7.79,7.79a2.65,2.65,0,0,0,3.66,0L91.84,19.32a2.3,2.3,0,0,1,2-.62A2.24,2.24,0,0,1,95.47,20,31.49,31.49,0,0,1,55.21,62.3L22.61,94.91A12.57,12.57,0,0,1,13.71,98.58Zm53-92.67A27,27,0,0,0,42.12,44.08a2.26,2.26,0,0,1-.45,2.53L8,80.28A8.09,8.09,0,0,0,19.43,91.73L53.11,58.05a2.2,2.2,0,0,1,2.51-.45A27,27,0,0,0,92.57,24.94L76.64,40.88a7.18,7.18,0,0,1-10,0l-7.81-7.81a7.17,7.17,0,0,1,0-10l0,0L74.77,7.14A27.06,27.06,0,0,0,66.7,5.91Z"/></g></svg>