<svg id="Layer_1" data-name="Layer 1" xmlns="http://www.w3.org/2000/svg" viewBox="0 0 100 100"><title>Setting_2</title><g id="Icon_feather-settings" data-name="Icon feather-settings"><g id="Path_11675" data-name="Path 11675"><path d="M49.68,64.87A14.37,14.37,0,1,1,64,50.5,14.39,14.39,0,0,1,49.68,64.87Zm0-25A10.67,10.67,0,1,0,60.35,50.5,10.69,10.69,0,0,0,49.68,39.83Z"/></g><g id="Path_11676" data-name="Path 11676"><path d="M50,98.25A10.2,10.2,0,0,1,39.81,88.06a5.1,5.1,0,0,0-3.29-4.93,5,5,0,0,0-5.67,1,10.21,10.21,0,1,1-14.67-14.2A5.09,5.09,0,0,0,12.83,61h-.69a10.19,10.19,0,0,1,0-20.38,5.11,5.11,0,0,0,4.93-3.29,5,5,0,0,0-1-5.66A10.21,10.21,0,1,1,30.3,17a5.14,5.14,0,0,0,5.79,1.24,1.92,1.92,0,0,1,.66-.15,5,5,0,0,0,2.74-4.45V13a10.19,10.19,0,1,1,20.38,0A5.1,5.1,0,0,0,65,18.36a5.06,5.06,0,0,0,3.49-1.43,10.21,10.21,0,1,1,14.66,14.2,5.15,5.15,0,0,0-1.25,5.79,1.69,1.69,0,0,1,.16.66,5,5,0,0,0,4.46,2.74h.7a10.19,10.19,0,0,1,0,20.38h-.37a5,5,0,0,0-4.6,3,1.51,1.51,0,0,1-.11.22,5,5,0,0,0,1.09,5.34,10.36,10.36,0,0,1,3.23,7.46A10.21,10.21,0,0,1,69.05,84a5.18,5.18,0,0,0-7.43-.11,5.06,5.06,0,0,0-1.43,3.49v.7A10.2,10.2,0,0,1,50,98.25ZM34.36,79a8.87,8.87,0,0,1,3.54.75,8.61,8.61,0,0,1,5.6,8v.41a6.5,6.5,0,0,0,13,0v-.71A8.78,8.78,0,0,1,71.39,81.1l.26.26a6.51,6.51,0,1,0,9.22-9.2l-.27-.26a8.69,8.69,0,0,1-1.74-9.63A1.19,1.19,0,0,1,79,62a8.7,8.7,0,0,1,7.86-5h.38a6.5,6.5,0,0,0,0-13h-.71a8.71,8.71,0,0,1-8-5.29,1.65,1.65,0,0,1-.15-.69,8.69,8.69,0,0,1,1.9-9.25l.27-.26a6.51,6.51,0,0,0-9.21-9.21l-.27.27a8.73,8.73,0,0,1-6,2.47,9.18,9.18,0,0,1-6.23-2.52,8.72,8.72,0,0,1-2.62-6.19V13a6.5,6.5,0,0,0-13,0v.71a8.73,8.73,0,0,1-5.28,8,2.09,2.09,0,0,1-.7.15A8.69,8.69,0,0,1,28,19.89l-.27-.26a6.51,6.51,0,0,0-9.21,9.21l.27.26a8.66,8.66,0,0,1,1.74,9.63,8.63,8.63,0,0,1-7.94,5.61h-.41a6.5,6.5,0,1,0,0,13h.7a8.78,8.78,0,0,1,6.22,14.9l-.27.28A6.51,6.51,0,0,0,28,81.71l.27-.26A8.67,8.67,0,0,1,34.36,79Z"/></g></g></svg>