<svg id="Layer_1" data-name="Layer 1" xmlns="http://www.w3.org/2000/svg" viewBox="0 0 100 100"><defs><style>.cls-1{fill:none;}</style></defs><title>Setting</title><polygon class="cls-1" points="42.32 13.63 42.32 36.37 65.05 36.37 42.32 13.63"/><path d="M69.13,86.09a1.72,1.72,0,0,0-1.93.28c-.09.1-.21.14-.31.24a6.44,6.44,0,0,1-5.72,3.52H11.55A6.45,6.45,0,0,1,5.1,83.68V17.51a6.45,6.45,0,0,1,6.45-6.45H38.68V38.19A1.82,1.82,0,0,0,40.5,40H67.63V51.83a1.59,1.59,0,0,0,1.23,0,2.64,2.64,0,0,1,.4-.12A1.64,1.64,0,0,0,70,50.34a6.16,6.16,0,0,1,1.23-4V38.19a1.69,1.69,0,0,0-.15-.7,1.72,1.72,0,0,0-.26-.4,2.14,2.14,0,0,0-.13-.19L41.78,8a1.13,1.13,0,0,0-.18-.12,2.16,2.16,0,0,0-.4-.27,1.86,1.86,0,0,0-.7-.14H11.55A10.1,10.1,0,0,0,1.46,17.51V83.68A10.1,10.1,0,0,0,11.55,93.77H61.17A10.08,10.08,0,0,0,70.26,88a2.27,2.27,0,0,1-.06-.25A1.68,1.68,0,0,0,69.13,86.09ZM42.32,13.63,65.05,36.37H42.32Z"/><path d="M94.94,66.5a5.44,5.44,0,0,1-5.2-3.2,1.62,1.62,0,0,1-.14-.51,5.26,5.26,0,0,1,1.19-5.46,2.45,2.45,0,0,0,.14-3.52,2.39,2.39,0,0,0-3.37,0,5.36,5.36,0,0,1-3.78,1.64h-.06a5.31,5.31,0,0,1-5.3-5.25,2.63,2.63,0,0,0-.75-2.08A2.42,2.42,0,0,0,76,47.47a2.37,2.37,0,0,0-1.65.76,2.32,2.32,0,0,0-.64,1.7,5.44,5.44,0,0,1-3.2,5.26,1.74,1.74,0,0,1-.51.13,5.22,5.22,0,0,1-5.46-1.19l-.23-.23h0L64,53.66a2.27,2.27,0,0,0-1.73-.58,2.32,2.32,0,0,0-1.63.81,2.38,2.38,0,0,0,.23,3.36,5.36,5.36,0,0,1,1.29,6,5.21,5.21,0,0,1-4.81,3.36A2.43,2.43,0,0,0,54.79,69a2.38,2.38,0,0,0,2.38,2.38,5.49,5.49,0,0,1,4,1.49,5.32,5.32,0,0,1,.12,7.51l-.31.3h0l-.14.14A2.38,2.38,0,1,0,64.44,84a5.65,5.65,0,0,1,4-1.73,5.11,5.11,0,0,1,2.09.45,5.24,5.24,0,0,1,3.35,4.8,2.45,2.45,0,0,0,2.38,2.61,2.38,2.38,0,0,0,2.38-2.38,5.54,5.54,0,0,1,1.48-4,5.31,5.31,0,0,1,7.51-.15,2.86,2.86,0,0,0,2,1,2.37,2.37,0,0,0,1.66-.76,2.33,2.33,0,0,0,.64-1.7,2.36,2.36,0,0,0-.75-1.66,5.34,5.34,0,0,1-1.24-6,5.25,5.25,0,0,1,4.84-3.19,2.43,2.43,0,0,0,2.57-2.38A2.38,2.38,0,0,0,94.94,66.5Zm-18.89,10a7.71,7.71,0,1,1,7.71-7.71A7.71,7.71,0,0,1,76.05,76.51Z"/></svg>