<svg id="Layer_1" data-name="Layer 1" xmlns="http://www.w3.org/2000/svg" viewBox="0 0 100 100"><title>Share</title><path d="M74.44,32.84A15.94,15.94,0,0,0,90.37,16.92h0A16,16,0,0,0,74.44,1h0a15.9,15.9,0,0,0-14.6,22.24L31.05,40A15.91,15.91,0,0,0,18.37,33.7h0A15.93,15.93,0,1,0,31.05,59.22L59.85,76a15.92,15.92,0,1,0,30.52,6.34h0A16,16,0,0,0,74.45,66.42h0a15.88,15.88,0,0,0-12.66,6.31L33,55.94a15.67,15.67,0,0,0,1.32-6.31h0A16,16,0,0,0,33,43.31L61.77,26.52A15.89,15.89,0,0,0,74.44,32.84Zm0,37.39h0A12.13,12.13,0,1,1,63.84,76.5a2.56,2.56,0,0,0,.2-.26,1.39,1.39,0,0,0,.12-.28A12.11,12.11,0,0,1,74.44,70.23ZM18.37,61.74a12.12,12.12,0,0,1,0-24.23h0a12.12,12.12,0,1,1,0,24.23ZM74.44,4.81h0A12.11,12.11,0,1,1,62.33,16.92,12.13,12.13,0,0,1,74.44,4.81Z"/></svg>