<svg id="Layer_1" data-name="Layer 1" xmlns="http://www.w3.org/2000/svg" viewBox="0 0 41.05 50"><defs><style>.cls-1{fill:#fff;}.cls-2{fill:#232862;}</style></defs><title>SignNon</title><g id="Group_24" data-name="Group 24"><g id="Group_22" data-name="Group 22"><g id="xml"><path id="Path_1" data-name="Path 1" class="cls-1" d="M3.11.08a2.91,2.91,0,0,0-3,2.76V47a2.91,2.91,0,0,0,3,2.76H38a2.9,2.9,0,0,0,3-2.76V12.86L28.1.08Z"/><g id="Group_7" data-name="Group 7"><path id="Path_2" data-name="Path 2" class="cls-2" d="M41.05,12.51H30.8a2.68,2.68,0,0,1-2.69-2.68h0V.08Z"/></g></g></g><g id="Group_23" data-name="Group 23"><path id="Path_14" data-name="Path 14" class="cls-2" d="M30.16,14.9H8.57c-1.59,0-2.88.8-2.88,1.79S7,18.48,8.57,18.48H30.16c1.6,0,2.88-.8,2.88-1.79S31.76,14.9,30.16,14.9Z"/><path id="Path_15" data-name="Path 15" class="cls-2" d="M30.16,20.42H8.57c-1.59,0-2.88.8-2.88,1.79S7,24,8.57,24H30.16c1.6,0,2.88-.81,2.88-1.79S31.76,20.42,30.16,20.42Z"/><path id="Path_16" data-name="Path 16" class="cls-2" d="M20.13,25.94H7.39a1.79,1.79,0,0,0,0,3.58H20.13a1.79,1.79,0,0,0,0-3.58Z"/></g></g></svg>