<svg id="Layer_1" data-name="Layer 1" xmlns="http://www.w3.org/2000/svg" viewBox="0 0 50 47.39"><defs><style>.cls-1{fill:#fff;}.cls-2{fill:#232862;}</style></defs><title>Sign</title><g id="Group_11" data-name="Group 11"><g id="xml"><path id="Path_1" data-name="Path 1" class="cls-1" d="M2.89,0A2.77,2.77,0,0,0,0,2.63V44.76a2.77,2.77,0,0,0,2.89,2.63h33.3a2.77,2.77,0,0,0,2.89-2.63V12.2L26.73,0Z"/><g id="Group_7" data-name="Group 7"><path id="Path_2" data-name="Path 2" class="cls-2" d="M39.08,11.86H29.3A2.56,2.56,0,0,1,26.74,9.3h0V0Z"/></g></g></g><g id="Group_13" data-name="Group 13"><path id="Path_12" data-name="Path 12" class="cls-2" d="M49.83,17.68a5.26,5.26,0,0,0-2.78-3,5.27,5.27,0,0,0-4-.9,1,1,0,0,0-.53.42L31,34.2a1,1,0,0,0-.12.41l-.43,7.22a.91.91,0,0,0,.86,1,1,1,0,0,0,.57-.15l6-4a.86.86,0,0,0,.29-.31l11.55-20A.92.92,0,0,0,49.83,17.68ZM34.18,39.46a8.89,8.89,0,0,0-1-.7A7.7,7.7,0,0,0,32,38.22l.13-2.17A6.71,6.71,0,0,1,36,38.26Z"/><path id="Path_13" data-name="Path 13" class="cls-2" d="M19.61,41.29c.08.52.68.68,1.09.85s.85-.14,1.17-.3c2-1,4.65.17,6.77.17a1,1,0,0,0,.92-1,1,1,0,0,0-.92-.91c-2.47,0-4.52-.63-7-.23a1.38,1.38,0,0,0-.2-.59,1.54,1.54,0,0,0-1.63-.91,1.75,1.75,0,0,0-.13-.28.9.9,0,0,0-.6-.42,4.08,4.08,0,0,0,.67-3.48,1,1,0,0,0-.84-.48c-1.3,0-2.41,1.32-3.24,2.13A62.64,62.64,0,0,0,10,42.5c-.76,1,.93,2,1.68,1a70.54,70.54,0,0,1,5-5.89c-.43.71-.89,1.41-1.37,2.08-.7,1.07.95,2,1.67,1a2.29,2.29,0,0,1,.63-.61l-.15.36h0c0,.08-.07.16-.1.23-.44,1.09,1.19,1.59,1.78.75a5.84,5.84,0,0,0,.41-.68A2.88,2.88,0,0,0,19.61,41.29Z"/><path id="Path_14" data-name="Path 14" class="cls-2" d="M28.69,14.14H8.1c-1.52,0-2.75.76-2.75,1.7s1.23,1.71,2.75,1.71H28.69c1.52,0,2.75-.76,2.75-1.71S30.22,14.14,28.69,14.14Z"/><path id="Path_15" data-name="Path 15" class="cls-2" d="M28.69,19.4H8.1c-1.52,0-2.75.77-2.75,1.71s1.23,1.71,2.75,1.71H28.69c1.52,0,2.75-.77,2.75-1.71S30.22,19.4,28.69,19.4Z"/><path id="Path_16" data-name="Path 16" class="cls-2" d="M19.12,24.67H7a1.71,1.71,0,0,0,0,3.41H19.12a1.71,1.71,0,0,0,0-3.41Z"/></g></svg>