<svg id="Layer_1" data-name="Layer 1" xmlns="http://www.w3.org/2000/svg" viewBox="0 0 100 100"><defs><style>.cls-1{fill:#214294;}</style></defs><title>soildSetting</title><polygon class="cls-1" points="58.83 80.89 58.83 80.89 58.84 80.89 58.83 80.89"/><path d="M58,88.64a6.42,6.42,0,0,1-.6-9c.2-.21.39-.41.59-.59a1.79,1.79,0,0,0,0-2.53,1.77,1.77,0,0,0-1.23-.5A6.49,6.49,0,0,1,50,69.6a6.4,6.4,0,0,1,6.39-6.4,1.77,1.77,0,0,0,1.77-1.14,1.81,1.81,0,0,0-.3-2.05,6.4,6.4,0,1,1,8.36-9.68,6.24,6.24,0,0,1,.63.63,1.76,1.76,0,0,0,.66.35V38.75H38.65a1.93,1.93,0,0,1-1.93-1.93V8H7.89A6.85,6.85,0,0,0,1,14.84V85.15A6.86,6.86,0,0,0,7.89,92H60.62a6.85,6.85,0,0,0,6.07-3.73,6.42,6.42,0,0,1-4.08,1.93A6.29,6.29,0,0,1,58,88.64Z"/><polygon class="cls-1" points="64.92 51.79 64.92 51.79 64.93 51.79 64.92 51.79 64.92 51.79"/><polygon points="40.58 7.99 40.58 34.88 67.48 34.88 40.58 7.99"/><path d="M96.41,66.91a5.75,5.75,0,0,1-5.5-3.39,2.39,2.39,0,0,1-.15-.54A5.6,5.6,0,0,1,92,57.2a2.57,2.57,0,0,0,.16-3.71,2.53,2.53,0,0,0-3.57,0,5.72,5.72,0,0,1-4,1.73h-.06a5.62,5.62,0,0,1-5.61-5.55,2.78,2.78,0,0,0-.8-2.21,2.56,2.56,0,0,0-1.8-.68,2.53,2.53,0,0,0-2.43,2.6,5.75,5.75,0,0,1-3.39,5.56,1.9,1.9,0,0,1-.53.15,5.54,5.54,0,0,1-5.78-1.27L64,53.58h0l-.25-.26a2.43,2.43,0,0,0-1.83-.61,2.47,2.47,0,0,0-1.72.86,2.53,2.53,0,0,0,.24,3.56,5.66,5.66,0,0,1,1.37,6.39,5.51,5.51,0,0,1-5.09,3.56,2.58,2.58,0,0,0-2.76,2.52,2.51,2.51,0,0,0,2.52,2.51,5.9,5.9,0,0,1,4.26,1.58,5.63,5.63,0,0,1,.12,7.94l-.32.33h0l-.15.14a2.52,2.52,0,1,0,3.79,3.32,6,6,0,0,1,4.19-1.82,5.86,5.86,0,0,1,5.76,5.55,2.58,2.58,0,0,0,2.51,2.76,2.52,2.52,0,0,0,2.52-2.52,5.87,5.87,0,0,1,1.56-4.22,5.62,5.62,0,0,1,8-.15,3,3,0,0,0,2.13,1,2.56,2.56,0,0,0,1.76-.8,2.5,2.5,0,0,0,.67-1.81,2.45,2.45,0,0,0-.8-1.75,5.67,5.67,0,0,1-1.31-6.35,5.58,5.58,0,0,1,5.12-3.37,2.57,2.57,0,0,0,2.72-2.52A2.52,2.52,0,0,0,96.41,66.91Zm-20,10.59a8.16,8.16,0,1,1,8.16-8.16A8.15,8.15,0,0,1,76.43,77.5Z"/></svg>