<svg id="Layer_1" data-name="Layer 1" xmlns="http://www.w3.org/2000/svg" viewBox="0 0 100 100"><title>SoilEdit</title><path d="M50.41,66.41l-18.8,4.7a1.4,1.4,0,0,1-.45.06,1.84,1.84,0,0,1-1.33-.55,1.87,1.87,0,0,1-.5-1.78L34,50a2,2,0,0,1,.5-.88L72.81,10.88H12.91A12.32,12.32,0,0,0,.59,23.2v64A12.32,12.32,0,0,0,12.91,99.5h64A12.32,12.32,0,0,0,89.22,87.19V28L51.29,65.92A1.83,1.83,0,0,1,50.41,66.41Z"/><path id="Path_11546" data-name="Path 11546" d="M82.88,3.94a9.34,9.34,0,0,1,13.2,13.21L49.43,64.28,31.81,68.69l4.41-17.62Z"/></svg>