<svg id="Layer_1" data-name="Layer 1" xmlns="http://www.w3.org/2000/svg" viewBox="0 0 100 100"><defs><style>.cls-1{fill:#231f20;}</style></defs><title>Steps</title><rect x="1.57" y="6.6" width="25.15" height="18.9" rx="0.34"/><rect x="31.7" y="38.31" width="25.15" height="18.9" rx="0.34"/><rect x="73.78" y="74.58" width="25.15" height="18.9" rx="0.34"/><path class="cls-1" d="M71.93,84.86a2.21,2.21,0,0,0,0-1.65,2,2,0,0,0-.32-.47,1.76,1.76,0,0,0-.14-.23L58.87,69.92a2.15,2.15,0,1,0-3,3l8.93,8.92H8.7a2,2,0,0,1-2-2V50.59a2,2,0,0,1,2-2h8.36a2.15,2.15,0,1,0,0-4.3H8.7a6.34,6.34,0,0,0-6.33,6.32V79.85A6.34,6.34,0,0,0,8.7,86.18H64.76L55.83,95.1a2.17,2.17,0,0,0,0,3,2.15,2.15,0,0,0,3,0l12.6-12.59a2.3,2.3,0,0,0,.15-.23A2.47,2.47,0,0,0,71.93,84.86Z"/><path class="cls-1" d="M88.44,9.06H80.08a1.89,1.89,0,0,0-.23,0c-.09,0-.16,0-.24,0H31.71a2.15,2.15,0,0,0,0,4.3h47.9c.08,0,.15,0,.24,0a1.89,1.89,0,0,0,.23,0h8.36a2,2,0,0,1,2,2V44.64a2,2,0,0,1-2,2H66.38l8.93-8.92a2.15,2.15,0,0,0-3-3L59.68,47.3a2.15,2.15,0,0,0,0,3L72.27,62.93a2.15,2.15,0,0,0,3-3L66.38,51H88.44a6.34,6.34,0,0,0,6.33-6.33V15.38A6.34,6.34,0,0,0,88.44,9.06Z"/></svg>