<svg id="Layer_1" data-name="Layer 1" xmlns="http://www.w3.org/2000/svg" viewBox="0 0 98.3 98.3"><defs><style>.cls-1{fill:#fff;}.cls-2{fill:#aaadb9;}</style></defs><title>Icon_1</title><g id="Group_9658" data-name="Group 9658"><g id="Group_9563" data-name="Group 9563"><circle id="Ellipse_218" data-name="Ellipse 218" class="cls-1" cx="49.56" cy="48.83" r="47.49"/></g><g id="Group_9648" data-name="Group 9648"><g id="Group_3003" data-name="Group 3003"><g id="Group_2993" data-name="Group 2993"><g id="Group_2992" data-name="Group 2992"><g id="Group_1879" data-name="Group 1879"><path id="Path_255" data-name="Path 255" class="cls-2" d="M24.3,49.56V72.28a3.48,3.48,0,0,0,3.46,3.51H53.61a1.62,1.62,0,0,0,1.85-1.39,1.68,1.68,0,0,0-.09-.83,1.46,1.46,0,0,0-1.57-1H29.37a1.6,1.6,0,0,1-1.79-1.38,1.63,1.63,0,0,1,0-.44V28.47c0-1.31.56-1.87,1.89-1.87H65c1.39,0,2,.56,2,2V53.23a1.66,1.66,0,1,0,3.29.2c0-2,0-1.37,0-3.36V26.93a3.55,3.55,0,0,0-2.7-3.52,2.66,2.66,0,0,0-.75-.08h-39a3.47,3.47,0,0,0-3.46,3.45V49.57Z"/><path id="Path_256" data-name="Path 256" class="cls-2" d="M47.21,46.29H35.92c-1.14,0-1.78.58-1.78,1.62a1.57,1.57,0,0,0,1.45,1.67h23a1.61,1.61,0,0,0,1.76-1.45,1.48,1.48,0,0,0,0-.21,1.57,1.57,0,0,0-1.51-1.62h-.24C54.82,46.29,51,46.28,47.21,46.29Z"/><path id="Path_257" data-name="Path 257" class="cls-2" d="M47.19,36.45H35.84a1.6,1.6,0,0,0-1.57,2.32,1.56,1.56,0,0,0,1.65.94H58.64a1.62,1.62,0,0,0,1.76-1.47,1.67,1.67,0,0,0-.11-.73,1.5,1.5,0,0,0-1.61-1.07H47.19Z"/><path id="Path_258" data-name="Path 258" class="cls-2" d="M40.66,56.13H35.8a1.51,1.51,0,0,0-1.65,1.35,1.34,1.34,0,0,0,0,.2,1.55,1.55,0,0,0,1.35,1.71,1.41,1.41,0,0,0,.29,0c3.29,0,6.59,0,9.88,0a1.56,1.56,0,0,0,1.6-1.53v-.13a1.53,1.53,0,0,0-1.44-1.61h-.19C44,56.12,42.32,56.13,40.66,56.13Z"/></g></g><path id="Path_2125" data-name="Path 2125" class="cls-2" d="M66.41,68.24c.88-1.47,1.66-2.91,2.56-4.26A26.76,26.76,0,0,1,76,56.24a10,10,0,0,1,1.72-.89c.18-.08.43.1.65.15a2.38,2.38,0,0,1-.26.75,50.59,50.59,0,0,0-5.68,8.84c-1.36,2.72-2.57,5.57-3.85,8.36A8.87,8.87,0,0,1,67.8,75c-.73,1-1.66.92-2.26-.2-.79-1.47-1.55-3-2.26-4.52a21,21,0,0,0-5.27-7,2.4,2.4,0,0,1-.43-.41c-.12-.17-.29-.47-.24-.6a.69.69,0,0,1,.48-.4,5.84,5.84,0,0,1,3,.49,10.21,10.21,0,0,1,4.37,4C65.57,67,66,67.59,66.41,68.24Z"/></g></g></g></g></svg>