<svg id="Layer_1" data-name="Layer 1" xmlns="http://www.w3.org/2000/svg" viewBox="0 0 50 37.01"><defs><style>.cls-1{fill:#fff;}.cls-2{fill:#232862;}.cls-3{fill:none;stroke:#232862;}.cls-4{fill:#969fcc;}.cls-5{fill:#dbdee0;}</style></defs><title>TableLine</title><g id="Group_9515" data-name="Group 9515"><rect id="Rectangle_4577" data-name="Rectangle 4577" class="cls-1" x="0.15" width="49.82" height="37.01" rx="3.56"/><g id="Rectangle_4578" data-name="Rectangle 4578"><rect class="cls-2" x="5.13" y="14.95" width="39.86" height="17.08"/><rect class="cls-3" x="5.48" y="15.3" width="39.15" height="16.37"/></g><rect id="Rectangle_4582" data-name="Rectangle 4582" class="cls-4" x="5.13" y="27.33" width="39.86" height="2.85"/><rect id="Rectangle_4583" data-name="Rectangle 4583" class="cls-4" x="5.13" y="22.36" width="39.86" height="2.85"/><rect id="Rectangle_4584" data-name="Rectangle 4584" class="cls-4" x="5.13" y="17.39" width="39.86" height="2.85"/><rect id="Rectangle_4591" data-name="Rectangle 4591" class="cls-1" x="10.17" y="10.68" width="2.85" height="22.06"/><rect id="Rectangle_4593" data-name="Rectangle 4593" class="cls-1" x="18.94" y="10.68" width="2.85" height="22.06"/><rect id="Rectangle_4595" data-name="Rectangle 4595" class="cls-1" x="27.7" y="10.68" width="2.85" height="22.06"/><rect id="Rectangle_4596" data-name="Rectangle 4596" class="cls-1" x="36.47" y="11.39" width="2.85" height="22.06"/><path id="Rectangle_4579" data-name="Rectangle 4579" class="cls-5" d="M13.31,6.41H36.8a1.78,1.78,0,0,1,1.78,1.78h0A1.78,1.78,0,0,1,36.8,10H13.31a1.78,1.78,0,0,1-1.78-1.77h0A1.78,1.78,0,0,1,13.31,6.41Z"/></g></svg>