<svg id="Layer_1" data-name="Layer 1" xmlns="http://www.w3.org/2000/svg" viewBox="0 0 50 36.97"><defs><style>.cls-1{fill:#fff;}.cls-2{fill:#232862;}.cls-3{fill:none;stroke:#232862;}.cls-4{fill:#dbdee0;}</style></defs><title>Table</title><g id="Group_9561" data-name="Group 9561"><rect id="Rectangle_4585" data-name="Rectangle 4585" class="cls-1" x="0.24" width="49.76" height="36.97" rx="3.55"/><g id="Rectangle_4586" data-name="Rectangle 4586"><rect class="cls-2" x="5.21" y="14.93" width="39.81" height="17.06"/><rect class="cls-3" x="5.57" y="15.28" width="39.1" height="16.35"/></g><rect id="Rectangle_4597" data-name="Rectangle 4597" class="cls-1" x="10.87" y="9.95" width="2.84" height="22.04"/><rect id="Rectangle_4598" data-name="Rectangle 4598" class="cls-1" x="19.63" y="9.95" width="2.84" height="22.04"/><rect id="Rectangle_4599" data-name="Rectangle 4599" class="cls-1" x="28.39" y="9.95" width="2.84" height="22.04"/><rect id="Rectangle_4600" data-name="Rectangle 4600" class="cls-1" x="37.15" y="10.66" width="2.84" height="22.04"/><path id="Rectangle_4590" data-name="Rectangle 4590" class="cls-4" d="M13.39,6.4H36.85a1.78,1.78,0,0,1,1.78,1.78h0A1.78,1.78,0,0,1,36.85,10H13.39a1.78,1.78,0,0,1-1.78-1.77h0A1.78,1.78,0,0,1,13.39,6.4Z"/></g></svg>