<svg id="Layer_1" data-name="Layer 1" xmlns="http://www.w3.org/2000/svg" viewBox="0 0 100 100"><defs><style>.cls-1{isolation:isolate;}</style></defs><title>TAX</title><path d="M86.83,93.13H12.52a8.76,8.76,0,0,1-8.75-8.74V14.45a8.76,8.76,0,0,1,8.75-8.74H86.83a8.76,8.76,0,0,1,8.74,8.74V84.39A8.76,8.76,0,0,1,86.83,93.13ZM12.52,9.21a5.25,5.25,0,0,0-5.25,5.24V84.39a5.25,5.25,0,0,0,5.25,5.24H86.83a5.25,5.25,0,0,0,5.24-5.24V14.45a5.25,5.25,0,0,0-5.24-5.24Z"/><g id="Vibrate_on_Ring" data-name="Vibrate on Ring" class="cls-1"><g class="cls-1"><path d="M28.27,61.07V40.82H21.32v-3H38.7v3h-7V61.07Z"/><path d="M37.44,61.07l8.12-23.3h3.81l8.13,23.3H53.73L51.56,54.4H43.19L41,61.07Zm9.88-19.48L44,51.67h6.69L47.44,41.59Z"/><path d="M70.39,49.52l7.5,11.55H73.74l-5.53-8.89H68l-5.57,8.89H58.54L66,49.33l-7.4-11.56h4.19l5.53,9h.19l5.46-9h4Z"/></g></g></svg>