<svg id="Layer_1" data-name="Layer 1" xmlns="http://www.w3.org/2000/svg" viewBox="0 0 100 100"><defs><style>.cls-1{fill:#1d729b;}.cls-1,.cls-2,.cls-3{fill-rule:evenodd;}.cls-2{fill:#e66e4b;}.cls-3{fill:#fff;}</style></defs><title>invoice_mobile_icon</title><path class="cls-1" d="M92.1,43.7c-.33,1.32-.84,2.57-1.27,3.86-1,3-2.07,6-3.08,9.08-.14.42-.32.54-.72.53-1.57,0-3.14,0-4.71,0a.81.81,0,0,0-.86.56,34,34,0,0,1-17.38,17,33.07,33.07,0,0,1-16.14,2.47,31.74,31.74,0,0,1-18-7.3.83.83,0,0,0-.88-.14,50,50,0,0,1-9.44,2,15.92,15.92,0,0,1-7.5-.65A5,5,0,0,1,9,66.07a18.39,18.39,0,0,1,2.89-8.23c.08-.15.18-.29.27-.44a1.09,1.09,0,0,0,.05-.14c-.2-.19-.44-.09-.66-.1q-3.9,0-7.79,0c-.5,0-.59,0-.4-.59,1.19-3.36,2.32-6.75,3.48-10.12.33-1,.68-1.94,1-2.91l10.47,0c-.5,1.44-1,2.88-1.52,4.32A3.21,3.21,0,0,1,15.41,50c-.11.06-.17.25-.22.39-.31.84-.59,1.69-.92,2.53-.17.42,0,.46.34.46q3.21,0,6.43,0A.49.49,0,0,0,21.6,53c.3-.92.64-1.82,1-2.73.05-.13.18-.28.07-.42-.44-.55-.18-1.11,0-1.63.53-1.55,1.1-3.09,1.66-4.63l10.4,0c-1.45,4.27-2.91,8.54-4.33,12.82a.91.91,0,0,1-1.08.76c-1.5-.05-3,0-4.5,0H23a3.31,3.31,0,0,0,.12.33A31.17,31.17,0,0,0,31,67.61a1.31,1.31,0,0,0,1.62.16A3,3,0,0,1,33,67.6c2.66-.91,5.27-1.95,7.85-3.08,2.33-1,4.59-2.16,6.84-3.35s4.73-2.55,7-4c1.77-1,3.51-2.08,5.18-3.26a24.86,24.86,0,0,0,2.16-1.4c.22-.13.27-.38.35-.61L65.2,43.8a5.38,5.38,0,0,1,.69-.07h6a14.21,14.21,0,0,0-.58,1.85c.2,0,.3-.11.42-.21,2.13-1.74,4.21-3.53,6.21-5.43a60.26,60.26,0,0,0,5.8-6.15A26.88,26.88,0,0,0,86.56,30,18.41,18.41,0,0,0,90,23.2c.72-3.25-.67-5.54-3.79-6.4a14.31,14.31,0,0,0-3.38-.44,30,30,0,0,0-7.87,1.21c-.58.14-.3.35-.08.58A33.82,33.82,0,0,1,82.47,30a20.42,20.42,0,0,1-2.71,0,31.35,31.35,0,0,0-7.7-11.25.59.59,0,0,0-.7-.13c-1.29.47-2.6.89-3.89,1.39A126.93,126.93,0,0,0,48.38,29.5a2.32,2.32,0,0,0-.8.58h5.11c4.91,0,9.82,0,14.74,0,.48,0,.57.07.38.57-.46,1.2-.84,2.44-1.26,3.66l-3.12,9.12-6.76,0a3.71,3.71,0,0,0-2.59-2c-.73-.18-1.46-.36-2.17-.58a1.33,1.33,0,0,1-1.1-1.23A1.7,1.7,0,0,1,52,38c.72-.2,1.15.21,1,.95a5.82,5.82,0,0,1-.32,1c-.16.36-.08.45.29.45,1.57,0,3.14,0,4.7,0a.54.54,0,0,0,.6-.44c.42-1.24.86-2.48,1.34-3.7a.61.61,0,0,0-.28-.89,10.67,10.67,0,0,0-7.11-1.54,7.78,7.78,0,0,0-7,4.44c-.77,1.59-1.44,3.26-.87,5.12H36.54c.87-2.6,1.75-5.2,2.66-7.88-.8.4-1.34,1-2.08,1.32a27.15,27.15,0,0,1,1.41-4.22c.55-.38,1.1-.77,1.67-1.12a1.4,1.4,0,0,0,.71-1c.07-.37.25-.47.57-.43a2.06,2.06,0,0,0,1.5-.45c3.88-2.52,7.86-4.87,12-7a116.38,116.38,0,0,1,13.43-6.06c.15-.06.38,0,.43-.24s-.16-.24-.28-.31A31.07,31.07,0,0,0,22.14,30a11.61,11.61,0,0,1-2.7,0A34.54,34.54,0,0,1,31.77,14.09,31.23,31.23,0,0,1,47.64,8.26a33.67,33.67,0,0,1,16.64,2.52,31.71,31.71,0,0,1,7,4.21,1.05,1.05,0,0,0,1.11.21,42.85,42.85,0,0,1,13-2.23,11.71,11.71,0,0,1,4.6.79,4.92,4.92,0,0,1,3.11,5.29,18,18,0,0,1-2.66,7.16C89.75,27.53,88.83,28.75,88,30q-1.62,1.92-3.22,3.85l-4.14,4.25-1,1a1.59,1.59,0,0,0-.21.15,95.83,95.83,0,0,1-7.71,6.68,3.57,3.57,0,0,0-1.34,1.92c-.16.52-.32,1.14-.82,1.37-.7.31-.87.9-1.08,1.52s-.39,1.16-.63,1.72-.18.67.42.66c2.87,0,5.74,0,8.62,0a7.79,7.79,0,0,0,7.76-5.38c.54-1.34,1-2.71,1.51-4.06l6,0M55.74,57.16c-.92.52-1.83,1-2.74,1.58q-4,2.35-8.18,4.42c-2.88,1.43-5.78,2.81-8.76,4l-3.69,1.46A30.43,30.43,0,0,0,59.46,73.7,31.18,31.18,0,0,0,79,57.16h-.81c-5.65,0-11.3,0-16.94,0-.52,0-.63-.1-.43-.61.41-1.1.76-2.21,1.14-3.32l-.11-.08-2.32,1.6-3.78,2.4M28.64,68.92a1.2,1.2,0,0,0-.11-.23,34.49,34.49,0,0,1-8.21-11.22.51.51,0,0,0-.56-.32c-.94,0-1.89,0-2.83,0a1,1,0,0,0-.95.51,23.51,23.51,0,0,0-2.5,5.11c-1,3.15.18,5.91,3.26,6.83,4,1.2,7.94.27,11.9-.68"/><path class="cls-2" d="M19.44,30a11.61,11.61,0,0,0,2.7,0c.24,0,.47,0,.7,0h9.33c2.18,0,4.37,0,6.55,0,.6,0,.63.18.44.68a10,10,0,0,0-.63,1.92,27.15,27.15,0,0,0-1.41,4.22,9.51,9.51,0,0,0-.77,2c-.58,1.58-1.12,3.18-1.67,4.77l-10.4,0c.58-1.61,1.15-3.22,1.73-4.82.07-.19.08-.48.41-.34a.44.44,0,0,1,.32.56c0,.17-.11.33-.16.5-.33.91-.63,1.82-1,2.72-.18.45,0,.52.36.52,1.12,0,2.24,0,3.35,0a.54.54,0,0,0,.6-.44c.93-2.6,1.86-5.19,2.82-7.79.14-.39.06-.48-.33-.48q-7.66,0-15.33,0a.56.56,0,0,0-.61.43c-.92,2.6-1.86,5.2-2.81,7.78-.17.46,0,.51.38.5,1.07,0,2.15,0,3.22,0a.68.68,0,0,0,.78-.56c.31-1,.66-1.91,1-2.84.19-.51.45-1,1.18-1l-1.95,5.23-10.47,0A34.64,34.64,0,0,1,9,39.81c1-3.11,2.13-6.2,3.17-9.3a.6.6,0,0,1,.68-.5c2.19,0,4.38,0,6.57,0"/><path class="cls-2" d="M84.77,33.87Q86.38,31.94,88,30H96.1c.75,0,.75,0,.51.71L92.41,43a2.1,2.1,0,0,1-.31.72l-6,0c.05-.17.11-.33.17-.5A50.8,50.8,0,0,0,88,38c.49-2.38-.52-3.83-2.86-4.13l-.39,0"/><path class="cls-1" d="M23.7,86.76c-1,0-1.88,0-2.8,0-.26,0-.32.15-.35.36-.11.71-.22,1.43-.34,2.15a.52.52,0,0,0,.24.56.32.32,0,0,1,.13.4.38.38,0,0,1-.41.25H18c-.16,0-.31,0-.37-.18a.34.34,0,0,1,.16-.45,1.44,1.44,0,0,0,.58-1.13c.24-1.51.48-3,.74-4.55,0-.28.05-.52-.21-.69A.33.33,0,0,1,18.8,83a.36.36,0,0,1,.37-.2h2.18a.38.38,0,0,1,.37.22.31.31,0,0,1-.14.4c-.77.55-.6,1.45-.78,2.21-.07.27.17.26.33.26h2.38a.37.37,0,0,0,.42-.38c.05-.44.11-.88.17-1.31a.77.77,0,0,0-.22-.77c-.32-.31-.2-.59.22-.62.74,0,1.5,0,2.25,0a.34.34,0,0,1,.35.23.25.25,0,0,1-.12.33c-.54.33-.57.9-.66,1.44-.22,1.38-.44,2.77-.65,4.16a1.59,1.59,0,0,0,0,.53.46.46,0,0,0,.75.29,1.83,1.83,0,0,0,.54-.72,43.52,43.52,0,0,1,3.38-5.75c.2-.25.35-.56.7-.65.6-.16.94.08,1.2.86a34.35,34.35,0,0,1,1.3,5.1,2.05,2.05,0,0,0,.48,1.25c.28.29.14.56-.24.58-.77,0-1.54,0-2.32,0a.33.33,0,0,1-.33-.24c-.05-.16.05-.25.14-.34a1.93,1.93,0,0,0,.21-1.74c-.11-.22-.29-.16-.45-.16H29a1.4,1.4,0,0,0-1.47,1.38.54.54,0,0,0,.24.5.36.36,0,0,1,.14.4c0,.19-.2.2-.35.2-1.5,0-3,0-4.49,0-.36,0-.61-.27-.3-.52a2.51,2.51,0,0,0,.71-1.83c.07-.44.14-.87.23-1.36m4.86.35c.76,0,1.37,0,2,0,.24,0,.37-.06.31-.34a10.37,10.37,0,0,0-.66-2.4c-.55.9-1.06,1.76-1.64,2.74"/><path class="cls-2" d="M79.39,82.81a14.59,14.59,0,0,0,1.87,0c.57-.07,1.07.31,1.7.06a5.08,5.08,0,0,1,1.79,0h1.86c.6,0,1.21,0,1.81,0,.21,0,.53-.15.6.19s.24.89,0,1.28a.4.4,0,0,1-.63,0,3.19,3.19,0,0,1-.33-.4,1.21,1.21,0,0,0-1.21-.28c-.37.08-.3.5-.34.78-.26,1.53-.49,3.08-.75,4.62,0,.32-.08.61.23.82a.33.33,0,0,1,.14.4.4.4,0,0,1-.42.24H83.48a.34.34,0,0,1-.36-.21.32.32,0,0,1,.16-.39,1.48,1.48,0,0,0,.57-1.2c.25-1.5.47-3,.75-4.48.1-.57-.1-.66-.57-.6a1.94,1.94,0,0,0-1.1.62,1,1,0,0,1-1.45,0A2.71,2.71,0,0,0,79,83.63a.59.59,0,0,0-.33.46c-.12.58-.22,1.16-.34,1.74-.06.26.07.31.27.3a4.12,4.12,0,0,0,2-.27c.34-.2.59-.06.54.39a4.64,4.64,0,0,1-.11.65c-.1.4-.33.54-.72.32A1.59,1.59,0,0,0,80,87c-1.53-.36-1.7-.26-2,1.31-.09.56-.36,1.13.23,1.64.22.19,0,.45-.25.45a22.08,22.08,0,0,1-2.44,0c-.38,0-.4-.36-.12-.55a1.87,1.87,0,0,0,.67-1.43c.22-1.35.44-2.69.64-4,0-.33.21-.7-.17-1a.35.35,0,0,1-.15-.45c.09-.18.27-.2.45-.2Z"/><path class="cls-1" d="M58.87,87.8c.19-1.35.35-2.5.52-3.65a.81.81,0,0,0-.23-.72c-.32-.34-.13-.57.24-.61a6.18,6.18,0,0,1,1.29,0c.32,0,.53.28.22.51a1.81,1.81,0,0,0-.54,1.28c-.28,1.62-.56,3.25-.86,4.87-.08.4,0,.91-.62,1a1.1,1.1,0,0,1-1.25-.76c-.77-1.56-1.6-3.11-2.4-4.66-.05-.09-.12-.17-.25-.38-.18,1.16-.34,2.19-.49,3.22-.06.35-.1.7-.15,1a.86.86,0,0,0,.24.89c.33.3.17.58-.22.63a13.26,13.26,0,0,1-1.41,0,.3.3,0,0,1-.2-.54c.58-.27.57-.83.66-1.34.24-1.45.47-2.9.72-4.35a.73.73,0,0,0-.22-.76c-.32-.29-.21-.63.22-.66a16.64,16.64,0,0,1,1.73,0c.29,0,.36.28.47.48l2.53,4.5"/><path class="cls-2" d="M71.11,90.63a3.15,3.15,0,0,1-3.29-3.4A4.26,4.26,0,0,1,72,82.66a3,3,0,0,1,3.2,3.18c.1,2.72-1.68,4.79-4.13,4.79m-1.46-3.08c0,.13,0,.26,0,.39.08,1.06.47,1.68,1.16,1.85a1.82,1.82,0,0,0,2-1.2,6.47,6.47,0,0,0,.65-3.44,1.57,1.57,0,0,0-3-.74,6,6,0,0,0-.79,3.14"/><path class="cls-1" d="M52.58,86.08c0,2.61-1.75,4.54-4.09,4.55a3.08,3.08,0,0,1-3.32-3,4.49,4.49,0,0,1,3.17-4.87,3.22,3.22,0,0,1,4.24,3.33m-3.27-2.63a1.64,1.64,0,0,0-1.45.84,5.64,5.64,0,0,0-.77,4.29,1.46,1.46,0,0,0,2.59.7,5.86,5.86,0,0,0,.94-4.85,1.34,1.34,0,0,0-1.31-1"/><path class="cls-2" d="M63.62,90.62A3.8,3.8,0,0,1,61.26,90a1.34,1.34,0,0,1-.71-1.11.77.77,0,0,1,.61-.88c.43-.09.67.14.81.55a1.77,1.77,0,0,0,2.57,1.07,1.18,1.18,0,0,0,.71-1c0-.48-.33-.73-.74-.88-.58-.23-1.17-.41-1.74-.66a2,2,0,0,1-.46-3.6,4.49,4.49,0,0,1,4.75-.17c.41.24.38,1.55,0,1.79a.3.3,0,0,1-.49-.13,6.28,6.28,0,0,1-.27-.59,1.69,1.69,0,0,0-2.41-.65.9.9,0,0,0,0,1.57,9.27,9.27,0,0,0,1.88.83,2,2,0,0,1,.59,3.62,3.72,3.72,0,0,1-2.76.94"/><path class="cls-1" d="M40.93,90.63A3.84,3.84,0,0,1,38.69,90a1.41,1.41,0,0,1-.8-1.12.78.78,0,0,1,.56-.92.63.63,0,0,1,.85.56,1.72,1.72,0,0,0,2.42,1.12,1.21,1.21,0,0,0,.87-1.12c0-.51-.4-.74-.82-.9-.62-.24-1.26-.43-1.86-.72a2,2,0,0,1-.57-3.19c1.3-1.49,3.77-1.25,5.07-.47.37.22.37,1.47,0,1.75a.31.31,0,0,1-.53-.11,4.47,4.47,0,0,1-.27-.59,1.68,1.68,0,0,0-2.47-.59.9.9,0,0,0,.16,1.57,18.52,18.52,0,0,0,1.89.81A2,2,0,0,1,44,89.42a3.7,3.7,0,0,1-3,1.21"/><path class="cls-1" d="M14.74,82.8c.88,0,1.76,0,2.64,0,.28,0,.59,0,.6.38s.22.89-.18,1.17-.59,0-.79-.34-.75-.44-1.21-.42c-.24,0-.32.16-.36.38-.28,1.76-.56,3.51-.85,5.27a.66.66,0,0,0,.24.57c.31.35.23.63-.21.65-.74,0-1.5,0-2.25,0a.33.33,0,0,1-.35-.22.32.32,0,0,1,.17-.39,1.29,1.29,0,0,0,.54-1l.75-4.62c.11-.65,0-.75-.62-.64a2,2,0,0,0-1.09.66c-.16.18-.37.37-.61.23s-.16-.46-.09-.7c.27-.94.35-1,1.29-1Z"/><path class="cls-1" d="M36.94,82.81H38c.16,0,.31,0,.36.2a.3.3,0,0,1-.15.39c-.47.27-.53.76-.61,1.24L36.88,89c-.05.3-.08.57.2.77a.36.36,0,0,1,.16.46.36.36,0,0,1-.38.2H34.68a.35.35,0,0,1-.35-.23c-.07-.19.06-.3.18-.38a1.47,1.47,0,0,0,.55-1.13c.21-1.48.47-2.94.71-4.41.06-.33.13-.66-.22-.89a.35.35,0,0,1-.13-.4c.07-.2.25-.23.43-.23.36,0,.73,0,1.09,0"/><path class="cls-2" d="M63.43,43.43q-1.09,3.21-2.18,6.42c-.46,1.36-.9,2.72-1.35,4.08-1.67,1.18-3.41,2.24-5.18,3.26l-.77,0H32.65c-.15,0-.3,0-.45,0-.32,0-.42-.07-.29-.42Q33,53.69,34,50.62c.83-2.41,1.66-4.83,2.5-7.24h7.82a3.36,3.36,0,0,0,2,1.52,16.42,16.42,0,0,1,2.9,1c.55.29,1,.69.81,1.41a4.36,4.36,0,0,1-.65,1.42,1.3,1.3,0,0,1-1.18.55.59.59,0,0,1-.63-.66A4.53,4.53,0,0,1,48.07,47c.17-.44.17-.63-.38-.62-1.6,0-3.21,0-4.82,0-.41,0-.56.16-.68.52-.43,1.24-.89,2.47-1.34,3.71-.34.94-.24,1.26.59,1.79a6.19,6.19,0,0,0,1.1.53,12.69,12.69,0,0,0,7.09.45c3.68-.69,5.69-3.24,6.91-6.64a5.2,5.2,0,0,0,.13-3.35l6.76,0"/><path class="cls-3" d="M56.67,43.41a5.2,5.2,0,0,1-.13,3.35c-1.22,3.4-3.23,6-6.91,6.64A12.69,12.69,0,0,1,42.54,53a6.19,6.19,0,0,1-1.1-.53c-.83-.53-.93-.85-.59-1.79.45-1.24.91-2.47,1.34-3.71.12-.36.27-.53.68-.52,1.61,0,3.22,0,4.82,0,.55,0,.55.18.38.62a4.33,4.33,0,0,0-.43,1.64.58.58,0,0,0,.62.66,1.3,1.3,0,0,0,1.18-.55,4.36,4.36,0,0,0,.65-1.42c.17-.72-.26-1.12-.81-1.41a16.42,16.42,0,0,0-2.9-1,3.36,3.36,0,0,1-2-1.52c-.57-1.86.1-3.53.87-5.12a7.78,7.78,0,0,1,7-4.44,10.67,10.67,0,0,1,7.11,1.54.61.61,0,0,1,.28.89c-.48,1.22-.92,2.46-1.34,3.7a.54.54,0,0,1-.6.44c-1.56,0-3.13,0-4.7,0-.37,0-.45-.09-.29-.45a5.82,5.82,0,0,0,.32-1c.18-.74-.25-1.15-1-.95a1.7,1.7,0,0,0-1.2,1.62,1.33,1.33,0,0,0,1.1,1.23c.71.22,1.44.4,2.17.58a3.71,3.71,0,0,1,2.59,2"/><path class="cls-3" d="M18.29,43.57l1.95-5.23c-.73,0-1,.45-1.18,1-.37.93-.72,1.88-1,2.84a.68.68,0,0,1-.78.56c-1.07,0-2.15,0-3.22,0-.38,0-.55,0-.38-.5.95-2.58,1.89-5.18,2.81-7.78a.56.56,0,0,1,.61-.43q7.66,0,15.33,0c.39,0,.47.09.33.48-1,2.6-1.89,5.19-2.82,7.79a.54.54,0,0,1-.6.44c-1.11,0-2.23,0-3.35,0-.4,0-.54-.07-.36-.52.35-.9.65-1.81,1-2.72.05-.17.12-.33.16-.5a.44.44,0,0,0-.32-.56c-.33-.14-.34.15-.41.34-.58,1.6-1.15,3.21-1.73,4.82s-1.13,3.08-1.66,4.63c-.17.52-.43,1.08,0,1.63.11.14,0,.29-.07.42-.32.91-.66,1.81-1,2.73a.49.49,0,0,1-.56.38q-3.22,0-6.43,0c-.36,0-.51,0-.34-.46.33-.84.61-1.69.92-2.53.05-.14.11-.33.22-.39a3.21,3.21,0,0,0,1.36-2.07c.5-1.44,1-2.88,1.52-4.32"/><path class="cls-3" d="M84.77,33.87l.39,0c2.34.3,3.35,1.75,2.86,4.13a50.8,50.8,0,0,1-1.72,5.14c-.06.17-.12.33-.17.5-.5,1.35-1,2.72-1.51,4.06a7.79,7.79,0,0,1-7.76,5.38c-2.88,0-5.75,0-8.62,0-.6,0-.62-.18-.42-.66s.42-1.15.63-1.72.38-1.21,1.08-1.52c.5-.23.66-.85.82-1.37a3.57,3.57,0,0,1,1.34-1.92,95.83,95.83,0,0,0,7.71-6.68,1.59,1.59,0,0,1,.21-.15q-.8,2.28-1.61,4.57c-.65,1.78-1.29,3.56-2,5.35a2.09,2.09,0,0,0,2.53-1.5c.48-1.26.92-2.55,1.38-3.82l1.51-4.17c.37-1,.24-1.25-.84-1.42l4.14-4.25"/><path class="cls-2" d="M82.47,30h4.09a26.88,26.88,0,0,1-2.87,3.76l-8.69,0a.53.53,0,0,0-.59.43c-.31.94-.66,1.86-1,2.79,0,.13-.19.28,0,.42.57.49.34,1.08.15,1.63-.54,1.57-1.12,3.13-1.69,4.69h-6a5.38,5.38,0,0,0-.69.07c1-3.16,2.09-6.32,3.15-9.48.41-1.24.84-2.48,1.24-3.73a.62.62,0,0,1,.71-.53c2.9,0,5.8,0,8.69,0,.26,0,.52,0,.77,0a20.42,20.42,0,0,0,2.71,0"/><path class="cls-3" d="M71.84,43.73c.57-1.56,1.15-3.12,1.69-4.69.19-.55.42-1.14-.15-1.63-.15-.14,0-.29,0-.42.33-.93.68-1.85,1-2.79a.53.53,0,0,1,.59-.43l8.69,0a60.26,60.26,0,0,1-5.8,6.15c-2,1.9-4.08,3.69-6.21,5.43-.12.1-.22.22-.42.21a14.21,14.21,0,0,1,.58-1.85"/><path class="cls-2" d="M78,43.68q.81-2.3,1.61-4.57l1-1c1.08.17,1.21.39.84,1.42L80,43.71l-2,0"/><path class="cls-2" d="M59.52,54.76c-.12.77-.49,1.44-.67,2.19-.08.28-.34.22-.55.22H55.74l3.78-2.4"/><path class="cls-1" d="M78,43.68l2,0c-.46,1.27-.9,2.56-1.38,3.82A2.09,2.09,0,0,1,76.05,49c.66-1.79,1.3-3.57,2-5.35"/></svg>