<svg id="Layer_1" data-name="Layer 1" xmlns="http://www.w3.org/2000/svg" viewBox="0 0 98.3 98.3"><defs><style>.cls-1{fill:#fff;}.cls-2{fill:#aaadb9;}</style></defs><title>Icon_2</title><g id="Group_9659" data-name="Group 9659"><g id="Group_9585" data-name="Group 9585"><path id="Path_11574" data-name="Path 11574" class="cls-1" d="M96.93,48.64A47.31,47.31,0,1,1,49.62,1.33,47.31,47.31,0,0,1,96.93,48.64Z"/></g><g id="Group_2731" data-name="Group 2731"><path id="Path_1797" data-name="Path 1797" class="cls-2" d="M60.28,71a50.73,50.73,0,0,1-7.83,1.57,49.19,49.19,0,0,1-7.94-.76q-3.66-.4-7.31-.89a4.84,4.84,0,0,1-5-4.73,4.34,4.34,0,0,1,0-.72,41,41,0,0,1,4.6-19.18,13.68,13.68,0,0,1,10.87-6.88,17.12,17.12,0,0,1,13.38,3.31,14.55,14.55,0,0,1,4.9,8,84,84,0,0,1,2.61,12.86c.58,5.23-1.11,7-6.32,7.53q-1,0-2,0ZM51.82,60.58a21.93,21.93,0,0,0,.84,3.4c.16.37,1,.52,1.6.59.14,0,.57-.73.51-1.07-.88-5.43-1.86-10.82-2.73-16.23-.19-1.21-.89-1.18-1.75-1.15s-1.47-.1-1.66,1c-.91,5.41-1.89,10.8-2.87,16.2-.17,1,.18,1.26,1.11,1.32,1.25.07,1.29-.82,1.39-1.61C48.64,60.19,48.38,60.26,51.82,60.58Zm13.54,5.29c-.34-1.65-.72-3.17-1-4.72-.34-2.25-1.61-4.54.24-6.73,1.26-1.49.71-2.9-.32-4.44l-1.71,2.64a34.38,34.38,0,0,0-1.13-5c-.2-.54-1.34-.74-2.05-1.09A4.25,4.25,0,0,0,59.06,48a16.93,16.93,0,0,0,.68,3.22,9.29,9.29,0,0,1-1.21,9.13,27.89,27.89,0,0,0-2.27,4.2c1.6.69,2.69.74,3.37-1a27.47,27.47,0,0,1,1.92-3.38,35.9,35.9,0,0,1,.77,3.71C62.49,65.74,63.56,66,65.36,65.87ZM40.29,50.76a9.45,9.45,0,0,0,2.17-.35,1.59,1.59,0,0,0,.88-1.09c.16-2.4-.4-2.87-2.76-2.49a10.49,10.49,0,0,0-1.94.33,2.39,2.39,0,0,0-1.26.86,24.82,24.82,0,0,0-1.13,2.46c.66.83,1.32,1.28,1.41,1.83.62,3.74,1.12,7.49,1.63,11.24.33,2.47.34,2.49,2.92,1.51Z"/><path id="Path_1798" data-name="Path 1798" class="cls-2" d="M60.47,24.89a73,73,0,0,1-3.88,6.39c-.33.45-1.79.06-3,.06l2.23-3.81-.19-.21-2.9,2c-2.29,1.58-3.06,1.51-5-.46L46,27l-.43.24,1.33,3.88c-2.64,1.18-3.25,1.09-4.78-1.38-1.26-2-2.32-4.21-3.57-6.49a19.78,19.78,0,0,1,9.33-3,5.42,5.42,0,0,1,3.24,1.71,6.87,6.87,0,0,0,5.77,2.17,18.38,18.38,0,0,1,3.23.28Z"/><path id="Path_1799" data-name="Path 1799" class="cls-2" d="M43,33.27a28.89,28.89,0,0,1,14.8,0,2.63,2.63,0,0,0-.48,3.7,1.71,1.71,0,0,0,.22.25H43.44C44,36.07,44.86,34.71,43,33.27Z"/><path id="Path_1800" data-name="Path 1800" class="cls-2" d="M41.78,35.92c-4,.37-8,.42-11.42,2.83l-2.1-4.33C33,32.51,37.37,34.29,41.78,35.92Z"/><path id="Path_1801" data-name="Path 1801" class="cls-2" d="M42.44,37.08A49.75,49.75,0,0,0,37.49,40a5,5,0,0,0-2,2.69c-.49,2.75-2.8,3.66-4.53,5.26C29.51,43.23,37.39,36.09,42.44,37.08Z"/><path id="Path_1802" data-name="Path 1802" class="cls-2" d="M51.38,57.29H49.3c.27-1.71.53-3.32.78-4.91l.35-.06Z"/></g></g></svg>