<svg id="Layer_1" data-name="Layer 1" xmlns="http://www.w3.org/2000/svg" xmlns:xlink="http://www.w3.org/1999/xlink" viewBox="0 0 100 100"><defs><style>.cls-1{fill:none;}.cls-2{clip-path:url(#clip-path);}.cls-3{fill:#21265b;}.cls-4{fill:#20255a;}.cls-5{clip-path:url(#clip-path-2);}.cls-6{clip-path:url(#clip-path-3);}.cls-7{clip-path:url(#clip-path-4);}.cls-8{clip-path:url(#clip-path-5);}.cls-9{clip-path:url(#clip-path-6);}.cls-10{clip-path:url(#clip-path-7);}.cls-11{clip-path:url(#clip-path-8);}.cls-12{clip-path:url(#clip-path-9);}</style><clipPath id="clip-path"><path class="cls-1" d="M94.66,33.22a35.37,35.37,0,0,0-7.49-13,3.11,3.11,0,0,0-2.2-.91h0a3.12,3.12,0,0,0-2.2,5.32A30.17,30.17,0,0,1,88.86,35.5a45.66,45.66,0,0,1,2.58,14.32c0,.68,0,1.72,0,2.29a3,3,0,0,0,.81,2.23,3.05,3.05,0,0,0,2.16,1h.13a3.12,3.12,0,0,0,3.11-3c0-.7,0-1.84,0-2.56A51.83,51.83,0,0,0,94.66,33.22Z"/></clipPath><clipPath id="clip-path-2"><path class="cls-1" d="M24.79,17a3.11,3.11,0,0,0,1.82-.59A40.66,40.66,0,0,1,50.44,9a40.09,40.09,0,0,1,25.81,9.72,3.28,3.28,0,0,0,2,.73,3.09,3.09,0,0,0,2.38-1.12A3.15,3.15,0,0,0,80.25,14,46.33,46.33,0,0,0,50.46,2.81,47,47,0,0,0,23,11.38,3.11,3.11,0,0,0,24.79,17Z"/></clipPath><clipPath id="clip-path-3"><path class="cls-1" d="M9.45,49.8a41,41,0,0,1,10.1-26.95,3.12,3.12,0,0,0-2.36-5.14h0a3.09,3.09,0,0,0-2.34,1.07,47.22,47.22,0,0,0-11.62,31A66.37,66.37,0,0,0,6.74,70.27a3.08,3.08,0,0,0,3,2.2,3.51,3.51,0,0,0,.91-.13,3.1,3.1,0,0,0,1.84-1.51,3,3,0,0,0,.22-2.36A60.58,60.58,0,0,1,9.45,49.8Z"/></clipPath><clipPath id="clip-path-4"><path class="cls-1" d="M73.08,21.38a33,33,0,0,0-21.95-8.22A37,37,0,0,0,23.55,24.53a34.26,34.26,0,0,0-9,26.13,98.9,98.9,0,0,0,2.11,15.13A61.21,61.21,0,0,1,17.8,84.88a3.24,3.24,0,0,0,2.28,3.3,2.54,2.54,0,0,0,.82.11A3.15,3.15,0,0,0,24,85.37a66.75,66.75,0,0,0-1.25-20.86,96.15,96.15,0,0,1-2-14.33,28.17,28.17,0,0,1,7.36-21.45,30.89,30.89,0,0,1,23-9.4A26.86,26.86,0,0,1,69,26,38.15,38.15,0,0,1,80.12,44.44a89.69,89.69,0,0,1,2.06,32.8A3.14,3.14,0,0,0,85,80.64l.3,0a3.1,3.1,0,0,0,3.09-2.82,95,95,0,0,0-2.3-35.14A44.1,44.1,0,0,0,73.08,21.38Z"/></clipPath><clipPath id="clip-path-5"><path class="cls-1" d="M77.11,52.63A38.16,38.16,0,0,0,67.9,32.07a23.55,23.55,0,0,0-17.46-7.65,28.46,28.46,0,0,0-12.27,2.72,3.18,3.18,0,0,0-1.68,2.07A3.11,3.11,0,0,0,38.79,33a2.94,2.94,0,0,0,.72.08,3.23,3.23,0,0,0,1.34-.29,22.35,22.35,0,0,1,9.58-2.09,17.52,17.52,0,0,1,13.24,6A32.46,32.46,0,0,1,71,53.63a112.57,112.57,0,0,1,1.62,16.59,124.52,124.52,0,0,1-1.09,16.6A3,3,0,0,0,72,89.13a3.14,3.14,0,0,0,2,1.26,3.88,3.88,0,0,0,.48,0,3.08,3.08,0,0,0,3-2.64A123.08,123.08,0,0,0,78.77,70.2,113.82,113.82,0,0,0,77.11,52.63Z"/></clipPath><clipPath id="clip-path-6"><path class="cls-1" d="M34.4,38.1a3.11,3.11,0,0,0-5.13-3.52A24.2,24.2,0,0,0,26,52.69c2,11.65,3.84,25.22,2.14,37.45a3.24,3.24,0,0,0,.65,2.43,3,3,0,0,0,2.14,1.16l.27,0a3.11,3.11,0,0,0,3.07-2.68c1.86-13.1-.05-27.29-2.16-39.45A17.81,17.81,0,0,1,34.4,38.1Z"/></clipPath><clipPath id="clip-path-7"><path class="cls-1" d="M64.41,80h-.12a3.1,3.1,0,0,0-3,3.2v0a40.68,40.68,0,0,1-.59,7.87,3.14,3.14,0,0,0,2.06,3.59,3.65,3.65,0,0,0,1,.16,3.1,3.1,0,0,0,3.05-2.53,47.79,47.79,0,0,0,.7-9.33A3.06,3.06,0,0,0,64.41,80Z"/></clipPath><clipPath id="clip-path-8"><path class="cls-1" d="M59.21,38.64A13.3,13.3,0,0,0,50,35a13.62,13.62,0,0,0-10.8,4.66c-1.88,2.29-3.86,6.54-2.48,13.62a124.67,124.67,0,0,1,1.84,39.86,3.1,3.1,0,0,0,2.68,3.47h0a1.7,1.7,0,0,0,.39,0,3.09,3.09,0,0,0,3.08-2.72A131.35,131.35,0,0,0,42.84,52,10.26,10.26,0,0,1,44,43.57a7.53,7.53,0,0,1,6-2.39c5.67,0,8,6.26,8.69,9a105.85,105.85,0,0,1,2.61,24.45,3.12,3.12,0,0,0,3.11,3.07h0a3.09,3.09,0,0,0,3.06-3.13,112.27,112.27,0,0,0-2.83-26A20.6,20.6,0,0,0,59.21,38.64Z"/></clipPath><clipPath id="clip-path-9"><path class="cls-1" d="M52.53,47.73a3.1,3.1,0,0,0-2.88-1.93h0a3.22,3.22,0,0,0-1.18.23,3.1,3.1,0,0,0-1.68,4h0A67.43,67.43,0,0,1,50,68.89a147.54,147.54,0,0,1-.45,24.87,3.12,3.12,0,0,0,.66,2.3,3,3,0,0,0,2.09,1.13,1.27,1.27,0,0,0,.34,0,3.09,3.09,0,0,0,3.08-2.77,154.92,154.92,0,0,0,.46-26.29A70.28,70.28,0,0,0,52.53,47.73Z"/></clipPath></defs><title>Touch</title><g id="Icon_ionic-ios-finger-print" data-name="Icon ionic-ios-finger-print"><g id="Path_11657" data-name="Path 11657"><g class="cls-2"><rect class="cls-3" x="81.57" y="19.26" width="2.75" height="36.08"/><rect class="cls-3" x="84.31" y="19.26" width="5.59" height="36.08"/><rect class="cls-4" x="89.9" y="19.26" width="5.59" height="36.08"/><rect class="cls-4" x="95.49" y="19.26" width="2.17" height="36.08"/></g></g><g id="Path_11658" data-name="Path 11658"><g class="cls-5"><rect class="cls-3" x="21.28" y="2.72" width="2.15" height="16.73"/><rect class="cls-3" x="23.43" y="2.72" width="24.34" height="16.73"/><rect class="cls-4" x="47.77" y="2.72" width="24.34" height="16.73"/><rect class="cls-4" x="72.11" y="2.72" width="9.61" height="16.73"/></g></g><g id="Path_11659" data-name="Path 11659"><g class="cls-6"><rect class="cls-3" x="3.23" y="17.71" width="0.91" height="54.77"/><rect class="cls-3" x="4.14" y="17.71" width="9.16" height="54.77"/><rect class="cls-4" x="13.3" y="17.71" width="7.36" height="54.77"/></g></g><g id="Path_11660" data-name="Path 11660"><g class="cls-7"><rect class="cls-3" x="13.74" y="12.92" width="6.88" height="75.38"/><rect class="cls-3" x="20.62" y="12.92" width="29.34" height="75.38"/><rect class="cls-4" x="49.96" y="12.92" width="29.34" height="75.38"/><rect class="cls-4" x="79.3" y="12.92" width="10.48" height="75.38"/></g></g><g id="Path_11661" data-name="Path 11661"><g class="cls-8"><rect class="cls-3" x="36.09" y="24.4" width="6.95" height="66.03"/><rect class="cls-3" x="43.04" y="24.4" width="15.13" height="66.03"/><rect class="cls-4" x="58.17" y="24.4" width="15.13" height="66.03"/><rect class="cls-4" x="73.3" y="24.4" width="5.5" height="66.03"/></g></g><g id="Path_11662" data-name="Path 11662"><g class="cls-9"><rect class="cls-3" x="24.66" y="33.24" width="1.99" height="60.51"/><rect class="cls-3" x="26.66" y="33.24" width="3.62" height="60.51"/><rect class="cls-4" x="30.28" y="33.24" width="3.62" height="60.51"/><rect class="cls-4" x="33.89" y="33.24" width="2.23" height="60.51"/></g></g><g id="Path_11663" data-name="Path 11663"><g class="cls-10"><rect class="cls-3" x="60.39" y="79.97" width="0.69" height="14.86"/><rect class="cls-3" x="61.08" y="79.97" width="3.06" height="14.86"/><rect class="cls-4" x="64.14" y="79.97" width="3.06" height="14.86"/><rect class="cls-4" x="67.2" y="79.97" width="0.36" height="14.86"/></g></g><g id="Path_11664" data-name="Path 11664"><g class="cls-11"><rect class="cls-3" x="35.35" y="34.82" width="5.23" height="61.79"/><rect class="cls-3" x="40.58" y="34.82" width="12.28" height="61.79"/><rect class="cls-4" x="52.86" y="34.82" width="12.28" height="61.79"/><rect class="cls-4" x="65.14" y="34.82" width="2.43" height="61.79"/></g></g><g id="Path_11665" data-name="Path 11665"><g class="cls-12"><rect class="cls-3" x="46.13" y="45.8" width="2.09" height="51.42"/><rect class="cls-3" x="48.22" y="45.8" width="3.68" height="51.42"/><rect class="cls-4" x="51.9" y="45.8" width="3.68" height="51.42"/><rect class="cls-4" x="55.57" y="45.8" width="1.19" height="51.42"/></g></g></g></svg>