<svg id="Layer_1" data-name="Layer 1" xmlns="http://www.w3.org/2000/svg" viewBox="0 0 100 100"><defs><style>.cls-1{fill:#4d5fab;}</style></defs><title>Trash</title><g id="trash-2"><g id="Path_11532" data-name="Path 11532"><path class="cls-1" d="M89.63,24.28H6.2a2.09,2.09,0,0,1,0-4.17H89.63a2.09,2.09,0,0,1,0,4.17Z"/></g><g id="Path_11533" data-name="Path 11533"><path class="cls-1" d="M71.09,98.44H24.74A11.37,11.37,0,0,1,13.39,87.08V22.2a2.09,2.09,0,1,1,4.17,0V87.08a7.19,7.19,0,0,0,7.18,7.18H71.09a7.19,7.19,0,0,0,7.18-7.18V22.2a2.09,2.09,0,1,1,4.17,0V87.08A11.37,11.37,0,0,1,71.09,98.44ZM66.46,24.28a2.09,2.09,0,0,1-2.09-2.08V12.92a7.19,7.19,0,0,0-7.18-7.18H38.64a7.19,7.19,0,0,0-7.17,7.18V22.2a2.09,2.09,0,0,1-4.18,0V12.92A11.38,11.38,0,0,1,38.64,1.56H57.19A11.37,11.37,0,0,1,68.54,12.92V22.2A2.08,2.08,0,0,1,66.46,24.28Z"/></g><g id="Line_135" data-name="Line 135"><path class="cls-1" d="M37.49,73.52a2.09,2.09,0,0,1-2.09-2.08V45.36a2.09,2.09,0,0,1,4.17,0V71.44A2.08,2.08,0,0,1,37.49,73.52Z"/></g><g id="Line_136" data-name="Line 136"><path class="cls-1" d="M58.34,73.52a2.08,2.08,0,0,1-2.08-2.08V45.36a2.09,2.09,0,0,1,4.17,0V71.44A2.09,2.09,0,0,1,58.34,73.52Z"/></g></g></svg>