<svg id="Layer_1" data-name="Layer 1" xmlns="http://www.w3.org/2000/svg" viewBox="0 0 100 100"><title>Twitter</title><path d="M50,1A49.33,49.33,0,1,0,99.33,50.35,49.33,49.33,0,0,0,50,1ZM82.52,51.31c-3.24.09-4.11,1.93-5.15,4.58A32.67,32.67,0,0,1,58.66,74.42a38.14,38.14,0,0,1-37.82-3,32.65,32.65,0,0,1-8.65-8.65A20.88,20.88,0,0,0,26.06,67.6a19.49,19.49,0,0,0,13.46-6.16c-2.44-.07-4.32-.64-5.09-2.78-.68-1.88.82-2.88,2.27-4.12a8.5,8.5,0,0,1-7.56-3.11c-1.41-1.77-1.31-2.31.75-3.32.71-.34,1.45-.53,2.45-.89a9.42,9.42,0,0,1-7.59-7.78l3.87-.83a11.35,11.35,0,0,1-5.68-9.91c8.93,3.93,18.12,6.73,25.29,13.72,2.84-7,5.24-14.18,11.8-19a5.06,5.06,0,0,1,0,.68,2.65,2.65,0,0,1-.09.49l4.71-2L65,23l-.86,1.57a14.7,14.7,0,0,1,2.54-.53,6.1,6.1,0,0,1,1.78.48c-.37.55-.62,1.34-1.14,1.59-1.28.62-2.67,1-4,1.7.73.1,1.47.14,2.19.29A16.09,16.09,0,0,1,76,36.27,26.44,26.44,0,0,1,78.25,42c.29.9.71,1.44,1.58,1.35,2.45-.2,4.88-.48,7.43-.75a10.24,10.24,0,0,1-7.13,4.91c.75.17,1.49.38,2.25.49a25.67,25.67,0,0,0,2.63.22c.81,0,1.63,0,2.8,0A7.69,7.69,0,0,1,82.52,51.31Z"/></svg>