<svg id="Layer_1" data-name="Layer 1" xmlns="http://www.w3.org/2000/svg" viewBox="0 0 100 100"><defs><style>.cls-1{fill:#fff;}</style></defs><title>Units</title><rect class="cls-1" x="54.02" y="5.59" width="41.98" height="41.98" rx="4.66"/><path d="M91.33,47.58A4.68,4.68,0,0,0,96,42.91V10.26a4.68,4.68,0,0,0-4.67-4.67H58.68A4.67,4.67,0,0,0,54,10.26V24.72H44.69V10.26A4.68,4.68,0,0,0,40,5.59H7.37a4.67,4.67,0,0,0-4.66,4.67V42.91a4.67,4.67,0,0,0,4.66,4.67H21.83v4.66H7.37a4.67,4.67,0,0,0-4.66,4.67V89.56a4.66,4.66,0,0,0,4.66,4.66H40a4.67,4.67,0,0,0,4.67-4.66V75.1H54V89.56a4.66,4.66,0,0,0,4.66,4.66H91.33A4.67,4.67,0,0,0,96,89.56V56.91a4.68,4.68,0,0,0-4.67-4.67H76.88V47.58ZM57.75,10.26a.93.93,0,0,1,.93-.93H91.33a.92.92,0,0,1,.93.93V42.91a.92.92,0,0,1-.93.93H58.68a.93.93,0,0,1-.93-.93ZM6.44,42.91V10.26a.93.93,0,0,1,.93-.93H40a.92.92,0,0,1,.93.93V42.91a.92.92,0,0,1-.93.93H7.37A.93.93,0,0,1,6.44,42.91ZM41,89.56a.93.93,0,0,1-.93.93H7.37a.93.93,0,0,1-.93-.93V56.91A.94.94,0,0,1,7.37,56H40a.93.93,0,0,1,.93.94ZM92.26,56.91V89.56a.93.93,0,0,1-.93.93H58.68a.93.93,0,0,1-.93-.93V56.91a.94.94,0,0,1,.93-.94H91.33A.93.93,0,0,1,92.26,56.91ZM58.68,52.24A4.67,4.67,0,0,0,54,56.91V71.36H44.69V56.91A4.68,4.68,0,0,0,40,52.24H25.56V47.58H40a4.68,4.68,0,0,0,4.67-4.67V28.45H54V42.91a4.67,4.67,0,0,0,4.66,4.67H73.14v4.66Z"/></svg>