<svg xmlns="http://www.w3.org/2000/svg" width="24.306" height="22.296" viewBox="0 0 24.306 22.296">
  <path id="Path_18309" data-name="Path 18309" d="M-682.829,1504.3c0-.413,0-.834,0-1.254,0-.491-.146-.638-.632-.639h-.308l-.226-11.012c.226,0,.434,0,.643,0a.478.478,0,0,0,.522-.535c0-.614,0-1.227,0-1.773a1.854,1.854,0,0,0,.4-.341.449.449,0,0,0-.372-.689,2.208,2.208,0,0,1-.96-.255q-5.115-2.214-10.228-4.433a.847.847,0,0,0-.736,0q-5.272,2.294-10.553,4.569a1.244,1.244,0,0,1-.494.1.581.581,0,0,0-.588.342v.287l.467.452c0,.475,0,1.055,0,1.635,0,.492.147.641.629.642h.537l-.226,11.012c-.152,0-.289,0-.427,0a.476.476,0,0,0-.512.52c0,.454,0,.908,0,1.281l-.467.447v.287a.6.6,0,0,0,.611.34q11.388-.007,22.776,0a.542.542,0,0,0,.547-.241C-682.257,1504.735-682.413,1504.44-682.829,1504.3Zm-19.993-16.384q4.144-1.794,8.291-3.584a.426.426,0,0,1,.3-.017q4.235,1.822,8.464,3.658a1.254,1.254,0,0,1,.11.071c-1.33,0-2.6,0-3.875,0a.655.655,0,0,1-.244-.068c-1.407-.607-2.815-1.213-4.218-1.831a.839.839,0,0,0-.736,0c-1.4.618-2.811,1.223-4.219,1.83a.652.652,0,0,1-.245.066c-1.272,0-2.544,0-3.885,0C-702.952,1487.979-702.889,1487.943-702.822,1487.914Zm10.753.115h-4.519l-.008-.031c.662-.288,1.327-.57,1.986-.867a.555.555,0,0,1,.5,0c.59.269,1.187.518,1.781.776C-692.256,1487.936-692.19,1487.971-692.069,1488.029Zm-12.873,2.393v-1.406h21.165v1.406Zm20.234,11.968h-1.865c.075-3.657.15-7.312.225-10.988h1.415C-684.858,1495.065-684.783,1498.72-684.708,1502.39Zm-8.717,0h-1.866c.075-3.658.15-7.311.225-10.979h1.417C-693.575,1495.041-693.5,1498.735-693.425,1502.392Zm6.139-10.981c-.075,3.669-.15,7.319-.226,10.981h-4.975c-.075-3.64-.149-7.332-.224-10.981Zm-8.718,0-.225,10.981h-4.98c-.075-3.661-.15-7.312-.226-10.981Zm-6.143,10.985h-1.866c.075-3.661.15-7.316.225-10.988h1.415C-702.3,1495.061-702.222,1498.716-702.146,1502.4Zm18.369,1.91h-21.164v-.928h21.164Z" transform="translate(706.508 -1483.134)" fill="#131e72" stroke="#fff" stroke-width="0.3"/>
</svg>
