<svg xmlns="http://www.w3.org/2000/svg" width="24" height="22" viewBox="0 0 24 22">
  <g id="Group_12559" data-name="Group 12559" transform="translate(876.576 -331.898)">
    <path id="Path_11636" data-name="Path 11636" d="M-876.576,333.426a5.616,5.616,0,0,1,.37-.822,1.474,1.474,0,0,1,1.17-.689c.311-.022.624-.013.936-.013,1.265,0,2.531.012,3.8,0a2.125,2.125,0,0,1,2.019,1.154,1.618,1.618,0,0,0,1.555.895c3.3-.018,6.593-.008,9.889-.008a1.324,1.324,0,0,1,1.421,1.514c0,.165,0,.331,0,.526.1,0,.188,0,.271,0a1.278,1.278,0,0,1,1.281,1.307c.025.959.007,2.919,0,3.878a.371.371,0,0,1-.352.414c-.2,0-.344-.165-.345-.419,0-.876,0-2.752,0-3.628,0-.6-.186-.8-.738-.8l-16.005-.013c-.656,0-1.312,0-1.968,0-.49,0-.681.205-.681.727q-.006,6.708-.015,13.417c0,.328-.049.656-.079,1.022h.233l7.452.005c.375,0,.528.1.534.362s-.16.389-.538.388c-2.835,0-5.671-.019-8.506,0a1.538,1.538,0,0,1-1.7-1.14Zm20.442,2.554c0-.283.017-.541,0-.8a.5.5,0,0,0-.379-.457,1.369,1.369,0,0,0-.371-.039l-9.959,0a2.7,2.7,0,0,1-.513-.035,2.136,2.136,0,0,1-1.485-1.152,1.539,1.539,0,0,0-1.482-.851c-1.468.016-2.937,0-4.405,0-.753,0-1.14.418-1.14,1.22q0,8.585,0,17.171c0,.075,0,.151,0,.225a.633.633,0,0,0,.583.606.6.6,0,0,0,.6-.549,2.161,2.161,0,0,0,.018-.324q0-1.977,0-3.955,0-4.818,0-9.637a1.434,1.434,0,0,1,.509-1.177,1.333,1.333,0,0,1,.906-.267q8.4.013,16.8.019Z" transform="translate(0 0)" fill="#131e72"/>
    <g id="Rectangle_7414" data-name="Rectangle 7414" transform="translate(-864.576 342.898)" fill="none" stroke="#131e72" stroke-width="0.7">
      <rect width="12" height="3" rx="1" stroke="none"/>
      <rect x="0.35" y="0.35" width="11.3" height="2.3" rx="0.65" fill="none"/>
    </g>
    <g id="Rectangle_7415" data-name="Rectangle 7415" transform="translate(-864.576 346.898)" fill="none" stroke="#131e72" stroke-width="0.7">
      <rect width="12" height="3" rx="1" stroke="none"/>
      <rect x="0.35" y="0.35" width="11.3" height="2.3" rx="0.65" fill="none"/>
    </g>
    <g id="Rectangle_7416" data-name="Rectangle 7416" transform="translate(-864.576 350.898)" fill="none" stroke="#131e72" stroke-width="0.7">
      <rect width="12" height="3" rx="1" stroke="none"/>
      <rect x="0.35" y="0.35" width="11.3" height="2.3" rx="0.65" fill="none"/>
    </g>
  </g>
</svg>
