<svg xmlns="http://www.w3.org/2000/svg" width="14.002" height="14.005" viewBox="0 0 14.002 14.005">
  <g id="Group_12606" data-name="Group 12606" transform="translate(841.411 181.315)">
    <path id="Path_11690" data-name="Path 11690" d="M-772.248-180.915h-.184q-2.733,0-5.465,0a.312.312,0,0,0-.213.08c-.678.771-1.35,1.547-2.023,2.323-.017.019-.03.041-.057.077h2.156c0-.051.007-.1.007-.159q0-.743,0-1.486c0-.041,0-.083,0-.124a.183.183,0,0,1,.179-.195.183.183,0,0,1,.212.177,2.307,2.307,0,0,1,.006.294q0,.813,0,1.626c0,.213-.066.279-.278.279q-1.169,0-2.338,0h-.2v3.674c0,.036,0,.072,0,.108,0,.162-.083.259-.207.255s-.192-.094-.192-.25c0-.981,0-2.961,0-3.942a.369.369,0,0,1,.085-.22q1.212-1.407,2.437-2.8a.376.376,0,0,1,.252-.113q2.973-.009,5.945,0c.211,0,.27.063.27.282,0,1.925,0,4.85,0,6.775,0,.187-.064.277-.192.281s-.2-.095-.2-.286c0-1.811,0-4.623,0-6.434Z" transform="translate(-58.066)" fill="#131e72"/>
    <path id="Path_11691" data-name="Path 11691" d="M-590.91-9.259c-.243,0-.485,0-.728,0a.962.962,0,0,1-.929-.6,2.89,2.89,0,0,1-.157-2.129,5.462,5.462,0,0,0,.2-1.728c0-.238-.015-.476,0-.713a1.191,1.191,0,0,1,.077-.4.6.6,0,0,1,.5-.422.646.646,0,0,1,.65.31.3.3,0,0,0,.285.16.75.75,0,0,1,.566.263,9.5,9.5,0,0,1,1.231,1.74,1.257,1.257,0,0,1,.047.856c-.079.454-.165.907-.238,1.362a2.256,2.256,0,0,0,0,.377c0,.068.008.136.008.2a.68.68,0,0,1-.744.721c-.253.008-.506,0-.759,0Zm-.161-5.17-.057.049c.053.354.09.71.162,1.06.091.442.21.878.315,1.318.035.145-.014.235-.141.261a.183.183,0,0,1-.239-.148c-.142-.61-.291-1.219-.417-1.832-.055-.27-.047-.55-.093-.822a.362.362,0,0,0-.335-.329c-.147.012-.252.162-.255.384,0,.247,0,.495.006.742a6.46,6.46,0,0,1-.133,1.547c-.072.312-.161.622-.208.938a2.436,2.436,0,0,0,.273,1.268.541.541,0,0,0,.555.36c.475,0,.95,0,1.424,0,.293,0,.407-.116.4-.4a3.428,3.428,0,0,1-.006-.522c.067-.46.163-.917.233-1.377a1.155,1.155,0,0,0,.024-.613,7.077,7.077,0,0,0-1.252-1.773C-590.866-14.378-590.982-14.393-591.071-14.429Z" transform="translate(-238.288 -158.053)" fill="#131e72"/>
    <path id="Path_11692" data-name="Path 11692" d="M-838.01-13.837a6.6,6.6,0,0,0,.257,2.133,2.709,2.709,0,0,1-.293,1.96.9.9,0,0,1-.846.47q-.743.012-1.486,0c-.464-.007-.775-.256-.748-.663a7.282,7.282,0,0,0-.243-1.957,1.514,1.514,0,0,1,.264-1.284c.3-.4.578-.8.873-1.2a.953.953,0,0,1,.83-.428c.038,0,.088-.052.114-.09a.717.717,0,0,1,.6-.372.509.509,0,0,1,.5.263,1.647,1.647,0,0,1,.171.547A4.554,4.554,0,0,1-838.01-13.837Zm-1.4-.558-.059-.045a1.676,1.676,0,0,0-.272.118.7.7,0,0,0-.175.183c-.318.441-.628.886-.948,1.326a.869.869,0,0,0-.13.693,8.412,8.412,0,0,1,.268,2.143c-.021.21.115.324.344.327.511.006,1.022,0,1.532,0a.454.454,0,0,0,.435-.232,2.418,2.418,0,0,0,.3-1.657,9.333,9.333,0,0,1-.255-1.238c-.05-.534-.026-1.074-.041-1.612a.973.973,0,0,0-.059-.34.218.218,0,0,0-.389-.066.834.834,0,0,0-.169.377c-.083.482-.133.969-.222,1.449-.067.362-.174.717-.265,1.074a.18.18,0,0,1-.229.143.174.174,0,0,1-.155-.227c0-.024.009-.048.015-.071.094-.387.2-.771.28-1.161S-839.476-14-839.414-14.394Z" transform="translate(0 -158.043)" fill="#131e72"/>
    <path id="Path_11693" data-name="Path 11693" d="M-742.533,105.485h-2.708c-.046,0-.093,0-.139,0a.184.184,0,0,1-.19-.2c0-.127.07-.187.19-.2.036,0,.072,0,.108,0h5.477a.627.627,0,0,1,.138.007.187.187,0,0,1,.163.21.182.182,0,0,1-.177.181,1.123,1.123,0,0,1-.139,0Z" transform="translate(-91.883 -273.816)" fill="#131e72"/>
    <path id="Path_11694" data-name="Path 11694" d="M-720.762-30.7h1.8a.706.706,0,0,1,.139.006.187.187,0,0,1,.168.206.185.185,0,0,1-.174.185.981.981,0,0,1-.139,0h-3.576c-.036,0-.072,0-.108,0a.2.2,0,0,1-.206-.206c0-.133.084-.192.211-.193.315,0,.63,0,.944,0Z" transform="translate(-113.654 -144.027)" fill="#131e72"/>
    <path id="Path_11695" data-name="Path 11695" d="M-720.814,49.46c.614,0,1.228,0,1.842,0a.321.321,0,0,1,.188.044.215.215,0,0,1,.072.171.3.3,0,0,1-.121.16.272.272,0,0,1-.149.022h-3.638c-.026,0-.052,0-.077,0a.209.209,0,0,1-.213-.218c.011-.134.095-.182.222-.182Q-721.75,49.461-720.814,49.46Z" transform="translate(-113.609 -220.684)" fill="#131e72"/>
    <path id="Path_11696" data-name="Path 11696" d="M-720.817-70.742h1.8c.052,0,.115-.015.152.009.063.041.149.1.151.163a.326.326,0,0,1-.118.2c-.033.031-.108.024-.164.024h-3.607a.859.859,0,0,1-.093,0c-.135-.015-.223-.1-.213-.218.011-.134.1-.181.223-.181C-722.065-70.741-721.441-70.742-720.817-70.742Z" transform="translate(-113.606 -105.734)" fill="#131e72"/>
    <path id="Path_11697" data-name="Path 11697" d="M-720.722,9.814H-722.5c-.051,0-.12.015-.151-.012a.416.416,0,0,1-.15-.2c-.018-.1.06-.169.17-.177.046,0,.093,0,.139,0h3.559c.031,0,.062,0,.093,0,.157.007.241.079.238.2s-.085.191-.247.192C-719.474,9.815-720.1,9.814-720.722,9.814Z" transform="translate(-113.709 -182.394)" fill="#131e72"/>
  </g>
</svg>
