<svg xmlns="http://www.w3.org/2000/svg" width="24" height="24" viewBox="0 0 24 24">
  <path id="Path_11647" data-name="Path 11647" d="M-1129.5,1209.737v-5.354a.6.6,0,0,1,.536-.258c1.6.006,3.2,0,4.8,0,.39,0,.522.136.522.521,0,.579,0,1.158,0,1.738v.24h12.274c0-.674,0-1.331,0-1.987,0-.364.132-.51.484-.511q2.449-.005,4.9,0c.339,0,.479.152.479.495q0,2.43,0,4.86c0,.356-.139.5-.493.505-.578.005-1.156,0-1.734,0h-.26v12.264h.263c.578,0,1.156,0,1.734,0,.344,0,.489.149.489.485q0,2.442,0,4.884c0,.331-.14.49-.459.491q-2.472.007-4.945,0c-.315,0-.455-.153-.457-.467,0-.595,0-1.19,0-1.785v-.251h-12.274c0,.656,0,1.3,0,1.936,0,.45-.118.569-.569.57-1.57,0-3.14,0-4.71,0a.641.641,0,0,1-.583-.259v-5.354a.625.625,0,0,1,.583-.259c.429.013.859,0,1.289,0h.361v-12.264c-.559,0-1.1-.009-1.649,0A.632.632,0,0,1-1129.5,1209.737Zm3.065,12.519h.27c.664,0,1.328,0,1.992,0,.406,0,.535.132.536.532,0,.305,0,.61,0,.916v1.057h12.264c0-.089.01-.165.01-.241,0-.587,0-1.174,0-1.761,0-.357.136-.5.494-.5.594,0,1.187,0,1.781,0h.253v-12.264h-.264c-.594,0-1.187,0-1.781,0-.344,0-.482-.147-.483-.489,0-.563,0-1.127,0-1.691v-.322h-12.274c0,.663,0,1.31,0,1.958,0,.416-.126.543-.547.544-.664,0-1.328,0-1.992,0-.083,0-.167.008-.258.012Zm-2.24-13.1h4.211v-4.2h-4.211Zm22.343.007v-4.206h-4.2v4.206Zm-22.341,18.115h4.211v-4.2h-4.211Zm18.131,0h4.208v-4.194h-4.208Z" transform="translate(1129.5 -1204.125)" fill="#131e72"/>
</svg>
