<svg xmlns="http://www.w3.org/2000/svg" width="24.3" height="30.3" viewBox="0 0 24.3 30.3">
  <g id="Group_31079" data-name="Group 31079" transform="translate(374.061 -1026.611)">
    <path id="Path_18304" data-name="Path 18304" d="M-363.72,1056.761a.687.687,0,0,1-.428-.75c.077-1.147.146-2.294.219-3.473h-9.2c-.6,0-.785-.179-.785-.78q0-10.882,0-21.764c0-.591.179-.771.76-.772h1.661c.006-.118.014-.221.015-.324,0-.488,0-.977,0-1.465a.586.586,0,0,1,.662-.667c.465,0,.931,0,1.4,0q6.049,0,12.1-.005a1,1,0,0,1,.77.323q1.635,1.667,3.29,3.314a.978.978,0,0,1,.305.752q-.01,7.572-.009,15.143a.622.622,0,0,0,.232.523c.842.736,1.673,1.484,2.506,2.23.41.368.416.694.01,1.058q-2.293,2.053-4.591,4.1a.591.591,0,0,1-.691.147.589.589,0,0,1-.337-.6c0-.32,0-.64,0-.977-.34,0-.65-.026-.955,0-.876.088-1.76.142-2.621.313a4.694,4.694,0,0,0-3.54,3.069,3.167,3.167,0,0,1-.424.6Zm-6.577-7.874a.754.754,0,0,0,.121.022q3.94,0,7.88,0a.393.393,0,0,0,.251-.107,6.528,6.528,0,0,1,3.665-1.756c.828-.139,1.669-.2,2.548-.3,0-.372,0-.78,0-1.187,0-.3.016-.593.337-.744s.554.013.779.222c.179.167.369.323.578.5v-14h-.336c-.834,0-1.667,0-2.5,0-.509,0-.706-.2-.708-.708,0-.8,0-1.6,0-2.4,0-.153,0-.307,0-.469H-370.3Zm-2.425-18.483v20.962h3.656c1.754,0,3.508,0,5.263,0,.1,0,.262-.034.293-.1.176-.375.32-.765.487-1.179h-3.032q-2.37,0-4.739,0c-.465,0-.67-.21-.679-.68,0-.088,0-.176,0-.264q0-9.18,0-18.36v-.374Zm9.9,23.3a6.128,6.128,0,0,1,3.879-1.891c1.111-.143,2.238-.168,3.359-.224.736-.036.856.088.925.823,0,.013.024.023.055.05l3.226-2.879-3.292-2.936c0,.226,0,.37,0,.515,0,.609-.192.781-.8.811-.86.044-1.725.069-2.575.19a5,5,0,0,0-3.677,2.093A7.439,7.439,0,0,0-362.821,1053.7Zm7.723-23.354-1.4-1.413v1.413Z" transform="translate(0 0)" fill="#121d71" stroke="#fff" stroke-width="0.3"/>
    <path id="Path_18305" data-name="Path 18305" d="M-280.771,1154.558q-1.977,0-3.954,0a.583.583,0,0,1-.583-.354.481.481,0,0,1,.1-.594.957.957,0,0,1,.54-.215c.94-.021,1.88-.01,2.82-.01q2.457,0,4.914,0a1.313,1.313,0,0,1,.344.033.562.562,0,0,1,.413.624.558.558,0,0,1-.519.505c-.212.016-.426.008-.639.008Z" transform="translate(-81.663 -116.713)" fill="#121d71" stroke="#fff" stroke-width="0.3"/>
    <path id="Path_18306" data-name="Path 18306" d="M-280.691,1201.1h3.779a2.576,2.576,0,0,1,.319.009.564.564,0,0,1,.489.5.56.56,0,0,1-.359.6,1.4,1.4,0,0,1-.428.054q-3.794,0-7.588,0c-.077,0-.156,0-.232,0a.6.6,0,0,1-.571-.591.578.578,0,0,1,.608-.573c1.328-.005,2.655,0,3.983,0Z" transform="translate(-81.742 -160.691)" fill="#121d71" stroke="#fff" stroke-width="0.3"/>
    <path id="Path_18307" data-name="Path 18307" d="M-280.714,1249.636q-1.977,0-3.954,0a.571.571,0,0,1-.592-.38.515.515,0,0,1,.143-.612,1.037,1.037,0,0,1,.388-.172,1.081,1.081,0,0,1,.289-.008h7.472c.087,0,.175,0,.262,0a.588.588,0,0,1,.586.6.564.564,0,0,1-.61.565c-.795.006-1.589,0-2.384,0Z" transform="translate(-81.722 -204.347)" fill="#121d71" stroke="#fff" stroke-width="0.3"/>
    <path id="Path_18308" data-name="Path 18308" d="M-280.7,1105.919h3.779a2.375,2.375,0,0,1,.319.013.56.56,0,0,1,.489.532.56.56,0,0,1-.419.591,1.563,1.563,0,0,1-.374.034q-3.794,0-7.588,0h-.029c-.494,0-.777-.221-.772-.6s.275-.575.756-.576Q-282.615,1105.917-280.7,1105.919Z" transform="translate(-81.735 -72.962)" fill="#121d71" stroke="#fff" stroke-width="0.3"/>
  </g>
</svg>
