<svg xmlns="http://www.w3.org/2000/svg" width="22" height="24" viewBox="0 0 22 24">
  <path id="Path_11645" data-name="Path 11645" d="M-553.233-36h12.7a1.8,1.8,0,0,1,.971.81c1.017,1.511,2.059,3.006,3.071,4.521a1.377,1.377,0,0,1,.215.724q.018,8.344.007,16.687A1.2,1.2,0,0,1-537.558-12q-9.706,0-19.412,0a1.2,1.2,0,0,1-1.291-1.259q0-8.344,0-16.687a1.28,1.28,0,0,1,.319-.859q1.9-2.245,3.786-4.5A1.956,1.956,0,0,1-553.233-36Zm2.3,5.6h-5.913c-.5,0-.6.1-.6.593q0,8.2,0,16.4c0,.5.1.606.61.606h19.146c.507,0,.612-.1.612-.6q0-8.2,0-16.4c0-.491-.1-.6-.6-.6h-5.915v.3q0,3.187,0,6.374a.466.466,0,0,1-.229.477.463.463,0,0,1-.524-.1q-1.353-1-2.71-2c-.068-.05-.14-.1-.214-.146l-.278.2q-1.337.983-2.674,1.966c-.22.161-.445.178-.575.006a.757.757,0,0,1-.134-.428c-.008-2.117-.006-4.233-.006-6.35Zm6.515.016H-550.1v5.972l2.473-1.819c.307-.226.418-.227.721,0l2.273,1.671c.061.045.125.085.212.144Zm6.581-.818c-.037-.067-.049-.094-.066-.119q-1.247-1.828-2.495-3.655a.511.511,0,0,0-.466-.226c-.747,0-1.5,0-2.243,0h-1.952c.029.092.05.165.074.238.4,1.175.8,2.349,1.192,3.527a.287.287,0,0,0,.329.238c1.7-.009,3.4-.005,5.106-.005Zm-18.7-.022a1.171,1.171,0,0,0,.133.02c1.807,0,3.613,0,5.42.005.162,0,.2-.082.236-.2q.572-1.7,1.149-3.4c.044-.129.087-.258.136-.406-1.2,0-2.358-.007-3.519.01a.635.635,0,0,0-.39.223c-.373.416-.726.85-1.086,1.277Zm11.946.013a1,1,0,0,0-.022-.113c-.421-1.242-.846-2.483-1.261-3.726-.046-.137-.122-.153-.245-.152-.763,0-1.527.007-2.29,0-.161,0-.213.06-.259.2-.4,1.2-.812,2.395-1.218,3.592-.021.061-.032.126-.051.2Z" transform="translate(558.264 36)" fill="#131e72"/>
</svg>
