<svg xmlns="http://www.w3.org/2000/svg" width="24.2" height="22.198" viewBox="0 0 24.2 22.198">
  <g id="Group_12569" data-name="Group 12569" transform="translate(641.35 -519.807)">
    <path id="Path_11642" data-name="Path 11642" d="M-641.25,533.62c.031-.086.06-.174.1-.259a1.6,1.6,0,0,1,1.426-1.05c.419-.035.843-.013,1.265-.013a1.7,1.7,0,0,1,1.843,1.237l1.1-.494c-.05-.247-.111-.517-.16-.789a8.44,8.44,0,0,1,.156-3.733.322.322,0,0,0-.093-.347,8.17,8.17,0,0,1-2.267-5.351,1.186,1.186,0,0,1,.7-1.187c1.023-.534,2.036-1.089,3.05-1.641a.571.571,0,0,1,.6-.005q1.551.845,3.109,1.679a1.068,1.068,0,0,1,.629.818c.423-.092.83-.2,1.243-.266a8.551,8.551,0,0,1,4.833.607.467.467,0,0,1,.291.625.462.462,0,0,1-.663.24,7.744,7.744,0,0,0-3.236-.639,7.8,7.8,0,0,0-2.276.388.328.328,0,0,0-.252.307,8.225,8.225,0,0,1-2.609,4.823,6.206,6.206,0,0,1-.719.521,1.059,1.059,0,0,1-1.269.012c-.052-.034-.108-.062-.163-.092a.472.472,0,0,0-.076-.009c-.055.457-.131.914-.161,1.374a7.448,7.448,0,0,0,.245,2.341c.046.179.11.246.31.245,2.359-.009,4.718,0,7.077-.008a1.923,1.923,0,0,1,1.317.458.244.244,0,0,0,.217.022,1.189,1.189,0,0,0,.6-1.223,1.159,1.159,0,0,0-1.023-.98c-.624-.031-1.249-.018-1.874-.019a2.105,2.105,0,0,1-1.883-.985,2.022,2.022,0,0,1-.1-2.136,2.082,2.082,0,0,1,1.829-1.158c.154-.01.31,0,.5,0,0-.375,0-.731,0-1.088a.487.487,0,0,1,.365-.508.461.461,0,0,1,.573.454c.01.366,0,.732,0,1.125.094,0,.176.013.258.013.594,0,1.187,0,1.781,0a.478.478,0,0,1,.533.513.459.459,0,0,1-.494.428c-.445.008-.891,0-1.336,0-.7,0-1.406-.009-2.109,0a1.18,1.18,0,0,0-1.176.977,1.171,1.171,0,0,0,.732,1.319,1.71,1.71,0,0,0,.55.086c.554.011,1.109,0,1.664.005a2.139,2.139,0,0,1,2.108,1.6,2.149,2.149,0,0,1-1.044,2.416.285.285,0,0,0-.123.206,1.682,1.682,0,0,1-1.638,1.753c-1,.025-2,.006-3,.014a1.31,1.31,0,0,0-.455.079.516.516,0,0,0-.35.506.546.546,0,0,0,.38.511,1.152,1.152,0,0,0,.366.058q2.613.008,5.226.008c.1,0,.2,0,.3-.006a1.422,1.422,0,0,0,1.009-.405c.908-.87,1.8-1.766,2.779-2.548a3.354,3.354,0,0,0,1.1-2.188,7.542,7.542,0,0,0-1.282-6.024.489.489,0,0,1-.031-.626.445.445,0,0,1,.545-.143.738.738,0,0,1,.257.228,8.381,8.381,0,0,1,1.555,5.971c-.078.692-.265,1.372-.407,2.079.014,0,.085.022.157.037a1.865,1.865,0,0,1,1.567,1.45.984.984,0,0,0,.04.107v.515a2.189,2.189,0,0,1-.643,1.116c-1.467,1.346-2.942,2.683-4.383,4.056a2.96,2.96,0,0,1-2.151.865c-2.366-.013-4.732-.021-7.1-.057a5.767,5.767,0,0,1-2.5-.516c-.77-.377-1.562-.708-2.345-1.057-.068-.031-.141-.053-.214-.08a1.659,1.659,0,0,1-1.61,1.572c-.484.014-.969.013-1.452,0a1.654,1.654,0,0,1-1.554-1.206.714.714,0,0,0-.048-.1Zm10.319.277v0c-1.234,0-2.469-.007-3.7,0a2.553,2.553,0,0,0-1.815.749.531.531,0,0,0-.144.341c-.01,1.311,0,2.623-.01,3.934a.271.271,0,0,0,.19.3c.928.408,1.858.812,2.774,1.246a3.99,3.99,0,0,0,1.647.4c2.5.044,5,.066,7.5.094a2.158,2.158,0,0,0,1.634-.671c.7-.7,1.45-1.353,2.179-2.026s1.462-1.34,2.184-2.02a.848.848,0,0,0-.27-1.449,1.073,1.073,0,0,0-1.216.215c-.977.9-1.965,1.786-2.922,2.706a2.206,2.206,0,0,1-1.538.631c-.492.013-.984.012-1.476.011-1.43,0-2.859,0-4.289-.011a1.533,1.533,0,0,1-1.527-1.8,1.587,1.587,0,0,1,1.562-1.237c.648-.013,1.3,0,1.945,0,.391,0,.782.009,1.172,0a.739.739,0,0,0,.736-.7.749.749,0,0,0-.72-.7c-.086-.007-.172,0-.258,0Zm.209-10.831c.006-.483.006-.482-.4-.7-.844-.456-1.686-.916-2.535-1.363a.391.391,0,0,0-.314-.01c-.925.487-1.841.99-2.764,1.479a.336.336,0,0,0-.2.351,6.329,6.329,0,0,0,.608,2.576,6.572,6.572,0,0,0,2.089,2.714c.471.335.371.348.819,0A7.142,7.142,0,0,0-630.722,523.067Zm-6.821,13.973q0-1.522,0-3.044a.691.691,0,0,0-.735-.752q-.644-.01-1.289,0a.7.7,0,0,0-.74.752q0,3.032,0,6.065a.689.689,0,0,0,.705.762c.452.02.906.02,1.358,0a.68.68,0,0,0,.7-.762Q-637.542,538.551-637.543,537.04Z" transform="translate(0 0)" fill="#131e72" stroke="#fff" stroke-width="0.2"/>
    <path id="Path_11643" data-name="Path 11643" d="M-341.443,584.652a.422.422,0,0,1,.423-.439.437.437,0,0,1,.438.431.439.439,0,0,1-.419.429A.425.425,0,0,1-341.443,584.652Z" transform="translate(-281.005 -60.276)" fill="#131e72" stroke="#fff" stroke-width="0.2"/>
    <path id="Path_11644" data-name="Path 11644" d="M-545.1,571.83c.409-.383.809-.761,1.212-1.136a.76.76,0,0,1,.238-.176.4.4,0,0,1,.481.136.409.409,0,0,1,.032.481.655.655,0,0,1-.105.134q-.71.731-1.423,1.459a.448.448,0,0,1-.726.016c-.215-.2-.431-.4-.642-.6a.44.44,0,0,1-.049-.646.432.432,0,0,1,.632.01C-545.316,571.626-545.187,571.75-545.1,571.83Z" transform="translate(-89.026 -47.688)" fill="#131e72" stroke="#fff" stroke-width="0.2"/>
  </g>
</svg>
