<svg xmlns="http://www.w3.org/2000/svg" width="24" height="22" viewBox="0 0 24 22">
  <g id="Group_12561" data-name="Group 12561" transform="translate(437.633 -752.844)">
    <path id="Path_11639" data-name="Path 11639" d="M-437.633,763.753a1.354,1.354,0,0,0,.043-.158,3.948,3.948,0,0,1,1.716-2.8,11.992,11.992,0,0,1,1.295-.678l-.081-.093a4.232,4.232,0,0,1-.81-4.571,3.9,3.9,0,0,1,1-1.451.356.356,0,0,1,.506-.017.366.366,0,0,1,0,.513c-.054.067-.119.126-.177.19a3.464,3.464,0,0,0-.9,2.981,3.472,3.472,0,0,0,4.762,2.7.438.438,0,0,0,.311-.4,4.256,4.256,0,0,1,1.65-3,.39.39,0,0,0,.149-.4,3.539,3.539,0,0,0-3.253-3,4.011,4.011,0,0,0-1.447.23.347.347,0,0,1-.472-.224.361.361,0,0,1,.262-.459,3.844,3.844,0,0,1,2.278-.188,4.146,4.146,0,0,1,3.276,3.241c.056.222.125.261.332.185a4.019,4.019,0,0,1,2.8-.007c.271.1.272.1.339-.191a4.171,4.171,0,0,1,6.982-2.132,4.048,4.048,0,0,1,1.055,1.661.361.361,0,0,1-.184.477.349.349,0,0,1-.466-.2c-.051-.1-.091-.2-.134-.3a3.355,3.355,0,0,0-1.154-1.436,3.461,3.461,0,0,0-5.447,2.349.562.562,0,0,0,.131.372,3.987,3.987,0,0,0,.383.347,4.26,4.26,0,0,1,1.275,2.679.385.385,0,0,0,.248.363,3.373,3.373,0,0,0,3.625-.531,3.388,3.388,0,0,0,1.239-2.442c.027-.312.174-.479.394-.458s.335.193.314.517a3.976,3.976,0,0,1-.569,1.839c-.179.293-.393.563-.6.853.038.01.073.022.109.03a4.142,4.142,0,0,1,3.221,4.216c-.036,1.862-.007,3.725-.008,5.588a1.46,1.46,0,0,1-1.624,1.637h-4.192c0,.585,0,1.132,0,1.678a2.193,2.193,0,0,1-.059.517,1.4,1.4,0,0,1-1.459,1.054q-4.673,0-9.347,0c-.055,0-.109,0-.164-.005a1.368,1.368,0,0,1-1.293-1.22c-.052-.574-.027-1.155-.035-1.733,0-.092,0-.184,0-.292h-.31q-1.979,0-3.959,0a1.413,1.413,0,0,1-1.247-.574,4.246,4.246,0,0,1-.3-.608Zm18.425,7.111q2,0,4.006,0c.588,0,.849-.263.85-.85,0-1.918,0-3.836,0-5.755a3.354,3.354,0,0,0-2.585-3.379,1.857,1.857,0,0,0-1.334.106,3.835,3.835,0,0,1-2.852.212c-.075-.022-.15-.046-.226-.061a.272.272,0,0,0-.358.215,4.89,4.89,0,0,1-.8,1.676c-.149.2-.083.36.159.464.265.114.535.217.8.343a.368.368,0,0,1,.213.506.356.356,0,0,1-.523.137,3.592,3.592,0,0,0-1.379-.419,1.228,1.228,0,0,0-.679.111,4.016,4.016,0,0,1-3.74,0,1.271,1.271,0,0,0-.976.006,3.336,3.336,0,0,0-2.455,3.312c-.016,1.942-.006,3.884,0,5.826a.721.721,0,0,0,.814.813h9.3a.719.719,0,0,0,.811-.816q0-2.889,0-5.778a3.438,3.438,0,0,0-.62-2.053,1.2,1.2,0,0,1-.1-.162.353.353,0,0,1,.11-.479.323.323,0,0,1,.462.073,4.784,4.784,0,0,1,.406.637,4.11,4.11,0,0,1,.457,1.967q0,1.534,0,3.068v.286Zm-12.609-.286c0-.983.017-1.966,0-2.948a4.119,4.119,0,0,1,3.01-4.168.51.51,0,0,0,.085-.047,4.376,4.376,0,0,1-1.212-2.378c-.237.071-.456.144-.678.2a4.1,4.1,0,0,1-2.89-.327.984.984,0,0,0-.557-.08,3.326,3.326,0,0,0-2.854,3.336c-.022,1.973-.007,3.946,0,5.92a.677.677,0,0,0,.662.766c1.467.014,2.934.005,4.441.005Zm2.544-10.181a3.524,3.524,0,0,0,3.4,3.5,3.5,3.5,0,0,0,3.555-3.533,3.5,3.5,0,0,0-3.492-3.523A3.511,3.511,0,0,0-429.273,760.4Z" fill="#131e72"/>
  </g>
</svg>
