<svg xmlns="http://www.w3.org/2000/svg" width="24" height="22" viewBox="0 0 24 22">
  <path id="Path_11646" data-name="Path 11646" d="M71.668,897.535a1.918,1.918,0,0,1-.581.829q-1.441,1.375-2.865,2.767a1.48,1.48,0,0,1-1.107.439q-4.041-.013-8.083,0a1.384,1.384,0,0,1-.955-.3,1.744,1.744,0,0,1-1.278.3c-2.585,0-5.17-.018-7.755.008a1.277,1.277,0,0,1-1.377-1.332c.026-2.457.015-4.914.006-7.371a1.351,1.351,0,0,1,.695-1.236c1.25-.811,2.467-1.669,3.706-2.5a6.23,6.23,0,0,1,.753-.371l.05.046v-.265c0-1.658.006-3.316,0-4.974a1.319,1.319,0,0,1,.684-1.2c1.26-.823,2.5-1.679,3.738-2.53a1.4,1.4,0,0,1,.822-.275q3.748,0,7.5,0a1.159,1.159,0,0,1,1.255,1.18q.014,3.64-.006,7.281a3.409,3.409,0,0,1-.21.8h.194c1.093,0,2.187.025,3.28-.009a1.378,1.378,0,0,1,1.54.928Zm-8.6,3.259h4.076c.387,0,.526-.131.526-.5q0-3.742,0-7.484c0-.369-.141-.5-.525-.5q-4.076,0-8.152,0c-.385,0-.524.134-.524.5q0,3.742,0,7.484c0,.375.134.5.523.5Zm-10,0H57.15c.392,0,.518-.121.519-.5q0-3.742,0-7.484c0-.378-.129-.506-.518-.506q-4.076,0-8.153,0c-.386,0-.523.134-.523.5q0,3.742,0,7.484c0,.373.133.5.522.5Zm5.193-9.263H62.32c.431,0,.547-.109.547-.516q0-3.731,0-7.461c0-.383-.122-.5-.513-.505H54.2c-.4,0-.527.122-.527.517q0,3.719,0,7.438c0,.409.119.527.539.527Zm7.8-10.693c-.85.717-1.644,1.385-2.433,2.057a.2.2,0,0,0-.035.153c.016.194.06.387.061.581q.007,3.312,0,6.623v.278c.745-.716,1.436-1.391,2.14-2.052a.776.776,0,0,0,.269-.616c-.007-2.238,0-4.476,0-6.714Zm4.8,9.272c-.094.075-.149.116-.2.159-.676.57-1.346,1.147-2.031,1.706-.193.158-.289.3-.193.547a1.009,1.009,0,0,1,.028.358q0,3.3,0,6.6v.319c.758-.735,1.459-1.42,2.169-2.1a.685.685,0,0,0,.232-.539q-.009-3.4,0-6.8Zm-7.1,1.422h.33c1.006,0,2.012,0,3.019,0,.184,0,.368.056.553.069a.406.406,0,0,0,.259-.054c.558-.459,1.108-.927,1.659-1.393.2-.167.393-.334.641-.546h-.311c-1.069,0-2.14.043-3.205-.015a1.806,1.806,0,0,0-1.635.656C64.7,890.7,64.241,891.075,63.767,891.532Zm-4.058-9.309.02.052h.228c.787,0,1.575,0,2.363,0a1.853,1.853,0,0,1,.528.068.281.281,0,0,0,.307-.07q1.044-.888,2.093-1.771c.047-.039.086-.087.156-.158-.821,0-1.595.033-2.363-.011a1.982,1.982,0,0,0-1.5.495C60.96,881.326,60.323,881.762,59.709,882.223Zm-4.554.034c.1.012.131.018.16.018.959,0,1.918,0,2.877,0a.539.539,0,0,0,.29-.111c.742-.549,1.479-1.1,2.217-1.66.051-.038.1-.084.171-.151-.963,0-1.882,0-2.8,0a.5.5,0,0,0-.254.093c-.512.343-1.019.693-1.527,1.041Zm-5.2,9.262h2.932v-1.892l-.07-.045Z" transform="translate(-47.668 -879.575)" fill="#131e72"/>
</svg>
