<svg xmlns="http://www.w3.org/2000/svg" width="24" height="20.002" viewBox="0 0 24 20.002">
  <g id="Group_31100" data-name="Group 31100" transform="translate(-251.407 -172.024)">
    <path id="Path_18323" data-name="Path 18323" d="M290.135,172.025q4.414,0,8.827,0a2.091,2.091,0,0,1,2.171,1.8,2.7,2.7,0,0,1,.025.443q0,5.723,0,11.447a2.1,2.1,0,0,1-2.231,2.23q-2.253,0-4.505,0a1.222,1.222,0,0,1-.235-.007.416.416,0,0,1,.008-.825,1.371,1.371,0,0,1,.235-.006q2.253,0,4.505,0a1.265,1.265,0,0,0,1.384-1.382q0-5.736,0-11.473a1.271,1.271,0,0,0-1.383-1.386H281.31a1.263,1.263,0,0,0-1.372,1.368q0,4.754,0,9.508a1.9,1.9,0,0,1-.006.262.424.424,0,0,1-.432.376.416.416,0,0,1-.4-.408c-.005-.07,0-.14,0-.21q0-4.728,0-9.456a2.109,2.109,0,0,1,2.287-2.28Z" transform="translate(-25.753)" fill="#131e72"/>
    <path id="Path_18324" data-name="Path 18324" d="M259.374,315.414h7.145c.495,0,.61.117.61.621q0,1.86,0,3.719c0,.458-.129.584-.6.584h-7.159v.865c0,.367,0,.733,0,1.1a.486.486,0,0,1-.224.493.481.481,0,0,1-.535-.081q-3.063-1.963-6.128-3.922c-.265-.169-.531-.336-.794-.508-.383-.249-.385-.566,0-.822q3.175-2.126,6.352-4.25c.21-.141.417-.287.631-.421a.421.421,0,0,1,.7.378C259.378,313.906,259.374,314.639,259.374,315.414Zm-6.778,2.454,5.939,3.8c0-.566,0-1.072,0-1.578,0-.464.125-.588.59-.588h7.149v-3.248h-6.922c-.772,0-.816-.044-.816-.808v-1.55Z" transform="translate(0 -130.825)" fill="#131e72"/>
    <path id="Path_18325" data-name="Path 18325" d="M313.72,203.672a2.1,2.1,0,0,1-1.54-.667q-1.385-1.392-2.777-2.778l-4.592-4.592a1.311,1.311,0,0,1-.193-.212.384.384,0,0,1,.063-.523.388.388,0,0,1,.5-.049,1.2,1.2,0,0,1,.214.191l7.3,7.294a1.283,1.283,0,0,0,2.05,0l7.277-7.277c.3-.3.537-.353.739-.161s.163.445-.15.757q-3.657,3.657-7.313,7.315A2.154,2.154,0,0,1,313.72,203.672Z" transform="translate(-49.418 -21.163)" fill="#131e72"/>
    <path id="Path_18326" data-name="Path 18326" d="M487.69,290.254a2.346,2.346,0,0,1,.369.239q2.281,2.27,4.553,4.549a.425.425,0,1,1-.591.595q-2.277-2.273-4.551-4.55c-.146-.146-.252-.318-.133-.511A1.753,1.753,0,0,1,487.69,290.254Z" transform="translate(-219.368 -109.954)" fill="#131e72"/>
  </g>
</svg>
