<svg id="Group_31099" data-name="Group 31099" xmlns="http://www.w3.org/2000/svg" width="23.998" height="20" viewBox="0 0 23.998 20">
  <path id="Path_18323" data-name="Path 18323" d="M290.123,172.025q-4.413,0-8.827,0a2.091,2.091,0,0,0-2.171,1.8,2.7,2.7,0,0,0-.025.443q0,5.723,0,11.446a2.1,2.1,0,0,0,2.231,2.23q2.252,0,4.5,0a1.222,1.222,0,0,0,.235-.007.416.416,0,0,0-.008-.825,1.37,1.37,0,0,0-.235-.006q-2.253,0-4.505,0a1.265,1.265,0,0,1-1.384-1.382q0-5.736,0-11.472a1.271,1.271,0,0,1,1.383-1.386h17.627a1.263,1.263,0,0,1,1.372,1.368q0,4.754,0,9.507a1.894,1.894,0,0,0,.006.262.424.424,0,0,0,.431.376.416.416,0,0,0,.4-.408c.005-.069,0-.14,0-.209q0-4.728,0-9.455a2.109,2.109,0,0,0-2.287-2.279Z" transform="translate(-279.099 -172.024)" fill="#131e72"/>
  <path id="Path_18324" data-name="Path 18324" d="M259.161,315.414h-7.144c-.495,0-.61.117-.61.621q0,1.859,0,3.719c0,.458.128.584.6.584h7.158v.865c0,.367,0,.733,0,1.1a.486.486,0,0,0,.224.493.481.481,0,0,0,.534-.081q3.062-1.963,6.127-3.921c.264-.169.53-.336.794-.508.383-.249.385-.566,0-.822q-3.175-2.126-6.351-4.25c-.21-.141-.417-.287-.631-.421a.421.421,0,0,0-.7.378C259.157,313.906,259.161,314.639,259.161,315.414Zm6.777,2.454-5.939,3.8c0-.566,0-1.072,0-1.578,0-.464-.125-.588-.59-.588h-7.148v-3.248h6.922c.772,0,.816-.044.816-.808v-1.55Z" transform="translate(-243.13 -302.85)" fill="#131e72"/>
  <path id="Path_18325" data-name="Path 18325" d="M313.713,203.671a2.1,2.1,0,0,0,1.54-.667q1.385-1.392,2.777-2.778l4.591-4.592a1.311,1.311,0,0,0,.193-.212.384.384,0,0,0-.063-.523.388.388,0,0,0-.5-.049,1.2,1.2,0,0,0-.214.191l-7.3,7.294a1.283,1.283,0,0,1-2.05,0l-7.276-7.276c-.3-.3-.537-.353-.739-.161s-.163.445.15.757q3.657,3.657,7.312,7.315A2.154,2.154,0,0,0,313.713,203.671Z" transform="translate(-302.61 -193.188)" fill="#131e72"/>
  <path id="Path_18326" data-name="Path 18326" d="M492.383,290.254a2.348,2.348,0,0,0-.369.239q-2.28,2.27-4.552,4.548a.425.425,0,1,0,.59.595q2.277-2.273,4.551-4.549c.146-.146.252-.318.133-.511A1.751,1.751,0,0,0,492.383,290.254Z" transform="translate(-485.299 -281.979)" fill="#131e72"/>
</svg>
