<svg xmlns="http://www.w3.org/2000/svg" width="24" height="24" viewBox="0 0 24 24">
  <g id="Group_12570" data-name="Group 12570" transform="translate(581.038 -463.655)">
    <g id="Path_11648" data-name="Path 11648" transform="translate(-178.783)" fill="none">
      <path d="M-388.991,463.655h7.442l3.294,3.3v10.749h-10.736Z" stroke="none"/>
      <path d="M -388.1910095214844 464.4549865722656 L -388.1910095214844 476.90625 L -379.0554504394531 476.90625 L -379.0554504394531 467.288330078125 L -381.8814392089844 464.4549865722656 L -388.1910095214844 464.4549865722656 M -388.9909973144531 463.6549987792969 L -381.5494689941406 463.6549987792969 L -378.2554626464844 466.9575500488281 L -378.2554626464844 477.7062683105469 L -388.9909973144531 477.7062683105469 L -388.9909973144531 463.6549987792969 Z" stroke="none" fill="#131e72"/>
    </g>
    <g id="Path_11649" data-name="Path 11649" transform="translate(0 -134.097)" fill="none">
      <path d="M-570.3,621.752h-10.742V607.7h7.445l3.3,3.3Z" stroke="none"/>
      <path d="M -571.0958862304688 620.952392578125 L -571.0958862304688 611.326171875 C -571.566650390625 610.8552856445312 -572.0656127929688 610.3557739257812 -572.5579223632812 609.8629150390625 C -573.0298461914062 609.3904418945312 -573.4956665039062 608.9241333007812 -573.9246826171875 608.4949951171875 L -580.238037109375 608.4949951171875 L -580.238037109375 620.952392578125 L -571.0958862304688 620.952392578125 M -570.2958984375 621.7523803710938 L -581.0380249023438 621.7523803710938 L -581.0380249023438 607.6950073242188 L -573.59326171875 607.6950073242188 C -572.5975952148438 608.690673828125 -571.3563232421875 609.9343872070312 -570.2958984375 610.9948120117188 L -570.2958984375 621.7523803710938 Z" stroke="none" fill="#131e72"/>
    </g>
    <path id="Path_11650" data-name="Path 11650" d="M-568.47,469.515l-1.426,1.418-1.413-1.418h.425c.407,0,.545-.138.546-.542q0-2.472,0-4.944v-.3h9.519v.812h-8.094c-.476,0-.6.119-.6.595q0,1.9,0,3.8c0,.441.129.569.569.57Z" transform="translate(-9.058 -0.073)" fill="#131e72"/>
    <path id="Path_11651" data-name="Path 11651" d="M-395.067,714.777v-.809h8.086c.489,0,.6-.117.6-.613q0-1.889,0-3.779c0-.454-.126-.577-.588-.577h-.371l1.374-1.372,1.373,1.372c-.121,0-.289,0-.457,0-.354,0-.5.15-.5.507q0,2.485,0,4.97v.3Z" transform="translate(-173.126 -227.13)" fill="#131e72"/>
    <line id="Line_790" data-name="Line 790" x2="6" transform="translate(-565.406 468.255)" fill="none" stroke="#131e72" stroke-width="0.8"/>
    <line id="Line_795" data-name="Line 795" x2="6" transform="translate(-578.667 478.155)" fill="none" stroke="#131e72" stroke-width="0.8"/>
    <line id="Line_791" data-name="Line 791" x2="6" transform="translate(-565.406 471.255)" fill="none" stroke="#131e72" stroke-width="0.8"/>
    <line id="Line_794" data-name="Line 794" x2="6" transform="translate(-578.667 481.155)" fill="none" stroke="#131e72" stroke-width="0.8"/>
    <line id="Line_792" data-name="Line 792" x2="6" transform="translate(-565.406 474.255)" fill="none" stroke="#131e72" stroke-width="0.8"/>
    <line id="Line_793" data-name="Line 793" x2="6" transform="translate(-578.667 484.155)" fill="none" stroke="#131e72" stroke-width="0.8"/>
  </g>
</svg>
