<svg xmlns="http://www.w3.org/2000/svg" width="14" height="14" viewBox="0 0 14 14">
  <g id="Group_12604" data-name="Group 12604" transform="translate(402.748 473.686)">
    <path id="Path_11665" data-name="Path 11665" d="M-393.451-459.686c-.31-.045-.624-.072-.93-.138a4.56,4.56,0,0,1-3.445-3.615c-.053-.317-.055-.643-.08-.965,0-.039,0-.079,0-.127a4.563,4.563,0,0,1-3.81-1.694,4.38,4.38,0,0,1-1.023-3.134,4.569,4.569,0,0,1,4.558-4.326,4.585,4.585,0,0,1,4.595,4.854,5.7,5.7,0,0,1,.637,0A4.485,4.485,0,0,1-389-465.741a7.227,7.227,0,0,1,.227,1.023c.008.035.016.07.024.105v.684c-.027.17-.051.341-.082.511a4.479,4.479,0,0,1-.5,1.38.2.2,0,0,1-.327.082c-.111-.094-.079-.2-.019-.306a4.108,4.108,0,0,0,.486-2.534,4.178,4.178,0,0,0-4.994-3.557,4.171,4.171,0,0,0-3.264,4.706,4.178,4.178,0,0,0,5.188,3.4,4.151,4.151,0,0,0,1.834-1.038c.08-.077.16-.141.277-.083.146.073.159.232.026.361a4.415,4.415,0,0,1-2.124,1.176c-.313.072-.637.1-.957.142Zm-4.274-5.9c-.028,0-.05,0-.071,0a3.639,3.639,0,0,1-1.168-.069,3.567,3.567,0,0,1-2.749-3.292,3.627,3.627,0,0,1,.9-2.514.9.9,0,0,1,.132-.138.19.19,0,0,1,.262.008.185.185,0,0,1,.026.259,1.334,1.334,0,0,1-.111.138,3.1,3.1,0,0,0-.734,2.7,3.13,3.13,0,0,0,3.588,2.477.213.213,0,0,0,.136-.106,4.631,4.631,0,0,1,2.335-2.336.227.227,0,0,0,.113-.146,3.08,3.08,0,0,0-.363-2.045,3.134,3.134,0,0,0-4.119-1.271c-.183.089-.285.071-.349-.061s-.014-.219.172-.309a3.575,3.575,0,0,1,1.95-.344,3.553,3.553,0,0,1,3.157,3.4c0,.189,0,.379,0,.569l.6-.135a4.136,4.136,0,0,0-2.24-4.007,4.163,4.163,0,0,0-4.933.838,4.147,4.147,0,0,0-.578,4.959,4.116,4.116,0,0,0,3.907,2.048Z" transform="translate(0 0)" fill="#131e72"/>
    <path id="Path_11666" data-name="Path 11666" d="M-154.255-445.742c.1.11.174.192.246.28a.2.2,0,0,1-.007.293.2.2,0,0,1-.293-.019q-.326-.35-.639-.712a.2.2,0,0,1,.054-.326c.272-.166.548-.326.824-.484a.191.191,0,0,1,.279.078.188.188,0,0,1-.071.271c-.1.067-.209.126-.336.2.147.034.272.059.4.091a3.294,3.294,0,0,1,2.444,3.14.3.3,0,0,1-.1.215.216.216,0,0,1-.209-.007.338.338,0,0,1-.094-.223,2.864,2.864,0,0,0-1.287-2.338A2.787,2.787,0,0,0-154.255-445.742Z" transform="translate(-238.706 -25.962)" fill="#131e72"/>
    <path id="Path_11667" data-name="Path 11667" d="M-364.028-224.756c-.228-.063-.445-.11-.653-.184A3.3,3.3,0,0,1-366.864-228c0-.1.014-.195.118-.22a.268.268,0,0,1,.212.029.332.332,0,0,1,.078.218,2.793,2.793,0,0,0,.32,1.246,2.871,2.871,0,0,0,2.1,1.539.421.421,0,0,0,.058,0c-.033-.041-.056-.071-.081-.1-.039-.045-.081-.087-.118-.133a.289.289,0,0,1-.026-.329.274.274,0,0,1,.333.059c.2.216.392.432.584.652a.208.208,0,0,1-.054.354c-.264.161-.532.316-.8.469a.2.2,0,0,1-.29-.079.189.189,0,0,1,.09-.276C-364.238-224.635-364.136-224.692-364.028-224.756Z" transform="translate(-34.576 -236.5)" fill="#131e72"/>
    <path id="Path_11668" data-name="Path 11668" d="M-241.655-309.333a3.543,3.543,0,0,1,3.548-3.543,3.543,3.543,0,0,1,3.545,3.546,3.549,3.549,0,0,1-3.548,3.546A3.549,3.549,0,0,1-241.655-309.333Zm.41,0a3.139,3.139,0,0,0,3.139,3.138,3.139,3.139,0,0,0,3.134-3.13,3.132,3.132,0,0,0-3.132-3.142A3.132,3.132,0,0,0-241.245-309.332Z" transform="translate(-155.22 -154.942)" fill="#131e72"/>
    <path id="Path_11669" data-name="Path 11669" d="M-313.962-398.258c-.053-.144-.106-.264-.142-.39a.894.894,0,0,1,.749-1.222,1.16,1.16,0,0,1,1.219.459.945.945,0,0,1,.138.279.184.184,0,0,1-.136.244.186.186,0,0,1-.245-.116.79.79,0,0,0-1.045-.425.44.44,0,0,0-.309.561,3.118,3.118,0,0,0,.226.537.173.173,0,0,0,.129.068c.154.008.31,0,.464,0s.235.077.232.207-.084.2-.239.2-.289,0-.455,0a1.316,1.316,0,0,1-.325,1.106h.562c.31,0,.62,0,.929.01a.306.306,0,0,1,.208.067.305.305,0,0,1,.037.224c-.019.1-.113.117-.206.117l-1.64-.011h-.178c-.12,0-.248,0-.308-.126s.027-.215.1-.306c.1-.134.206-.267.3-.408a.889.889,0,0,0,.131-.562c-.006-.079-.03-.115-.114-.111-.123.005-.246,0-.369,0a.193.193,0,0,1-.212-.213c0-.124.074-.188.214-.2.045,0,.091,0,.137,0Z" transform="translate(-85.064 -71.098)" fill="#131e72"/>
    <path id="Path_11670" data-name="Path 11670" d="M-191.058-263.244h.694c.05,0,.1,0,.15,0a.2.2,0,0,1,.2.218.2.2,0,0,1-.209.189c-.228,0-.456,0-.683,0h-.147a1.243,1.243,0,0,0,1.013,1.214.922.922,0,0,0,.536-.126.2.2,0,0,1,.287.063.211.211,0,0,1-.087.293.809.809,0,0,1-.072.039,1.326,1.326,0,0,1-1.632-.348,1.987,1.987,0,0,1-.475-1.122c-.137-.016-.256-.066-.249-.226.006-.144.115-.195.249-.2a2,2,0,0,1,.293-.879,1.409,1.409,0,0,1,1.314-.733,1.268,1.268,0,0,1,.725.285.208.208,0,0,1,.053.3.2.2,0,0,1-.292.029.959.959,0,0,0-1.456.336A1.366,1.366,0,0,0-191.058-263.244Z" transform="translate(-203.32 -201.202)" fill="#131e72"/>
  </g>
</svg>
