<svg xmlns="http://www.w3.org/2000/svg" width="16" height="16" viewBox="0 0 16 16">
  <g id="Group_31223" data-name="Group 31223" transform="translate(12267 11274)">
    <g id="Group_31221" data-name="Group 31221" transform="translate(-12283 -11402)">
      <g id="Rectangle_4519" data-name="Rectangle 4519" transform="translate(16 128)" fill="#fff" stroke="#c9c9c9" stroke-width="1">
        <rect width="16" height="16" rx="2" stroke="none"/>
        <rect x="0.5" y="0.5" width="15" height="15" rx="1.5" fill="none"/>
      </g>
    </g>
    <path id="Path_18408" data-name="Path 18408" d="M1000.866,490.2a.677.677,0,0,0-.07-.132q-1.591-1.846-3.185-3.69a1.088,1.088,0,0,1-.183-1.164.951.951,0,0,1,.9-.594.969.969,0,0,1,.7.371q.886,1.032,1.776,2.059l.175.2c.088-.087.169-.167.25-.248q1.412-1.427,2.823-2.854c.554-.559,1.106-1.118,1.665-1.67a.922.922,0,0,1,1.535.348,1.1,1.1,0,0,1-.255,1.188q-1.167,1.183-2.337,2.363-1.838,1.854-3.678,3.706C1000.962,490.118,1000.933,490.143,1000.866,490.2Z" transform="translate(-13261.336 -11752.205)" fill="#66656d"/>
  </g>
</svg>
