  <svg xmlns="http://www.w3.org/2000/svg" width="98" height="26.459" viewBox="0 0 98 26.459">
  <g id="Group_2405" data-name="Group 2405" transform="translate(-14 -10.041)">
    <g id="Group_2381" data-name="Group 2381" transform="translate(2.914 1.63)">
      <g id="Group_2380" data-name="Group 2380" transform="translate(11.086 8.411)">
        <path id="Path_788" data-name="Path 788" d="M-819.07,894.6q2.014,0,4.029,0c.733,0,.844.114.848.846,0,.384.009.767,0,1.151-.015.505-.16.662-.669.677-.634.019-1.269.007-1.9.008-1.417,0-2.834-.021-4.25.019a2.791,2.791,0,0,0-1.2.335,1.159,1.159,0,0,0-.458.71c-.03.125.219.362.39.477.115.077.315.033.477.034h6.685c.786,0,.936.15.932.922,0,.3,0,.59,0,.885,0,.685-.2.886-.9.887q-2.081,0-4.161,0-1.306,0-2.612,0c-.345,0-.834-.005-.823.377a1.491,1.491,0,0,0,.608.989,1.957,1.957,0,0,0,1.064.191c1.948.016,3.9.007,5.844.006.819,0,.986.168.98.983,0,.354,0,.708,0,1.062,0,.571-.224.8-.8.814-.472.011-.944,0-1.417,0-1.667,0-3.335.011-5-.005-.647-.006-1.3-.053-1.939-.124a2.518,2.518,0,0,1-1.984-1.009,4.107,4.107,0,0,1-.685-1.862c-.091-1.81-.049-3.629-.026-5.443a3.031,3.031,0,0,1,.736-1.99,2.9,2.9,0,0,1,2.259-.93c1.328-.015,2.656,0,3.984,0Z" transform="translate(911.806 -891.181)" fill="#fff"/>
        <path id="Path_789" data-name="Path 789" d="M-1784.809,856q2.62,0,5.239,0c.954,0,1.1.149,1.1,1.1,0,.5.012,1,0,1.5-.02.657-.208.86-.87.88-.824.025-1.65.009-2.475.01-1.842,0-3.685-.028-5.527.024a3.632,3.632,0,0,0-1.561.435,1.507,1.507,0,0,0-.6.923c-.04.163.284.471.506.62.15.1.41.044.62.044q4.347,0,8.693,0c1.022,0,1.217.195,1.211,1.2,0,.384,0,.768,0,1.151.005.891-.254,1.152-1.169,1.154q-2.706,0-5.412,0-1.7,0-3.4,0c-.448,0-1.084-.007-1.071.49a1.94,1.94,0,0,0,.791,1.286,2.545,2.545,0,0,0,1.385.249c2.533.021,5.066.009,7.6.008,1.064,0,1.282.219,1.274,1.278,0,.461,0,.921,0,1.382,0,.742-.291,1.04-1.046,1.058-.614.015-1.228,0-1.842,0-2.168,0-4.337.015-6.505-.007-.842-.008-1.686-.069-2.522-.161a3.275,3.275,0,0,1-2.58-1.312,5.339,5.339,0,0,1-.891-2.421c-.118-2.354-.063-4.719-.033-7.079a3.94,3.94,0,0,1,.958-2.588,3.765,3.765,0,0,1,2.938-1.209c1.727-.02,3.454-.005,5.181-.005Z" transform="translate(1793.926 -856)" fill="#f90"/>
        <path id="Path_790" data-name="Path 790" d="M-1160.657,894.7c1.033,0,2.066-.022,3.1.007a2.58,2.58,0,0,1,1.929.843,3.529,3.529,0,0,1,.642,1.226,3.991,3.991,0,0,1,.112,1.183c.006,1.711,0,3.422-.009,5.134a2.829,2.829,0,0,1-.616,1.848,2.528,2.528,0,0,1-1.917.974c-2.207.043-4.417.063-6.623-.015a2.6,2.6,0,0,1-2.334-1.647,1.307,1.307,0,0,1-.136-.507c-.021-2.182-.063-4.364-.03-6.545a2.535,2.535,0,0,1,2.523-2.469c1.114-.087,2.24-.018,3.361-.018Zm2.543,5.55c0-.575.024-1.152-.007-1.726a1.062,1.062,0,0,0-.979-1.072,30.008,30.008,0,0,0-3.089-.02,1.237,1.237,0,0,0-1.146,1.208c-.033,1.1-.039,2.213,0,3.318a1.16,1.16,0,0,0,1.182,1.187c.956.049,1.918.056,2.874.016a1.1,1.1,0,0,0,1.159-1.185C-1158.087,901.4-1158.114,900.823-1158.115,900.248Z" transform="translate(1222.122 -891.259)" fill="#fff"/>
        <path id="Path_792" data-name="Path 792" d="M-965.4,894.548c1,0,2.012-.058,3.009.022a3.418,3.418,0,0,1,1.655.519,2.888,2.888,0,0,1,.95,1.37,6.582,6.582,0,0,1,.21,1.837c.022.53-.159.684-.69.69-.62.007-1.24.012-1.859,0-.565-.014-.663-.11-.758-.651-.117-.667-.417-1.013-1.1-1.052a25.006,25.006,0,0,0-2.828-.012,1.362,1.362,0,0,0-1.3,1.42c-.017.988-.016,1.978,0,2.966A1.273,1.273,0,0,0-966.879,903a29.616,29.616,0,0,0,3-.014c.639-.035.9-.36.987-.986.077-.544.252-.707.817-.718s1.151,0,1.726,0c.551,0,.824.274.786.818a14.622,14.622,0,0,1-.169,1.583,2.4,2.4,0,0,1-1.818,1.956,5.573,5.573,0,0,1-1.569.232c-1.915-.008-3.836.008-5.744-.129a2.653,2.653,0,0,1-2.462-2.753c0-1.9-.027-3.807.012-5.71a2.6,2.6,0,0,1,2.593-2.7c1.1-.094,2.211-.018,3.318-.018Z" transform="translate(1044.19 -891.115)" fill="#fff"/>
        <path id="Path_793" data-name="Path 793" d="M-1448.122,901.24q0,1.86,0,3.719c0,.667-.16.837-.833.85-.546.011-1.092,0-1.638,0-.568,0-.776-.2-.779-.769-.008-1.3,0-2.6,0-3.9,0-.8.026-1.595-.007-2.391-.051-1.236-.6-1.623-1.592-1.626-.664,0-1.328-.013-1.992,0-1.16.016-1.673.465-1.669,1.663.006,2.007,0,4.015,0,6.022,0,.8-.194,1-.983,1-.517,0-1.033.008-1.55,0-.559-.011-.8-.262-.8-.824,0-2.435-.019-4.871.014-7.306a3.768,3.768,0,0,1,.582-2.1,2.447,2.447,0,0,1,2.029-1.093c2.2-.062,4.4-.117,6.594.007,1.719.1,2.492,1.124,2.613,2.936.084,1.264.016,2.538.016,3.807Z" transform="translate(1489.559 -891.019)" fill="#fff"/>
        <path id="Path_794" data-name="Path 794" d="M-1310.438,894.611c.369,0,.738,0,1.106,0a.486.486,0,0,1,.528.427c.311,1.407.613,2.817.954,4.217.242,1,.518,1.989.829,2.968a1.436,1.436,0,0,0,.542.666c.227.159.473.064.7-.158a3.552,3.552,0,0,0,.752-1.815c.4-1.536.7-3.1,1.053-4.648.094-.415.214-.825.323-1.236a.556.556,0,0,1,.627-.435c.649.01,1.3,0,1.948.006.619.009.755.2.6.8-.143.54-.266,1.084-.408,1.624-.222.839-.459,1.673-.676,2.513-.2.755-.4,1.508-.552,2.273a6.585,6.585,0,0,1-1.7,3.283,2.62,2.62,0,0,1-2,.873,2.645,2.645,0,0,0-.31,0,3.331,3.331,0,0,1-3.174-1.7,8.945,8.945,0,0,1-1.324-3.331c-.231-.943-.483-1.881-.711-2.824s-.451-1.861-.638-2.8c-.119-.593.013-.718.607-.723.31,0,.62,0,.93,0Z" transform="translate(1354.699 -891.178)" fill="#fff"/>
        <path id="Path_796" data-name="Path 796" d="M-1509.289,900.22c0-1.609,0-3.218,0-4.826,0-.674.133-.8.807-.8.561,0,1.122,0,1.683,0,.708,0,.831.119.826.822-.023,3.069-.077,6.138-.071,9.206,0,1.247-.168,1.394-1.348,1.347-.339-.014-.679,0-1.018,0-.654,0-.88-.228-.88-.875Q-1509.29,902.655-1509.289,900.22Z" transform="translate(1534.502 -891.172)" fill="#fff"/>
        <path id="Path_797" data-name="Path 797" d="M-1021.131,900.235q0-2.368,0-4.737c0-.845.046-.889.908-.892q.775,0,1.549,0c.681,0,.757.073.759.771q.007,2.236,0,4.471-.01,2.678-.035,5.356c0,.617-.149.767-.747.772-.561,0-1.122.011-1.682,0-.6-.015-.753-.181-.754-.781Q-1021.134,902.714-1021.131,900.235Z" transform="translate(1089.581 -891.186)" fill="#fff"/>
        <path id="Path_798" data-name="Path 798" d="M-1600.4,942.639c.974,0,1.948-.008,2.922,0,.606.007.714.134.715.746,0,.413.007.827,0,1.24-.009.5-.164.692-.656.695q-3.011.02-6.022,0a.659.659,0,0,1-.685-.707c-.009-.384,0-.767,0-1.151,0-.649.181-.831.847-.832q1.439,0,2.878,0Z" transform="translate(1620.941 -934.962)" fill="#fff"/>
      </g>
    </g>
    <text id="Chuyên_gia_hóa_đơn_điện_tử" data-name="Chuyên gia hóa đơn điện tử" transform="translate(14 26.5)" fill="#fff" font-size="8" font-family="Roboto-Regular, Roboto" opacity="0.97"><tspan x="0" y="8">Chuyên gia hóa đơn điện tử</tspan></text>
  </g>
</svg>
